G04 #@! TF.FileFunction,Legend,Top*
%FSLAX46Y46*%
G04 Gerber Fmt 4.6, Leading zero omitted, Abs format (unit mm)*
G04 Created by KiCad (PCBNEW 4.0.6) date 08/12/17 18:43:04*
%MOMM*%
%LPD*%
G01*
G04 APERTURE LIST*
%ADD10C,0.100000*%
%ADD11C,0.200000*%
%ADD12C,0.300000*%
%ADD13C,0.152000*%
%ADD14C,0.150000*%
%ADD15C,0.120000*%
%ADD16C,0.152400*%
%ADD17R,1.650000X1.400000*%
%ADD18R,1.150000X1.200000*%
%ADD19R,1.200000X1.150000*%
%ADD20R,1.600000X2.000000*%
%ADD21O,1.600000X2.000000*%
%ADD22R,1.000000X1.100000*%
%ADD23C,1.100000*%
%ADD24R,2.400000X0.800000*%
%ADD25R,0.950000X1.100000*%
%ADD26R,1.100000X0.950000*%
%ADD27R,1.800000X1.800000*%
%ADD28C,1.800000*%
%ADD29C,1.720000*%
%ADD30C,3.400000*%
%ADD31C,1.700000*%
%ADD32O,1.400000X1.700000*%
G04 APERTURE END LIST*
D10*
D11*
X52659523Y-22202381D02*
X52659523Y-21202381D01*
X53088095Y-22202381D02*
X53088095Y-21678571D01*
X53040476Y-21583333D01*
X52945238Y-21535714D01*
X52802380Y-21535714D01*
X52707142Y-21583333D01*
X52659523Y-21630952D01*
X53421428Y-21535714D02*
X53802380Y-21535714D01*
X53564285Y-21202381D02*
X53564285Y-22059524D01*
X53611904Y-22154762D01*
X53707142Y-22202381D01*
X53802380Y-22202381D01*
X53992857Y-21535714D02*
X54373809Y-21535714D01*
X54135714Y-21202381D02*
X54135714Y-22059524D01*
X54183333Y-22154762D01*
X54278571Y-22202381D01*
X54373809Y-22202381D01*
X54707143Y-21535714D02*
X54707143Y-22535714D01*
X54707143Y-21583333D02*
X54802381Y-21535714D01*
X54992858Y-21535714D01*
X55088096Y-21583333D01*
X55135715Y-21630952D01*
X55183334Y-21726190D01*
X55183334Y-22011905D01*
X55135715Y-22107143D01*
X55088096Y-22154762D01*
X54992858Y-22202381D01*
X54802381Y-22202381D01*
X54707143Y-22154762D01*
X55611905Y-22107143D02*
X55659524Y-22154762D01*
X55611905Y-22202381D01*
X55564286Y-22154762D01*
X55611905Y-22107143D01*
X55611905Y-22202381D01*
X55611905Y-21583333D02*
X55659524Y-21630952D01*
X55611905Y-21678571D01*
X55564286Y-21630952D01*
X55611905Y-21583333D01*
X55611905Y-21678571D01*
X56802381Y-21154762D02*
X55945238Y-22440476D01*
X57850000Y-21154762D02*
X56992857Y-22440476D01*
X58183333Y-21535714D02*
X58183333Y-22202381D01*
X58183333Y-21630952D02*
X58230952Y-21583333D01*
X58326190Y-21535714D01*
X58469048Y-21535714D01*
X58564286Y-21583333D01*
X58611905Y-21678571D01*
X58611905Y-22202381D01*
X59088095Y-22202381D02*
X59088095Y-21535714D01*
X59088095Y-21202381D02*
X59040476Y-21250000D01*
X59088095Y-21297619D01*
X59135714Y-21250000D01*
X59088095Y-21202381D01*
X59088095Y-21297619D01*
X59992857Y-22154762D02*
X59897619Y-22202381D01*
X59707142Y-22202381D01*
X59611904Y-22154762D01*
X59564285Y-22107143D01*
X59516666Y-22011905D01*
X59516666Y-21726190D01*
X59564285Y-21630952D01*
X59611904Y-21583333D01*
X59707142Y-21535714D01*
X59897619Y-21535714D01*
X59992857Y-21583333D01*
X60802381Y-22154762D02*
X60707143Y-22202381D01*
X60516666Y-22202381D01*
X60421428Y-22154762D01*
X60373809Y-22059524D01*
X60373809Y-21678571D01*
X60421428Y-21583333D01*
X60516666Y-21535714D01*
X60707143Y-21535714D01*
X60802381Y-21583333D01*
X60850000Y-21678571D01*
X60850000Y-21773810D01*
X60373809Y-21869048D01*
X61707143Y-22154762D02*
X61611905Y-22202381D01*
X61421428Y-22202381D01*
X61326190Y-22154762D01*
X61278571Y-22107143D01*
X61230952Y-22011905D01*
X61230952Y-21726190D01*
X61278571Y-21630952D01*
X61326190Y-21583333D01*
X61421428Y-21535714D01*
X61611905Y-21535714D01*
X61707143Y-21583333D01*
X62135714Y-22202381D02*
X62135714Y-21535714D01*
X62135714Y-21202381D02*
X62088095Y-21250000D01*
X62135714Y-21297619D01*
X62183333Y-21250000D01*
X62135714Y-21202381D01*
X62135714Y-21297619D01*
X62611904Y-22202381D02*
X62611904Y-21535714D01*
X62611904Y-21726190D02*
X62659523Y-21630952D01*
X62707142Y-21583333D01*
X62802380Y-21535714D01*
X62897619Y-21535714D01*
X63659524Y-22154762D02*
X63564286Y-22202381D01*
X63373809Y-22202381D01*
X63278571Y-22154762D01*
X63230952Y-22107143D01*
X63183333Y-22011905D01*
X63183333Y-21726190D01*
X63230952Y-21630952D01*
X63278571Y-21583333D01*
X63373809Y-21535714D01*
X63564286Y-21535714D01*
X63659524Y-21583333D01*
X64516667Y-21535714D02*
X64516667Y-22202381D01*
X64088095Y-21535714D02*
X64088095Y-22059524D01*
X64135714Y-22154762D01*
X64230952Y-22202381D01*
X64373810Y-22202381D01*
X64469048Y-22154762D01*
X64516667Y-22107143D01*
X64992857Y-22202381D02*
X64992857Y-21535714D01*
X64992857Y-21202381D02*
X64945238Y-21250000D01*
X64992857Y-21297619D01*
X65040476Y-21250000D01*
X64992857Y-21202381D01*
X64992857Y-21297619D01*
X65326190Y-21535714D02*
X65707142Y-21535714D01*
X65469047Y-21202381D02*
X65469047Y-22059524D01*
X65516666Y-22154762D01*
X65611904Y-22202381D01*
X65707142Y-22202381D01*
X65992857Y-22154762D02*
X66088095Y-22202381D01*
X66278571Y-22202381D01*
X66373810Y-22154762D01*
X66421429Y-22059524D01*
X66421429Y-22011905D01*
X66373810Y-21916667D01*
X66278571Y-21869048D01*
X66135714Y-21869048D01*
X66040476Y-21821429D01*
X65992857Y-21726190D01*
X65992857Y-21678571D01*
X66040476Y-21583333D01*
X66135714Y-21535714D01*
X66278571Y-21535714D01*
X66373810Y-21583333D01*
X66850000Y-22107143D02*
X66897619Y-22154762D01*
X66850000Y-22202381D01*
X66802381Y-22154762D01*
X66850000Y-22107143D01*
X66850000Y-22202381D01*
X67754762Y-22154762D02*
X67659524Y-22202381D01*
X67469047Y-22202381D01*
X67373809Y-22154762D01*
X67326190Y-22107143D01*
X67278571Y-22011905D01*
X67278571Y-21726190D01*
X67326190Y-21630952D01*
X67373809Y-21583333D01*
X67469047Y-21535714D01*
X67659524Y-21535714D01*
X67754762Y-21583333D01*
X68326190Y-22202381D02*
X68230952Y-22154762D01*
X68183333Y-22107143D01*
X68135714Y-22011905D01*
X68135714Y-21726190D01*
X68183333Y-21630952D01*
X68230952Y-21583333D01*
X68326190Y-21535714D01*
X68469048Y-21535714D01*
X68564286Y-21583333D01*
X68611905Y-21630952D01*
X68659524Y-21726190D01*
X68659524Y-22011905D01*
X68611905Y-22107143D01*
X68564286Y-22154762D01*
X68469048Y-22202381D01*
X68326190Y-22202381D01*
X69088095Y-22202381D02*
X69088095Y-21535714D01*
X69088095Y-21630952D02*
X69135714Y-21583333D01*
X69230952Y-21535714D01*
X69373810Y-21535714D01*
X69469048Y-21583333D01*
X69516667Y-21678571D01*
X69516667Y-22202381D01*
X69516667Y-21678571D02*
X69564286Y-21583333D01*
X69659524Y-21535714D01*
X69802381Y-21535714D01*
X69897619Y-21583333D01*
X69945238Y-21678571D01*
X69945238Y-22202381D01*
X71135714Y-21154762D02*
X70278571Y-22440476D01*
X71897619Y-21535714D02*
X71897619Y-22202381D01*
X71469047Y-21535714D02*
X71469047Y-22059524D01*
X71516666Y-22154762D01*
X71611904Y-22202381D01*
X71754762Y-22202381D01*
X71850000Y-22154762D01*
X71897619Y-22107143D01*
X72802381Y-22202381D02*
X72802381Y-21678571D01*
X72754762Y-21583333D01*
X72659524Y-21535714D01*
X72469047Y-21535714D01*
X72373809Y-21583333D01*
X72802381Y-22154762D02*
X72707143Y-22202381D01*
X72469047Y-22202381D01*
X72373809Y-22154762D01*
X72326190Y-22059524D01*
X72326190Y-21964286D01*
X72373809Y-21869048D01*
X72469047Y-21821429D01*
X72707143Y-21821429D01*
X72802381Y-21773810D01*
X73278571Y-22202381D02*
X73278571Y-21535714D01*
X73278571Y-21726190D02*
X73326190Y-21630952D01*
X73373809Y-21583333D01*
X73469047Y-21535714D01*
X73564286Y-21535714D01*
X73754762Y-21535714D02*
X74135714Y-21535714D01*
X73897619Y-21202381D02*
X73897619Y-22059524D01*
X73945238Y-22154762D01*
X74040476Y-22202381D01*
X74135714Y-22202381D01*
X75183334Y-21154762D02*
X74326191Y-22440476D01*
X112911905Y-21102381D02*
X112911905Y-20102381D01*
X113483334Y-21102381D01*
X113483334Y-20102381D01*
X114150000Y-20102381D02*
X114340477Y-20102381D01*
X114435715Y-20150000D01*
X114530953Y-20245238D01*
X114578572Y-20435714D01*
X114578572Y-20769048D01*
X114530953Y-20959524D01*
X114435715Y-21054762D01*
X114340477Y-21102381D01*
X114150000Y-21102381D01*
X114054762Y-21054762D01*
X113959524Y-20959524D01*
X113911905Y-20769048D01*
X113911905Y-20435714D01*
X113959524Y-20245238D01*
X114054762Y-20150000D01*
X114150000Y-20102381D01*
X115007143Y-21102381D02*
X115007143Y-20102381D01*
X115388096Y-20102381D01*
X115483334Y-20150000D01*
X115530953Y-20197619D01*
X115578572Y-20292857D01*
X115578572Y-20435714D01*
X115530953Y-20530952D01*
X115483334Y-20578571D01*
X115388096Y-20626190D01*
X115007143Y-20626190D01*
X116197619Y-20102381D02*
X116292858Y-20102381D01*
X116388096Y-20150000D01*
X116435715Y-20197619D01*
X116483334Y-20292857D01*
X116530953Y-20483333D01*
X116530953Y-20721429D01*
X116483334Y-20911905D01*
X116435715Y-21007143D01*
X116388096Y-21054762D01*
X116292858Y-21102381D01*
X116197619Y-21102381D01*
X116102381Y-21054762D01*
X116054762Y-21007143D01*
X116007143Y-20911905D01*
X115959524Y-20721429D01*
X115959524Y-20483333D01*
X116007143Y-20292857D01*
X116054762Y-20197619D01*
X116102381Y-20150000D01*
X116197619Y-20102381D01*
X117388096Y-20435714D02*
X117388096Y-21102381D01*
X117150000Y-20054762D02*
X116911905Y-20769048D01*
X117530953Y-20769048D01*
X118435715Y-21102381D02*
X117864286Y-21102381D01*
X118150000Y-21102381D02*
X118150000Y-20102381D01*
X118054762Y-20245238D01*
X117959524Y-20340476D01*
X117864286Y-20388095D01*
D12*
X40935715Y-21428571D02*
X40935715Y-22428571D01*
X40935715Y-21571429D02*
X41007143Y-21500000D01*
X41150001Y-21428571D01*
X41364286Y-21428571D01*
X41507143Y-21500000D01*
X41578572Y-21642857D01*
X41578572Y-22428571D01*
X42292858Y-22428571D02*
X42292858Y-21428571D01*
X42292858Y-20928571D02*
X42221429Y-21000000D01*
X42292858Y-21071429D01*
X42364286Y-21000000D01*
X42292858Y-20928571D01*
X42292858Y-21071429D01*
X43650001Y-22357143D02*
X43507144Y-22428571D01*
X43221430Y-22428571D01*
X43078572Y-22357143D01*
X43007144Y-22285714D01*
X42935715Y-22142857D01*
X42935715Y-21714286D01*
X43007144Y-21571429D01*
X43078572Y-21500000D01*
X43221430Y-21428571D01*
X43507144Y-21428571D01*
X43650001Y-21500000D01*
X44864286Y-22357143D02*
X44721429Y-22428571D01*
X44435715Y-22428571D01*
X44292858Y-22357143D01*
X44221429Y-22214286D01*
X44221429Y-21642857D01*
X44292858Y-21500000D01*
X44435715Y-21428571D01*
X44721429Y-21428571D01*
X44864286Y-21500000D01*
X44935715Y-21642857D01*
X44935715Y-21785714D01*
X44221429Y-21928571D01*
X45578572Y-20928571D02*
X45578572Y-22142857D01*
X45650000Y-22285714D01*
X45721429Y-22357143D01*
X45864286Y-22428571D01*
X46150000Y-22428571D01*
X46292858Y-22357143D01*
X46364286Y-22285714D01*
X46435715Y-22142857D01*
X46435715Y-20928571D01*
X47078572Y-22000000D02*
X47792858Y-22000000D01*
X46935715Y-22428571D02*
X47435715Y-20928571D01*
X47935715Y-22428571D01*
X49292858Y-22428571D02*
X48792858Y-21714286D01*
X48435715Y-22428571D02*
X48435715Y-20928571D01*
X49007143Y-20928571D01*
X49150001Y-21000000D01*
X49221429Y-21071429D01*
X49292858Y-21214286D01*
X49292858Y-21428571D01*
X49221429Y-21571429D01*
X49150001Y-21642857D01*
X49007143Y-21714286D01*
X48435715Y-21714286D01*
X49721429Y-20928571D02*
X50578572Y-20928571D01*
X50150001Y-22428571D02*
X50150001Y-20928571D01*
D13*
X70776346Y-31094975D02*
X69644975Y-32226346D01*
X69644975Y-32226346D02*
X67523654Y-30105025D01*
X67523654Y-30105025D02*
X68655025Y-28973654D01*
X68655025Y-28973654D02*
X70776346Y-31094975D01*
X43981728Y-36850000D02*
G75*
G03X43981728Y-36850000I-900000J0D01*
G01*
X34950000Y-27083441D02*
X44716559Y-36850000D01*
X44716559Y-36850000D02*
X34950000Y-46616559D01*
X34950000Y-46616559D02*
X25183441Y-36850000D01*
X25183441Y-36850000D02*
X34950000Y-27083441D01*
X95300000Y-35000000D02*
X93300000Y-35000000D01*
X93300000Y-35000000D02*
X93300000Y-31400000D01*
X93300000Y-31400000D02*
X95300000Y-31400000D01*
X95300000Y-31400000D02*
X95300000Y-35000000D01*
X86600000Y-42600000D02*
X85000000Y-42600000D01*
X85000000Y-42600000D02*
X85000000Y-39600000D01*
X85000000Y-39600000D02*
X86600000Y-39600000D01*
X86600000Y-39600000D02*
X86600000Y-42600000D01*
X85000000Y-36600000D02*
X86600000Y-36600000D01*
X86600000Y-36600000D02*
X86600000Y-39600000D01*
X86600000Y-39600000D02*
X85000000Y-39600000D01*
X85000000Y-39600000D02*
X85000000Y-36600000D01*
X75400000Y-36600000D02*
X77000000Y-36600000D01*
X77000000Y-36600000D02*
X77000000Y-39600000D01*
X77000000Y-39600000D02*
X75400000Y-39600000D01*
X75400000Y-39600000D02*
X75400000Y-36600000D01*
X77000000Y-42600000D02*
X75400000Y-42600000D01*
X75400000Y-42600000D02*
X75400000Y-39600000D01*
X75400000Y-39600000D02*
X77000000Y-39600000D01*
X77000000Y-39600000D02*
X77000000Y-42600000D01*
X66273654Y-38255025D02*
X67405025Y-37123654D01*
X67405025Y-37123654D02*
X69526346Y-39244975D01*
X69526346Y-39244975D02*
X68394975Y-40376346D01*
X68394975Y-40376346D02*
X66273654Y-38255025D01*
X67594975Y-33023654D02*
X68726346Y-34155025D01*
X68726346Y-34155025D02*
X66605025Y-36276346D01*
X66605025Y-36276346D02*
X65473654Y-35144975D01*
X65473654Y-35144975D02*
X67594975Y-33023654D01*
X65878858Y-27764644D02*
X64464644Y-29178858D01*
X64464644Y-29178858D02*
X61919060Y-26633274D01*
X61919060Y-26633274D02*
X63333274Y-25219060D01*
X63333274Y-25219060D02*
X65878858Y-27764644D01*
X69828858Y-32414644D02*
X68414644Y-33828858D01*
X68414644Y-33828858D02*
X65869060Y-31283274D01*
X65869060Y-31283274D02*
X67283274Y-29869060D01*
X67283274Y-29869060D02*
X69828858Y-32414644D01*
X61855025Y-31526346D02*
X60723654Y-30394975D01*
X60723654Y-30394975D02*
X62844975Y-28273654D01*
X62844975Y-28273654D02*
X63976346Y-29405025D01*
X63976346Y-29405025D02*
X61855025Y-31526346D01*
X65405025Y-35076346D02*
X64273654Y-33944975D01*
X64273654Y-33944975D02*
X66394975Y-31823654D01*
X66394975Y-31823654D02*
X67526346Y-32955025D01*
X67526346Y-32955025D02*
X65405025Y-35076346D01*
X59523654Y-44905025D02*
X60655025Y-43773654D01*
X60655025Y-43773654D02*
X62776346Y-45894975D01*
X62776346Y-45894975D02*
X61644975Y-47026346D01*
X61644975Y-47026346D02*
X59523654Y-44905025D01*
X50276346Y-33844975D02*
X49144975Y-34976346D01*
X49144975Y-34976346D02*
X47023654Y-32855025D01*
X47023654Y-32855025D02*
X48155025Y-31723654D01*
X48155025Y-31723654D02*
X50276346Y-33844975D01*
X61673654Y-42805025D02*
X62805025Y-41673654D01*
X62805025Y-41673654D02*
X64926346Y-43794975D01*
X64926346Y-43794975D02*
X63794975Y-44926346D01*
X63794975Y-44926346D02*
X61673654Y-42805025D01*
X52094975Y-42123654D02*
X53226346Y-43255025D01*
X53226346Y-43255025D02*
X51105025Y-45376346D01*
X51105025Y-45376346D02*
X49973654Y-44244975D01*
X49973654Y-44244975D02*
X52094975Y-42123654D01*
X54426346Y-29744975D02*
X53294975Y-30876346D01*
X53294975Y-30876346D02*
X51173654Y-28755025D01*
X51173654Y-28755025D02*
X52305025Y-27623654D01*
X52305025Y-27623654D02*
X54426346Y-29744975D01*
X64523654Y-40005025D02*
X65655025Y-38873654D01*
X65655025Y-38873654D02*
X67776346Y-40994975D01*
X67776346Y-40994975D02*
X66644975Y-42126346D01*
X66644975Y-42126346D02*
X64523654Y-40005025D01*
X60705025Y-30376346D02*
X59573654Y-29244975D01*
X59573654Y-29244975D02*
X61694975Y-27123654D01*
X61694975Y-27123654D02*
X62826346Y-28255025D01*
X62826346Y-28255025D02*
X60705025Y-30376346D01*
X58373654Y-46055025D02*
X59505025Y-44923654D01*
X59505025Y-44923654D02*
X61626346Y-47044975D01*
X61626346Y-47044975D02*
X60494975Y-48176346D01*
X60494975Y-48176346D02*
X58373654Y-46055025D01*
X50394975Y-40423654D02*
X51526346Y-41555025D01*
X51526346Y-41555025D02*
X49405025Y-43676346D01*
X49405025Y-43676346D02*
X48273654Y-42544975D01*
X48273654Y-42544975D02*
X50394975Y-40423654D01*
X80350000Y-47200000D02*
X78350000Y-47200000D01*
X78350000Y-47200000D02*
X78350000Y-43600000D01*
X78350000Y-43600000D02*
X80350000Y-43600000D01*
X80350000Y-43600000D02*
X80350000Y-47200000D01*
X78342743Y-46896293D02*
X76742743Y-46896293D01*
X76742743Y-46896293D02*
X76742743Y-43896293D01*
X76742743Y-43896293D02*
X78342743Y-43896293D01*
X78342743Y-43896293D02*
X78342743Y-46896293D01*
X72342743Y-46896293D02*
X70742743Y-46896293D01*
X70742743Y-46896293D02*
X70742743Y-43896293D01*
X70742743Y-43896293D02*
X72342743Y-43896293D01*
X72342743Y-43896293D02*
X72342743Y-46896293D01*
X70742743Y-47200000D02*
X68742743Y-47200000D01*
X68742743Y-47200000D02*
X68742743Y-43600000D01*
X68742743Y-43600000D02*
X70742743Y-43600000D01*
X70742743Y-43600000D02*
X70742743Y-47200000D01*
X96000000Y-41350000D02*
X96000000Y-42950000D01*
X96000000Y-42950000D02*
X93000000Y-42950000D01*
X93000000Y-42950000D02*
X93000000Y-41350000D01*
X93000000Y-41350000D02*
X96000000Y-41350000D01*
X41623654Y-33355025D02*
X42755025Y-32223654D01*
X42755025Y-32223654D02*
X44876346Y-34344975D01*
X44876346Y-34344975D02*
X43744975Y-35476346D01*
X43744975Y-35476346D02*
X41623654Y-33355025D01*
X27123654Y-41455025D02*
X28255025Y-40323654D01*
X28255025Y-40323654D02*
X30376346Y-42444975D01*
X30376346Y-42444975D02*
X29244975Y-43576346D01*
X29244975Y-43576346D02*
X27123654Y-41455025D01*
X40194975Y-41923654D02*
X41326346Y-43055025D01*
X41326346Y-43055025D02*
X39205025Y-45176346D01*
X39205025Y-45176346D02*
X38073654Y-44044975D01*
X38073654Y-44044975D02*
X40194975Y-41923654D01*
X34900000Y-52800000D02*
X36900000Y-52800000D01*
X36900000Y-52800000D02*
X36900000Y-56400000D01*
X36900000Y-56400000D02*
X34900000Y-56400000D01*
X34900000Y-56400000D02*
X34900000Y-52800000D01*
X22980000Y-23230000D02*
X38220000Y-23230000D01*
X38220000Y-23230000D02*
X38220000Y-25770000D01*
X38220000Y-25770000D02*
X22980000Y-25770000D01*
X22980000Y-25770000D02*
X22980000Y-23230000D01*
X35680000Y-23001000D02*
X38220000Y-23001000D01*
X38220000Y-23001000D02*
X38220000Y-23154000D01*
X38220000Y-23154000D02*
X35680000Y-23154000D01*
X35680000Y-23154000D02*
X35680000Y-23001000D01*
X115200000Y-21900000D02*
X115200000Y-25500000D01*
X115200000Y-25500000D02*
X111600000Y-25500000D01*
X111600000Y-25500000D02*
X111600000Y-21900000D01*
X111600000Y-21900000D02*
X115200000Y-21900000D01*
X101600000Y-40500000D02*
X101600000Y-36900000D01*
X101600000Y-36900000D02*
X105200000Y-36900000D01*
X105200000Y-36900000D02*
X105200000Y-40500000D01*
X105200000Y-40500000D02*
X101600000Y-40500000D01*
X88000000Y-33600000D02*
X88000000Y-35200000D01*
X88000000Y-35200000D02*
X85000000Y-35200000D01*
X85000000Y-35200000D02*
X85000000Y-33600000D01*
X85000000Y-33600000D02*
X88000000Y-33600000D01*
X77000000Y-33600000D02*
X77000000Y-35200000D01*
X77000000Y-35200000D02*
X74000000Y-35200000D01*
X74000000Y-35200000D02*
X74000000Y-33600000D01*
X74000000Y-33600000D02*
X77000000Y-33600000D01*
X88000000Y-32000000D02*
X88000000Y-33600000D01*
X88000000Y-33600000D02*
X85000000Y-33600000D01*
X85000000Y-33600000D02*
X85000000Y-32000000D01*
X85000000Y-32000000D02*
X88000000Y-32000000D01*
X77000000Y-32000000D02*
X77000000Y-33600000D01*
X77000000Y-33600000D02*
X74000000Y-33600000D01*
X74000000Y-33600000D02*
X74000000Y-32000000D01*
X74000000Y-32000000D02*
X77000000Y-32000000D01*
X65244975Y-30673654D02*
X66376346Y-31805025D01*
X66376346Y-31805025D02*
X64255025Y-33926346D01*
X64255025Y-33926346D02*
X63123654Y-32794975D01*
X63123654Y-32794975D02*
X65244975Y-30673654D01*
X63823654Y-25555025D02*
X64955025Y-24423654D01*
X64955025Y-24423654D02*
X67076346Y-26544975D01*
X67076346Y-26544975D02*
X65944975Y-27676346D01*
X65944975Y-27676346D02*
X63823654Y-25555025D01*
X96700000Y-44600000D02*
X98300000Y-44600000D01*
X98300000Y-44600000D02*
X98300000Y-47600000D01*
X98300000Y-47600000D02*
X96700000Y-47600000D01*
X96700000Y-47600000D02*
X96700000Y-44600000D01*
X92300000Y-44850000D02*
X90700000Y-44850000D01*
X90700000Y-44850000D02*
X90700000Y-41850000D01*
X90700000Y-41850000D02*
X92300000Y-41850000D01*
X92300000Y-41850000D02*
X92300000Y-44850000D01*
X98300000Y-44600000D02*
X96700000Y-44600000D01*
X96700000Y-44600000D02*
X96700000Y-41600000D01*
X96700000Y-41600000D02*
X98300000Y-41600000D01*
X98300000Y-41600000D02*
X98300000Y-44600000D01*
X92300000Y-44850000D02*
X92300000Y-46450000D01*
X92300000Y-46450000D02*
X89300000Y-46450000D01*
X89300000Y-46450000D02*
X89300000Y-44850000D01*
X89300000Y-44850000D02*
X92300000Y-44850000D01*
X59555025Y-29226346D02*
X58423654Y-28094975D01*
X58423654Y-28094975D02*
X60544975Y-25973654D01*
X60544975Y-25973654D02*
X61676346Y-27105025D01*
X61676346Y-27105025D02*
X59555025Y-29226346D01*
X114900000Y-29100000D02*
X114900000Y-30700000D01*
X114900000Y-30700000D02*
X111900000Y-30700000D01*
X111900000Y-30700000D02*
X111900000Y-29100000D01*
X111900000Y-29100000D02*
X114900000Y-29100000D01*
X104900000Y-44100000D02*
X104900000Y-45700000D01*
X104900000Y-45700000D02*
X101900000Y-45700000D01*
X101900000Y-45700000D02*
X101900000Y-44100000D01*
X101900000Y-44100000D02*
X104900000Y-44100000D01*
X75400000Y-39600000D02*
X73800000Y-39600000D01*
X73800000Y-39600000D02*
X73800000Y-36600000D01*
X73800000Y-36600000D02*
X75400000Y-36600000D01*
X75400000Y-36600000D02*
X75400000Y-39600000D01*
X111600000Y-29100000D02*
X111600000Y-25500000D01*
X111600000Y-25500000D02*
X115200000Y-25500000D01*
X115200000Y-25500000D02*
X115200000Y-29100000D01*
X115200000Y-29100000D02*
X111600000Y-29100000D01*
X101600000Y-44100000D02*
X101600000Y-40500000D01*
X101600000Y-40500000D02*
X105200000Y-40500000D01*
X105200000Y-40500000D02*
X105200000Y-44100000D01*
X105200000Y-44100000D02*
X101600000Y-44100000D01*
X85000000Y-41600000D02*
X77000000Y-41600000D01*
X77000000Y-41600000D02*
X77000000Y-30800000D01*
X77000000Y-30800000D02*
X85000000Y-30800000D01*
X85000000Y-30800000D02*
X85000000Y-41600000D01*
X84170000Y-41845000D02*
G75*
G03X84170000Y-41845000I-500000J0D01*
G01*
X92700000Y-30900000D02*
X92700000Y-35300000D01*
X92700000Y-35300000D02*
X88900000Y-35300000D01*
X88900000Y-35300000D02*
X88900000Y-30900000D01*
X88900000Y-30900000D02*
X92700000Y-30900000D01*
X93150000Y-31850000D02*
G75*
G03X93150000Y-31850000I-350000J0D01*
G01*
X76742743Y-46896293D02*
X72342743Y-46896293D01*
X72342743Y-46896293D02*
X72342743Y-43096293D01*
X72342743Y-43096293D02*
X76742743Y-43096293D01*
X76742743Y-43096293D02*
X76742743Y-46896293D01*
X92300000Y-42950000D02*
X96700000Y-42950000D01*
X96700000Y-42950000D02*
X96700000Y-46750000D01*
X96700000Y-46750000D02*
X92300000Y-46750000D01*
X92300000Y-46750000D02*
X92300000Y-42950000D01*
X93600000Y-42850000D02*
G75*
G03X93600000Y-42850000I-350000J0D01*
G01*
D14*
X116472000Y-43705000D02*
X116472000Y-42435000D01*
X117107000Y-43070000D02*
X115837000Y-43070000D01*
X118150000Y-41800000D02*
G75*
G03X118150000Y-41800000I-6250000J0D01*
G01*
D15*
X93800000Y-22150000D02*
X93800000Y-13510000D01*
X93800000Y-30530000D02*
X93800000Y-25450000D01*
X81600000Y-22150000D02*
X81600000Y-13510000D01*
X81600000Y-30530000D02*
X81600000Y-25450000D01*
X81600000Y-13510000D02*
X93800000Y-13510000D01*
X93800000Y-30530000D02*
X81600000Y-30530000D01*
D16*
X97200000Y-24800000D02*
X97200000Y-22800000D01*
X97800000Y-24800000D02*
X97200000Y-24800000D01*
X97800000Y-22800000D02*
X97800000Y-24800000D01*
X97200000Y-22800000D02*
X97800000Y-22800000D01*
X96050000Y-20150000D02*
X96050000Y-27450000D01*
X109150000Y-20150000D02*
X96050000Y-20150000D01*
X109150000Y-27450000D02*
X109150000Y-20150000D01*
X96050000Y-27450000D02*
X109150000Y-27450000D01*
D13*
X69017157Y-38687006D02*
X66612994Y-36282843D01*
X66612994Y-36282843D02*
X69582843Y-33312994D01*
X69582843Y-33312994D02*
X71987006Y-35717157D01*
X71987006Y-35717157D02*
X69017157Y-38687006D01*
X31115000Y-67050000D02*
X20955000Y-67050000D01*
X20955000Y-67050000D02*
X20955000Y-58550000D01*
X20955000Y-58550000D02*
X31115000Y-58550000D01*
X31115000Y-58550000D02*
X31115000Y-67050000D01*
X23495000Y-61894000D02*
X20955000Y-61894000D01*
X20955000Y-61894000D02*
X20955000Y-61741000D01*
X20955000Y-61741000D02*
X23495000Y-61741000D01*
X23495000Y-61741000D02*
X23495000Y-61894000D01*
X42545000Y-67050000D02*
X37465000Y-67050000D01*
X37465000Y-67050000D02*
X37465000Y-58550000D01*
X37465000Y-58550000D02*
X42545000Y-58550000D01*
X42545000Y-58550000D02*
X42545000Y-67050000D01*
X40005000Y-61894000D02*
X37465000Y-61894000D01*
X37465000Y-61894000D02*
X37465000Y-61741000D01*
X37465000Y-61741000D02*
X40005000Y-61741000D01*
X40005000Y-61741000D02*
X40005000Y-61894000D01*
X61595000Y-67050000D02*
X48895000Y-67050000D01*
X48895000Y-67050000D02*
X48895000Y-58550000D01*
X48895000Y-58550000D02*
X61595000Y-58550000D01*
X61595000Y-58550000D02*
X61595000Y-67050000D01*
X51435000Y-61894000D02*
X48895000Y-61894000D01*
X48895000Y-61894000D02*
X48895000Y-61741000D01*
X48895000Y-61741000D02*
X51435000Y-61741000D01*
X51435000Y-61741000D02*
X51435000Y-61894000D01*
X118110000Y-67050000D02*
X87630000Y-67050000D01*
X87630000Y-67050000D02*
X87630000Y-58550000D01*
X87630000Y-58550000D02*
X118110000Y-58550000D01*
X118110000Y-58550000D02*
X118110000Y-67050000D01*
X90170000Y-61894000D02*
X87630000Y-61894000D01*
X87630000Y-61894000D02*
X87630000Y-61741000D01*
X87630000Y-61741000D02*
X90170000Y-61741000D01*
X90170000Y-61741000D02*
X90170000Y-61894000D01*
X66281728Y-37100000D02*
G75*
G03X66281728Y-37100000I-900000J0D01*
G01*
X57250000Y-27333441D02*
X67016559Y-37100000D01*
X67016559Y-37100000D02*
X57250000Y-46866559D01*
X57250000Y-46866559D02*
X47483441Y-37100000D01*
X47483441Y-37100000D02*
X57250000Y-27333441D01*
X96600000Y-35000000D02*
X96600000Y-28800000D01*
X96600000Y-28800000D02*
X108600000Y-28800000D01*
X108600000Y-28800000D02*
X108600000Y-35000000D01*
X108600000Y-35000000D02*
X96600000Y-35000000D01*
X29433334Y-26222381D02*
X29433334Y-26936667D01*
X29385714Y-27079524D01*
X29290476Y-27174762D01*
X29147619Y-27222381D01*
X29052381Y-27222381D01*
X29766667Y-26222381D02*
X30338096Y-26222381D01*
X30052381Y-27222381D02*
X30052381Y-26222381D01*
X30623810Y-26936667D02*
X31100001Y-26936667D01*
X30528572Y-27222381D02*
X30861905Y-26222381D01*
X31195239Y-27222381D01*
X32052382Y-26270000D02*
X31957144Y-26222381D01*
X31814287Y-26222381D01*
X31671429Y-26270000D01*
X31576191Y-26365238D01*
X31528572Y-26460476D01*
X31480953Y-26650952D01*
X31480953Y-26793810D01*
X31528572Y-26984286D01*
X31576191Y-27079524D01*
X31671429Y-27174762D01*
X31814287Y-27222381D01*
X31909525Y-27222381D01*
X32052382Y-27174762D01*
X32100001Y-27127143D01*
X32100001Y-26793810D01*
X31909525Y-26793810D01*
D14*
X111090476Y-45062381D02*
X111757143Y-46062381D01*
X111757143Y-45062381D02*
X111090476Y-46062381D01*
X112661905Y-46062381D02*
X112090476Y-46062381D01*
X112376190Y-46062381D02*
X112376190Y-45062381D01*
X112280952Y-45205238D01*
X112185714Y-45300476D01*
X112090476Y-45348095D01*
X87366667Y-16902381D02*
X87366667Y-17616667D01*
X87319047Y-17759524D01*
X87223809Y-17854762D01*
X87080952Y-17902381D01*
X86985714Y-17902381D01*
X88366667Y-17902381D02*
X87795238Y-17902381D01*
X88080952Y-17902381D02*
X88080952Y-16902381D01*
X87985714Y-17045238D01*
X87890476Y-17140476D01*
X87795238Y-17188095D01*
X101576191Y-24752381D02*
X101242857Y-24276190D01*
X101004762Y-24752381D02*
X101004762Y-23752381D01*
X101385715Y-23752381D01*
X101480953Y-23800000D01*
X101528572Y-23847619D01*
X101576191Y-23942857D01*
X101576191Y-24085714D01*
X101528572Y-24180952D01*
X101480953Y-24228571D01*
X101385715Y-24276190D01*
X101004762Y-24276190D01*
X102004762Y-24228571D02*
X102338096Y-24228571D01*
X102480953Y-24752381D02*
X102004762Y-24752381D01*
X102004762Y-23752381D01*
X102480953Y-23752381D01*
X103385715Y-24752381D02*
X102909524Y-24752381D01*
X102909524Y-23752381D01*
X104242858Y-24752381D02*
X103671429Y-24752381D01*
X103957143Y-24752381D02*
X103957143Y-23752381D01*
X103861905Y-23895238D01*
X103766667Y-23990476D01*
X103671429Y-24038095D01*
%LPC*%
D10*
G36*
X70493502Y-31130330D02*
X69680330Y-31943502D01*
X68831802Y-31094974D01*
X69644974Y-30281802D01*
X70493502Y-31130330D01*
X70493502Y-31130330D01*
G37*
G36*
X69468198Y-30105026D02*
X68655026Y-30918198D01*
X67806498Y-30069670D01*
X68619670Y-29256498D01*
X69468198Y-30105026D01*
X69468198Y-30105026D01*
G37*
G36*
X42215522Y-34569580D02*
X42533720Y-34887778D01*
X41119506Y-36301992D01*
X40801308Y-35983794D01*
X42215522Y-34569580D01*
X42215522Y-34569580D01*
G37*
G36*
X41861969Y-34216027D02*
X42180167Y-34534225D01*
X40765953Y-35948439D01*
X40447755Y-35630241D01*
X41861969Y-34216027D01*
X41861969Y-34216027D01*
G37*
G36*
X41508416Y-33862474D02*
X41826614Y-34180672D01*
X40412400Y-35594886D01*
X40094202Y-35276688D01*
X41508416Y-33862474D01*
X41508416Y-33862474D01*
G37*
G36*
X41154862Y-33508920D02*
X41473060Y-33827118D01*
X40058846Y-35241332D01*
X39740648Y-34923134D01*
X41154862Y-33508920D01*
X41154862Y-33508920D01*
G37*
G36*
X40801309Y-33155367D02*
X41119507Y-33473565D01*
X39705293Y-34887779D01*
X39387095Y-34569581D01*
X40801309Y-33155367D01*
X40801309Y-33155367D01*
G37*
G36*
X40447755Y-32801813D02*
X40765953Y-33120011D01*
X39351739Y-34534225D01*
X39033541Y-34216027D01*
X40447755Y-32801813D01*
X40447755Y-32801813D01*
G37*
G36*
X40094202Y-32448260D02*
X40412400Y-32766458D01*
X38998186Y-34180672D01*
X38679988Y-33862474D01*
X40094202Y-32448260D01*
X40094202Y-32448260D01*
G37*
G36*
X39740649Y-32094707D02*
X40058847Y-32412905D01*
X38644633Y-33827119D01*
X38326435Y-33508921D01*
X39740649Y-32094707D01*
X39740649Y-32094707D01*
G37*
G36*
X39387095Y-31741153D02*
X39705293Y-32059351D01*
X38291079Y-33473565D01*
X37972881Y-33155367D01*
X39387095Y-31741153D01*
X39387095Y-31741153D01*
G37*
G36*
X39033542Y-31387600D02*
X39351740Y-31705798D01*
X37937526Y-33120012D01*
X37619328Y-32801814D01*
X39033542Y-31387600D01*
X39033542Y-31387600D01*
G37*
G36*
X38679989Y-31034047D02*
X38998187Y-31352245D01*
X37583973Y-32766459D01*
X37265775Y-32448261D01*
X38679989Y-31034047D01*
X38679989Y-31034047D01*
G37*
G36*
X38326435Y-30680493D02*
X38644633Y-30998691D01*
X37230419Y-32412905D01*
X36912221Y-32094707D01*
X38326435Y-30680493D01*
X38326435Y-30680493D01*
G37*
G36*
X37972882Y-30326940D02*
X38291080Y-30645138D01*
X36876866Y-32059352D01*
X36558668Y-31741154D01*
X37972882Y-30326940D01*
X37972882Y-30326940D01*
G37*
G36*
X37619328Y-29973386D02*
X37937526Y-30291584D01*
X36523312Y-31705798D01*
X36205114Y-31387600D01*
X37619328Y-29973386D01*
X37619328Y-29973386D01*
G37*
G36*
X37265775Y-29619833D02*
X37583973Y-29938031D01*
X36169759Y-31352245D01*
X35851561Y-31034047D01*
X37265775Y-29619833D01*
X37265775Y-29619833D01*
G37*
G36*
X36912222Y-29266280D02*
X37230420Y-29584478D01*
X35816206Y-30998692D01*
X35498008Y-30680494D01*
X36912222Y-29266280D01*
X36912222Y-29266280D01*
G37*
G36*
X32669580Y-29584478D02*
X32987778Y-29266280D01*
X34401992Y-30680494D01*
X34083794Y-30998692D01*
X32669580Y-29584478D01*
X32669580Y-29584478D01*
G37*
G36*
X32316027Y-29938031D02*
X32634225Y-29619833D01*
X34048439Y-31034047D01*
X33730241Y-31352245D01*
X32316027Y-29938031D01*
X32316027Y-29938031D01*
G37*
G36*
X31962474Y-30291584D02*
X32280672Y-29973386D01*
X33694886Y-31387600D01*
X33376688Y-31705798D01*
X31962474Y-30291584D01*
X31962474Y-30291584D01*
G37*
G36*
X31608920Y-30645138D02*
X31927118Y-30326940D01*
X33341332Y-31741154D01*
X33023134Y-32059352D01*
X31608920Y-30645138D01*
X31608920Y-30645138D01*
G37*
G36*
X31255367Y-30998691D02*
X31573565Y-30680493D01*
X32987779Y-32094707D01*
X32669581Y-32412905D01*
X31255367Y-30998691D01*
X31255367Y-30998691D01*
G37*
G36*
X30901813Y-31352245D02*
X31220011Y-31034047D01*
X32634225Y-32448261D01*
X32316027Y-32766459D01*
X30901813Y-31352245D01*
X30901813Y-31352245D01*
G37*
G36*
X30548260Y-31705798D02*
X30866458Y-31387600D01*
X32280672Y-32801814D01*
X31962474Y-33120012D01*
X30548260Y-31705798D01*
X30548260Y-31705798D01*
G37*
G36*
X30194707Y-32059351D02*
X30512905Y-31741153D01*
X31927119Y-33155367D01*
X31608921Y-33473565D01*
X30194707Y-32059351D01*
X30194707Y-32059351D01*
G37*
G36*
X29841153Y-32412905D02*
X30159351Y-32094707D01*
X31573565Y-33508921D01*
X31255367Y-33827119D01*
X29841153Y-32412905D01*
X29841153Y-32412905D01*
G37*
G36*
X29487600Y-32766458D02*
X29805798Y-32448260D01*
X31220012Y-33862474D01*
X30901814Y-34180672D01*
X29487600Y-32766458D01*
X29487600Y-32766458D01*
G37*
G36*
X29134047Y-33120011D02*
X29452245Y-32801813D01*
X30866459Y-34216027D01*
X30548261Y-34534225D01*
X29134047Y-33120011D01*
X29134047Y-33120011D01*
G37*
G36*
X28780493Y-33473565D02*
X29098691Y-33155367D01*
X30512905Y-34569581D01*
X30194707Y-34887779D01*
X28780493Y-33473565D01*
X28780493Y-33473565D01*
G37*
G36*
X28426940Y-33827118D02*
X28745138Y-33508920D01*
X30159352Y-34923134D01*
X29841154Y-35241332D01*
X28426940Y-33827118D01*
X28426940Y-33827118D01*
G37*
G36*
X28073386Y-34180672D02*
X28391584Y-33862474D01*
X29805798Y-35276688D01*
X29487600Y-35594886D01*
X28073386Y-34180672D01*
X28073386Y-34180672D01*
G37*
G36*
X27719833Y-34534225D02*
X28038031Y-34216027D01*
X29452245Y-35630241D01*
X29134047Y-35948439D01*
X27719833Y-34534225D01*
X27719833Y-34534225D01*
G37*
G36*
X27366280Y-34887778D02*
X27684478Y-34569580D01*
X29098692Y-35983794D01*
X28780494Y-36301992D01*
X27366280Y-34887778D01*
X27366280Y-34887778D01*
G37*
G36*
X27684478Y-39130420D02*
X27366280Y-38812222D01*
X28780494Y-37398008D01*
X29098692Y-37716206D01*
X27684478Y-39130420D01*
X27684478Y-39130420D01*
G37*
G36*
X28038031Y-39483973D02*
X27719833Y-39165775D01*
X29134047Y-37751561D01*
X29452245Y-38069759D01*
X28038031Y-39483973D01*
X28038031Y-39483973D01*
G37*
G36*
X28391584Y-39837526D02*
X28073386Y-39519328D01*
X29487600Y-38105114D01*
X29805798Y-38423312D01*
X28391584Y-39837526D01*
X28391584Y-39837526D01*
G37*
G36*
X28745138Y-40191080D02*
X28426940Y-39872882D01*
X29841154Y-38458668D01*
X30159352Y-38776866D01*
X28745138Y-40191080D01*
X28745138Y-40191080D01*
G37*
G36*
X29098691Y-40544633D02*
X28780493Y-40226435D01*
X30194707Y-38812221D01*
X30512905Y-39130419D01*
X29098691Y-40544633D01*
X29098691Y-40544633D01*
G37*
G36*
X29452245Y-40898187D02*
X29134047Y-40579989D01*
X30548261Y-39165775D01*
X30866459Y-39483973D01*
X29452245Y-40898187D01*
X29452245Y-40898187D01*
G37*
G36*
X29805798Y-41251740D02*
X29487600Y-40933542D01*
X30901814Y-39519328D01*
X31220012Y-39837526D01*
X29805798Y-41251740D01*
X29805798Y-41251740D01*
G37*
G36*
X30159351Y-41605293D02*
X29841153Y-41287095D01*
X31255367Y-39872881D01*
X31573565Y-40191079D01*
X30159351Y-41605293D01*
X30159351Y-41605293D01*
G37*
G36*
X30512905Y-41958847D02*
X30194707Y-41640649D01*
X31608921Y-40226435D01*
X31927119Y-40544633D01*
X30512905Y-41958847D01*
X30512905Y-41958847D01*
G37*
G36*
X30866458Y-42312400D02*
X30548260Y-41994202D01*
X31962474Y-40579988D01*
X32280672Y-40898186D01*
X30866458Y-42312400D01*
X30866458Y-42312400D01*
G37*
G36*
X31220011Y-42665953D02*
X30901813Y-42347755D01*
X32316027Y-40933541D01*
X32634225Y-41251739D01*
X31220011Y-42665953D01*
X31220011Y-42665953D01*
G37*
G36*
X31573565Y-43019507D02*
X31255367Y-42701309D01*
X32669581Y-41287095D01*
X32987779Y-41605293D01*
X31573565Y-43019507D01*
X31573565Y-43019507D01*
G37*
G36*
X31927118Y-43373060D02*
X31608920Y-43054862D01*
X33023134Y-41640648D01*
X33341332Y-41958846D01*
X31927118Y-43373060D01*
X31927118Y-43373060D01*
G37*
G36*
X32280672Y-43726614D02*
X31962474Y-43408416D01*
X33376688Y-41994202D01*
X33694886Y-42312400D01*
X32280672Y-43726614D01*
X32280672Y-43726614D01*
G37*
G36*
X32634225Y-44080167D02*
X32316027Y-43761969D01*
X33730241Y-42347755D01*
X34048439Y-42665953D01*
X32634225Y-44080167D01*
X32634225Y-44080167D01*
G37*
G36*
X32987778Y-44433720D02*
X32669580Y-44115522D01*
X34083794Y-42701308D01*
X34401992Y-43019506D01*
X32987778Y-44433720D01*
X32987778Y-44433720D01*
G37*
G36*
X37230420Y-44115522D02*
X36912222Y-44433720D01*
X35498008Y-43019506D01*
X35816206Y-42701308D01*
X37230420Y-44115522D01*
X37230420Y-44115522D01*
G37*
G36*
X37583973Y-43761969D02*
X37265775Y-44080167D01*
X35851561Y-42665953D01*
X36169759Y-42347755D01*
X37583973Y-43761969D01*
X37583973Y-43761969D01*
G37*
G36*
X37937526Y-43408416D02*
X37619328Y-43726614D01*
X36205114Y-42312400D01*
X36523312Y-41994202D01*
X37937526Y-43408416D01*
X37937526Y-43408416D01*
G37*
G36*
X38291080Y-43054862D02*
X37972882Y-43373060D01*
X36558668Y-41958846D01*
X36876866Y-41640648D01*
X38291080Y-43054862D01*
X38291080Y-43054862D01*
G37*
G36*
X38644633Y-42701309D02*
X38326435Y-43019507D01*
X36912221Y-41605293D01*
X37230419Y-41287095D01*
X38644633Y-42701309D01*
X38644633Y-42701309D01*
G37*
G36*
X38998187Y-42347755D02*
X38679989Y-42665953D01*
X37265775Y-41251739D01*
X37583973Y-40933541D01*
X38998187Y-42347755D01*
X38998187Y-42347755D01*
G37*
G36*
X39351740Y-41994202D02*
X39033542Y-42312400D01*
X37619328Y-40898186D01*
X37937526Y-40579988D01*
X39351740Y-41994202D01*
X39351740Y-41994202D01*
G37*
G36*
X39705293Y-41640649D02*
X39387095Y-41958847D01*
X37972881Y-40544633D01*
X38291079Y-40226435D01*
X39705293Y-41640649D01*
X39705293Y-41640649D01*
G37*
G36*
X40058847Y-41287095D02*
X39740649Y-41605293D01*
X38326435Y-40191079D01*
X38644633Y-39872881D01*
X40058847Y-41287095D01*
X40058847Y-41287095D01*
G37*
G36*
X40412400Y-40933542D02*
X40094202Y-41251740D01*
X38679988Y-39837526D01*
X38998186Y-39519328D01*
X40412400Y-40933542D01*
X40412400Y-40933542D01*
G37*
G36*
X40765953Y-40579989D02*
X40447755Y-40898187D01*
X39033541Y-39483973D01*
X39351739Y-39165775D01*
X40765953Y-40579989D01*
X40765953Y-40579989D01*
G37*
G36*
X41119507Y-40226435D02*
X40801309Y-40544633D01*
X39387095Y-39130419D01*
X39705293Y-38812221D01*
X41119507Y-40226435D01*
X41119507Y-40226435D01*
G37*
G36*
X41473060Y-39872882D02*
X41154862Y-40191080D01*
X39740648Y-38776866D01*
X40058846Y-38458668D01*
X41473060Y-39872882D01*
X41473060Y-39872882D01*
G37*
G36*
X41826614Y-39519328D02*
X41508416Y-39837526D01*
X40094202Y-38423312D01*
X40412400Y-38105114D01*
X41826614Y-39519328D01*
X41826614Y-39519328D01*
G37*
G36*
X42180167Y-39165775D02*
X41861969Y-39483973D01*
X40447755Y-38069759D01*
X40765953Y-37751561D01*
X42180167Y-39165775D01*
X42180167Y-39165775D01*
G37*
G36*
X42533720Y-38812222D02*
X42215522Y-39130420D01*
X40801308Y-37716206D01*
X41119506Y-37398008D01*
X42533720Y-38812222D01*
X42533720Y-38812222D01*
G37*
D17*
X94300000Y-34050000D03*
X94300000Y-32350000D03*
D18*
X85800000Y-41825000D03*
X85800000Y-40375000D03*
X85800000Y-37375000D03*
X85800000Y-38825000D03*
X76200000Y-37375000D03*
X76200000Y-38825000D03*
X76200000Y-41825000D03*
X76200000Y-40375000D03*
D10*
G36*
X66556498Y-38219670D02*
X67369670Y-37406498D01*
X68218198Y-38255026D01*
X67405026Y-39068198D01*
X66556498Y-38219670D01*
X66556498Y-38219670D01*
G37*
G36*
X67581802Y-39244974D02*
X68394974Y-38431802D01*
X69243502Y-39280330D01*
X68430330Y-40093502D01*
X67581802Y-39244974D01*
X67581802Y-39244974D01*
G37*
G36*
X67630330Y-33306498D02*
X68443502Y-34119670D01*
X67594974Y-34968198D01*
X66781802Y-34155026D01*
X67630330Y-33306498D01*
X67630330Y-33306498D01*
G37*
G36*
X66605026Y-34331802D02*
X67418198Y-35144974D01*
X66569670Y-35993502D01*
X65756498Y-35180330D01*
X66605026Y-34331802D01*
X66605026Y-34331802D01*
G37*
G36*
X65578338Y-27711612D02*
X64411612Y-28878338D01*
X63421662Y-27888388D01*
X64588388Y-26721662D01*
X65578338Y-27711612D01*
X65578338Y-27711612D01*
G37*
G36*
X64376256Y-26509530D02*
X63209530Y-27676256D01*
X62219580Y-26686306D01*
X63386306Y-25519580D01*
X64376256Y-26509530D01*
X64376256Y-26509530D01*
G37*
G36*
X69528338Y-32361612D02*
X68361612Y-33528338D01*
X67371662Y-32538388D01*
X68538388Y-31371662D01*
X69528338Y-32361612D01*
X69528338Y-32361612D01*
G37*
G36*
X68326256Y-31159530D02*
X67159530Y-32326256D01*
X66169580Y-31336306D01*
X67336306Y-30169580D01*
X68326256Y-31159530D01*
X68326256Y-31159530D01*
G37*
G36*
X61819670Y-31243502D02*
X61006498Y-30430330D01*
X61855026Y-29581802D01*
X62668198Y-30394974D01*
X61819670Y-31243502D01*
X61819670Y-31243502D01*
G37*
G36*
X62844974Y-30218198D02*
X62031802Y-29405026D01*
X62880330Y-28556498D01*
X63693502Y-29369670D01*
X62844974Y-30218198D01*
X62844974Y-30218198D01*
G37*
G36*
X65369670Y-34793502D02*
X64556498Y-33980330D01*
X65405026Y-33131802D01*
X66218198Y-33944974D01*
X65369670Y-34793502D01*
X65369670Y-34793502D01*
G37*
G36*
X66394974Y-33768198D02*
X65581802Y-32955026D01*
X66430330Y-32106498D01*
X67243502Y-32919670D01*
X66394974Y-33768198D01*
X66394974Y-33768198D01*
G37*
G36*
X59806498Y-44869670D02*
X60619670Y-44056498D01*
X61468198Y-44905026D01*
X60655026Y-45718198D01*
X59806498Y-44869670D01*
X59806498Y-44869670D01*
G37*
G36*
X60831802Y-45894974D02*
X61644974Y-45081802D01*
X62493502Y-45930330D01*
X61680330Y-46743502D01*
X60831802Y-45894974D01*
X60831802Y-45894974D01*
G37*
G36*
X49993502Y-33880330D02*
X49180330Y-34693502D01*
X48331802Y-33844974D01*
X49144974Y-33031802D01*
X49993502Y-33880330D01*
X49993502Y-33880330D01*
G37*
G36*
X48968198Y-32855026D02*
X48155026Y-33668198D01*
X47306498Y-32819670D01*
X48119670Y-32006498D01*
X48968198Y-32855026D01*
X48968198Y-32855026D01*
G37*
G36*
X61956498Y-42769670D02*
X62769670Y-41956498D01*
X63618198Y-42805026D01*
X62805026Y-43618198D01*
X61956498Y-42769670D01*
X61956498Y-42769670D01*
G37*
G36*
X62981802Y-43794974D02*
X63794974Y-42981802D01*
X64643502Y-43830330D01*
X63830330Y-44643502D01*
X62981802Y-43794974D01*
X62981802Y-43794974D01*
G37*
G36*
X52130330Y-42406498D02*
X52943502Y-43219670D01*
X52094974Y-44068198D01*
X51281802Y-43255026D01*
X52130330Y-42406498D01*
X52130330Y-42406498D01*
G37*
G36*
X51105026Y-43431802D02*
X51918198Y-44244974D01*
X51069670Y-45093502D01*
X50256498Y-44280330D01*
X51105026Y-43431802D01*
X51105026Y-43431802D01*
G37*
G36*
X54143502Y-29780330D02*
X53330330Y-30593502D01*
X52481802Y-29744974D01*
X53294974Y-28931802D01*
X54143502Y-29780330D01*
X54143502Y-29780330D01*
G37*
G36*
X53118198Y-28755026D02*
X52305026Y-29568198D01*
X51456498Y-28719670D01*
X52269670Y-27906498D01*
X53118198Y-28755026D01*
X53118198Y-28755026D01*
G37*
G36*
X64806498Y-39969670D02*
X65619670Y-39156498D01*
X66468198Y-40005026D01*
X65655026Y-40818198D01*
X64806498Y-39969670D01*
X64806498Y-39969670D01*
G37*
G36*
X65831802Y-40994974D02*
X66644974Y-40181802D01*
X67493502Y-41030330D01*
X66680330Y-41843502D01*
X65831802Y-40994974D01*
X65831802Y-40994974D01*
G37*
G36*
X60669670Y-30093502D02*
X59856498Y-29280330D01*
X60705026Y-28431802D01*
X61518198Y-29244974D01*
X60669670Y-30093502D01*
X60669670Y-30093502D01*
G37*
G36*
X61694974Y-29068198D02*
X60881802Y-28255026D01*
X61730330Y-27406498D01*
X62543502Y-28219670D01*
X61694974Y-29068198D01*
X61694974Y-29068198D01*
G37*
G36*
X58656498Y-46019670D02*
X59469670Y-45206498D01*
X60318198Y-46055026D01*
X59505026Y-46868198D01*
X58656498Y-46019670D01*
X58656498Y-46019670D01*
G37*
G36*
X59681802Y-47044974D02*
X60494974Y-46231802D01*
X61343502Y-47080330D01*
X60530330Y-47893502D01*
X59681802Y-47044974D01*
X59681802Y-47044974D01*
G37*
G36*
X50430330Y-40706498D02*
X51243502Y-41519670D01*
X50394974Y-42368198D01*
X49581802Y-41555026D01*
X50430330Y-40706498D01*
X50430330Y-40706498D01*
G37*
G36*
X49405026Y-41731802D02*
X50218198Y-42544974D01*
X49369670Y-43393502D01*
X48556498Y-42580330D01*
X49405026Y-41731802D01*
X49405026Y-41731802D01*
G37*
D17*
X79350000Y-46250000D03*
X79350000Y-44550000D03*
D18*
X77542743Y-46121293D03*
X77542743Y-44671293D03*
X71542743Y-46121293D03*
X71542743Y-44671293D03*
D17*
X69742743Y-46250000D03*
X69742743Y-44550000D03*
D19*
X95225000Y-42150000D03*
X93775000Y-42150000D03*
D10*
G36*
X41906498Y-33319670D02*
X42719670Y-32506498D01*
X43568198Y-33355026D01*
X42755026Y-34168198D01*
X41906498Y-33319670D01*
X41906498Y-33319670D01*
G37*
G36*
X42931802Y-34344974D02*
X43744974Y-33531802D01*
X44593502Y-34380330D01*
X43780330Y-35193502D01*
X42931802Y-34344974D01*
X42931802Y-34344974D01*
G37*
G36*
X27406498Y-41419670D02*
X28219670Y-40606498D01*
X29068198Y-41455026D01*
X28255026Y-42268198D01*
X27406498Y-41419670D01*
X27406498Y-41419670D01*
G37*
G36*
X28431802Y-42444974D02*
X29244974Y-41631802D01*
X30093502Y-42480330D01*
X29280330Y-43293502D01*
X28431802Y-42444974D01*
X28431802Y-42444974D01*
G37*
G36*
X40230330Y-42206498D02*
X41043502Y-43019670D01*
X40194974Y-43868198D01*
X39381802Y-43055026D01*
X40230330Y-42206498D01*
X40230330Y-42206498D01*
G37*
G36*
X39205026Y-43231802D02*
X40018198Y-44044974D01*
X39169670Y-44893502D01*
X38356498Y-44080330D01*
X39205026Y-43231802D01*
X39205026Y-43231802D01*
G37*
D17*
X35900000Y-53750000D03*
X35900000Y-55450000D03*
D20*
X36950000Y-24500000D03*
D21*
X34410000Y-24500000D03*
X31870000Y-24500000D03*
X29330000Y-24500000D03*
X26790000Y-24500000D03*
X24250000Y-24500000D03*
D22*
X114350000Y-22650000D03*
X112450000Y-22650000D03*
X113400000Y-24750000D03*
X102450000Y-39750000D03*
X104350000Y-39750000D03*
X103400000Y-37650000D03*
D19*
X87225000Y-34400000D03*
X85775000Y-34400000D03*
X76225000Y-34400000D03*
X74775000Y-34400000D03*
X87225000Y-32800000D03*
X85775000Y-32800000D03*
X76225000Y-32800000D03*
X74775000Y-32800000D03*
D10*
G36*
X65280330Y-30956498D02*
X66093502Y-31769670D01*
X65244974Y-32618198D01*
X64431802Y-31805026D01*
X65280330Y-30956498D01*
X65280330Y-30956498D01*
G37*
G36*
X64255026Y-31981802D02*
X65068198Y-32794974D01*
X64219670Y-33643502D01*
X63406498Y-32830330D01*
X64255026Y-31981802D01*
X64255026Y-31981802D01*
G37*
G36*
X64106498Y-25519670D02*
X64919670Y-24706498D01*
X65768198Y-25555026D01*
X64955026Y-26368198D01*
X64106498Y-25519670D01*
X64106498Y-25519670D01*
G37*
G36*
X65131802Y-26544974D02*
X65944974Y-25731802D01*
X66793502Y-26580330D01*
X65980330Y-27393502D01*
X65131802Y-26544974D01*
X65131802Y-26544974D01*
G37*
D18*
X97500000Y-45375000D03*
X97500000Y-46825000D03*
X91500000Y-44075000D03*
X91500000Y-42625000D03*
X97500000Y-43825000D03*
X97500000Y-42375000D03*
D19*
X91525000Y-45650000D03*
X90075000Y-45650000D03*
D10*
G36*
X59519670Y-28943502D02*
X58706498Y-28130330D01*
X59555026Y-27281802D01*
X60368198Y-28094974D01*
X59519670Y-28943502D01*
X59519670Y-28943502D01*
G37*
G36*
X60544974Y-27918198D02*
X59731802Y-27105026D01*
X60580330Y-26256498D01*
X61393502Y-27069670D01*
X60544974Y-27918198D01*
X60544974Y-27918198D01*
G37*
D19*
X114125000Y-29900000D03*
X112675000Y-29900000D03*
X104125000Y-44900000D03*
X102675000Y-44900000D03*
D18*
X74600000Y-38825000D03*
X74600000Y-37375000D03*
D22*
X112450000Y-28350000D03*
X114350000Y-28350000D03*
X113400000Y-26250000D03*
X102450000Y-43350000D03*
X104350000Y-43350000D03*
X103400000Y-41250000D03*
D23*
X116950000Y-48950000D03*
X71542743Y-47696293D03*
X76500000Y-47200000D03*
X77542743Y-43096293D03*
X30300000Y-30500000D03*
D24*
X83600000Y-40645000D03*
X83600000Y-39375000D03*
X83600000Y-38105000D03*
X83600000Y-36835000D03*
X83600000Y-35565000D03*
X83600000Y-34295000D03*
X83600000Y-33025000D03*
X83600000Y-31755000D03*
X78400000Y-31755000D03*
X78400000Y-33025000D03*
X78400000Y-34295000D03*
X78400000Y-35565000D03*
X78400000Y-36835000D03*
X78400000Y-38105000D03*
X78400000Y-39375000D03*
X78400000Y-40645000D03*
D25*
X91750000Y-31700000D03*
X90800000Y-31700000D03*
X89850000Y-31700000D03*
X89850000Y-34500000D03*
X90800000Y-34500000D03*
X91750000Y-34500000D03*
D26*
X75942743Y-45946293D03*
X75942743Y-44996293D03*
X75942743Y-44046293D03*
X73142743Y-44046293D03*
X73142743Y-45946293D03*
X93100000Y-43900000D03*
X93100000Y-44850000D03*
X93100000Y-45800000D03*
X95900000Y-45800000D03*
X95900000Y-44850000D03*
X95900000Y-43900000D03*
D27*
X115150000Y-41800000D03*
D28*
X108650000Y-41800000D03*
D29*
X88970000Y-28500000D03*
X86430000Y-28500000D03*
X86430000Y-26500000D03*
X88970000Y-26500000D03*
D30*
X93700000Y-23800000D03*
X81700000Y-23800000D03*
D31*
X97520000Y-26340000D03*
X97520000Y-21260000D03*
X102600000Y-26340000D03*
X102600000Y-21260000D03*
X107680000Y-21260000D03*
X107680000Y-26340000D03*
D10*
G36*
X68999480Y-38386486D02*
X68044885Y-37431891D01*
X69176256Y-36300520D01*
X70130851Y-37255115D01*
X68999480Y-38386486D01*
X68999480Y-38386486D01*
G37*
G36*
X69423744Y-35699480D02*
X68469149Y-34744885D01*
X69600520Y-33613514D01*
X70555115Y-34568109D01*
X69423744Y-35699480D01*
X69423744Y-35699480D01*
G37*
G36*
X70555115Y-36830851D02*
X69600520Y-35876256D01*
X70731891Y-34744885D01*
X71686486Y-35699480D01*
X70555115Y-36830851D01*
X70555115Y-36830851D01*
G37*
G36*
X67868109Y-37255115D02*
X66913514Y-36300520D01*
X68044885Y-35169149D01*
X68999480Y-36123744D01*
X67868109Y-37255115D01*
X67868109Y-37255115D01*
G37*
D20*
X22225000Y-54610000D03*
D21*
X22225000Y-57150000D03*
X24765000Y-54610000D03*
X24765000Y-57150000D03*
X27305000Y-54610000D03*
X27305000Y-57150000D03*
X29845000Y-54610000D03*
X29845000Y-57150000D03*
D20*
X38735000Y-54610000D03*
D21*
X38735000Y-57150000D03*
X41275000Y-54610000D03*
X41275000Y-57150000D03*
D20*
X50165000Y-54610000D03*
D21*
X50165000Y-57150000D03*
X52705000Y-54610000D03*
X52705000Y-57150000D03*
X55245000Y-54610000D03*
X55245000Y-57150000D03*
X57785000Y-54610000D03*
X57785000Y-57150000D03*
X60325000Y-54610000D03*
X60325000Y-57150000D03*
D20*
X88900000Y-54610000D03*
D21*
X88900000Y-57150000D03*
X91440000Y-54610000D03*
X91440000Y-57150000D03*
X93980000Y-54610000D03*
X93980000Y-57150000D03*
X96520000Y-54610000D03*
X96520000Y-57150000D03*
X99060000Y-54610000D03*
X99060000Y-57150000D03*
X101600000Y-54610000D03*
X101600000Y-57150000D03*
X104140000Y-54610000D03*
X104140000Y-57150000D03*
X106680000Y-54610000D03*
X106680000Y-57150000D03*
X109220000Y-54610000D03*
X109220000Y-57150000D03*
X111760000Y-54610000D03*
X111760000Y-57150000D03*
X114300000Y-54610000D03*
X114300000Y-57150000D03*
X116840000Y-54610000D03*
X116840000Y-57150000D03*
D10*
G36*
X64515522Y-34819580D02*
X64833720Y-35137778D01*
X63419506Y-36551992D01*
X63101308Y-36233794D01*
X64515522Y-34819580D01*
X64515522Y-34819580D01*
G37*
G36*
X64161969Y-34466027D02*
X64480167Y-34784225D01*
X63065953Y-36198439D01*
X62747755Y-35880241D01*
X64161969Y-34466027D01*
X64161969Y-34466027D01*
G37*
G36*
X63808416Y-34112474D02*
X64126614Y-34430672D01*
X62712400Y-35844886D01*
X62394202Y-35526688D01*
X63808416Y-34112474D01*
X63808416Y-34112474D01*
G37*
G36*
X63454862Y-33758920D02*
X63773060Y-34077118D01*
X62358846Y-35491332D01*
X62040648Y-35173134D01*
X63454862Y-33758920D01*
X63454862Y-33758920D01*
G37*
G36*
X63101309Y-33405367D02*
X63419507Y-33723565D01*
X62005293Y-35137779D01*
X61687095Y-34819581D01*
X63101309Y-33405367D01*
X63101309Y-33405367D01*
G37*
G36*
X62747755Y-33051813D02*
X63065953Y-33370011D01*
X61651739Y-34784225D01*
X61333541Y-34466027D01*
X62747755Y-33051813D01*
X62747755Y-33051813D01*
G37*
G36*
X62394202Y-32698260D02*
X62712400Y-33016458D01*
X61298186Y-34430672D01*
X60979988Y-34112474D01*
X62394202Y-32698260D01*
X62394202Y-32698260D01*
G37*
G36*
X62040649Y-32344707D02*
X62358847Y-32662905D01*
X60944633Y-34077119D01*
X60626435Y-33758921D01*
X62040649Y-32344707D01*
X62040649Y-32344707D01*
G37*
G36*
X61687095Y-31991153D02*
X62005293Y-32309351D01*
X60591079Y-33723565D01*
X60272881Y-33405367D01*
X61687095Y-31991153D01*
X61687095Y-31991153D01*
G37*
G36*
X61333542Y-31637600D02*
X61651740Y-31955798D01*
X60237526Y-33370012D01*
X59919328Y-33051814D01*
X61333542Y-31637600D01*
X61333542Y-31637600D01*
G37*
G36*
X60979989Y-31284047D02*
X61298187Y-31602245D01*
X59883973Y-33016459D01*
X59565775Y-32698261D01*
X60979989Y-31284047D01*
X60979989Y-31284047D01*
G37*
G36*
X60626435Y-30930493D02*
X60944633Y-31248691D01*
X59530419Y-32662905D01*
X59212221Y-32344707D01*
X60626435Y-30930493D01*
X60626435Y-30930493D01*
G37*
G36*
X60272882Y-30576940D02*
X60591080Y-30895138D01*
X59176866Y-32309352D01*
X58858668Y-31991154D01*
X60272882Y-30576940D01*
X60272882Y-30576940D01*
G37*
G36*
X59919328Y-30223386D02*
X60237526Y-30541584D01*
X58823312Y-31955798D01*
X58505114Y-31637600D01*
X59919328Y-30223386D01*
X59919328Y-30223386D01*
G37*
G36*
X59565775Y-29869833D02*
X59883973Y-30188031D01*
X58469759Y-31602245D01*
X58151561Y-31284047D01*
X59565775Y-29869833D01*
X59565775Y-29869833D01*
G37*
G36*
X59212222Y-29516280D02*
X59530420Y-29834478D01*
X58116206Y-31248692D01*
X57798008Y-30930494D01*
X59212222Y-29516280D01*
X59212222Y-29516280D01*
G37*
G36*
X54969580Y-29834478D02*
X55287778Y-29516280D01*
X56701992Y-30930494D01*
X56383794Y-31248692D01*
X54969580Y-29834478D01*
X54969580Y-29834478D01*
G37*
G36*
X54616027Y-30188031D02*
X54934225Y-29869833D01*
X56348439Y-31284047D01*
X56030241Y-31602245D01*
X54616027Y-30188031D01*
X54616027Y-30188031D01*
G37*
G36*
X54262474Y-30541584D02*
X54580672Y-30223386D01*
X55994886Y-31637600D01*
X55676688Y-31955798D01*
X54262474Y-30541584D01*
X54262474Y-30541584D01*
G37*
G36*
X53908920Y-30895138D02*
X54227118Y-30576940D01*
X55641332Y-31991154D01*
X55323134Y-32309352D01*
X53908920Y-30895138D01*
X53908920Y-30895138D01*
G37*
G36*
X53555367Y-31248691D02*
X53873565Y-30930493D01*
X55287779Y-32344707D01*
X54969581Y-32662905D01*
X53555367Y-31248691D01*
X53555367Y-31248691D01*
G37*
G36*
X53201813Y-31602245D02*
X53520011Y-31284047D01*
X54934225Y-32698261D01*
X54616027Y-33016459D01*
X53201813Y-31602245D01*
X53201813Y-31602245D01*
G37*
G36*
X52848260Y-31955798D02*
X53166458Y-31637600D01*
X54580672Y-33051814D01*
X54262474Y-33370012D01*
X52848260Y-31955798D01*
X52848260Y-31955798D01*
G37*
G36*
X52494707Y-32309351D02*
X52812905Y-31991153D01*
X54227119Y-33405367D01*
X53908921Y-33723565D01*
X52494707Y-32309351D01*
X52494707Y-32309351D01*
G37*
G36*
X52141153Y-32662905D02*
X52459351Y-32344707D01*
X53873565Y-33758921D01*
X53555367Y-34077119D01*
X52141153Y-32662905D01*
X52141153Y-32662905D01*
G37*
G36*
X51787600Y-33016458D02*
X52105798Y-32698260D01*
X53520012Y-34112474D01*
X53201814Y-34430672D01*
X51787600Y-33016458D01*
X51787600Y-33016458D01*
G37*
G36*
X51434047Y-33370011D02*
X51752245Y-33051813D01*
X53166459Y-34466027D01*
X52848261Y-34784225D01*
X51434047Y-33370011D01*
X51434047Y-33370011D01*
G37*
G36*
X51080493Y-33723565D02*
X51398691Y-33405367D01*
X52812905Y-34819581D01*
X52494707Y-35137779D01*
X51080493Y-33723565D01*
X51080493Y-33723565D01*
G37*
G36*
X50726940Y-34077118D02*
X51045138Y-33758920D01*
X52459352Y-35173134D01*
X52141154Y-35491332D01*
X50726940Y-34077118D01*
X50726940Y-34077118D01*
G37*
G36*
X50373386Y-34430672D02*
X50691584Y-34112474D01*
X52105798Y-35526688D01*
X51787600Y-35844886D01*
X50373386Y-34430672D01*
X50373386Y-34430672D01*
G37*
G36*
X50019833Y-34784225D02*
X50338031Y-34466027D01*
X51752245Y-35880241D01*
X51434047Y-36198439D01*
X50019833Y-34784225D01*
X50019833Y-34784225D01*
G37*
G36*
X49666280Y-35137778D02*
X49984478Y-34819580D01*
X51398692Y-36233794D01*
X51080494Y-36551992D01*
X49666280Y-35137778D01*
X49666280Y-35137778D01*
G37*
G36*
X49984478Y-39380420D02*
X49666280Y-39062222D01*
X51080494Y-37648008D01*
X51398692Y-37966206D01*
X49984478Y-39380420D01*
X49984478Y-39380420D01*
G37*
G36*
X50338031Y-39733973D02*
X50019833Y-39415775D01*
X51434047Y-38001561D01*
X51752245Y-38319759D01*
X50338031Y-39733973D01*
X50338031Y-39733973D01*
G37*
G36*
X50691584Y-40087526D02*
X50373386Y-39769328D01*
X51787600Y-38355114D01*
X52105798Y-38673312D01*
X50691584Y-40087526D01*
X50691584Y-40087526D01*
G37*
G36*
X51045138Y-40441080D02*
X50726940Y-40122882D01*
X52141154Y-38708668D01*
X52459352Y-39026866D01*
X51045138Y-40441080D01*
X51045138Y-40441080D01*
G37*
G36*
X51398691Y-40794633D02*
X51080493Y-40476435D01*
X52494707Y-39062221D01*
X52812905Y-39380419D01*
X51398691Y-40794633D01*
X51398691Y-40794633D01*
G37*
G36*
X51752245Y-41148187D02*
X51434047Y-40829989D01*
X52848261Y-39415775D01*
X53166459Y-39733973D01*
X51752245Y-41148187D01*
X51752245Y-41148187D01*
G37*
G36*
X52105798Y-41501740D02*
X51787600Y-41183542D01*
X53201814Y-39769328D01*
X53520012Y-40087526D01*
X52105798Y-41501740D01*
X52105798Y-41501740D01*
G37*
G36*
X52459351Y-41855293D02*
X52141153Y-41537095D01*
X53555367Y-40122881D01*
X53873565Y-40441079D01*
X52459351Y-41855293D01*
X52459351Y-41855293D01*
G37*
G36*
X52812905Y-42208847D02*
X52494707Y-41890649D01*
X53908921Y-40476435D01*
X54227119Y-40794633D01*
X52812905Y-42208847D01*
X52812905Y-42208847D01*
G37*
G36*
X53166458Y-42562400D02*
X52848260Y-42244202D01*
X54262474Y-40829988D01*
X54580672Y-41148186D01*
X53166458Y-42562400D01*
X53166458Y-42562400D01*
G37*
G36*
X53520011Y-42915953D02*
X53201813Y-42597755D01*
X54616027Y-41183541D01*
X54934225Y-41501739D01*
X53520011Y-42915953D01*
X53520011Y-42915953D01*
G37*
G36*
X53873565Y-43269507D02*
X53555367Y-42951309D01*
X54969581Y-41537095D01*
X55287779Y-41855293D01*
X53873565Y-43269507D01*
X53873565Y-43269507D01*
G37*
G36*
X54227118Y-43623060D02*
X53908920Y-43304862D01*
X55323134Y-41890648D01*
X55641332Y-42208846D01*
X54227118Y-43623060D01*
X54227118Y-43623060D01*
G37*
G36*
X54580672Y-43976614D02*
X54262474Y-43658416D01*
X55676688Y-42244202D01*
X55994886Y-42562400D01*
X54580672Y-43976614D01*
X54580672Y-43976614D01*
G37*
G36*
X54934225Y-44330167D02*
X54616027Y-44011969D01*
X56030241Y-42597755D01*
X56348439Y-42915953D01*
X54934225Y-44330167D01*
X54934225Y-44330167D01*
G37*
G36*
X55287778Y-44683720D02*
X54969580Y-44365522D01*
X56383794Y-42951308D01*
X56701992Y-43269506D01*
X55287778Y-44683720D01*
X55287778Y-44683720D01*
G37*
G36*
X59530420Y-44365522D02*
X59212222Y-44683720D01*
X57798008Y-43269506D01*
X58116206Y-42951308D01*
X59530420Y-44365522D01*
X59530420Y-44365522D01*
G37*
G36*
X59883973Y-44011969D02*
X59565775Y-44330167D01*
X58151561Y-42915953D01*
X58469759Y-42597755D01*
X59883973Y-44011969D01*
X59883973Y-44011969D01*
G37*
G36*
X60237526Y-43658416D02*
X59919328Y-43976614D01*
X58505114Y-42562400D01*
X58823312Y-42244202D01*
X60237526Y-43658416D01*
X60237526Y-43658416D01*
G37*
G36*
X60591080Y-43304862D02*
X60272882Y-43623060D01*
X58858668Y-42208846D01*
X59176866Y-41890648D01*
X60591080Y-43304862D01*
X60591080Y-43304862D01*
G37*
G36*
X60944633Y-42951309D02*
X60626435Y-43269507D01*
X59212221Y-41855293D01*
X59530419Y-41537095D01*
X60944633Y-42951309D01*
X60944633Y-42951309D01*
G37*
G36*
X61298187Y-42597755D02*
X60979989Y-42915953D01*
X59565775Y-41501739D01*
X59883973Y-41183541D01*
X61298187Y-42597755D01*
X61298187Y-42597755D01*
G37*
G36*
X61651740Y-42244202D02*
X61333542Y-42562400D01*
X59919328Y-41148186D01*
X60237526Y-40829988D01*
X61651740Y-42244202D01*
X61651740Y-42244202D01*
G37*
G36*
X62005293Y-41890649D02*
X61687095Y-42208847D01*
X60272881Y-40794633D01*
X60591079Y-40476435D01*
X62005293Y-41890649D01*
X62005293Y-41890649D01*
G37*
G36*
X62358847Y-41537095D02*
X62040649Y-41855293D01*
X60626435Y-40441079D01*
X60944633Y-40122881D01*
X62358847Y-41537095D01*
X62358847Y-41537095D01*
G37*
G36*
X62712400Y-41183542D02*
X62394202Y-41501740D01*
X60979988Y-40087526D01*
X61298186Y-39769328D01*
X62712400Y-41183542D01*
X62712400Y-41183542D01*
G37*
G36*
X63065953Y-40829989D02*
X62747755Y-41148187D01*
X61333541Y-39733973D01*
X61651739Y-39415775D01*
X63065953Y-40829989D01*
X63065953Y-40829989D01*
G37*
G36*
X63419507Y-40476435D02*
X63101309Y-40794633D01*
X61687095Y-39380419D01*
X62005293Y-39062221D01*
X63419507Y-40476435D01*
X63419507Y-40476435D01*
G37*
G36*
X63773060Y-40122882D02*
X63454862Y-40441080D01*
X62040648Y-39026866D01*
X62358846Y-38708668D01*
X63773060Y-40122882D01*
X63773060Y-40122882D01*
G37*
G36*
X64126614Y-39769328D02*
X63808416Y-40087526D01*
X62394202Y-38673312D01*
X62712400Y-38355114D01*
X64126614Y-39769328D01*
X64126614Y-39769328D01*
G37*
G36*
X64480167Y-39415775D02*
X64161969Y-39733973D01*
X62747755Y-38319759D01*
X63065953Y-38001561D01*
X64480167Y-39415775D01*
X64480167Y-39415775D01*
G37*
G36*
X64833720Y-39062222D02*
X64515522Y-39380420D01*
X63101308Y-37966206D01*
X63419506Y-37648008D01*
X64833720Y-39062222D01*
X64833720Y-39062222D01*
G37*
D32*
X98790000Y-33650000D03*
X101330000Y-33650000D03*
X103870000Y-33650000D03*
X106410000Y-33650000D03*
M02*
