G04 #@! TF.FileFunction,Copper,L2,Bot,Signal*
%FSLAX46Y46*%
G04 Gerber Fmt 4.6, Leading zero omitted, Abs format (unit mm)*
G04 Created by KiCad (PCBNEW 4.0.6) date 08/12/17 18:43:04*
%MOMM*%
%LPD*%
G01*
G04 APERTURE LIST*
%ADD10C,0.100000*%
%ADD11R,1.400000X1.800000*%
%ADD12O,1.400000X1.800000*%
%ADD13R,1.600000X1.600000*%
%ADD14C,1.600000*%
%ADD15C,1.520000*%
%ADD16C,3.200000*%
%ADD17C,1.500000*%
%ADD18O,1.200000X1.500000*%
%ADD19C,0.604800*%
%ADD20C,0.600000*%
%ADD21C,0.500000*%
%ADD22C,1.000000*%
%ADD23C,0.700000*%
%ADD24C,0.200000*%
%ADD25C,0.300000*%
G04 APERTURE END LIST*
D10*
D11*
X36950000Y-24500000D03*
D12*
X34410000Y-24500000D03*
X31870000Y-24500000D03*
X29330000Y-24500000D03*
X26790000Y-24500000D03*
X24250000Y-24500000D03*
D13*
X115150000Y-41800000D03*
D14*
X108650000Y-41800000D03*
D15*
X88970000Y-28500000D03*
X86430000Y-28500000D03*
X86430000Y-26500000D03*
X88970000Y-26500000D03*
D16*
X93700000Y-23800000D03*
X81700000Y-23800000D03*
D17*
X97520000Y-26340000D03*
X97520000Y-21260000D03*
X102600000Y-26340000D03*
X102600000Y-21260000D03*
X107680000Y-21260000D03*
X107680000Y-26340000D03*
D11*
X22225000Y-54610000D03*
D12*
X22225000Y-57150000D03*
X24765000Y-54610000D03*
X24765000Y-57150000D03*
X27305000Y-54610000D03*
X27305000Y-57150000D03*
X29845000Y-54610000D03*
X29845000Y-57150000D03*
D11*
X38735000Y-54610000D03*
D12*
X38735000Y-57150000D03*
X41275000Y-54610000D03*
X41275000Y-57150000D03*
D11*
X50165000Y-54610000D03*
D12*
X50165000Y-57150000D03*
X52705000Y-54610000D03*
X52705000Y-57150000D03*
X55245000Y-54610000D03*
X55245000Y-57150000D03*
X57785000Y-54610000D03*
X57785000Y-57150000D03*
X60325000Y-54610000D03*
X60325000Y-57150000D03*
D11*
X88900000Y-54610000D03*
D12*
X88900000Y-57150000D03*
X91440000Y-54610000D03*
X91440000Y-57150000D03*
X93980000Y-54610000D03*
X93980000Y-57150000D03*
X96520000Y-54610000D03*
X96520000Y-57150000D03*
X99060000Y-54610000D03*
X99060000Y-57150000D03*
X101600000Y-54610000D03*
X101600000Y-57150000D03*
X104140000Y-54610000D03*
X104140000Y-57150000D03*
X106680000Y-54610000D03*
X106680000Y-57150000D03*
X109220000Y-54610000D03*
X109220000Y-57150000D03*
X111760000Y-54610000D03*
X111760000Y-57150000D03*
X114300000Y-54610000D03*
X114300000Y-57150000D03*
X116840000Y-54610000D03*
X116840000Y-57150000D03*
D18*
X98790000Y-33650000D03*
X101330000Y-33650000D03*
X103870000Y-33650000D03*
X106410000Y-33650000D03*
D19*
X66750000Y-25650000D03*
X69700000Y-43100000D03*
X75300000Y-35600000D03*
X99800000Y-40800000D03*
X101800000Y-19200000D03*
X108400000Y-19200000D03*
X114700000Y-19200000D03*
X119300000Y-19200000D03*
X119300000Y-23200000D03*
X119300000Y-28000000D03*
X119300000Y-33400000D03*
X119300000Y-38900000D03*
X119300000Y-43900000D03*
X119300000Y-50000000D03*
X119300000Y-55700000D03*
X119300000Y-60800000D03*
X114200000Y-60800000D03*
X108600000Y-60800000D03*
X104100000Y-60800000D03*
X99300000Y-60800000D03*
X94500000Y-60800000D03*
X90200000Y-60800000D03*
X85400000Y-60800000D03*
X81000000Y-60800000D03*
X76700000Y-60800000D03*
X72800000Y-60800000D03*
X68300000Y-60800000D03*
X63700000Y-60800000D03*
X59400000Y-60800000D03*
X54800000Y-60800000D03*
X50500000Y-60800000D03*
X46800000Y-60800000D03*
X42800000Y-60800000D03*
X38100000Y-60800000D03*
X34100000Y-60800000D03*
X29800000Y-60800000D03*
X20700000Y-60800000D03*
X25400000Y-60800000D03*
X20700000Y-56400000D03*
X20700000Y-52700000D03*
X20700000Y-48700000D03*
X20700000Y-44400000D03*
X20700000Y-39300000D03*
X20700000Y-34500000D03*
X20700000Y-30300002D03*
X20700000Y-26600000D03*
X20700000Y-23000000D03*
X20700000Y-19200000D03*
X24800000Y-19200000D03*
X28800000Y-19200000D03*
X38399998Y-19200002D03*
X33700000Y-19200000D03*
X42500000Y-19200000D03*
X46100000Y-19200000D03*
X50000000Y-19200000D03*
X54900000Y-19200000D03*
X59200000Y-19200000D03*
X63800000Y-19200000D03*
X68500000Y-19200000D03*
X73600000Y-19200000D03*
X78200000Y-19200000D03*
X36300000Y-56500000D03*
X35500000Y-56500000D03*
X48783154Y-43015501D03*
X69050000Y-39950000D03*
X67350000Y-41700000D03*
X75100000Y-40400000D03*
X104300000Y-42400000D03*
X114350000Y-27400000D03*
X116950000Y-48950000D03*
X33050000Y-32500000D03*
X56334889Y-42615111D03*
X58457628Y-42207628D03*
X39000000Y-42850000D03*
X50400000Y-44950000D03*
X47400000Y-32100000D03*
X51600000Y-28100000D03*
X64500000Y-44499996D03*
X76650000Y-31800000D03*
X43100000Y-35000000D03*
X30103554Y-42050000D03*
X77542743Y-43096293D03*
X72642743Y-44996293D03*
X75000000Y-44996293D03*
X54061549Y-34248001D03*
X52250000Y-38200000D03*
X61100000Y-46500000D03*
X62400000Y-27550000D03*
X63600000Y-28650000D03*
X65900000Y-30850000D03*
X71350000Y-36550000D03*
X65350000Y-35800000D03*
X61600000Y-35200000D03*
X58050000Y-31700000D03*
X58800000Y-32350000D03*
X59700000Y-33250001D03*
X94200000Y-43850000D03*
X29800000Y-51600000D03*
X25800000Y-51400000D03*
X77700000Y-24700000D03*
X76500000Y-47200000D03*
X79150000Y-43350000D03*
X80850000Y-45350000D03*
X93160030Y-38839970D03*
X34271971Y-47928029D03*
X38100000Y-38899996D03*
X58800000Y-27300000D03*
X29600000Y-48799988D03*
X25999999Y-48800000D03*
X58699994Y-24800000D03*
X42700000Y-37100000D03*
X39350000Y-35400000D03*
X33608176Y-47264234D03*
X38147685Y-39843175D03*
X43500000Y-39600000D03*
X35000000Y-45850000D03*
X47100012Y-55500000D03*
X29600000Y-50400000D03*
X26000000Y-50400000D03*
X98650000Y-44800000D03*
X98600000Y-43400000D03*
X102900000Y-51750000D03*
X104750000Y-52450000D03*
X101600000Y-50999992D03*
X105700000Y-52850000D03*
X106650000Y-52457590D03*
X104150002Y-51300000D03*
X93000000Y-34000000D03*
X90800000Y-33500000D03*
X88800000Y-33000000D03*
X85400000Y-35600000D03*
X86900000Y-35600000D03*
X92900000Y-32600000D03*
X90800000Y-32700000D03*
X86900000Y-40400000D03*
X86900000Y-38800000D03*
X85300000Y-31700000D03*
X36900000Y-27100000D03*
X57100000Y-31800000D03*
X57600000Y-30300000D03*
X78800000Y-47600000D03*
X80195252Y-48795252D03*
X64100000Y-37500000D03*
X62000000Y-38200000D03*
X38600000Y-36150000D03*
X38700000Y-34600000D03*
X71542743Y-47696293D03*
X57000000Y-39650000D03*
X55350000Y-41300002D03*
X54300000Y-40000000D03*
X25700000Y-26900000D03*
X33799997Y-29350003D03*
X32282442Y-28061500D03*
X36000000Y-36800000D03*
X36000000Y-39500000D03*
X80221195Y-42523314D03*
X79517347Y-30007850D03*
X79600000Y-41750000D03*
X79500000Y-30800000D03*
X30300000Y-30500000D03*
X42800002Y-37900000D03*
X42291970Y-34241970D03*
D20*
X108400000Y-19200000D02*
X101800000Y-19200000D01*
X119300000Y-19200000D02*
X114700000Y-19200000D01*
X119300000Y-28000000D02*
X119300000Y-23200000D01*
X119300000Y-38900000D02*
X119300000Y-33400000D01*
X119300000Y-50000000D02*
X119300000Y-43900000D01*
X119300000Y-60800000D02*
X119300000Y-55700000D01*
X108600000Y-60800000D02*
X114200000Y-60800000D01*
X99300000Y-60800000D02*
X104100000Y-60800000D01*
X90200000Y-60800000D02*
X94500000Y-60800000D01*
X81000000Y-60800000D02*
X85400000Y-60800000D01*
X72800000Y-60800000D02*
X76700000Y-60800000D01*
X63700000Y-60800000D02*
X68300000Y-60800000D01*
X54800000Y-60800000D02*
X59400000Y-60800000D01*
X46800000Y-60800000D02*
X50500000Y-60800000D01*
X38100000Y-60800000D02*
X42800000Y-60800000D01*
X29800000Y-60800000D02*
X34100000Y-60800000D01*
X25200000Y-60800000D02*
X21127658Y-60800000D01*
X25300000Y-60700000D02*
X25200000Y-60800000D01*
X21127658Y-60800000D02*
X20700000Y-60800000D01*
X25400000Y-60800000D02*
X20700000Y-60800000D01*
X20700000Y-52700000D02*
X20700000Y-56400000D01*
X20700000Y-44400000D02*
X20700000Y-48700000D01*
X20700000Y-34500000D02*
X20700000Y-39300000D01*
X20700000Y-26600000D02*
X20700000Y-30300002D01*
X20700000Y-19200000D02*
X20700000Y-23000000D01*
X28800000Y-19200000D02*
X24800000Y-19200000D01*
X38399996Y-19200000D02*
X38399998Y-19200002D01*
X33700000Y-19200000D02*
X38399996Y-19200000D01*
X46100000Y-19200000D02*
X42500000Y-19200000D01*
X54900000Y-19200000D02*
X50000000Y-19200000D01*
X63800000Y-19200000D02*
X59200000Y-19200000D01*
X73600000Y-19200000D02*
X68500000Y-19200000D01*
D21*
X77897601Y-19502399D02*
X78200000Y-19200000D01*
X76650000Y-20750000D02*
X77897601Y-19502399D01*
X76650000Y-31800000D02*
X76650000Y-20750000D01*
D22*
X29800000Y-51600000D02*
X26000000Y-51600000D01*
X26000000Y-51600000D02*
X25800000Y-51400000D01*
D21*
X78002399Y-25002399D02*
X77700000Y-24700000D01*
X78002399Y-25902399D02*
X78002399Y-25002399D01*
X78777599Y-26677599D02*
X78002399Y-25902399D01*
X78777599Y-29678444D02*
X78777599Y-26677599D01*
X79150000Y-43350000D02*
X79150000Y-42922342D01*
X79150000Y-42922342D02*
X78777599Y-42549941D01*
X78777599Y-42549941D02*
X78777599Y-41503247D01*
X78777599Y-41503247D02*
X79279990Y-41000856D01*
X79279990Y-41000856D02*
X79279990Y-31900000D01*
X79279990Y-31900000D02*
X78777599Y-31397609D01*
X78777599Y-30900000D02*
X78777599Y-29678444D01*
X78777599Y-31397609D02*
X78777599Y-30900000D01*
X78777599Y-29678444D02*
X78777599Y-29387095D01*
X78777599Y-29678444D02*
X78794946Y-29661097D01*
D23*
X79452399Y-43652399D02*
X79150000Y-43350000D01*
X80050000Y-44250000D02*
X79452399Y-43652399D01*
X80850000Y-44250000D02*
X80050000Y-44250000D01*
D21*
X79400000Y-43600000D02*
X79150000Y-43350000D01*
D23*
X87322342Y-44250000D02*
X80850000Y-44250000D01*
X80850000Y-44250000D02*
X80850000Y-45350000D01*
X91450000Y-40122342D02*
X87322342Y-44250000D01*
X93160030Y-38839970D02*
X92732372Y-38839970D01*
X92732372Y-38839970D02*
X91450000Y-40122342D01*
D24*
X38720086Y-39520082D02*
X38720086Y-40117928D01*
X34271971Y-47500371D02*
X34271971Y-47928029D01*
X34271971Y-44566043D02*
X34271971Y-47500371D01*
X38100000Y-38899996D02*
X38720086Y-39520082D01*
X38720086Y-40117928D02*
X34271971Y-44566043D01*
X58699994Y-27199994D02*
X58800000Y-27300000D01*
X58699994Y-24800000D02*
X58699994Y-27199994D01*
X25999999Y-48800000D02*
X29599988Y-48800000D01*
X29599988Y-48800000D02*
X29600000Y-48799988D01*
X41000000Y-35400000D02*
X42397601Y-36797601D01*
X42397601Y-36797601D02*
X42700000Y-37100000D01*
X39350000Y-35400000D02*
X41000000Y-35400000D01*
X33608176Y-46836576D02*
X33608176Y-47264234D01*
X33608176Y-44382684D02*
X33608176Y-46836576D01*
X38147685Y-39843175D02*
X33608176Y-44382684D01*
X43072342Y-39600000D02*
X43500000Y-39600000D01*
X41250000Y-39600000D02*
X43072342Y-39600000D01*
X35000000Y-45850000D02*
X41250000Y-39600000D01*
X47402411Y-55197601D02*
X47100012Y-55500000D01*
X47990012Y-54610000D02*
X47402411Y-55197601D01*
X50165000Y-54610000D02*
X47990012Y-54610000D01*
X26000000Y-50400000D02*
X29600000Y-50400000D01*
X29754748Y-50554748D02*
X29600000Y-50400000D01*
X98600000Y-44750000D02*
X98650000Y-44800000D01*
X98600000Y-43400000D02*
X98600000Y-44750000D01*
X102900000Y-55650000D02*
X102900000Y-51750000D01*
X101600000Y-56950000D02*
X102900000Y-55650000D01*
X101600000Y-57150000D02*
X101600000Y-56950000D01*
X105127598Y-52827598D02*
X104750000Y-52450000D01*
X104140000Y-57150000D02*
X104140000Y-56950000D01*
X105127598Y-55962402D02*
X105127598Y-52827598D01*
X104140000Y-56950000D02*
X105127598Y-55962402D01*
X101600000Y-54610000D02*
X101600000Y-50999992D01*
X105700000Y-55970000D02*
X105700000Y-52850000D01*
X106680000Y-56950000D02*
X105700000Y-55970000D01*
X106680000Y-57150000D02*
X106680000Y-56950000D01*
X106650000Y-52457590D02*
X106650000Y-54580000D01*
X106650000Y-54580000D02*
X106680000Y-54610000D01*
X104140000Y-51310002D02*
X104150002Y-51300000D01*
X104140000Y-54610000D02*
X104140000Y-51310002D01*
D21*
X90800000Y-33500000D02*
X91300000Y-34000000D01*
X92572342Y-34000000D02*
X93000000Y-34000000D01*
X91300000Y-34000000D02*
X92572342Y-34000000D01*
D25*
X86900000Y-35600000D02*
X85400000Y-35600000D01*
D21*
X36950000Y-27050000D02*
X36900000Y-27100000D01*
X36950000Y-24500000D02*
X36950000Y-27050000D01*
D25*
X57100000Y-31372342D02*
X57100000Y-31800000D01*
X57100000Y-30800000D02*
X57100000Y-31372342D01*
X57600000Y-30300000D02*
X57100000Y-30800000D01*
X80195252Y-48795252D02*
X79995252Y-48795252D01*
X79995252Y-48795252D02*
X78800000Y-47600000D01*
D21*
X62000000Y-38200000D02*
X63400000Y-38200000D01*
X63400000Y-38200000D02*
X64100000Y-37500000D01*
X38700000Y-34600000D02*
X38600000Y-34700000D01*
X38600000Y-34700000D02*
X38600000Y-36150000D01*
X56697601Y-39952399D02*
X57000000Y-39650000D01*
X55652399Y-40997601D02*
X56697601Y-39952399D01*
X55350000Y-41300002D02*
X55652399Y-40997601D01*
X55350000Y-41050000D02*
X55350000Y-41300002D01*
X54300000Y-40000000D02*
X55350000Y-41050000D01*
D24*
X25700000Y-26900000D02*
X25700000Y-23600000D01*
X25700000Y-23600000D02*
X25970010Y-23329990D01*
X25970010Y-23329990D02*
X30529990Y-23329990D01*
X30529990Y-23329990D02*
X31700000Y-24500000D01*
X31700000Y-24500000D02*
X31870000Y-24500000D01*
X33570945Y-29350003D02*
X33799997Y-29350003D01*
X32282442Y-28061500D02*
X33570945Y-29350003D01*
X36000000Y-39500000D02*
X36000000Y-36800000D01*
X80221195Y-42523314D02*
X80221195Y-42521195D01*
X80221195Y-42521195D02*
X80172401Y-42472401D01*
X80172401Y-42472401D02*
X80172401Y-30662904D01*
X80172401Y-30662904D02*
X79517347Y-30007850D01*
X79500000Y-30800000D02*
X79802399Y-31102399D01*
X79802399Y-31102399D02*
X79802399Y-31997601D01*
X79802399Y-31997601D02*
X79800000Y-32000000D01*
X79800000Y-32000000D02*
X79800000Y-41550000D01*
X79800000Y-41550000D02*
X79600000Y-41750000D01*
X42291970Y-34241970D02*
X42291970Y-35791970D01*
X43102401Y-37597601D02*
X42800002Y-37900000D01*
X42291970Y-35791970D02*
X43300000Y-36800000D01*
X43300000Y-36800000D02*
X43300000Y-37400002D01*
X43300000Y-37400002D02*
X43102401Y-37597601D01*
G36*
X78400000Y-24480762D02*
X78347871Y-24428633D01*
X78295813Y-24302642D01*
X78098397Y-24104881D01*
X77840329Y-23997722D01*
X77560897Y-23997478D01*
X77302642Y-24104187D01*
X77104881Y-24301603D01*
X76997722Y-24559671D01*
X76997478Y-24839103D01*
X77104187Y-25097358D01*
X77301603Y-25295119D01*
X77352399Y-25316211D01*
X77352399Y-25902399D01*
X77389844Y-26090650D01*
X77401877Y-26151144D01*
X77542780Y-26362018D01*
X78127599Y-26946838D01*
X78127599Y-31397609D01*
X78164439Y-31582818D01*
X78177077Y-31646354D01*
X78317980Y-31857228D01*
X78629990Y-32169239D01*
X78629990Y-40731617D01*
X78317980Y-41043628D01*
X78177077Y-41254502D01*
X78177077Y-41254503D01*
X78127599Y-41503247D01*
X78127599Y-42549941D01*
X78157448Y-42700001D01*
X78177077Y-42798686D01*
X78317980Y-43009560D01*
X78442874Y-43134455D01*
X78400000Y-43350000D01*
X78457090Y-43637013D01*
X78619670Y-43880330D01*
X79519670Y-44780330D01*
X79762987Y-44942910D01*
X80050000Y-45000000D01*
X80100000Y-45000000D01*
X80100000Y-45350000D01*
X80157090Y-45637013D01*
X80319670Y-45880330D01*
X80562987Y-46042910D01*
X80850000Y-46100000D01*
X81137013Y-46042910D01*
X81380330Y-45880330D01*
X81542910Y-45637013D01*
X81600000Y-45350000D01*
X81600000Y-45000000D01*
X87322342Y-45000000D01*
X87609355Y-44942910D01*
X87852672Y-44780330D01*
X89093899Y-43539103D01*
X97897478Y-43539103D01*
X98004187Y-43797358D01*
X98100000Y-43893338D01*
X98100000Y-44356563D01*
X98054881Y-44401603D01*
X97947722Y-44659671D01*
X97947478Y-44939103D01*
X98054187Y-45197358D01*
X98251603Y-45395119D01*
X98509671Y-45502278D01*
X98789103Y-45502522D01*
X99047358Y-45395813D01*
X99245119Y-45198397D01*
X99352278Y-44940329D01*
X99352522Y-44660897D01*
X99245813Y-44402642D01*
X99100000Y-44256574D01*
X99100000Y-43893350D01*
X99195119Y-43798397D01*
X99302278Y-43540329D01*
X99302522Y-43260897D01*
X99195813Y-43002642D01*
X98998397Y-42804881D01*
X98740329Y-42697722D01*
X98460897Y-42697478D01*
X98202642Y-42804187D01*
X98004881Y-43001603D01*
X97897722Y-43259671D01*
X97897478Y-43539103D01*
X89093899Y-43539103D01*
X90595355Y-42037647D01*
X107449793Y-42037647D01*
X107632097Y-42478857D01*
X107969367Y-42816717D01*
X108410258Y-42999791D01*
X108887647Y-43000207D01*
X109328857Y-42817903D01*
X109666717Y-42480633D01*
X109849791Y-42039742D01*
X109850207Y-41562353D01*
X109667903Y-41121143D01*
X109546972Y-41000000D01*
X113942164Y-41000000D01*
X113942164Y-42600000D01*
X113970056Y-42748231D01*
X114057660Y-42884372D01*
X114191329Y-42975704D01*
X114350000Y-43007836D01*
X115950000Y-43007836D01*
X116098231Y-42979944D01*
X116234372Y-42892340D01*
X116325704Y-42758671D01*
X116357836Y-42600000D01*
X116357836Y-41000000D01*
X116329944Y-40851769D01*
X116242340Y-40715628D01*
X116108671Y-40624296D01*
X115950000Y-40592164D01*
X114350000Y-40592164D01*
X114201769Y-40620056D01*
X114065628Y-40707660D01*
X113974296Y-40841329D01*
X113942164Y-41000000D01*
X109546972Y-41000000D01*
X109330633Y-40783283D01*
X108889742Y-40600209D01*
X108412353Y-40599793D01*
X107971143Y-40782097D01*
X107633283Y-41119367D01*
X107450209Y-41560258D01*
X107449793Y-42037647D01*
X90595355Y-42037647D01*
X93043032Y-39589970D01*
X93160030Y-39589970D01*
X93447043Y-39532880D01*
X93690360Y-39370300D01*
X93852940Y-39126983D01*
X93910030Y-38839970D01*
X93852940Y-38552957D01*
X93690360Y-38309640D01*
X93447043Y-38147060D01*
X93160030Y-38089970D01*
X93051452Y-38089970D01*
X94541422Y-36600000D01*
X101000000Y-36600000D01*
X101038906Y-36592121D01*
X101070711Y-36570711D01*
X103154136Y-34487286D01*
X103180571Y-34524784D01*
X103510413Y-34733446D01*
X103688922Y-34783468D01*
X103845000Y-34699653D01*
X103845000Y-33675000D01*
X103895000Y-33675000D01*
X103895000Y-34699653D01*
X104051078Y-34783468D01*
X104229587Y-34733446D01*
X104559429Y-34524784D01*
X104784312Y-34205780D01*
X104870000Y-33825000D01*
X104870000Y-33675000D01*
X103895000Y-33675000D01*
X103845000Y-33675000D01*
X103825000Y-33675000D01*
X103825000Y-33625000D01*
X103845000Y-33625000D01*
X103845000Y-32600347D01*
X103895000Y-32600347D01*
X103895000Y-33625000D01*
X104870000Y-33625000D01*
X104870000Y-33477470D01*
X105410000Y-33477470D01*
X105410000Y-33822530D01*
X105486120Y-34205213D01*
X105702893Y-34529637D01*
X106027317Y-34746410D01*
X106410000Y-34822530D01*
X106792683Y-34746410D01*
X107117107Y-34529637D01*
X107333880Y-34205213D01*
X107410000Y-33822530D01*
X107410000Y-33477470D01*
X107333880Y-33094787D01*
X107117107Y-32770363D01*
X106792683Y-32553590D01*
X106410000Y-32477470D01*
X106027317Y-32553590D01*
X105702893Y-32770363D01*
X105486120Y-33094787D01*
X105410000Y-33477470D01*
X104870000Y-33477470D01*
X104870000Y-33475000D01*
X104784312Y-33094220D01*
X104559429Y-32775216D01*
X104229587Y-32566554D01*
X104051078Y-32516532D01*
X103895000Y-32600347D01*
X103845000Y-32600347D01*
X103688922Y-32516532D01*
X103600000Y-32541450D01*
X103600000Y-29500000D01*
X103592121Y-29461094D01*
X103570711Y-29429289D01*
X101600000Y-27458578D01*
X101600000Y-26931256D01*
X101624509Y-26990572D01*
X101947727Y-27314354D01*
X102370247Y-27489800D01*
X102827746Y-27490199D01*
X103250572Y-27315491D01*
X103450546Y-27115865D01*
X106939490Y-27115865D01*
X107011187Y-27303076D01*
X107430650Y-27485710D01*
X107888075Y-27493920D01*
X108313823Y-27326456D01*
X108348813Y-27303076D01*
X108420510Y-27115865D01*
X107680000Y-26375355D01*
X106939490Y-27115865D01*
X103450546Y-27115865D01*
X103574354Y-26992273D01*
X103749800Y-26569753D01*
X103749818Y-26548075D01*
X106526080Y-26548075D01*
X106693544Y-26973823D01*
X106716924Y-27008813D01*
X106904135Y-27080510D01*
X107644645Y-26340000D01*
X107715355Y-26340000D01*
X108455865Y-27080510D01*
X108643076Y-27008813D01*
X108825710Y-26589350D01*
X108833920Y-26131925D01*
X108666456Y-25706177D01*
X108643076Y-25671187D01*
X108455865Y-25599490D01*
X107715355Y-26340000D01*
X107644645Y-26340000D01*
X106904135Y-25599490D01*
X106716924Y-25671187D01*
X106534290Y-26090650D01*
X106526080Y-26548075D01*
X103749818Y-26548075D01*
X103750199Y-26112254D01*
X103575491Y-25689428D01*
X103450417Y-25564135D01*
X106939490Y-25564135D01*
X107680000Y-26304645D01*
X108420510Y-25564135D01*
X108348813Y-25376924D01*
X107929350Y-25194290D01*
X107471925Y-25186080D01*
X107046177Y-25353544D01*
X107011187Y-25376924D01*
X106939490Y-25564135D01*
X103450417Y-25564135D01*
X103252273Y-25365646D01*
X102829753Y-25190200D01*
X102372254Y-25189801D01*
X101949428Y-25364509D01*
X101625646Y-25687727D01*
X101600000Y-25749489D01*
X101600000Y-21851256D01*
X101624509Y-21910572D01*
X101947727Y-22234354D01*
X102370247Y-22409800D01*
X102827746Y-22410199D01*
X103250572Y-22235491D01*
X103574354Y-21912273D01*
X103749800Y-21489753D01*
X103749801Y-21487746D01*
X106529801Y-21487746D01*
X106704509Y-21910572D01*
X107027727Y-22234354D01*
X107450247Y-22409800D01*
X107907746Y-22410199D01*
X108330572Y-22235491D01*
X108654354Y-21912273D01*
X108829800Y-21489753D01*
X108830199Y-21032254D01*
X108655491Y-20609428D01*
X108332273Y-20285646D01*
X107909753Y-20110200D01*
X107452254Y-20109801D01*
X107029428Y-20284509D01*
X106705646Y-20607727D01*
X106530200Y-21030247D01*
X106529801Y-21487746D01*
X103749801Y-21487746D01*
X103750199Y-21032254D01*
X103575491Y-20609428D01*
X103252273Y-20285646D01*
X102829753Y-20110200D01*
X102372254Y-20109801D01*
X101949428Y-20284509D01*
X101625646Y-20607727D01*
X101600000Y-20669489D01*
X101600000Y-19000000D01*
X119500000Y-19000000D01*
X119500000Y-61000000D01*
X20500000Y-61000000D01*
X20500000Y-57175000D01*
X21125000Y-57175000D01*
X21125000Y-57375000D01*
X21218300Y-57794049D01*
X21464861Y-58145495D01*
X21827146Y-58375834D01*
X22028274Y-58432266D01*
X22200000Y-58349687D01*
X22200000Y-57175000D01*
X22250000Y-57175000D01*
X22250000Y-58349687D01*
X22421726Y-58432266D01*
X22622854Y-58375834D01*
X22985139Y-58145495D01*
X23231700Y-57794049D01*
X23325000Y-57375000D01*
X23325000Y-57175000D01*
X22250000Y-57175000D01*
X22200000Y-57175000D01*
X21125000Y-57175000D01*
X20500000Y-57175000D01*
X20500000Y-54735000D01*
X21125000Y-54735000D01*
X21125000Y-55589565D01*
X21185896Y-55736582D01*
X21298418Y-55849104D01*
X21445435Y-55910000D01*
X21877635Y-55910000D01*
X21827146Y-55924166D01*
X21464861Y-56154505D01*
X21218300Y-56505951D01*
X21125000Y-56925000D01*
X21125000Y-57125000D01*
X22200000Y-57125000D01*
X22200000Y-55950313D01*
X22105250Y-55904750D01*
X22200000Y-55810000D01*
X22200000Y-54635000D01*
X22250000Y-54635000D01*
X22250000Y-55810000D01*
X22344750Y-55904750D01*
X22250000Y-55950313D01*
X22250000Y-57125000D01*
X23325000Y-57125000D01*
X23325000Y-56925000D01*
X23231700Y-56505951D01*
X22985139Y-56154505D01*
X22622854Y-55924166D01*
X22572365Y-55910000D01*
X23004565Y-55910000D01*
X23151582Y-55849104D01*
X23264104Y-55736582D01*
X23325000Y-55589565D01*
X23325000Y-54735000D01*
X23225000Y-54635000D01*
X22250000Y-54635000D01*
X22200000Y-54635000D01*
X21225000Y-54635000D01*
X21125000Y-54735000D01*
X20500000Y-54735000D01*
X20500000Y-53630435D01*
X21125000Y-53630435D01*
X21125000Y-54485000D01*
X21225000Y-54585000D01*
X22200000Y-54585000D01*
X22200000Y-53410000D01*
X22250000Y-53410000D01*
X22250000Y-54585000D01*
X23225000Y-54585000D01*
X23325000Y-54485000D01*
X23325000Y-54384531D01*
X23665000Y-54384531D01*
X23665000Y-54835469D01*
X23748733Y-55256421D01*
X23987183Y-55613286D01*
X24344048Y-55851736D01*
X24486140Y-55880000D01*
X24344048Y-55908264D01*
X23987183Y-56146714D01*
X23748733Y-56503579D01*
X23665000Y-56924531D01*
X23665000Y-57375469D01*
X23748733Y-57796421D01*
X23987183Y-58153286D01*
X24344048Y-58391736D01*
X24765000Y-58475469D01*
X25185952Y-58391736D01*
X25542817Y-58153286D01*
X25781267Y-57796421D01*
X25865000Y-57375469D01*
X25865000Y-56924531D01*
X25781267Y-56503579D01*
X25542817Y-56146714D01*
X25185952Y-55908264D01*
X25043860Y-55880000D01*
X25185952Y-55851736D01*
X25542817Y-55613286D01*
X25781267Y-55256421D01*
X25865000Y-54835469D01*
X25865000Y-54384531D01*
X26205000Y-54384531D01*
X26205000Y-54835469D01*
X26288733Y-55256421D01*
X26527183Y-55613286D01*
X26884048Y-55851736D01*
X27026140Y-55880000D01*
X26884048Y-55908264D01*
X26527183Y-56146714D01*
X26288733Y-56503579D01*
X26205000Y-56924531D01*
X26205000Y-57375469D01*
X26288733Y-57796421D01*
X26527183Y-58153286D01*
X26884048Y-58391736D01*
X27305000Y-58475469D01*
X27725952Y-58391736D01*
X28082817Y-58153286D01*
X28321267Y-57796421D01*
X28405000Y-57375469D01*
X28405000Y-56924531D01*
X28321267Y-56503579D01*
X28082817Y-56146714D01*
X27725952Y-55908264D01*
X27583860Y-55880000D01*
X27725952Y-55851736D01*
X28082817Y-55613286D01*
X28321267Y-55256421D01*
X28405000Y-54835469D01*
X28405000Y-54384531D01*
X28745000Y-54384531D01*
X28745000Y-54835469D01*
X28828733Y-55256421D01*
X29067183Y-55613286D01*
X29424048Y-55851736D01*
X29566140Y-55880000D01*
X29424048Y-55908264D01*
X29067183Y-56146714D01*
X28828733Y-56503579D01*
X28745000Y-56924531D01*
X28745000Y-57375469D01*
X28828733Y-57796421D01*
X29067183Y-58153286D01*
X29424048Y-58391736D01*
X29845000Y-58475469D01*
X30265952Y-58391736D01*
X30622817Y-58153286D01*
X30861267Y-57796421D01*
X30945000Y-57375469D01*
X30945000Y-56924531D01*
X30861267Y-56503579D01*
X30622817Y-56146714D01*
X30265952Y-55908264D01*
X30123860Y-55880000D01*
X30265952Y-55851736D01*
X30622817Y-55613286D01*
X30861267Y-55256421D01*
X30945000Y-54835469D01*
X30945000Y-54384531D01*
X30861267Y-53963579D01*
X30691831Y-53710000D01*
X37627164Y-53710000D01*
X37627164Y-55510000D01*
X37655056Y-55658231D01*
X37742660Y-55794372D01*
X37876329Y-55885704D01*
X38035000Y-55917836D01*
X38299723Y-55917836D01*
X37957183Y-56146714D01*
X37718733Y-56503579D01*
X37635000Y-56924531D01*
X37635000Y-57375469D01*
X37718733Y-57796421D01*
X37957183Y-58153286D01*
X38314048Y-58391736D01*
X38735000Y-58475469D01*
X39155952Y-58391736D01*
X39512817Y-58153286D01*
X39751267Y-57796421D01*
X39835000Y-57375469D01*
X39835000Y-57175000D01*
X40175000Y-57175000D01*
X40175000Y-57375000D01*
X40268300Y-57794049D01*
X40514861Y-58145495D01*
X40877146Y-58375834D01*
X41078274Y-58432266D01*
X41250000Y-58349687D01*
X41250000Y-57175000D01*
X41300000Y-57175000D01*
X41300000Y-58349687D01*
X41471726Y-58432266D01*
X41672854Y-58375834D01*
X42035139Y-58145495D01*
X42281700Y-57794049D01*
X42375000Y-57375000D01*
X42375000Y-57175000D01*
X41300000Y-57175000D01*
X41250000Y-57175000D01*
X40175000Y-57175000D01*
X39835000Y-57175000D01*
X39835000Y-56924531D01*
X39751267Y-56503579D01*
X39512817Y-56146714D01*
X39170277Y-55917836D01*
X39435000Y-55917836D01*
X39583231Y-55889944D01*
X39719372Y-55802340D01*
X39810704Y-55668671D01*
X39842836Y-55510000D01*
X39842836Y-54635000D01*
X40175000Y-54635000D01*
X40175000Y-54835000D01*
X40268300Y-55254049D01*
X40514861Y-55605495D01*
X40877146Y-55835834D01*
X41034557Y-55880000D01*
X40877146Y-55924166D01*
X40514861Y-56154505D01*
X40268300Y-56505951D01*
X40175000Y-56925000D01*
X40175000Y-57125000D01*
X41250000Y-57125000D01*
X41250000Y-55950313D01*
X41103782Y-55880000D01*
X41250000Y-55809687D01*
X41250000Y-54635000D01*
X41300000Y-54635000D01*
X41300000Y-55809687D01*
X41446218Y-55880000D01*
X41300000Y-55950313D01*
X41300000Y-57125000D01*
X42375000Y-57125000D01*
X42375000Y-56925000D01*
X42281700Y-56505951D01*
X42035139Y-56154505D01*
X41672854Y-55924166D01*
X41515443Y-55880000D01*
X41672854Y-55835834D01*
X41982279Y-55639103D01*
X46397490Y-55639103D01*
X46504199Y-55897358D01*
X46701615Y-56095119D01*
X46959683Y-56202278D01*
X47239115Y-56202522D01*
X47497370Y-56095813D01*
X47695131Y-55898397D01*
X47802290Y-55640329D01*
X47802408Y-55504710D01*
X48197119Y-55110000D01*
X49057164Y-55110000D01*
X49057164Y-55510000D01*
X49085056Y-55658231D01*
X49172660Y-55794372D01*
X49306329Y-55885704D01*
X49465000Y-55917836D01*
X49729723Y-55917836D01*
X49387183Y-56146714D01*
X49148733Y-56503579D01*
X49065000Y-56924531D01*
X49065000Y-57375469D01*
X49148733Y-57796421D01*
X49387183Y-58153286D01*
X49744048Y-58391736D01*
X50165000Y-58475469D01*
X50585952Y-58391736D01*
X50942817Y-58153286D01*
X51181267Y-57796421D01*
X51265000Y-57375469D01*
X51265000Y-56924531D01*
X51181267Y-56503579D01*
X50942817Y-56146714D01*
X50600277Y-55917836D01*
X50865000Y-55917836D01*
X51013231Y-55889944D01*
X51149372Y-55802340D01*
X51240704Y-55668671D01*
X51272836Y-55510000D01*
X51272836Y-54384531D01*
X51605000Y-54384531D01*
X51605000Y-54835469D01*
X51688733Y-55256421D01*
X51927183Y-55613286D01*
X52284048Y-55851736D01*
X52426140Y-55880000D01*
X52284048Y-55908264D01*
X51927183Y-56146714D01*
X51688733Y-56503579D01*
X51605000Y-56924531D01*
X51605000Y-57375469D01*
X51688733Y-57796421D01*
X51927183Y-58153286D01*
X52284048Y-58391736D01*
X52705000Y-58475469D01*
X53125952Y-58391736D01*
X53482817Y-58153286D01*
X53721267Y-57796421D01*
X53805000Y-57375469D01*
X53805000Y-56924531D01*
X53721267Y-56503579D01*
X53482817Y-56146714D01*
X53125952Y-55908264D01*
X52983860Y-55880000D01*
X53125952Y-55851736D01*
X53482817Y-55613286D01*
X53721267Y-55256421D01*
X53805000Y-54835469D01*
X53805000Y-54384531D01*
X54145000Y-54384531D01*
X54145000Y-54835469D01*
X54228733Y-55256421D01*
X54467183Y-55613286D01*
X54824048Y-55851736D01*
X54966140Y-55880000D01*
X54824048Y-55908264D01*
X54467183Y-56146714D01*
X54228733Y-56503579D01*
X54145000Y-56924531D01*
X54145000Y-57375469D01*
X54228733Y-57796421D01*
X54467183Y-58153286D01*
X54824048Y-58391736D01*
X55245000Y-58475469D01*
X55665952Y-58391736D01*
X56022817Y-58153286D01*
X56261267Y-57796421D01*
X56345000Y-57375469D01*
X56345000Y-56924531D01*
X56261267Y-56503579D01*
X56022817Y-56146714D01*
X55665952Y-55908264D01*
X55523860Y-55880000D01*
X55665952Y-55851736D01*
X56022817Y-55613286D01*
X56261267Y-55256421D01*
X56345000Y-54835469D01*
X56345000Y-54384531D01*
X56685000Y-54384531D01*
X56685000Y-54835469D01*
X56768733Y-55256421D01*
X57007183Y-55613286D01*
X57364048Y-55851736D01*
X57506140Y-55880000D01*
X57364048Y-55908264D01*
X57007183Y-56146714D01*
X56768733Y-56503579D01*
X56685000Y-56924531D01*
X56685000Y-57375469D01*
X56768733Y-57796421D01*
X57007183Y-58153286D01*
X57364048Y-58391736D01*
X57785000Y-58475469D01*
X58205952Y-58391736D01*
X58562817Y-58153286D01*
X58801267Y-57796421D01*
X58885000Y-57375469D01*
X58885000Y-56924531D01*
X58801267Y-56503579D01*
X58562817Y-56146714D01*
X58205952Y-55908264D01*
X58063860Y-55880000D01*
X58205952Y-55851736D01*
X58562817Y-55613286D01*
X58801267Y-55256421D01*
X58885000Y-54835469D01*
X58885000Y-54384531D01*
X59225000Y-54384531D01*
X59225000Y-54835469D01*
X59308733Y-55256421D01*
X59547183Y-55613286D01*
X59904048Y-55851736D01*
X60046140Y-55880000D01*
X59904048Y-55908264D01*
X59547183Y-56146714D01*
X59308733Y-56503579D01*
X59225000Y-56924531D01*
X59225000Y-57375469D01*
X59308733Y-57796421D01*
X59547183Y-58153286D01*
X59904048Y-58391736D01*
X60325000Y-58475469D01*
X60745952Y-58391736D01*
X61102817Y-58153286D01*
X61341267Y-57796421D01*
X61425000Y-57375469D01*
X61425000Y-56924531D01*
X61341267Y-56503579D01*
X61102817Y-56146714D01*
X60745952Y-55908264D01*
X60603860Y-55880000D01*
X60745952Y-55851736D01*
X61102817Y-55613286D01*
X61341267Y-55256421D01*
X61425000Y-54835469D01*
X61425000Y-54384531D01*
X61341267Y-53963579D01*
X61171831Y-53710000D01*
X87792164Y-53710000D01*
X87792164Y-55510000D01*
X87820056Y-55658231D01*
X87907660Y-55794372D01*
X88041329Y-55885704D01*
X88200000Y-55917836D01*
X88464723Y-55917836D01*
X88122183Y-56146714D01*
X87883733Y-56503579D01*
X87800000Y-56924531D01*
X87800000Y-57375469D01*
X87883733Y-57796421D01*
X88122183Y-58153286D01*
X88479048Y-58391736D01*
X88900000Y-58475469D01*
X89320952Y-58391736D01*
X89677817Y-58153286D01*
X89916267Y-57796421D01*
X90000000Y-57375469D01*
X90000000Y-56924531D01*
X89916267Y-56503579D01*
X89677817Y-56146714D01*
X89335277Y-55917836D01*
X89600000Y-55917836D01*
X89748231Y-55889944D01*
X89884372Y-55802340D01*
X89975704Y-55668671D01*
X90007836Y-55510000D01*
X90007836Y-54384531D01*
X90340000Y-54384531D01*
X90340000Y-54835469D01*
X90423733Y-55256421D01*
X90662183Y-55613286D01*
X91019048Y-55851736D01*
X91161140Y-55880000D01*
X91019048Y-55908264D01*
X90662183Y-56146714D01*
X90423733Y-56503579D01*
X90340000Y-56924531D01*
X90340000Y-57375469D01*
X90423733Y-57796421D01*
X90662183Y-58153286D01*
X91019048Y-58391736D01*
X91440000Y-58475469D01*
X91860952Y-58391736D01*
X92217817Y-58153286D01*
X92456267Y-57796421D01*
X92540000Y-57375469D01*
X92540000Y-56924531D01*
X92456267Y-56503579D01*
X92217817Y-56146714D01*
X91860952Y-55908264D01*
X91718860Y-55880000D01*
X91860952Y-55851736D01*
X92217817Y-55613286D01*
X92456267Y-55256421D01*
X92540000Y-54835469D01*
X92540000Y-54384531D01*
X92880000Y-54384531D01*
X92880000Y-54835469D01*
X92963733Y-55256421D01*
X93202183Y-55613286D01*
X93559048Y-55851736D01*
X93701140Y-55880000D01*
X93559048Y-55908264D01*
X93202183Y-56146714D01*
X92963733Y-56503579D01*
X92880000Y-56924531D01*
X92880000Y-57375469D01*
X92963733Y-57796421D01*
X93202183Y-58153286D01*
X93559048Y-58391736D01*
X93980000Y-58475469D01*
X94400952Y-58391736D01*
X94757817Y-58153286D01*
X94996267Y-57796421D01*
X95080000Y-57375469D01*
X95080000Y-56924531D01*
X94996267Y-56503579D01*
X94757817Y-56146714D01*
X94400952Y-55908264D01*
X94258860Y-55880000D01*
X94400952Y-55851736D01*
X94757817Y-55613286D01*
X94996267Y-55256421D01*
X95080000Y-54835469D01*
X95080000Y-54384531D01*
X95420000Y-54384531D01*
X95420000Y-54835469D01*
X95503733Y-55256421D01*
X95742183Y-55613286D01*
X96099048Y-55851736D01*
X96241140Y-55880000D01*
X96099048Y-55908264D01*
X95742183Y-56146714D01*
X95503733Y-56503579D01*
X95420000Y-56924531D01*
X95420000Y-57375469D01*
X95503733Y-57796421D01*
X95742183Y-58153286D01*
X96099048Y-58391736D01*
X96520000Y-58475469D01*
X96940952Y-58391736D01*
X97297817Y-58153286D01*
X97536267Y-57796421D01*
X97620000Y-57375469D01*
X97620000Y-56924531D01*
X97536267Y-56503579D01*
X97297817Y-56146714D01*
X96940952Y-55908264D01*
X96798860Y-55880000D01*
X96940952Y-55851736D01*
X97297817Y-55613286D01*
X97536267Y-55256421D01*
X97620000Y-54835469D01*
X97620000Y-54384531D01*
X97960000Y-54384531D01*
X97960000Y-54835469D01*
X98043733Y-55256421D01*
X98282183Y-55613286D01*
X98639048Y-55851736D01*
X98781140Y-55880000D01*
X98639048Y-55908264D01*
X98282183Y-56146714D01*
X98043733Y-56503579D01*
X97960000Y-56924531D01*
X97960000Y-57375469D01*
X98043733Y-57796421D01*
X98282183Y-58153286D01*
X98639048Y-58391736D01*
X99060000Y-58475469D01*
X99480952Y-58391736D01*
X99837817Y-58153286D01*
X100076267Y-57796421D01*
X100160000Y-57375469D01*
X100160000Y-56924531D01*
X100076267Y-56503579D01*
X99837817Y-56146714D01*
X99480952Y-55908264D01*
X99338860Y-55880000D01*
X99480952Y-55851736D01*
X99837817Y-55613286D01*
X100076267Y-55256421D01*
X100160000Y-54835469D01*
X100160000Y-54384531D01*
X100500000Y-54384531D01*
X100500000Y-54835469D01*
X100583733Y-55256421D01*
X100822183Y-55613286D01*
X101179048Y-55851736D01*
X101321140Y-55880000D01*
X101179048Y-55908264D01*
X100822183Y-56146714D01*
X100583733Y-56503579D01*
X100500000Y-56924531D01*
X100500000Y-57375469D01*
X100583733Y-57796421D01*
X100822183Y-58153286D01*
X101179048Y-58391736D01*
X101600000Y-58475469D01*
X102020952Y-58391736D01*
X102377817Y-58153286D01*
X102616267Y-57796421D01*
X102700000Y-57375469D01*
X102700000Y-56924531D01*
X102639040Y-56618066D01*
X103253554Y-56003553D01*
X103344305Y-55867734D01*
X103361940Y-55841342D01*
X103400000Y-55650000D01*
X103400000Y-55638555D01*
X103719048Y-55851736D01*
X103861140Y-55880000D01*
X103719048Y-55908264D01*
X103362183Y-56146714D01*
X103123733Y-56503579D01*
X103040000Y-56924531D01*
X103040000Y-57375469D01*
X103123733Y-57796421D01*
X103362183Y-58153286D01*
X103719048Y-58391736D01*
X104140000Y-58475469D01*
X104560952Y-58391736D01*
X104917817Y-58153286D01*
X105156267Y-57796421D01*
X105240000Y-57375469D01*
X105240000Y-56924531D01*
X105179040Y-56618067D01*
X105410000Y-56387106D01*
X105640960Y-56618066D01*
X105580000Y-56924531D01*
X105580000Y-57375469D01*
X105663733Y-57796421D01*
X105902183Y-58153286D01*
X106259048Y-58391736D01*
X106680000Y-58475469D01*
X107100952Y-58391736D01*
X107457817Y-58153286D01*
X107696267Y-57796421D01*
X107780000Y-57375469D01*
X107780000Y-56924531D01*
X107696267Y-56503579D01*
X107457817Y-56146714D01*
X107100952Y-55908264D01*
X106958860Y-55880000D01*
X107100952Y-55851736D01*
X107457817Y-55613286D01*
X107696267Y-55256421D01*
X107780000Y-54835469D01*
X107780000Y-54384531D01*
X108120000Y-54384531D01*
X108120000Y-54835469D01*
X108203733Y-55256421D01*
X108442183Y-55613286D01*
X108799048Y-55851736D01*
X108941140Y-55880000D01*
X108799048Y-55908264D01*
X108442183Y-56146714D01*
X108203733Y-56503579D01*
X108120000Y-56924531D01*
X108120000Y-57375469D01*
X108203733Y-57796421D01*
X108442183Y-58153286D01*
X108799048Y-58391736D01*
X109220000Y-58475469D01*
X109640952Y-58391736D01*
X109997817Y-58153286D01*
X110236267Y-57796421D01*
X110320000Y-57375469D01*
X110320000Y-56924531D01*
X110236267Y-56503579D01*
X109997817Y-56146714D01*
X109640952Y-55908264D01*
X109498860Y-55880000D01*
X109640952Y-55851736D01*
X109997817Y-55613286D01*
X110236267Y-55256421D01*
X110320000Y-54835469D01*
X110320000Y-54384531D01*
X110660000Y-54384531D01*
X110660000Y-54835469D01*
X110743733Y-55256421D01*
X110982183Y-55613286D01*
X111339048Y-55851736D01*
X111481140Y-55880000D01*
X111339048Y-55908264D01*
X110982183Y-56146714D01*
X110743733Y-56503579D01*
X110660000Y-56924531D01*
X110660000Y-57375469D01*
X110743733Y-57796421D01*
X110982183Y-58153286D01*
X111339048Y-58391736D01*
X111760000Y-58475469D01*
X112180952Y-58391736D01*
X112537817Y-58153286D01*
X112776267Y-57796421D01*
X112860000Y-57375469D01*
X112860000Y-56924531D01*
X112776267Y-56503579D01*
X112537817Y-56146714D01*
X112180952Y-55908264D01*
X112038860Y-55880000D01*
X112180952Y-55851736D01*
X112537817Y-55613286D01*
X112776267Y-55256421D01*
X112860000Y-54835469D01*
X112860000Y-54384531D01*
X113200000Y-54384531D01*
X113200000Y-54835469D01*
X113283733Y-55256421D01*
X113522183Y-55613286D01*
X113879048Y-55851736D01*
X114021140Y-55880000D01*
X113879048Y-55908264D01*
X113522183Y-56146714D01*
X113283733Y-56503579D01*
X113200000Y-56924531D01*
X113200000Y-57375469D01*
X113283733Y-57796421D01*
X113522183Y-58153286D01*
X113879048Y-58391736D01*
X114300000Y-58475469D01*
X114720952Y-58391736D01*
X115077817Y-58153286D01*
X115316267Y-57796421D01*
X115400000Y-57375469D01*
X115400000Y-57175000D01*
X115740000Y-57175000D01*
X115740000Y-57375000D01*
X115833300Y-57794049D01*
X116079861Y-58145495D01*
X116442146Y-58375834D01*
X116643274Y-58432266D01*
X116815000Y-58349687D01*
X116815000Y-57175000D01*
X116865000Y-57175000D01*
X116865000Y-58349687D01*
X117036726Y-58432266D01*
X117237854Y-58375834D01*
X117600139Y-58145495D01*
X117846700Y-57794049D01*
X117940000Y-57375000D01*
X117940000Y-57175000D01*
X116865000Y-57175000D01*
X116815000Y-57175000D01*
X115740000Y-57175000D01*
X115400000Y-57175000D01*
X115400000Y-56924531D01*
X115316267Y-56503579D01*
X115077817Y-56146714D01*
X114720952Y-55908264D01*
X114578860Y-55880000D01*
X114720952Y-55851736D01*
X115077817Y-55613286D01*
X115316267Y-55256421D01*
X115400000Y-54835469D01*
X115400000Y-54635000D01*
X115740000Y-54635000D01*
X115740000Y-54835000D01*
X115833300Y-55254049D01*
X116079861Y-55605495D01*
X116442146Y-55835834D01*
X116599557Y-55880000D01*
X116442146Y-55924166D01*
X116079861Y-56154505D01*
X115833300Y-56505951D01*
X115740000Y-56925000D01*
X115740000Y-57125000D01*
X116815000Y-57125000D01*
X116815000Y-55950313D01*
X116668782Y-55880000D01*
X116815000Y-55809687D01*
X116815000Y-54635000D01*
X116865000Y-54635000D01*
X116865000Y-55809687D01*
X117011218Y-55880000D01*
X116865000Y-55950313D01*
X116865000Y-57125000D01*
X117940000Y-57125000D01*
X117940000Y-56925000D01*
X117846700Y-56505951D01*
X117600139Y-56154505D01*
X117237854Y-55924166D01*
X117080443Y-55880000D01*
X117237854Y-55835834D01*
X117600139Y-55605495D01*
X117846700Y-55254049D01*
X117940000Y-54835000D01*
X117940000Y-54635000D01*
X116865000Y-54635000D01*
X116815000Y-54635000D01*
X115740000Y-54635000D01*
X115400000Y-54635000D01*
X115400000Y-54385000D01*
X115740000Y-54385000D01*
X115740000Y-54585000D01*
X116815000Y-54585000D01*
X116815000Y-53410313D01*
X116865000Y-53410313D01*
X116865000Y-54585000D01*
X117940000Y-54585000D01*
X117940000Y-54385000D01*
X117846700Y-53965951D01*
X117600139Y-53614505D01*
X117237854Y-53384166D01*
X117036726Y-53327734D01*
X116865000Y-53410313D01*
X116815000Y-53410313D01*
X116643274Y-53327734D01*
X116442146Y-53384166D01*
X116079861Y-53614505D01*
X115833300Y-53965951D01*
X115740000Y-54385000D01*
X115400000Y-54385000D01*
X115400000Y-54384531D01*
X115316267Y-53963579D01*
X115077817Y-53606714D01*
X114720952Y-53368264D01*
X114300000Y-53284531D01*
X113879048Y-53368264D01*
X113522183Y-53606714D01*
X113283733Y-53963579D01*
X113200000Y-54384531D01*
X112860000Y-54384531D01*
X112776267Y-53963579D01*
X112537817Y-53606714D01*
X112180952Y-53368264D01*
X111760000Y-53284531D01*
X111339048Y-53368264D01*
X110982183Y-53606714D01*
X110743733Y-53963579D01*
X110660000Y-54384531D01*
X110320000Y-54384531D01*
X110236267Y-53963579D01*
X109997817Y-53606714D01*
X109640952Y-53368264D01*
X109220000Y-53284531D01*
X108799048Y-53368264D01*
X108442183Y-53606714D01*
X108203733Y-53963579D01*
X108120000Y-54384531D01*
X107780000Y-54384531D01*
X107696267Y-53963579D01*
X107457817Y-53606714D01*
X107150000Y-53401037D01*
X107150000Y-52950940D01*
X107245119Y-52855987D01*
X107352278Y-52597919D01*
X107352522Y-52318487D01*
X107245813Y-52060232D01*
X107048397Y-51862471D01*
X106790329Y-51755312D01*
X106510897Y-51755068D01*
X106252642Y-51861777D01*
X106054881Y-52059193D01*
X105991974Y-52210690D01*
X105840329Y-52147722D01*
X105560897Y-52147478D01*
X105410650Y-52209559D01*
X105345813Y-52052642D01*
X105148397Y-51854881D01*
X104890329Y-51747722D01*
X104695880Y-51747552D01*
X104745121Y-51698397D01*
X104852280Y-51440329D01*
X104852524Y-51160897D01*
X104745815Y-50902642D01*
X104548399Y-50704881D01*
X104290331Y-50597722D01*
X104010899Y-50597478D01*
X103752644Y-50704187D01*
X103554883Y-50901603D01*
X103447724Y-51159671D01*
X103447598Y-51304342D01*
X103298397Y-51154881D01*
X103040329Y-51047722D01*
X102760897Y-51047478D01*
X102502642Y-51154187D01*
X102304881Y-51351603D01*
X102197722Y-51609671D01*
X102197478Y-51889103D01*
X102304187Y-52147358D01*
X102400000Y-52243338D01*
X102400000Y-53639913D01*
X102377817Y-53606714D01*
X102100000Y-53421082D01*
X102100000Y-51493342D01*
X102195119Y-51398389D01*
X102302278Y-51140321D01*
X102302522Y-50860889D01*
X102195813Y-50602634D01*
X101998397Y-50404873D01*
X101740329Y-50297714D01*
X101460897Y-50297470D01*
X101202642Y-50404179D01*
X101004881Y-50601595D01*
X100897722Y-50859663D01*
X100897478Y-51139095D01*
X101004187Y-51397350D01*
X101100000Y-51493330D01*
X101100000Y-53421082D01*
X100822183Y-53606714D01*
X100583733Y-53963579D01*
X100500000Y-54384531D01*
X100160000Y-54384531D01*
X100076267Y-53963579D01*
X99837817Y-53606714D01*
X99480952Y-53368264D01*
X99060000Y-53284531D01*
X98639048Y-53368264D01*
X98282183Y-53606714D01*
X98043733Y-53963579D01*
X97960000Y-54384531D01*
X97620000Y-54384531D01*
X97536267Y-53963579D01*
X97297817Y-53606714D01*
X96940952Y-53368264D01*
X96520000Y-53284531D01*
X96099048Y-53368264D01*
X95742183Y-53606714D01*
X95503733Y-53963579D01*
X95420000Y-54384531D01*
X95080000Y-54384531D01*
X94996267Y-53963579D01*
X94757817Y-53606714D01*
X94400952Y-53368264D01*
X93980000Y-53284531D01*
X93559048Y-53368264D01*
X93202183Y-53606714D01*
X92963733Y-53963579D01*
X92880000Y-54384531D01*
X92540000Y-54384531D01*
X92456267Y-53963579D01*
X92217817Y-53606714D01*
X91860952Y-53368264D01*
X91440000Y-53284531D01*
X91019048Y-53368264D01*
X90662183Y-53606714D01*
X90423733Y-53963579D01*
X90340000Y-54384531D01*
X90007836Y-54384531D01*
X90007836Y-53710000D01*
X89979944Y-53561769D01*
X89892340Y-53425628D01*
X89758671Y-53334296D01*
X89600000Y-53302164D01*
X88200000Y-53302164D01*
X88051769Y-53330056D01*
X87915628Y-53417660D01*
X87824296Y-53551329D01*
X87792164Y-53710000D01*
X61171831Y-53710000D01*
X61102817Y-53606714D01*
X60745952Y-53368264D01*
X60325000Y-53284531D01*
X59904048Y-53368264D01*
X59547183Y-53606714D01*
X59308733Y-53963579D01*
X59225000Y-54384531D01*
X58885000Y-54384531D01*
X58801267Y-53963579D01*
X58562817Y-53606714D01*
X58205952Y-53368264D01*
X57785000Y-53284531D01*
X57364048Y-53368264D01*
X57007183Y-53606714D01*
X56768733Y-53963579D01*
X56685000Y-54384531D01*
X56345000Y-54384531D01*
X56261267Y-53963579D01*
X56022817Y-53606714D01*
X55665952Y-53368264D01*
X55245000Y-53284531D01*
X54824048Y-53368264D01*
X54467183Y-53606714D01*
X54228733Y-53963579D01*
X54145000Y-54384531D01*
X53805000Y-54384531D01*
X53721267Y-53963579D01*
X53482817Y-53606714D01*
X53125952Y-53368264D01*
X52705000Y-53284531D01*
X52284048Y-53368264D01*
X51927183Y-53606714D01*
X51688733Y-53963579D01*
X51605000Y-54384531D01*
X51272836Y-54384531D01*
X51272836Y-53710000D01*
X51244944Y-53561769D01*
X51157340Y-53425628D01*
X51023671Y-53334296D01*
X50865000Y-53302164D01*
X49465000Y-53302164D01*
X49316769Y-53330056D01*
X49180628Y-53417660D01*
X49089296Y-53551329D01*
X49057164Y-53710000D01*
X49057164Y-54110000D01*
X47990012Y-54110000D01*
X47798670Y-54148060D01*
X47636458Y-54256447D01*
X47095311Y-54797595D01*
X46960909Y-54797478D01*
X46702654Y-54904187D01*
X46504893Y-55101603D01*
X46397734Y-55359671D01*
X46397490Y-55639103D01*
X41982279Y-55639103D01*
X42035139Y-55605495D01*
X42281700Y-55254049D01*
X42375000Y-54835000D01*
X42375000Y-54635000D01*
X41300000Y-54635000D01*
X41250000Y-54635000D01*
X40175000Y-54635000D01*
X39842836Y-54635000D01*
X39842836Y-54385000D01*
X40175000Y-54385000D01*
X40175000Y-54585000D01*
X41250000Y-54585000D01*
X41250000Y-53410313D01*
X41300000Y-53410313D01*
X41300000Y-54585000D01*
X42375000Y-54585000D01*
X42375000Y-54385000D01*
X42281700Y-53965951D01*
X42035139Y-53614505D01*
X41672854Y-53384166D01*
X41471726Y-53327734D01*
X41300000Y-53410313D01*
X41250000Y-53410313D01*
X41078274Y-53327734D01*
X40877146Y-53384166D01*
X40514861Y-53614505D01*
X40268300Y-53965951D01*
X40175000Y-54385000D01*
X39842836Y-54385000D01*
X39842836Y-53710000D01*
X39814944Y-53561769D01*
X39727340Y-53425628D01*
X39593671Y-53334296D01*
X39435000Y-53302164D01*
X38035000Y-53302164D01*
X37886769Y-53330056D01*
X37750628Y-53417660D01*
X37659296Y-53551329D01*
X37627164Y-53710000D01*
X30691831Y-53710000D01*
X30622817Y-53606714D01*
X30265952Y-53368264D01*
X29845000Y-53284531D01*
X29424048Y-53368264D01*
X29067183Y-53606714D01*
X28828733Y-53963579D01*
X28745000Y-54384531D01*
X28405000Y-54384531D01*
X28321267Y-53963579D01*
X28082817Y-53606714D01*
X27725952Y-53368264D01*
X27305000Y-53284531D01*
X26884048Y-53368264D01*
X26527183Y-53606714D01*
X26288733Y-53963579D01*
X26205000Y-54384531D01*
X25865000Y-54384531D01*
X25781267Y-53963579D01*
X25542817Y-53606714D01*
X25185952Y-53368264D01*
X24765000Y-53284531D01*
X24344048Y-53368264D01*
X23987183Y-53606714D01*
X23748733Y-53963579D01*
X23665000Y-54384531D01*
X23325000Y-54384531D01*
X23325000Y-53630435D01*
X23264104Y-53483418D01*
X23151582Y-53370896D01*
X23004565Y-53310000D01*
X22350000Y-53310000D01*
X22250000Y-53410000D01*
X22200000Y-53410000D01*
X22100000Y-53310000D01*
X21445435Y-53310000D01*
X21298418Y-53370896D01*
X21185896Y-53483418D01*
X21125000Y-53630435D01*
X20500000Y-53630435D01*
X20500000Y-51400000D01*
X24900000Y-51400000D01*
X24968508Y-51744415D01*
X25163604Y-52036396D01*
X25363604Y-52236396D01*
X25655585Y-52431492D01*
X26000000Y-52500000D01*
X29800000Y-52500000D01*
X30144415Y-52431492D01*
X30436396Y-52236396D01*
X30631492Y-51944415D01*
X30700000Y-51600000D01*
X30631492Y-51255585D01*
X30436396Y-50963604D01*
X30192724Y-50800787D01*
X30195119Y-50798397D01*
X30302278Y-50540329D01*
X30302522Y-50260897D01*
X30195813Y-50002642D01*
X29998397Y-49804881D01*
X29740329Y-49697722D01*
X29460897Y-49697478D01*
X29202642Y-49804187D01*
X29106662Y-49900000D01*
X26493350Y-49900000D01*
X26398397Y-49804881D01*
X26140329Y-49697722D01*
X25860897Y-49697478D01*
X25602642Y-49804187D01*
X25404881Y-50001603D01*
X25297722Y-50259671D01*
X25297478Y-50539103D01*
X25341206Y-50644934D01*
X25163604Y-50763604D01*
X24968508Y-51055585D01*
X24900000Y-51400000D01*
X20500000Y-51400000D01*
X20500000Y-48939103D01*
X25297477Y-48939103D01*
X25404186Y-49197358D01*
X25601602Y-49395119D01*
X25859670Y-49502278D01*
X26139102Y-49502522D01*
X26397357Y-49395813D01*
X26493337Y-49300000D01*
X29106662Y-49300000D01*
X29201603Y-49395107D01*
X29459671Y-49502266D01*
X29739103Y-49502510D01*
X29997358Y-49395801D01*
X30195119Y-49198385D01*
X30302278Y-48940317D01*
X30302522Y-48660885D01*
X30195813Y-48402630D01*
X29998397Y-48204869D01*
X29740329Y-48097710D01*
X29460897Y-48097466D01*
X29202642Y-48204175D01*
X29106650Y-48300000D01*
X26493349Y-48300000D01*
X26398396Y-48204881D01*
X26140328Y-48097722D01*
X25860896Y-48097478D01*
X25602641Y-48204187D01*
X25404880Y-48401603D01*
X25297721Y-48659671D01*
X25297477Y-48939103D01*
X20500000Y-48939103D01*
X20500000Y-47403337D01*
X32905654Y-47403337D01*
X33012363Y-47661592D01*
X33209779Y-47859353D01*
X33467847Y-47966512D01*
X33569537Y-47966601D01*
X33569449Y-48067132D01*
X33676158Y-48325387D01*
X33873574Y-48523148D01*
X34131642Y-48630307D01*
X34411074Y-48630551D01*
X34669329Y-48523842D01*
X34867090Y-48326426D01*
X34974249Y-48068358D01*
X34974452Y-47835396D01*
X70840221Y-47835396D01*
X70946930Y-48093651D01*
X71144346Y-48291412D01*
X71402414Y-48398571D01*
X71681846Y-48398815D01*
X71940101Y-48292106D01*
X72137862Y-48094690D01*
X72245021Y-47836622D01*
X72245265Y-47557190D01*
X72155154Y-47339103D01*
X75797478Y-47339103D01*
X75904187Y-47597358D01*
X76101603Y-47795119D01*
X76359671Y-47902278D01*
X76639103Y-47902522D01*
X76897358Y-47795813D01*
X76954167Y-47739103D01*
X78097478Y-47739103D01*
X78204187Y-47997358D01*
X78401603Y-48195119D01*
X78659671Y-48302278D01*
X78724517Y-48302335D01*
X79588628Y-49166445D01*
X79599439Y-49192610D01*
X79796855Y-49390371D01*
X80054923Y-49497530D01*
X80334355Y-49497774D01*
X80592610Y-49391065D01*
X80790371Y-49193649D01*
X80897530Y-48935581D01*
X80897774Y-48656149D01*
X80791065Y-48397894D01*
X80593649Y-48200133D01*
X80335581Y-48092974D01*
X80070560Y-48092743D01*
X79502466Y-47524649D01*
X79502522Y-47460897D01*
X79395813Y-47202642D01*
X79198397Y-47004881D01*
X78940329Y-46897722D01*
X78660897Y-46897478D01*
X78402642Y-47004187D01*
X78204881Y-47201603D01*
X78097722Y-47459671D01*
X78097478Y-47739103D01*
X76954167Y-47739103D01*
X77095119Y-47598397D01*
X77202278Y-47340329D01*
X77202522Y-47060897D01*
X77095813Y-46802642D01*
X76898397Y-46604881D01*
X76640329Y-46497722D01*
X76360897Y-46497478D01*
X76102642Y-46604187D01*
X75904881Y-46801603D01*
X75797722Y-47059671D01*
X75797478Y-47339103D01*
X72155154Y-47339103D01*
X72138556Y-47298935D01*
X71941140Y-47101174D01*
X71683072Y-46994015D01*
X71403640Y-46993771D01*
X71145385Y-47100480D01*
X70947624Y-47297896D01*
X70840465Y-47555964D01*
X70840221Y-47835396D01*
X34974452Y-47835396D01*
X34974493Y-47788926D01*
X34867784Y-47530671D01*
X34771971Y-47434691D01*
X34771971Y-46515862D01*
X34859671Y-46552278D01*
X35139103Y-46552522D01*
X35397358Y-46445813D01*
X35595119Y-46248397D01*
X35702278Y-45990329D01*
X35702396Y-45854710D01*
X41457107Y-40100000D01*
X43006650Y-40100000D01*
X43101603Y-40195119D01*
X43359671Y-40302278D01*
X43639103Y-40302522D01*
X43897358Y-40195813D01*
X43954167Y-40139103D01*
X53597478Y-40139103D01*
X53704187Y-40397358D01*
X53901603Y-40595119D01*
X54028625Y-40647863D01*
X54647628Y-41266867D01*
X54647478Y-41439105D01*
X54754187Y-41697360D01*
X54951603Y-41895121D01*
X55209671Y-42002280D01*
X55489103Y-42002524D01*
X55747358Y-41895815D01*
X55945119Y-41698399D01*
X55997863Y-41571377D01*
X56112020Y-41457219D01*
X56112022Y-41457216D01*
X57157221Y-40412018D01*
X57157223Y-40412015D01*
X57271367Y-40297872D01*
X57397358Y-40245813D01*
X57595119Y-40048397D01*
X57702278Y-39790329D01*
X57702522Y-39510897D01*
X57595813Y-39252642D01*
X57398397Y-39054881D01*
X57140329Y-38947722D01*
X56860897Y-38947478D01*
X56602642Y-39054187D01*
X56404881Y-39251603D01*
X56352137Y-39378624D01*
X56237985Y-39492777D01*
X56237982Y-39492779D01*
X55475000Y-40255762D01*
X54947872Y-39728634D01*
X54895813Y-39602642D01*
X54698397Y-39404881D01*
X54440329Y-39297722D01*
X54160897Y-39297478D01*
X53902642Y-39404187D01*
X53704881Y-39601603D01*
X53597722Y-39859671D01*
X53597478Y-40139103D01*
X43954167Y-40139103D01*
X44095119Y-39998397D01*
X44202278Y-39740329D01*
X44202522Y-39460897D01*
X44095813Y-39202642D01*
X43898397Y-39004881D01*
X43640329Y-38897722D01*
X43360897Y-38897478D01*
X43102642Y-39004187D01*
X43006662Y-39100000D01*
X41250000Y-39100000D01*
X41058658Y-39138060D01*
X40896447Y-39246446D01*
X34995299Y-45147595D01*
X34860897Y-45147478D01*
X34771971Y-45184222D01*
X34771971Y-44773149D01*
X39073640Y-40471481D01*
X39138612Y-40374242D01*
X39182026Y-40309270D01*
X39220086Y-40117928D01*
X39220086Y-39520082D01*
X39182026Y-39328740D01*
X39073639Y-39166529D01*
X38802405Y-38895295D01*
X38802522Y-38760893D01*
X38695813Y-38502638D01*
X38498397Y-38304877D01*
X38240329Y-38197718D01*
X37960897Y-38197474D01*
X37702642Y-38304183D01*
X37504881Y-38501599D01*
X37397722Y-38759667D01*
X37397478Y-39039099D01*
X37504187Y-39297354D01*
X37602046Y-39395384D01*
X37552566Y-39444778D01*
X37445407Y-39702846D01*
X37445289Y-39838464D01*
X33254623Y-44029131D01*
X33146236Y-44191342D01*
X33108176Y-44382684D01*
X33108176Y-46770884D01*
X33013057Y-46865837D01*
X32905898Y-47123905D01*
X32905654Y-47403337D01*
X20500000Y-47403337D01*
X20500000Y-36939103D01*
X35297478Y-36939103D01*
X35404187Y-37197358D01*
X35500000Y-37293338D01*
X35500000Y-39006650D01*
X35404881Y-39101603D01*
X35297722Y-39359671D01*
X35297478Y-39639103D01*
X35404187Y-39897358D01*
X35601603Y-40095119D01*
X35859671Y-40202278D01*
X36139103Y-40202522D01*
X36397358Y-40095813D01*
X36595119Y-39898397D01*
X36702278Y-39640329D01*
X36702522Y-39360897D01*
X36595813Y-39102642D01*
X36500000Y-39006662D01*
X36500000Y-37293350D01*
X36595119Y-37198397D01*
X36702278Y-36940329D01*
X36702522Y-36660897D01*
X36595813Y-36402642D01*
X36482473Y-36289103D01*
X37897478Y-36289103D01*
X38004187Y-36547358D01*
X38201603Y-36745119D01*
X38459671Y-36852278D01*
X38739103Y-36852522D01*
X38997358Y-36745813D01*
X39195119Y-36548397D01*
X39302278Y-36290329D01*
X39302442Y-36102359D01*
X39489103Y-36102522D01*
X39747358Y-35995813D01*
X39843338Y-35900000D01*
X40792894Y-35900000D01*
X41997595Y-37104702D01*
X41997478Y-37239103D01*
X42104187Y-37497358D01*
X42176547Y-37569844D01*
X42097724Y-37759671D01*
X42097480Y-38039103D01*
X42204189Y-38297358D01*
X42401605Y-38495119D01*
X42659673Y-38602278D01*
X42939105Y-38602522D01*
X43197360Y-38495813D01*
X43354343Y-38339103D01*
X61297478Y-38339103D01*
X61404187Y-38597358D01*
X61601603Y-38795119D01*
X61859671Y-38902278D01*
X62139103Y-38902522D01*
X62266216Y-38850000D01*
X63400000Y-38850000D01*
X63607476Y-38808731D01*
X63648745Y-38800522D01*
X63859619Y-38659619D01*
X64371367Y-38147871D01*
X64497358Y-38095813D01*
X64695119Y-37898397D01*
X64802278Y-37640329D01*
X64802522Y-37360897D01*
X64695813Y-37102642D01*
X64498397Y-36904881D01*
X64240329Y-36797722D01*
X63960897Y-36797478D01*
X63702642Y-36904187D01*
X63504881Y-37101603D01*
X63452137Y-37228624D01*
X63130762Y-37550000D01*
X62266229Y-37550000D01*
X62140329Y-37497722D01*
X61860897Y-37497478D01*
X61602642Y-37604187D01*
X61404881Y-37801603D01*
X61297722Y-38059671D01*
X61297478Y-38339103D01*
X43354343Y-38339103D01*
X43395121Y-38298397D01*
X43502280Y-38040329D01*
X43502398Y-37904710D01*
X43653553Y-37753556D01*
X43761940Y-37591344D01*
X43770164Y-37550000D01*
X43800000Y-37400002D01*
X43800000Y-36800000D01*
X43761940Y-36608658D01*
X43692134Y-36504187D01*
X43653554Y-36446447D01*
X42791970Y-35584864D01*
X42791970Y-34735320D01*
X42887089Y-34640367D01*
X42994248Y-34382299D01*
X42994492Y-34102867D01*
X42887783Y-33844612D01*
X42690367Y-33646851D01*
X42432299Y-33539692D01*
X42152867Y-33539448D01*
X41894612Y-33646157D01*
X41696851Y-33843573D01*
X41589692Y-34101641D01*
X41589448Y-34381073D01*
X41696157Y-34639328D01*
X41791970Y-34735308D01*
X41791970Y-35484864D01*
X41353553Y-35046447D01*
X41191342Y-34938060D01*
X41000000Y-34900000D01*
X39843350Y-34900000D01*
X39748397Y-34804881D01*
X39490329Y-34697722D01*
X39402315Y-34697645D01*
X39402522Y-34460897D01*
X39295813Y-34202642D01*
X39098397Y-34004881D01*
X38840329Y-33897722D01*
X38560897Y-33897478D01*
X38302642Y-34004187D01*
X38104881Y-34201603D01*
X38004071Y-34444382D01*
X37999478Y-34451255D01*
X37997879Y-34459292D01*
X37997722Y-34459671D01*
X37997722Y-34460086D01*
X37950000Y-34700000D01*
X37950000Y-35883771D01*
X37897722Y-36009671D01*
X37897478Y-36289103D01*
X36482473Y-36289103D01*
X36398397Y-36204881D01*
X36140329Y-36097722D01*
X35860897Y-36097478D01*
X35602642Y-36204187D01*
X35404881Y-36401603D01*
X35297722Y-36659671D01*
X35297478Y-36939103D01*
X20500000Y-36939103D01*
X20500000Y-31939103D01*
X56397478Y-31939103D01*
X56504187Y-32197358D01*
X56701603Y-32395119D01*
X56959671Y-32502278D01*
X57239103Y-32502522D01*
X57497358Y-32395813D01*
X57695119Y-32198397D01*
X57802278Y-31940329D01*
X57802522Y-31660897D01*
X57695813Y-31402642D01*
X57650000Y-31356749D01*
X57650000Y-31027818D01*
X57675352Y-31002466D01*
X57739103Y-31002522D01*
X57997358Y-30895813D01*
X58195119Y-30698397D01*
X58302278Y-30440329D01*
X58302522Y-30160897D01*
X58195813Y-29902642D01*
X57998397Y-29704881D01*
X57740329Y-29597722D01*
X57460897Y-29597478D01*
X57202642Y-29704187D01*
X57004881Y-29901603D01*
X56897722Y-30159671D01*
X56897665Y-30224517D01*
X56711091Y-30411091D01*
X56591866Y-30589524D01*
X56550000Y-30800000D01*
X56550000Y-31356563D01*
X56504881Y-31401603D01*
X56397722Y-31659671D01*
X56397478Y-31939103D01*
X20500000Y-31939103D01*
X20500000Y-30639103D01*
X29597478Y-30639103D01*
X29704187Y-30897358D01*
X29901603Y-31095119D01*
X30159671Y-31202278D01*
X30439103Y-31202522D01*
X30697358Y-31095813D01*
X30895119Y-30898397D01*
X31002278Y-30640329D01*
X31002522Y-30360897D01*
X30895813Y-30102642D01*
X30698397Y-29904881D01*
X30440329Y-29797722D01*
X30160897Y-29797478D01*
X29902642Y-29904187D01*
X29704881Y-30101603D01*
X29597722Y-30359671D01*
X29597478Y-30639103D01*
X20500000Y-30639103D01*
X20500000Y-28200603D01*
X31579920Y-28200603D01*
X31686629Y-28458858D01*
X31884045Y-28656619D01*
X32142113Y-28763778D01*
X32277732Y-28763896D01*
X33164040Y-29650205D01*
X33204184Y-29747361D01*
X33401600Y-29945122D01*
X33659668Y-30052281D01*
X33939100Y-30052525D01*
X34197355Y-29945816D01*
X34395116Y-29748400D01*
X34502275Y-29490332D01*
X34502519Y-29210900D01*
X34395810Y-28952645D01*
X34198394Y-28754884D01*
X33940326Y-28647725D01*
X33660894Y-28647481D01*
X33600489Y-28672440D01*
X32984847Y-28056798D01*
X32984964Y-27922397D01*
X32878255Y-27664142D01*
X32680839Y-27466381D01*
X32422771Y-27359222D01*
X32143339Y-27358978D01*
X31885084Y-27465687D01*
X31687323Y-27663103D01*
X31580164Y-27921171D01*
X31579920Y-28200603D01*
X20500000Y-28200603D01*
X20500000Y-24274531D01*
X23150000Y-24274531D01*
X23150000Y-24725469D01*
X23233733Y-25146421D01*
X23472183Y-25503286D01*
X23829048Y-25741736D01*
X24250000Y-25825469D01*
X24670952Y-25741736D01*
X25027817Y-25503286D01*
X25200000Y-25245596D01*
X25200000Y-26406650D01*
X25104881Y-26501603D01*
X24997722Y-26759671D01*
X24997478Y-27039103D01*
X25104187Y-27297358D01*
X25301603Y-27495119D01*
X25559671Y-27602278D01*
X25839103Y-27602522D01*
X26097358Y-27495813D01*
X26295119Y-27298397D01*
X26402278Y-27040329D01*
X26402522Y-26760897D01*
X26295813Y-26502642D01*
X26200000Y-26406662D01*
X26200000Y-25628782D01*
X26369048Y-25741736D01*
X26790000Y-25825469D01*
X27210952Y-25741736D01*
X27567817Y-25503286D01*
X27806267Y-25146421D01*
X27890000Y-24725469D01*
X27890000Y-24274531D01*
X27806267Y-23853579D01*
X27790505Y-23829990D01*
X28329495Y-23829990D01*
X28313733Y-23853579D01*
X28230000Y-24274531D01*
X28230000Y-24725469D01*
X28313733Y-25146421D01*
X28552183Y-25503286D01*
X28909048Y-25741736D01*
X29330000Y-25825469D01*
X29750952Y-25741736D01*
X30107817Y-25503286D01*
X30346267Y-25146421D01*
X30430000Y-24725469D01*
X30430000Y-24274531D01*
X30346267Y-23853579D01*
X30345852Y-23852958D01*
X30770000Y-24277106D01*
X30770000Y-24725469D01*
X30853733Y-25146421D01*
X31092183Y-25503286D01*
X31449048Y-25741736D01*
X31870000Y-25825469D01*
X32290952Y-25741736D01*
X32647817Y-25503286D01*
X32886267Y-25146421D01*
X32970000Y-24725469D01*
X32970000Y-24525000D01*
X33310000Y-24525000D01*
X33310000Y-24725000D01*
X33403300Y-25144049D01*
X33649861Y-25495495D01*
X34012146Y-25725834D01*
X34213274Y-25782266D01*
X34385000Y-25699687D01*
X34385000Y-24525000D01*
X34435000Y-24525000D01*
X34435000Y-25699687D01*
X34606726Y-25782266D01*
X34807854Y-25725834D01*
X35170139Y-25495495D01*
X35416700Y-25144049D01*
X35510000Y-24725000D01*
X35510000Y-24525000D01*
X34435000Y-24525000D01*
X34385000Y-24525000D01*
X33310000Y-24525000D01*
X32970000Y-24525000D01*
X32970000Y-24275000D01*
X33310000Y-24275000D01*
X33310000Y-24475000D01*
X34385000Y-24475000D01*
X34385000Y-23300313D01*
X34435000Y-23300313D01*
X34435000Y-24475000D01*
X35510000Y-24475000D01*
X35510000Y-24275000D01*
X35416700Y-23855951D01*
X35237135Y-23600000D01*
X35842164Y-23600000D01*
X35842164Y-25400000D01*
X35870056Y-25548231D01*
X35957660Y-25684372D01*
X36091329Y-25775704D01*
X36250000Y-25807836D01*
X36300000Y-25807836D01*
X36300000Y-26713358D01*
X36197722Y-26959671D01*
X36197478Y-27239103D01*
X36304187Y-27497358D01*
X36501603Y-27695119D01*
X36759671Y-27802278D01*
X37039103Y-27802522D01*
X37297358Y-27695813D01*
X37495119Y-27498397D01*
X37602278Y-27240329D01*
X37602522Y-26960897D01*
X37600000Y-26954793D01*
X37600000Y-25807836D01*
X37650000Y-25807836D01*
X37798231Y-25779944D01*
X37934372Y-25692340D01*
X38025704Y-25558671D01*
X38057836Y-25400000D01*
X38057836Y-24939103D01*
X57997472Y-24939103D01*
X58104181Y-25197358D01*
X58199994Y-25293338D01*
X58199994Y-26913372D01*
X58097722Y-27159671D01*
X58097478Y-27439103D01*
X58204187Y-27697358D01*
X58401603Y-27895119D01*
X58659671Y-28002278D01*
X58939103Y-28002522D01*
X59197358Y-27895813D01*
X59395119Y-27698397D01*
X59502278Y-27440329D01*
X59502522Y-27160897D01*
X59395813Y-26902642D01*
X59199994Y-26706481D01*
X59199994Y-25293350D01*
X59295113Y-25198397D01*
X59402272Y-24940329D01*
X59402516Y-24660897D01*
X59295807Y-24402642D01*
X59098391Y-24204881D01*
X58840323Y-24097722D01*
X58560891Y-24097478D01*
X58302636Y-24204187D01*
X58104875Y-24401603D01*
X57997716Y-24659671D01*
X57997472Y-24939103D01*
X38057836Y-24939103D01*
X38057836Y-23600000D01*
X38029944Y-23451769D01*
X37942340Y-23315628D01*
X37808671Y-23224296D01*
X37650000Y-23192164D01*
X36250000Y-23192164D01*
X36101769Y-23220056D01*
X35965628Y-23307660D01*
X35874296Y-23441329D01*
X35842164Y-23600000D01*
X35237135Y-23600000D01*
X35170139Y-23504505D01*
X34807854Y-23274166D01*
X34606726Y-23217734D01*
X34435000Y-23300313D01*
X34385000Y-23300313D01*
X34213274Y-23217734D01*
X34012146Y-23274166D01*
X33649861Y-23504505D01*
X33403300Y-23855951D01*
X33310000Y-24275000D01*
X32970000Y-24275000D01*
X32970000Y-24274531D01*
X32886267Y-23853579D01*
X32647817Y-23496714D01*
X32290952Y-23258264D01*
X31870000Y-23174531D01*
X31449048Y-23258264D01*
X31278996Y-23371890D01*
X30883543Y-22976437D01*
X30721332Y-22868050D01*
X30529990Y-22829990D01*
X25970010Y-22829990D01*
X25778668Y-22868050D01*
X25616457Y-22976436D01*
X25346447Y-23246447D01*
X25238060Y-23408658D01*
X25200000Y-23600000D01*
X25200000Y-23754404D01*
X25027817Y-23496714D01*
X24670952Y-23258264D01*
X24250000Y-23174531D01*
X23829048Y-23258264D01*
X23472183Y-23496714D01*
X23233733Y-23853579D01*
X23150000Y-24274531D01*
X20500000Y-24274531D01*
X20500000Y-19000000D01*
X78400000Y-19000000D01*
X78400000Y-24480762D01*
X78400000Y-24480762D01*
G37*
X78400000Y-24480762D02*
X78347871Y-24428633D01*
X78295813Y-24302642D01*
X78098397Y-24104881D01*
X77840329Y-23997722D01*
X77560897Y-23997478D01*
X77302642Y-24104187D01*
X77104881Y-24301603D01*
X76997722Y-24559671D01*
X76997478Y-24839103D01*
X77104187Y-25097358D01*
X77301603Y-25295119D01*
X77352399Y-25316211D01*
X77352399Y-25902399D01*
X77389844Y-26090650D01*
X77401877Y-26151144D01*
X77542780Y-26362018D01*
X78127599Y-26946838D01*
X78127599Y-31397609D01*
X78164439Y-31582818D01*
X78177077Y-31646354D01*
X78317980Y-31857228D01*
X78629990Y-32169239D01*
X78629990Y-40731617D01*
X78317980Y-41043628D01*
X78177077Y-41254502D01*
X78177077Y-41254503D01*
X78127599Y-41503247D01*
X78127599Y-42549941D01*
X78157448Y-42700001D01*
X78177077Y-42798686D01*
X78317980Y-43009560D01*
X78442874Y-43134455D01*
X78400000Y-43350000D01*
X78457090Y-43637013D01*
X78619670Y-43880330D01*
X79519670Y-44780330D01*
X79762987Y-44942910D01*
X80050000Y-45000000D01*
X80100000Y-45000000D01*
X80100000Y-45350000D01*
X80157090Y-45637013D01*
X80319670Y-45880330D01*
X80562987Y-46042910D01*
X80850000Y-46100000D01*
X81137013Y-46042910D01*
X81380330Y-45880330D01*
X81542910Y-45637013D01*
X81600000Y-45350000D01*
X81600000Y-45000000D01*
X87322342Y-45000000D01*
X87609355Y-44942910D01*
X87852672Y-44780330D01*
X89093899Y-43539103D01*
X97897478Y-43539103D01*
X98004187Y-43797358D01*
X98100000Y-43893338D01*
X98100000Y-44356563D01*
X98054881Y-44401603D01*
X97947722Y-44659671D01*
X97947478Y-44939103D01*
X98054187Y-45197358D01*
X98251603Y-45395119D01*
X98509671Y-45502278D01*
X98789103Y-45502522D01*
X99047358Y-45395813D01*
X99245119Y-45198397D01*
X99352278Y-44940329D01*
X99352522Y-44660897D01*
X99245813Y-44402642D01*
X99100000Y-44256574D01*
X99100000Y-43893350D01*
X99195119Y-43798397D01*
X99302278Y-43540329D01*
X99302522Y-43260897D01*
X99195813Y-43002642D01*
X98998397Y-42804881D01*
X98740329Y-42697722D01*
X98460897Y-42697478D01*
X98202642Y-42804187D01*
X98004881Y-43001603D01*
X97897722Y-43259671D01*
X97897478Y-43539103D01*
X89093899Y-43539103D01*
X90595355Y-42037647D01*
X107449793Y-42037647D01*
X107632097Y-42478857D01*
X107969367Y-42816717D01*
X108410258Y-42999791D01*
X108887647Y-43000207D01*
X109328857Y-42817903D01*
X109666717Y-42480633D01*
X109849791Y-42039742D01*
X109850207Y-41562353D01*
X109667903Y-41121143D01*
X109546972Y-41000000D01*
X113942164Y-41000000D01*
X113942164Y-42600000D01*
X113970056Y-42748231D01*
X114057660Y-42884372D01*
X114191329Y-42975704D01*
X114350000Y-43007836D01*
X115950000Y-43007836D01*
X116098231Y-42979944D01*
X116234372Y-42892340D01*
X116325704Y-42758671D01*
X116357836Y-42600000D01*
X116357836Y-41000000D01*
X116329944Y-40851769D01*
X116242340Y-40715628D01*
X116108671Y-40624296D01*
X115950000Y-40592164D01*
X114350000Y-40592164D01*
X114201769Y-40620056D01*
X114065628Y-40707660D01*
X113974296Y-40841329D01*
X113942164Y-41000000D01*
X109546972Y-41000000D01*
X109330633Y-40783283D01*
X108889742Y-40600209D01*
X108412353Y-40599793D01*
X107971143Y-40782097D01*
X107633283Y-41119367D01*
X107450209Y-41560258D01*
X107449793Y-42037647D01*
X90595355Y-42037647D01*
X93043032Y-39589970D01*
X93160030Y-39589970D01*
X93447043Y-39532880D01*
X93690360Y-39370300D01*
X93852940Y-39126983D01*
X93910030Y-38839970D01*
X93852940Y-38552957D01*
X93690360Y-38309640D01*
X93447043Y-38147060D01*
X93160030Y-38089970D01*
X93051452Y-38089970D01*
X94541422Y-36600000D01*
X101000000Y-36600000D01*
X101038906Y-36592121D01*
X101070711Y-36570711D01*
X103154136Y-34487286D01*
X103180571Y-34524784D01*
X103510413Y-34733446D01*
X103688922Y-34783468D01*
X103845000Y-34699653D01*
X103845000Y-33675000D01*
X103895000Y-33675000D01*
X103895000Y-34699653D01*
X104051078Y-34783468D01*
X104229587Y-34733446D01*
X104559429Y-34524784D01*
X104784312Y-34205780D01*
X104870000Y-33825000D01*
X104870000Y-33675000D01*
X103895000Y-33675000D01*
X103845000Y-33675000D01*
X103825000Y-33675000D01*
X103825000Y-33625000D01*
X103845000Y-33625000D01*
X103845000Y-32600347D01*
X103895000Y-32600347D01*
X103895000Y-33625000D01*
X104870000Y-33625000D01*
X104870000Y-33477470D01*
X105410000Y-33477470D01*
X105410000Y-33822530D01*
X105486120Y-34205213D01*
X105702893Y-34529637D01*
X106027317Y-34746410D01*
X106410000Y-34822530D01*
X106792683Y-34746410D01*
X107117107Y-34529637D01*
X107333880Y-34205213D01*
X107410000Y-33822530D01*
X107410000Y-33477470D01*
X107333880Y-33094787D01*
X107117107Y-32770363D01*
X106792683Y-32553590D01*
X106410000Y-32477470D01*
X106027317Y-32553590D01*
X105702893Y-32770363D01*
X105486120Y-33094787D01*
X105410000Y-33477470D01*
X104870000Y-33477470D01*
X104870000Y-33475000D01*
X104784312Y-33094220D01*
X104559429Y-32775216D01*
X104229587Y-32566554D01*
X104051078Y-32516532D01*
X103895000Y-32600347D01*
X103845000Y-32600347D01*
X103688922Y-32516532D01*
X103600000Y-32541450D01*
X103600000Y-29500000D01*
X103592121Y-29461094D01*
X103570711Y-29429289D01*
X101600000Y-27458578D01*
X101600000Y-26931256D01*
X101624509Y-26990572D01*
X101947727Y-27314354D01*
X102370247Y-27489800D01*
X102827746Y-27490199D01*
X103250572Y-27315491D01*
X103450546Y-27115865D01*
X106939490Y-27115865D01*
X107011187Y-27303076D01*
X107430650Y-27485710D01*
X107888075Y-27493920D01*
X108313823Y-27326456D01*
X108348813Y-27303076D01*
X108420510Y-27115865D01*
X107680000Y-26375355D01*
X106939490Y-27115865D01*
X103450546Y-27115865D01*
X103574354Y-26992273D01*
X103749800Y-26569753D01*
X103749818Y-26548075D01*
X106526080Y-26548075D01*
X106693544Y-26973823D01*
X106716924Y-27008813D01*
X106904135Y-27080510D01*
X107644645Y-26340000D01*
X107715355Y-26340000D01*
X108455865Y-27080510D01*
X108643076Y-27008813D01*
X108825710Y-26589350D01*
X108833920Y-26131925D01*
X108666456Y-25706177D01*
X108643076Y-25671187D01*
X108455865Y-25599490D01*
X107715355Y-26340000D01*
X107644645Y-26340000D01*
X106904135Y-25599490D01*
X106716924Y-25671187D01*
X106534290Y-26090650D01*
X106526080Y-26548075D01*
X103749818Y-26548075D01*
X103750199Y-26112254D01*
X103575491Y-25689428D01*
X103450417Y-25564135D01*
X106939490Y-25564135D01*
X107680000Y-26304645D01*
X108420510Y-25564135D01*
X108348813Y-25376924D01*
X107929350Y-25194290D01*
X107471925Y-25186080D01*
X107046177Y-25353544D01*
X107011187Y-25376924D01*
X106939490Y-25564135D01*
X103450417Y-25564135D01*
X103252273Y-25365646D01*
X102829753Y-25190200D01*
X102372254Y-25189801D01*
X101949428Y-25364509D01*
X101625646Y-25687727D01*
X101600000Y-25749489D01*
X101600000Y-21851256D01*
X101624509Y-21910572D01*
X101947727Y-22234354D01*
X102370247Y-22409800D01*
X102827746Y-22410199D01*
X103250572Y-22235491D01*
X103574354Y-21912273D01*
X103749800Y-21489753D01*
X103749801Y-21487746D01*
X106529801Y-21487746D01*
X106704509Y-21910572D01*
X107027727Y-22234354D01*
X107450247Y-22409800D01*
X107907746Y-22410199D01*
X108330572Y-22235491D01*
X108654354Y-21912273D01*
X108829800Y-21489753D01*
X108830199Y-21032254D01*
X108655491Y-20609428D01*
X108332273Y-20285646D01*
X107909753Y-20110200D01*
X107452254Y-20109801D01*
X107029428Y-20284509D01*
X106705646Y-20607727D01*
X106530200Y-21030247D01*
X106529801Y-21487746D01*
X103749801Y-21487746D01*
X103750199Y-21032254D01*
X103575491Y-20609428D01*
X103252273Y-20285646D01*
X102829753Y-20110200D01*
X102372254Y-20109801D01*
X101949428Y-20284509D01*
X101625646Y-20607727D01*
X101600000Y-20669489D01*
X101600000Y-19000000D01*
X119500000Y-19000000D01*
X119500000Y-61000000D01*
X20500000Y-61000000D01*
X20500000Y-57175000D01*
X21125000Y-57175000D01*
X21125000Y-57375000D01*
X21218300Y-57794049D01*
X21464861Y-58145495D01*
X21827146Y-58375834D01*
X22028274Y-58432266D01*
X22200000Y-58349687D01*
X22200000Y-57175000D01*
X22250000Y-57175000D01*
X22250000Y-58349687D01*
X22421726Y-58432266D01*
X22622854Y-58375834D01*
X22985139Y-58145495D01*
X23231700Y-57794049D01*
X23325000Y-57375000D01*
X23325000Y-57175000D01*
X22250000Y-57175000D01*
X22200000Y-57175000D01*
X21125000Y-57175000D01*
X20500000Y-57175000D01*
X20500000Y-54735000D01*
X21125000Y-54735000D01*
X21125000Y-55589565D01*
X21185896Y-55736582D01*
X21298418Y-55849104D01*
X21445435Y-55910000D01*
X21877635Y-55910000D01*
X21827146Y-55924166D01*
X21464861Y-56154505D01*
X21218300Y-56505951D01*
X21125000Y-56925000D01*
X21125000Y-57125000D01*
X22200000Y-57125000D01*
X22200000Y-55950313D01*
X22105250Y-55904750D01*
X22200000Y-55810000D01*
X22200000Y-54635000D01*
X22250000Y-54635000D01*
X22250000Y-55810000D01*
X22344750Y-55904750D01*
X22250000Y-55950313D01*
X22250000Y-57125000D01*
X23325000Y-57125000D01*
X23325000Y-56925000D01*
X23231700Y-56505951D01*
X22985139Y-56154505D01*
X22622854Y-55924166D01*
X22572365Y-55910000D01*
X23004565Y-55910000D01*
X23151582Y-55849104D01*
X23264104Y-55736582D01*
X23325000Y-55589565D01*
X23325000Y-54735000D01*
X23225000Y-54635000D01*
X22250000Y-54635000D01*
X22200000Y-54635000D01*
X21225000Y-54635000D01*
X21125000Y-54735000D01*
X20500000Y-54735000D01*
X20500000Y-53630435D01*
X21125000Y-53630435D01*
X21125000Y-54485000D01*
X21225000Y-54585000D01*
X22200000Y-54585000D01*
X22200000Y-53410000D01*
X22250000Y-53410000D01*
X22250000Y-54585000D01*
X23225000Y-54585000D01*
X23325000Y-54485000D01*
X23325000Y-54384531D01*
X23665000Y-54384531D01*
X23665000Y-54835469D01*
X23748733Y-55256421D01*
X23987183Y-55613286D01*
X24344048Y-55851736D01*
X24486140Y-55880000D01*
X24344048Y-55908264D01*
X23987183Y-56146714D01*
X23748733Y-56503579D01*
X23665000Y-56924531D01*
X23665000Y-57375469D01*
X23748733Y-57796421D01*
X23987183Y-58153286D01*
X24344048Y-58391736D01*
X24765000Y-58475469D01*
X25185952Y-58391736D01*
X25542817Y-58153286D01*
X25781267Y-57796421D01*
X25865000Y-57375469D01*
X25865000Y-56924531D01*
X25781267Y-56503579D01*
X25542817Y-56146714D01*
X25185952Y-55908264D01*
X25043860Y-55880000D01*
X25185952Y-55851736D01*
X25542817Y-55613286D01*
X25781267Y-55256421D01*
X25865000Y-54835469D01*
X25865000Y-54384531D01*
X26205000Y-54384531D01*
X26205000Y-54835469D01*
X26288733Y-55256421D01*
X26527183Y-55613286D01*
X26884048Y-55851736D01*
X27026140Y-55880000D01*
X26884048Y-55908264D01*
X26527183Y-56146714D01*
X26288733Y-56503579D01*
X26205000Y-56924531D01*
X26205000Y-57375469D01*
X26288733Y-57796421D01*
X26527183Y-58153286D01*
X26884048Y-58391736D01*
X27305000Y-58475469D01*
X27725952Y-58391736D01*
X28082817Y-58153286D01*
X28321267Y-57796421D01*
X28405000Y-57375469D01*
X28405000Y-56924531D01*
X28321267Y-56503579D01*
X28082817Y-56146714D01*
X27725952Y-55908264D01*
X27583860Y-55880000D01*
X27725952Y-55851736D01*
X28082817Y-55613286D01*
X28321267Y-55256421D01*
X28405000Y-54835469D01*
X28405000Y-54384531D01*
X28745000Y-54384531D01*
X28745000Y-54835469D01*
X28828733Y-55256421D01*
X29067183Y-55613286D01*
X29424048Y-55851736D01*
X29566140Y-55880000D01*
X29424048Y-55908264D01*
X29067183Y-56146714D01*
X28828733Y-56503579D01*
X28745000Y-56924531D01*
X28745000Y-57375469D01*
X28828733Y-57796421D01*
X29067183Y-58153286D01*
X29424048Y-58391736D01*
X29845000Y-58475469D01*
X30265952Y-58391736D01*
X30622817Y-58153286D01*
X30861267Y-57796421D01*
X30945000Y-57375469D01*
X30945000Y-56924531D01*
X30861267Y-56503579D01*
X30622817Y-56146714D01*
X30265952Y-55908264D01*
X30123860Y-55880000D01*
X30265952Y-55851736D01*
X30622817Y-55613286D01*
X30861267Y-55256421D01*
X30945000Y-54835469D01*
X30945000Y-54384531D01*
X30861267Y-53963579D01*
X30691831Y-53710000D01*
X37627164Y-53710000D01*
X37627164Y-55510000D01*
X37655056Y-55658231D01*
X37742660Y-55794372D01*
X37876329Y-55885704D01*
X38035000Y-55917836D01*
X38299723Y-55917836D01*
X37957183Y-56146714D01*
X37718733Y-56503579D01*
X37635000Y-56924531D01*
X37635000Y-57375469D01*
X37718733Y-57796421D01*
X37957183Y-58153286D01*
X38314048Y-58391736D01*
X38735000Y-58475469D01*
X39155952Y-58391736D01*
X39512817Y-58153286D01*
X39751267Y-57796421D01*
X39835000Y-57375469D01*
X39835000Y-57175000D01*
X40175000Y-57175000D01*
X40175000Y-57375000D01*
X40268300Y-57794049D01*
X40514861Y-58145495D01*
X40877146Y-58375834D01*
X41078274Y-58432266D01*
X41250000Y-58349687D01*
X41250000Y-57175000D01*
X41300000Y-57175000D01*
X41300000Y-58349687D01*
X41471726Y-58432266D01*
X41672854Y-58375834D01*
X42035139Y-58145495D01*
X42281700Y-57794049D01*
X42375000Y-57375000D01*
X42375000Y-57175000D01*
X41300000Y-57175000D01*
X41250000Y-57175000D01*
X40175000Y-57175000D01*
X39835000Y-57175000D01*
X39835000Y-56924531D01*
X39751267Y-56503579D01*
X39512817Y-56146714D01*
X39170277Y-55917836D01*
X39435000Y-55917836D01*
X39583231Y-55889944D01*
X39719372Y-55802340D01*
X39810704Y-55668671D01*
X39842836Y-55510000D01*
X39842836Y-54635000D01*
X40175000Y-54635000D01*
X40175000Y-54835000D01*
X40268300Y-55254049D01*
X40514861Y-55605495D01*
X40877146Y-55835834D01*
X41034557Y-55880000D01*
X40877146Y-55924166D01*
X40514861Y-56154505D01*
X40268300Y-56505951D01*
X40175000Y-56925000D01*
X40175000Y-57125000D01*
X41250000Y-57125000D01*
X41250000Y-55950313D01*
X41103782Y-55880000D01*
X41250000Y-55809687D01*
X41250000Y-54635000D01*
X41300000Y-54635000D01*
X41300000Y-55809687D01*
X41446218Y-55880000D01*
X41300000Y-55950313D01*
X41300000Y-57125000D01*
X42375000Y-57125000D01*
X42375000Y-56925000D01*
X42281700Y-56505951D01*
X42035139Y-56154505D01*
X41672854Y-55924166D01*
X41515443Y-55880000D01*
X41672854Y-55835834D01*
X41982279Y-55639103D01*
X46397490Y-55639103D01*
X46504199Y-55897358D01*
X46701615Y-56095119D01*
X46959683Y-56202278D01*
X47239115Y-56202522D01*
X47497370Y-56095813D01*
X47695131Y-55898397D01*
X47802290Y-55640329D01*
X47802408Y-55504710D01*
X48197119Y-55110000D01*
X49057164Y-55110000D01*
X49057164Y-55510000D01*
X49085056Y-55658231D01*
X49172660Y-55794372D01*
X49306329Y-55885704D01*
X49465000Y-55917836D01*
X49729723Y-55917836D01*
X49387183Y-56146714D01*
X49148733Y-56503579D01*
X49065000Y-56924531D01*
X49065000Y-57375469D01*
X49148733Y-57796421D01*
X49387183Y-58153286D01*
X49744048Y-58391736D01*
X50165000Y-58475469D01*
X50585952Y-58391736D01*
X50942817Y-58153286D01*
X51181267Y-57796421D01*
X51265000Y-57375469D01*
X51265000Y-56924531D01*
X51181267Y-56503579D01*
X50942817Y-56146714D01*
X50600277Y-55917836D01*
X50865000Y-55917836D01*
X51013231Y-55889944D01*
X51149372Y-55802340D01*
X51240704Y-55668671D01*
X51272836Y-55510000D01*
X51272836Y-54384531D01*
X51605000Y-54384531D01*
X51605000Y-54835469D01*
X51688733Y-55256421D01*
X51927183Y-55613286D01*
X52284048Y-55851736D01*
X52426140Y-55880000D01*
X52284048Y-55908264D01*
X51927183Y-56146714D01*
X51688733Y-56503579D01*
X51605000Y-56924531D01*
X51605000Y-57375469D01*
X51688733Y-57796421D01*
X51927183Y-58153286D01*
X52284048Y-58391736D01*
X52705000Y-58475469D01*
X53125952Y-58391736D01*
X53482817Y-58153286D01*
X53721267Y-57796421D01*
X53805000Y-57375469D01*
X53805000Y-56924531D01*
X53721267Y-56503579D01*
X53482817Y-56146714D01*
X53125952Y-55908264D01*
X52983860Y-55880000D01*
X53125952Y-55851736D01*
X53482817Y-55613286D01*
X53721267Y-55256421D01*
X53805000Y-54835469D01*
X53805000Y-54384531D01*
X54145000Y-54384531D01*
X54145000Y-54835469D01*
X54228733Y-55256421D01*
X54467183Y-55613286D01*
X54824048Y-55851736D01*
X54966140Y-55880000D01*
X54824048Y-55908264D01*
X54467183Y-56146714D01*
X54228733Y-56503579D01*
X54145000Y-56924531D01*
X54145000Y-57375469D01*
X54228733Y-57796421D01*
X54467183Y-58153286D01*
X54824048Y-58391736D01*
X55245000Y-58475469D01*
X55665952Y-58391736D01*
X56022817Y-58153286D01*
X56261267Y-57796421D01*
X56345000Y-57375469D01*
X56345000Y-56924531D01*
X56261267Y-56503579D01*
X56022817Y-56146714D01*
X55665952Y-55908264D01*
X55523860Y-55880000D01*
X55665952Y-55851736D01*
X56022817Y-55613286D01*
X56261267Y-55256421D01*
X56345000Y-54835469D01*
X56345000Y-54384531D01*
X56685000Y-54384531D01*
X56685000Y-54835469D01*
X56768733Y-55256421D01*
X57007183Y-55613286D01*
X57364048Y-55851736D01*
X57506140Y-55880000D01*
X57364048Y-55908264D01*
X57007183Y-56146714D01*
X56768733Y-56503579D01*
X56685000Y-56924531D01*
X56685000Y-57375469D01*
X56768733Y-57796421D01*
X57007183Y-58153286D01*
X57364048Y-58391736D01*
X57785000Y-58475469D01*
X58205952Y-58391736D01*
X58562817Y-58153286D01*
X58801267Y-57796421D01*
X58885000Y-57375469D01*
X58885000Y-56924531D01*
X58801267Y-56503579D01*
X58562817Y-56146714D01*
X58205952Y-55908264D01*
X58063860Y-55880000D01*
X58205952Y-55851736D01*
X58562817Y-55613286D01*
X58801267Y-55256421D01*
X58885000Y-54835469D01*
X58885000Y-54384531D01*
X59225000Y-54384531D01*
X59225000Y-54835469D01*
X59308733Y-55256421D01*
X59547183Y-55613286D01*
X59904048Y-55851736D01*
X60046140Y-55880000D01*
X59904048Y-55908264D01*
X59547183Y-56146714D01*
X59308733Y-56503579D01*
X59225000Y-56924531D01*
X59225000Y-57375469D01*
X59308733Y-57796421D01*
X59547183Y-58153286D01*
X59904048Y-58391736D01*
X60325000Y-58475469D01*
X60745952Y-58391736D01*
X61102817Y-58153286D01*
X61341267Y-57796421D01*
X61425000Y-57375469D01*
X61425000Y-56924531D01*
X61341267Y-56503579D01*
X61102817Y-56146714D01*
X60745952Y-55908264D01*
X60603860Y-55880000D01*
X60745952Y-55851736D01*
X61102817Y-55613286D01*
X61341267Y-55256421D01*
X61425000Y-54835469D01*
X61425000Y-54384531D01*
X61341267Y-53963579D01*
X61171831Y-53710000D01*
X87792164Y-53710000D01*
X87792164Y-55510000D01*
X87820056Y-55658231D01*
X87907660Y-55794372D01*
X88041329Y-55885704D01*
X88200000Y-55917836D01*
X88464723Y-55917836D01*
X88122183Y-56146714D01*
X87883733Y-56503579D01*
X87800000Y-56924531D01*
X87800000Y-57375469D01*
X87883733Y-57796421D01*
X88122183Y-58153286D01*
X88479048Y-58391736D01*
X88900000Y-58475469D01*
X89320952Y-58391736D01*
X89677817Y-58153286D01*
X89916267Y-57796421D01*
X90000000Y-57375469D01*
X90000000Y-56924531D01*
X89916267Y-56503579D01*
X89677817Y-56146714D01*
X89335277Y-55917836D01*
X89600000Y-55917836D01*
X89748231Y-55889944D01*
X89884372Y-55802340D01*
X89975704Y-55668671D01*
X90007836Y-55510000D01*
X90007836Y-54384531D01*
X90340000Y-54384531D01*
X90340000Y-54835469D01*
X90423733Y-55256421D01*
X90662183Y-55613286D01*
X91019048Y-55851736D01*
X91161140Y-55880000D01*
X91019048Y-55908264D01*
X90662183Y-56146714D01*
X90423733Y-56503579D01*
X90340000Y-56924531D01*
X90340000Y-57375469D01*
X90423733Y-57796421D01*
X90662183Y-58153286D01*
X91019048Y-58391736D01*
X91440000Y-58475469D01*
X91860952Y-58391736D01*
X92217817Y-58153286D01*
X92456267Y-57796421D01*
X92540000Y-57375469D01*
X92540000Y-56924531D01*
X92456267Y-56503579D01*
X92217817Y-56146714D01*
X91860952Y-55908264D01*
X91718860Y-55880000D01*
X91860952Y-55851736D01*
X92217817Y-55613286D01*
X92456267Y-55256421D01*
X92540000Y-54835469D01*
X92540000Y-54384531D01*
X92880000Y-54384531D01*
X92880000Y-54835469D01*
X92963733Y-55256421D01*
X93202183Y-55613286D01*
X93559048Y-55851736D01*
X93701140Y-55880000D01*
X93559048Y-55908264D01*
X93202183Y-56146714D01*
X92963733Y-56503579D01*
X92880000Y-56924531D01*
X92880000Y-57375469D01*
X92963733Y-57796421D01*
X93202183Y-58153286D01*
X93559048Y-58391736D01*
X93980000Y-58475469D01*
X94400952Y-58391736D01*
X94757817Y-58153286D01*
X94996267Y-57796421D01*
X95080000Y-57375469D01*
X95080000Y-56924531D01*
X94996267Y-56503579D01*
X94757817Y-56146714D01*
X94400952Y-55908264D01*
X94258860Y-55880000D01*
X94400952Y-55851736D01*
X94757817Y-55613286D01*
X94996267Y-55256421D01*
X95080000Y-54835469D01*
X95080000Y-54384531D01*
X95420000Y-54384531D01*
X95420000Y-54835469D01*
X95503733Y-55256421D01*
X95742183Y-55613286D01*
X96099048Y-55851736D01*
X96241140Y-55880000D01*
X96099048Y-55908264D01*
X95742183Y-56146714D01*
X95503733Y-56503579D01*
X95420000Y-56924531D01*
X95420000Y-57375469D01*
X95503733Y-57796421D01*
X95742183Y-58153286D01*
X96099048Y-58391736D01*
X96520000Y-58475469D01*
X96940952Y-58391736D01*
X97297817Y-58153286D01*
X97536267Y-57796421D01*
X97620000Y-57375469D01*
X97620000Y-56924531D01*
X97536267Y-56503579D01*
X97297817Y-56146714D01*
X96940952Y-55908264D01*
X96798860Y-55880000D01*
X96940952Y-55851736D01*
X97297817Y-55613286D01*
X97536267Y-55256421D01*
X97620000Y-54835469D01*
X97620000Y-54384531D01*
X97960000Y-54384531D01*
X97960000Y-54835469D01*
X98043733Y-55256421D01*
X98282183Y-55613286D01*
X98639048Y-55851736D01*
X98781140Y-55880000D01*
X98639048Y-55908264D01*
X98282183Y-56146714D01*
X98043733Y-56503579D01*
X97960000Y-56924531D01*
X97960000Y-57375469D01*
X98043733Y-57796421D01*
X98282183Y-58153286D01*
X98639048Y-58391736D01*
X99060000Y-58475469D01*
X99480952Y-58391736D01*
X99837817Y-58153286D01*
X100076267Y-57796421D01*
X100160000Y-57375469D01*
X100160000Y-56924531D01*
X100076267Y-56503579D01*
X99837817Y-56146714D01*
X99480952Y-55908264D01*
X99338860Y-55880000D01*
X99480952Y-55851736D01*
X99837817Y-55613286D01*
X100076267Y-55256421D01*
X100160000Y-54835469D01*
X100160000Y-54384531D01*
X100500000Y-54384531D01*
X100500000Y-54835469D01*
X100583733Y-55256421D01*
X100822183Y-55613286D01*
X101179048Y-55851736D01*
X101321140Y-55880000D01*
X101179048Y-55908264D01*
X100822183Y-56146714D01*
X100583733Y-56503579D01*
X100500000Y-56924531D01*
X100500000Y-57375469D01*
X100583733Y-57796421D01*
X100822183Y-58153286D01*
X101179048Y-58391736D01*
X101600000Y-58475469D01*
X102020952Y-58391736D01*
X102377817Y-58153286D01*
X102616267Y-57796421D01*
X102700000Y-57375469D01*
X102700000Y-56924531D01*
X102639040Y-56618066D01*
X103253554Y-56003553D01*
X103344305Y-55867734D01*
X103361940Y-55841342D01*
X103400000Y-55650000D01*
X103400000Y-55638555D01*
X103719048Y-55851736D01*
X103861140Y-55880000D01*
X103719048Y-55908264D01*
X103362183Y-56146714D01*
X103123733Y-56503579D01*
X103040000Y-56924531D01*
X103040000Y-57375469D01*
X103123733Y-57796421D01*
X103362183Y-58153286D01*
X103719048Y-58391736D01*
X104140000Y-58475469D01*
X104560952Y-58391736D01*
X104917817Y-58153286D01*
X105156267Y-57796421D01*
X105240000Y-57375469D01*
X105240000Y-56924531D01*
X105179040Y-56618067D01*
X105410000Y-56387106D01*
X105640960Y-56618066D01*
X105580000Y-56924531D01*
X105580000Y-57375469D01*
X105663733Y-57796421D01*
X105902183Y-58153286D01*
X106259048Y-58391736D01*
X106680000Y-58475469D01*
X107100952Y-58391736D01*
X107457817Y-58153286D01*
X107696267Y-57796421D01*
X107780000Y-57375469D01*
X107780000Y-56924531D01*
X107696267Y-56503579D01*
X107457817Y-56146714D01*
X107100952Y-55908264D01*
X106958860Y-55880000D01*
X107100952Y-55851736D01*
X107457817Y-55613286D01*
X107696267Y-55256421D01*
X107780000Y-54835469D01*
X107780000Y-54384531D01*
X108120000Y-54384531D01*
X108120000Y-54835469D01*
X108203733Y-55256421D01*
X108442183Y-55613286D01*
X108799048Y-55851736D01*
X108941140Y-55880000D01*
X108799048Y-55908264D01*
X108442183Y-56146714D01*
X108203733Y-56503579D01*
X108120000Y-56924531D01*
X108120000Y-57375469D01*
X108203733Y-57796421D01*
X108442183Y-58153286D01*
X108799048Y-58391736D01*
X109220000Y-58475469D01*
X109640952Y-58391736D01*
X109997817Y-58153286D01*
X110236267Y-57796421D01*
X110320000Y-57375469D01*
X110320000Y-56924531D01*
X110236267Y-56503579D01*
X109997817Y-56146714D01*
X109640952Y-55908264D01*
X109498860Y-55880000D01*
X109640952Y-55851736D01*
X109997817Y-55613286D01*
X110236267Y-55256421D01*
X110320000Y-54835469D01*
X110320000Y-54384531D01*
X110660000Y-54384531D01*
X110660000Y-54835469D01*
X110743733Y-55256421D01*
X110982183Y-55613286D01*
X111339048Y-55851736D01*
X111481140Y-55880000D01*
X111339048Y-55908264D01*
X110982183Y-56146714D01*
X110743733Y-56503579D01*
X110660000Y-56924531D01*
X110660000Y-57375469D01*
X110743733Y-57796421D01*
X110982183Y-58153286D01*
X111339048Y-58391736D01*
X111760000Y-58475469D01*
X112180952Y-58391736D01*
X112537817Y-58153286D01*
X112776267Y-57796421D01*
X112860000Y-57375469D01*
X112860000Y-56924531D01*
X112776267Y-56503579D01*
X112537817Y-56146714D01*
X112180952Y-55908264D01*
X112038860Y-55880000D01*
X112180952Y-55851736D01*
X112537817Y-55613286D01*
X112776267Y-55256421D01*
X112860000Y-54835469D01*
X112860000Y-54384531D01*
X113200000Y-54384531D01*
X113200000Y-54835469D01*
X113283733Y-55256421D01*
X113522183Y-55613286D01*
X113879048Y-55851736D01*
X114021140Y-55880000D01*
X113879048Y-55908264D01*
X113522183Y-56146714D01*
X113283733Y-56503579D01*
X113200000Y-56924531D01*
X113200000Y-57375469D01*
X113283733Y-57796421D01*
X113522183Y-58153286D01*
X113879048Y-58391736D01*
X114300000Y-58475469D01*
X114720952Y-58391736D01*
X115077817Y-58153286D01*
X115316267Y-57796421D01*
X115400000Y-57375469D01*
X115400000Y-57175000D01*
X115740000Y-57175000D01*
X115740000Y-57375000D01*
X115833300Y-57794049D01*
X116079861Y-58145495D01*
X116442146Y-58375834D01*
X116643274Y-58432266D01*
X116815000Y-58349687D01*
X116815000Y-57175000D01*
X116865000Y-57175000D01*
X116865000Y-58349687D01*
X117036726Y-58432266D01*
X117237854Y-58375834D01*
X117600139Y-58145495D01*
X117846700Y-57794049D01*
X117940000Y-57375000D01*
X117940000Y-57175000D01*
X116865000Y-57175000D01*
X116815000Y-57175000D01*
X115740000Y-57175000D01*
X115400000Y-57175000D01*
X115400000Y-56924531D01*
X115316267Y-56503579D01*
X115077817Y-56146714D01*
X114720952Y-55908264D01*
X114578860Y-55880000D01*
X114720952Y-55851736D01*
X115077817Y-55613286D01*
X115316267Y-55256421D01*
X115400000Y-54835469D01*
X115400000Y-54635000D01*
X115740000Y-54635000D01*
X115740000Y-54835000D01*
X115833300Y-55254049D01*
X116079861Y-55605495D01*
X116442146Y-55835834D01*
X116599557Y-55880000D01*
X116442146Y-55924166D01*
X116079861Y-56154505D01*
X115833300Y-56505951D01*
X115740000Y-56925000D01*
X115740000Y-57125000D01*
X116815000Y-57125000D01*
X116815000Y-55950313D01*
X116668782Y-55880000D01*
X116815000Y-55809687D01*
X116815000Y-54635000D01*
X116865000Y-54635000D01*
X116865000Y-55809687D01*
X117011218Y-55880000D01*
X116865000Y-55950313D01*
X116865000Y-57125000D01*
X117940000Y-57125000D01*
X117940000Y-56925000D01*
X117846700Y-56505951D01*
X117600139Y-56154505D01*
X117237854Y-55924166D01*
X117080443Y-55880000D01*
X117237854Y-55835834D01*
X117600139Y-55605495D01*
X117846700Y-55254049D01*
X117940000Y-54835000D01*
X117940000Y-54635000D01*
X116865000Y-54635000D01*
X116815000Y-54635000D01*
X115740000Y-54635000D01*
X115400000Y-54635000D01*
X115400000Y-54385000D01*
X115740000Y-54385000D01*
X115740000Y-54585000D01*
X116815000Y-54585000D01*
X116815000Y-53410313D01*
X116865000Y-53410313D01*
X116865000Y-54585000D01*
X117940000Y-54585000D01*
X117940000Y-54385000D01*
X117846700Y-53965951D01*
X117600139Y-53614505D01*
X117237854Y-53384166D01*
X117036726Y-53327734D01*
X116865000Y-53410313D01*
X116815000Y-53410313D01*
X116643274Y-53327734D01*
X116442146Y-53384166D01*
X116079861Y-53614505D01*
X115833300Y-53965951D01*
X115740000Y-54385000D01*
X115400000Y-54385000D01*
X115400000Y-54384531D01*
X115316267Y-53963579D01*
X115077817Y-53606714D01*
X114720952Y-53368264D01*
X114300000Y-53284531D01*
X113879048Y-53368264D01*
X113522183Y-53606714D01*
X113283733Y-53963579D01*
X113200000Y-54384531D01*
X112860000Y-54384531D01*
X112776267Y-53963579D01*
X112537817Y-53606714D01*
X112180952Y-53368264D01*
X111760000Y-53284531D01*
X111339048Y-53368264D01*
X110982183Y-53606714D01*
X110743733Y-53963579D01*
X110660000Y-54384531D01*
X110320000Y-54384531D01*
X110236267Y-53963579D01*
X109997817Y-53606714D01*
X109640952Y-53368264D01*
X109220000Y-53284531D01*
X108799048Y-53368264D01*
X108442183Y-53606714D01*
X108203733Y-53963579D01*
X108120000Y-54384531D01*
X107780000Y-54384531D01*
X107696267Y-53963579D01*
X107457817Y-53606714D01*
X107150000Y-53401037D01*
X107150000Y-52950940D01*
X107245119Y-52855987D01*
X107352278Y-52597919D01*
X107352522Y-52318487D01*
X107245813Y-52060232D01*
X107048397Y-51862471D01*
X106790329Y-51755312D01*
X106510897Y-51755068D01*
X106252642Y-51861777D01*
X106054881Y-52059193D01*
X105991974Y-52210690D01*
X105840329Y-52147722D01*
X105560897Y-52147478D01*
X105410650Y-52209559D01*
X105345813Y-52052642D01*
X105148397Y-51854881D01*
X104890329Y-51747722D01*
X104695880Y-51747552D01*
X104745121Y-51698397D01*
X104852280Y-51440329D01*
X104852524Y-51160897D01*
X104745815Y-50902642D01*
X104548399Y-50704881D01*
X104290331Y-50597722D01*
X104010899Y-50597478D01*
X103752644Y-50704187D01*
X103554883Y-50901603D01*
X103447724Y-51159671D01*
X103447598Y-51304342D01*
X103298397Y-51154881D01*
X103040329Y-51047722D01*
X102760897Y-51047478D01*
X102502642Y-51154187D01*
X102304881Y-51351603D01*
X102197722Y-51609671D01*
X102197478Y-51889103D01*
X102304187Y-52147358D01*
X102400000Y-52243338D01*
X102400000Y-53639913D01*
X102377817Y-53606714D01*
X102100000Y-53421082D01*
X102100000Y-51493342D01*
X102195119Y-51398389D01*
X102302278Y-51140321D01*
X102302522Y-50860889D01*
X102195813Y-50602634D01*
X101998397Y-50404873D01*
X101740329Y-50297714D01*
X101460897Y-50297470D01*
X101202642Y-50404179D01*
X101004881Y-50601595D01*
X100897722Y-50859663D01*
X100897478Y-51139095D01*
X101004187Y-51397350D01*
X101100000Y-51493330D01*
X101100000Y-53421082D01*
X100822183Y-53606714D01*
X100583733Y-53963579D01*
X100500000Y-54384531D01*
X100160000Y-54384531D01*
X100076267Y-53963579D01*
X99837817Y-53606714D01*
X99480952Y-53368264D01*
X99060000Y-53284531D01*
X98639048Y-53368264D01*
X98282183Y-53606714D01*
X98043733Y-53963579D01*
X97960000Y-54384531D01*
X97620000Y-54384531D01*
X97536267Y-53963579D01*
X97297817Y-53606714D01*
X96940952Y-53368264D01*
X96520000Y-53284531D01*
X96099048Y-53368264D01*
X95742183Y-53606714D01*
X95503733Y-53963579D01*
X95420000Y-54384531D01*
X95080000Y-54384531D01*
X94996267Y-53963579D01*
X94757817Y-53606714D01*
X94400952Y-53368264D01*
X93980000Y-53284531D01*
X93559048Y-53368264D01*
X93202183Y-53606714D01*
X92963733Y-53963579D01*
X92880000Y-54384531D01*
X92540000Y-54384531D01*
X92456267Y-53963579D01*
X92217817Y-53606714D01*
X91860952Y-53368264D01*
X91440000Y-53284531D01*
X91019048Y-53368264D01*
X90662183Y-53606714D01*
X90423733Y-53963579D01*
X90340000Y-54384531D01*
X90007836Y-54384531D01*
X90007836Y-53710000D01*
X89979944Y-53561769D01*
X89892340Y-53425628D01*
X89758671Y-53334296D01*
X89600000Y-53302164D01*
X88200000Y-53302164D01*
X88051769Y-53330056D01*
X87915628Y-53417660D01*
X87824296Y-53551329D01*
X87792164Y-53710000D01*
X61171831Y-53710000D01*
X61102817Y-53606714D01*
X60745952Y-53368264D01*
X60325000Y-53284531D01*
X59904048Y-53368264D01*
X59547183Y-53606714D01*
X59308733Y-53963579D01*
X59225000Y-54384531D01*
X58885000Y-54384531D01*
X58801267Y-53963579D01*
X58562817Y-53606714D01*
X58205952Y-53368264D01*
X57785000Y-53284531D01*
X57364048Y-53368264D01*
X57007183Y-53606714D01*
X56768733Y-53963579D01*
X56685000Y-54384531D01*
X56345000Y-54384531D01*
X56261267Y-53963579D01*
X56022817Y-53606714D01*
X55665952Y-53368264D01*
X55245000Y-53284531D01*
X54824048Y-53368264D01*
X54467183Y-53606714D01*
X54228733Y-53963579D01*
X54145000Y-54384531D01*
X53805000Y-54384531D01*
X53721267Y-53963579D01*
X53482817Y-53606714D01*
X53125952Y-53368264D01*
X52705000Y-53284531D01*
X52284048Y-53368264D01*
X51927183Y-53606714D01*
X51688733Y-53963579D01*
X51605000Y-54384531D01*
X51272836Y-54384531D01*
X51272836Y-53710000D01*
X51244944Y-53561769D01*
X51157340Y-53425628D01*
X51023671Y-53334296D01*
X50865000Y-53302164D01*
X49465000Y-53302164D01*
X49316769Y-53330056D01*
X49180628Y-53417660D01*
X49089296Y-53551329D01*
X49057164Y-53710000D01*
X49057164Y-54110000D01*
X47990012Y-54110000D01*
X47798670Y-54148060D01*
X47636458Y-54256447D01*
X47095311Y-54797595D01*
X46960909Y-54797478D01*
X46702654Y-54904187D01*
X46504893Y-55101603D01*
X46397734Y-55359671D01*
X46397490Y-55639103D01*
X41982279Y-55639103D01*
X42035139Y-55605495D01*
X42281700Y-55254049D01*
X42375000Y-54835000D01*
X42375000Y-54635000D01*
X41300000Y-54635000D01*
X41250000Y-54635000D01*
X40175000Y-54635000D01*
X39842836Y-54635000D01*
X39842836Y-54385000D01*
X40175000Y-54385000D01*
X40175000Y-54585000D01*
X41250000Y-54585000D01*
X41250000Y-53410313D01*
X41300000Y-53410313D01*
X41300000Y-54585000D01*
X42375000Y-54585000D01*
X42375000Y-54385000D01*
X42281700Y-53965951D01*
X42035139Y-53614505D01*
X41672854Y-53384166D01*
X41471726Y-53327734D01*
X41300000Y-53410313D01*
X41250000Y-53410313D01*
X41078274Y-53327734D01*
X40877146Y-53384166D01*
X40514861Y-53614505D01*
X40268300Y-53965951D01*
X40175000Y-54385000D01*
X39842836Y-54385000D01*
X39842836Y-53710000D01*
X39814944Y-53561769D01*
X39727340Y-53425628D01*
X39593671Y-53334296D01*
X39435000Y-53302164D01*
X38035000Y-53302164D01*
X37886769Y-53330056D01*
X37750628Y-53417660D01*
X37659296Y-53551329D01*
X37627164Y-53710000D01*
X30691831Y-53710000D01*
X30622817Y-53606714D01*
X30265952Y-53368264D01*
X29845000Y-53284531D01*
X29424048Y-53368264D01*
X29067183Y-53606714D01*
X28828733Y-53963579D01*
X28745000Y-54384531D01*
X28405000Y-54384531D01*
X28321267Y-53963579D01*
X28082817Y-53606714D01*
X27725952Y-53368264D01*
X27305000Y-53284531D01*
X26884048Y-53368264D01*
X26527183Y-53606714D01*
X26288733Y-53963579D01*
X26205000Y-54384531D01*
X25865000Y-54384531D01*
X25781267Y-53963579D01*
X25542817Y-53606714D01*
X25185952Y-53368264D01*
X24765000Y-53284531D01*
X24344048Y-53368264D01*
X23987183Y-53606714D01*
X23748733Y-53963579D01*
X23665000Y-54384531D01*
X23325000Y-54384531D01*
X23325000Y-53630435D01*
X23264104Y-53483418D01*
X23151582Y-53370896D01*
X23004565Y-53310000D01*
X22350000Y-53310000D01*
X22250000Y-53410000D01*
X22200000Y-53410000D01*
X22100000Y-53310000D01*
X21445435Y-53310000D01*
X21298418Y-53370896D01*
X21185896Y-53483418D01*
X21125000Y-53630435D01*
X20500000Y-53630435D01*
X20500000Y-51400000D01*
X24900000Y-51400000D01*
X24968508Y-51744415D01*
X25163604Y-52036396D01*
X25363604Y-52236396D01*
X25655585Y-52431492D01*
X26000000Y-52500000D01*
X29800000Y-52500000D01*
X30144415Y-52431492D01*
X30436396Y-52236396D01*
X30631492Y-51944415D01*
X30700000Y-51600000D01*
X30631492Y-51255585D01*
X30436396Y-50963604D01*
X30192724Y-50800787D01*
X30195119Y-50798397D01*
X30302278Y-50540329D01*
X30302522Y-50260897D01*
X30195813Y-50002642D01*
X29998397Y-49804881D01*
X29740329Y-49697722D01*
X29460897Y-49697478D01*
X29202642Y-49804187D01*
X29106662Y-49900000D01*
X26493350Y-49900000D01*
X26398397Y-49804881D01*
X26140329Y-49697722D01*
X25860897Y-49697478D01*
X25602642Y-49804187D01*
X25404881Y-50001603D01*
X25297722Y-50259671D01*
X25297478Y-50539103D01*
X25341206Y-50644934D01*
X25163604Y-50763604D01*
X24968508Y-51055585D01*
X24900000Y-51400000D01*
X20500000Y-51400000D01*
X20500000Y-48939103D01*
X25297477Y-48939103D01*
X25404186Y-49197358D01*
X25601602Y-49395119D01*
X25859670Y-49502278D01*
X26139102Y-49502522D01*
X26397357Y-49395813D01*
X26493337Y-49300000D01*
X29106662Y-49300000D01*
X29201603Y-49395107D01*
X29459671Y-49502266D01*
X29739103Y-49502510D01*
X29997358Y-49395801D01*
X30195119Y-49198385D01*
X30302278Y-48940317D01*
X30302522Y-48660885D01*
X30195813Y-48402630D01*
X29998397Y-48204869D01*
X29740329Y-48097710D01*
X29460897Y-48097466D01*
X29202642Y-48204175D01*
X29106650Y-48300000D01*
X26493349Y-48300000D01*
X26398396Y-48204881D01*
X26140328Y-48097722D01*
X25860896Y-48097478D01*
X25602641Y-48204187D01*
X25404880Y-48401603D01*
X25297721Y-48659671D01*
X25297477Y-48939103D01*
X20500000Y-48939103D01*
X20500000Y-47403337D01*
X32905654Y-47403337D01*
X33012363Y-47661592D01*
X33209779Y-47859353D01*
X33467847Y-47966512D01*
X33569537Y-47966601D01*
X33569449Y-48067132D01*
X33676158Y-48325387D01*
X33873574Y-48523148D01*
X34131642Y-48630307D01*
X34411074Y-48630551D01*
X34669329Y-48523842D01*
X34867090Y-48326426D01*
X34974249Y-48068358D01*
X34974452Y-47835396D01*
X70840221Y-47835396D01*
X70946930Y-48093651D01*
X71144346Y-48291412D01*
X71402414Y-48398571D01*
X71681846Y-48398815D01*
X71940101Y-48292106D01*
X72137862Y-48094690D01*
X72245021Y-47836622D01*
X72245265Y-47557190D01*
X72155154Y-47339103D01*
X75797478Y-47339103D01*
X75904187Y-47597358D01*
X76101603Y-47795119D01*
X76359671Y-47902278D01*
X76639103Y-47902522D01*
X76897358Y-47795813D01*
X76954167Y-47739103D01*
X78097478Y-47739103D01*
X78204187Y-47997358D01*
X78401603Y-48195119D01*
X78659671Y-48302278D01*
X78724517Y-48302335D01*
X79588628Y-49166445D01*
X79599439Y-49192610D01*
X79796855Y-49390371D01*
X80054923Y-49497530D01*
X80334355Y-49497774D01*
X80592610Y-49391065D01*
X80790371Y-49193649D01*
X80897530Y-48935581D01*
X80897774Y-48656149D01*
X80791065Y-48397894D01*
X80593649Y-48200133D01*
X80335581Y-48092974D01*
X80070560Y-48092743D01*
X79502466Y-47524649D01*
X79502522Y-47460897D01*
X79395813Y-47202642D01*
X79198397Y-47004881D01*
X78940329Y-46897722D01*
X78660897Y-46897478D01*
X78402642Y-47004187D01*
X78204881Y-47201603D01*
X78097722Y-47459671D01*
X78097478Y-47739103D01*
X76954167Y-47739103D01*
X77095119Y-47598397D01*
X77202278Y-47340329D01*
X77202522Y-47060897D01*
X77095813Y-46802642D01*
X76898397Y-46604881D01*
X76640329Y-46497722D01*
X76360897Y-46497478D01*
X76102642Y-46604187D01*
X75904881Y-46801603D01*
X75797722Y-47059671D01*
X75797478Y-47339103D01*
X72155154Y-47339103D01*
X72138556Y-47298935D01*
X71941140Y-47101174D01*
X71683072Y-46994015D01*
X71403640Y-46993771D01*
X71145385Y-47100480D01*
X70947624Y-47297896D01*
X70840465Y-47555964D01*
X70840221Y-47835396D01*
X34974452Y-47835396D01*
X34974493Y-47788926D01*
X34867784Y-47530671D01*
X34771971Y-47434691D01*
X34771971Y-46515862D01*
X34859671Y-46552278D01*
X35139103Y-46552522D01*
X35397358Y-46445813D01*
X35595119Y-46248397D01*
X35702278Y-45990329D01*
X35702396Y-45854710D01*
X41457107Y-40100000D01*
X43006650Y-40100000D01*
X43101603Y-40195119D01*
X43359671Y-40302278D01*
X43639103Y-40302522D01*
X43897358Y-40195813D01*
X43954167Y-40139103D01*
X53597478Y-40139103D01*
X53704187Y-40397358D01*
X53901603Y-40595119D01*
X54028625Y-40647863D01*
X54647628Y-41266867D01*
X54647478Y-41439105D01*
X54754187Y-41697360D01*
X54951603Y-41895121D01*
X55209671Y-42002280D01*
X55489103Y-42002524D01*
X55747358Y-41895815D01*
X55945119Y-41698399D01*
X55997863Y-41571377D01*
X56112020Y-41457219D01*
X56112022Y-41457216D01*
X57157221Y-40412018D01*
X57157223Y-40412015D01*
X57271367Y-40297872D01*
X57397358Y-40245813D01*
X57595119Y-40048397D01*
X57702278Y-39790329D01*
X57702522Y-39510897D01*
X57595813Y-39252642D01*
X57398397Y-39054881D01*
X57140329Y-38947722D01*
X56860897Y-38947478D01*
X56602642Y-39054187D01*
X56404881Y-39251603D01*
X56352137Y-39378624D01*
X56237985Y-39492777D01*
X56237982Y-39492779D01*
X55475000Y-40255762D01*
X54947872Y-39728634D01*
X54895813Y-39602642D01*
X54698397Y-39404881D01*
X54440329Y-39297722D01*
X54160897Y-39297478D01*
X53902642Y-39404187D01*
X53704881Y-39601603D01*
X53597722Y-39859671D01*
X53597478Y-40139103D01*
X43954167Y-40139103D01*
X44095119Y-39998397D01*
X44202278Y-39740329D01*
X44202522Y-39460897D01*
X44095813Y-39202642D01*
X43898397Y-39004881D01*
X43640329Y-38897722D01*
X43360897Y-38897478D01*
X43102642Y-39004187D01*
X43006662Y-39100000D01*
X41250000Y-39100000D01*
X41058658Y-39138060D01*
X40896447Y-39246446D01*
X34995299Y-45147595D01*
X34860897Y-45147478D01*
X34771971Y-45184222D01*
X34771971Y-44773149D01*
X39073640Y-40471481D01*
X39138612Y-40374242D01*
X39182026Y-40309270D01*
X39220086Y-40117928D01*
X39220086Y-39520082D01*
X39182026Y-39328740D01*
X39073639Y-39166529D01*
X38802405Y-38895295D01*
X38802522Y-38760893D01*
X38695813Y-38502638D01*
X38498397Y-38304877D01*
X38240329Y-38197718D01*
X37960897Y-38197474D01*
X37702642Y-38304183D01*
X37504881Y-38501599D01*
X37397722Y-38759667D01*
X37397478Y-39039099D01*
X37504187Y-39297354D01*
X37602046Y-39395384D01*
X37552566Y-39444778D01*
X37445407Y-39702846D01*
X37445289Y-39838464D01*
X33254623Y-44029131D01*
X33146236Y-44191342D01*
X33108176Y-44382684D01*
X33108176Y-46770884D01*
X33013057Y-46865837D01*
X32905898Y-47123905D01*
X32905654Y-47403337D01*
X20500000Y-47403337D01*
X20500000Y-36939103D01*
X35297478Y-36939103D01*
X35404187Y-37197358D01*
X35500000Y-37293338D01*
X35500000Y-39006650D01*
X35404881Y-39101603D01*
X35297722Y-39359671D01*
X35297478Y-39639103D01*
X35404187Y-39897358D01*
X35601603Y-40095119D01*
X35859671Y-40202278D01*
X36139103Y-40202522D01*
X36397358Y-40095813D01*
X36595119Y-39898397D01*
X36702278Y-39640329D01*
X36702522Y-39360897D01*
X36595813Y-39102642D01*
X36500000Y-39006662D01*
X36500000Y-37293350D01*
X36595119Y-37198397D01*
X36702278Y-36940329D01*
X36702522Y-36660897D01*
X36595813Y-36402642D01*
X36482473Y-36289103D01*
X37897478Y-36289103D01*
X38004187Y-36547358D01*
X38201603Y-36745119D01*
X38459671Y-36852278D01*
X38739103Y-36852522D01*
X38997358Y-36745813D01*
X39195119Y-36548397D01*
X39302278Y-36290329D01*
X39302442Y-36102359D01*
X39489103Y-36102522D01*
X39747358Y-35995813D01*
X39843338Y-35900000D01*
X40792894Y-35900000D01*
X41997595Y-37104702D01*
X41997478Y-37239103D01*
X42104187Y-37497358D01*
X42176547Y-37569844D01*
X42097724Y-37759671D01*
X42097480Y-38039103D01*
X42204189Y-38297358D01*
X42401605Y-38495119D01*
X42659673Y-38602278D01*
X42939105Y-38602522D01*
X43197360Y-38495813D01*
X43354343Y-38339103D01*
X61297478Y-38339103D01*
X61404187Y-38597358D01*
X61601603Y-38795119D01*
X61859671Y-38902278D01*
X62139103Y-38902522D01*
X62266216Y-38850000D01*
X63400000Y-38850000D01*
X63607476Y-38808731D01*
X63648745Y-38800522D01*
X63859619Y-38659619D01*
X64371367Y-38147871D01*
X64497358Y-38095813D01*
X64695119Y-37898397D01*
X64802278Y-37640329D01*
X64802522Y-37360897D01*
X64695813Y-37102642D01*
X64498397Y-36904881D01*
X64240329Y-36797722D01*
X63960897Y-36797478D01*
X63702642Y-36904187D01*
X63504881Y-37101603D01*
X63452137Y-37228624D01*
X63130762Y-37550000D01*
X62266229Y-37550000D01*
X62140329Y-37497722D01*
X61860897Y-37497478D01*
X61602642Y-37604187D01*
X61404881Y-37801603D01*
X61297722Y-38059671D01*
X61297478Y-38339103D01*
X43354343Y-38339103D01*
X43395121Y-38298397D01*
X43502280Y-38040329D01*
X43502398Y-37904710D01*
X43653553Y-37753556D01*
X43761940Y-37591344D01*
X43770164Y-37550000D01*
X43800000Y-37400002D01*
X43800000Y-36800000D01*
X43761940Y-36608658D01*
X43692134Y-36504187D01*
X43653554Y-36446447D01*
X42791970Y-35584864D01*
X42791970Y-34735320D01*
X42887089Y-34640367D01*
X42994248Y-34382299D01*
X42994492Y-34102867D01*
X42887783Y-33844612D01*
X42690367Y-33646851D01*
X42432299Y-33539692D01*
X42152867Y-33539448D01*
X41894612Y-33646157D01*
X41696851Y-33843573D01*
X41589692Y-34101641D01*
X41589448Y-34381073D01*
X41696157Y-34639328D01*
X41791970Y-34735308D01*
X41791970Y-35484864D01*
X41353553Y-35046447D01*
X41191342Y-34938060D01*
X41000000Y-34900000D01*
X39843350Y-34900000D01*
X39748397Y-34804881D01*
X39490329Y-34697722D01*
X39402315Y-34697645D01*
X39402522Y-34460897D01*
X39295813Y-34202642D01*
X39098397Y-34004881D01*
X38840329Y-33897722D01*
X38560897Y-33897478D01*
X38302642Y-34004187D01*
X38104881Y-34201603D01*
X38004071Y-34444382D01*
X37999478Y-34451255D01*
X37997879Y-34459292D01*
X37997722Y-34459671D01*
X37997722Y-34460086D01*
X37950000Y-34700000D01*
X37950000Y-35883771D01*
X37897722Y-36009671D01*
X37897478Y-36289103D01*
X36482473Y-36289103D01*
X36398397Y-36204881D01*
X36140329Y-36097722D01*
X35860897Y-36097478D01*
X35602642Y-36204187D01*
X35404881Y-36401603D01*
X35297722Y-36659671D01*
X35297478Y-36939103D01*
X20500000Y-36939103D01*
X20500000Y-31939103D01*
X56397478Y-31939103D01*
X56504187Y-32197358D01*
X56701603Y-32395119D01*
X56959671Y-32502278D01*
X57239103Y-32502522D01*
X57497358Y-32395813D01*
X57695119Y-32198397D01*
X57802278Y-31940329D01*
X57802522Y-31660897D01*
X57695813Y-31402642D01*
X57650000Y-31356749D01*
X57650000Y-31027818D01*
X57675352Y-31002466D01*
X57739103Y-31002522D01*
X57997358Y-30895813D01*
X58195119Y-30698397D01*
X58302278Y-30440329D01*
X58302522Y-30160897D01*
X58195813Y-29902642D01*
X57998397Y-29704881D01*
X57740329Y-29597722D01*
X57460897Y-29597478D01*
X57202642Y-29704187D01*
X57004881Y-29901603D01*
X56897722Y-30159671D01*
X56897665Y-30224517D01*
X56711091Y-30411091D01*
X56591866Y-30589524D01*
X56550000Y-30800000D01*
X56550000Y-31356563D01*
X56504881Y-31401603D01*
X56397722Y-31659671D01*
X56397478Y-31939103D01*
X20500000Y-31939103D01*
X20500000Y-30639103D01*
X29597478Y-30639103D01*
X29704187Y-30897358D01*
X29901603Y-31095119D01*
X30159671Y-31202278D01*
X30439103Y-31202522D01*
X30697358Y-31095813D01*
X30895119Y-30898397D01*
X31002278Y-30640329D01*
X31002522Y-30360897D01*
X30895813Y-30102642D01*
X30698397Y-29904881D01*
X30440329Y-29797722D01*
X30160897Y-29797478D01*
X29902642Y-29904187D01*
X29704881Y-30101603D01*
X29597722Y-30359671D01*
X29597478Y-30639103D01*
X20500000Y-30639103D01*
X20500000Y-28200603D01*
X31579920Y-28200603D01*
X31686629Y-28458858D01*
X31884045Y-28656619D01*
X32142113Y-28763778D01*
X32277732Y-28763896D01*
X33164040Y-29650205D01*
X33204184Y-29747361D01*
X33401600Y-29945122D01*
X33659668Y-30052281D01*
X33939100Y-30052525D01*
X34197355Y-29945816D01*
X34395116Y-29748400D01*
X34502275Y-29490332D01*
X34502519Y-29210900D01*
X34395810Y-28952645D01*
X34198394Y-28754884D01*
X33940326Y-28647725D01*
X33660894Y-28647481D01*
X33600489Y-28672440D01*
X32984847Y-28056798D01*
X32984964Y-27922397D01*
X32878255Y-27664142D01*
X32680839Y-27466381D01*
X32422771Y-27359222D01*
X32143339Y-27358978D01*
X31885084Y-27465687D01*
X31687323Y-27663103D01*
X31580164Y-27921171D01*
X31579920Y-28200603D01*
X20500000Y-28200603D01*
X20500000Y-24274531D01*
X23150000Y-24274531D01*
X23150000Y-24725469D01*
X23233733Y-25146421D01*
X23472183Y-25503286D01*
X23829048Y-25741736D01*
X24250000Y-25825469D01*
X24670952Y-25741736D01*
X25027817Y-25503286D01*
X25200000Y-25245596D01*
X25200000Y-26406650D01*
X25104881Y-26501603D01*
X24997722Y-26759671D01*
X24997478Y-27039103D01*
X25104187Y-27297358D01*
X25301603Y-27495119D01*
X25559671Y-27602278D01*
X25839103Y-27602522D01*
X26097358Y-27495813D01*
X26295119Y-27298397D01*
X26402278Y-27040329D01*
X26402522Y-26760897D01*
X26295813Y-26502642D01*
X26200000Y-26406662D01*
X26200000Y-25628782D01*
X26369048Y-25741736D01*
X26790000Y-25825469D01*
X27210952Y-25741736D01*
X27567817Y-25503286D01*
X27806267Y-25146421D01*
X27890000Y-24725469D01*
X27890000Y-24274531D01*
X27806267Y-23853579D01*
X27790505Y-23829990D01*
X28329495Y-23829990D01*
X28313733Y-23853579D01*
X28230000Y-24274531D01*
X28230000Y-24725469D01*
X28313733Y-25146421D01*
X28552183Y-25503286D01*
X28909048Y-25741736D01*
X29330000Y-25825469D01*
X29750952Y-25741736D01*
X30107817Y-25503286D01*
X30346267Y-25146421D01*
X30430000Y-24725469D01*
X30430000Y-24274531D01*
X30346267Y-23853579D01*
X30345852Y-23852958D01*
X30770000Y-24277106D01*
X30770000Y-24725469D01*
X30853733Y-25146421D01*
X31092183Y-25503286D01*
X31449048Y-25741736D01*
X31870000Y-25825469D01*
X32290952Y-25741736D01*
X32647817Y-25503286D01*
X32886267Y-25146421D01*
X32970000Y-24725469D01*
X32970000Y-24525000D01*
X33310000Y-24525000D01*
X33310000Y-24725000D01*
X33403300Y-25144049D01*
X33649861Y-25495495D01*
X34012146Y-25725834D01*
X34213274Y-25782266D01*
X34385000Y-25699687D01*
X34385000Y-24525000D01*
X34435000Y-24525000D01*
X34435000Y-25699687D01*
X34606726Y-25782266D01*
X34807854Y-25725834D01*
X35170139Y-25495495D01*
X35416700Y-25144049D01*
X35510000Y-24725000D01*
X35510000Y-24525000D01*
X34435000Y-24525000D01*
X34385000Y-24525000D01*
X33310000Y-24525000D01*
X32970000Y-24525000D01*
X32970000Y-24275000D01*
X33310000Y-24275000D01*
X33310000Y-24475000D01*
X34385000Y-24475000D01*
X34385000Y-23300313D01*
X34435000Y-23300313D01*
X34435000Y-24475000D01*
X35510000Y-24475000D01*
X35510000Y-24275000D01*
X35416700Y-23855951D01*
X35237135Y-23600000D01*
X35842164Y-23600000D01*
X35842164Y-25400000D01*
X35870056Y-25548231D01*
X35957660Y-25684372D01*
X36091329Y-25775704D01*
X36250000Y-25807836D01*
X36300000Y-25807836D01*
X36300000Y-26713358D01*
X36197722Y-26959671D01*
X36197478Y-27239103D01*
X36304187Y-27497358D01*
X36501603Y-27695119D01*
X36759671Y-27802278D01*
X37039103Y-27802522D01*
X37297358Y-27695813D01*
X37495119Y-27498397D01*
X37602278Y-27240329D01*
X37602522Y-26960897D01*
X37600000Y-26954793D01*
X37600000Y-25807836D01*
X37650000Y-25807836D01*
X37798231Y-25779944D01*
X37934372Y-25692340D01*
X38025704Y-25558671D01*
X38057836Y-25400000D01*
X38057836Y-24939103D01*
X57997472Y-24939103D01*
X58104181Y-25197358D01*
X58199994Y-25293338D01*
X58199994Y-26913372D01*
X58097722Y-27159671D01*
X58097478Y-27439103D01*
X58204187Y-27697358D01*
X58401603Y-27895119D01*
X58659671Y-28002278D01*
X58939103Y-28002522D01*
X59197358Y-27895813D01*
X59395119Y-27698397D01*
X59502278Y-27440329D01*
X59502522Y-27160897D01*
X59395813Y-26902642D01*
X59199994Y-26706481D01*
X59199994Y-25293350D01*
X59295113Y-25198397D01*
X59402272Y-24940329D01*
X59402516Y-24660897D01*
X59295807Y-24402642D01*
X59098391Y-24204881D01*
X58840323Y-24097722D01*
X58560891Y-24097478D01*
X58302636Y-24204187D01*
X58104875Y-24401603D01*
X57997716Y-24659671D01*
X57997472Y-24939103D01*
X38057836Y-24939103D01*
X38057836Y-23600000D01*
X38029944Y-23451769D01*
X37942340Y-23315628D01*
X37808671Y-23224296D01*
X37650000Y-23192164D01*
X36250000Y-23192164D01*
X36101769Y-23220056D01*
X35965628Y-23307660D01*
X35874296Y-23441329D01*
X35842164Y-23600000D01*
X35237135Y-23600000D01*
X35170139Y-23504505D01*
X34807854Y-23274166D01*
X34606726Y-23217734D01*
X34435000Y-23300313D01*
X34385000Y-23300313D01*
X34213274Y-23217734D01*
X34012146Y-23274166D01*
X33649861Y-23504505D01*
X33403300Y-23855951D01*
X33310000Y-24275000D01*
X32970000Y-24275000D01*
X32970000Y-24274531D01*
X32886267Y-23853579D01*
X32647817Y-23496714D01*
X32290952Y-23258264D01*
X31870000Y-23174531D01*
X31449048Y-23258264D01*
X31278996Y-23371890D01*
X30883543Y-22976437D01*
X30721332Y-22868050D01*
X30529990Y-22829990D01*
X25970010Y-22829990D01*
X25778668Y-22868050D01*
X25616457Y-22976436D01*
X25346447Y-23246447D01*
X25238060Y-23408658D01*
X25200000Y-23600000D01*
X25200000Y-23754404D01*
X25027817Y-23496714D01*
X24670952Y-23258264D01*
X24250000Y-23174531D01*
X23829048Y-23258264D01*
X23472183Y-23496714D01*
X23233733Y-23853579D01*
X23150000Y-24274531D01*
X20500000Y-24274531D01*
X20500000Y-19000000D01*
X78400000Y-19000000D01*
X78400000Y-24480762D01*
G36*
X99400000Y-28000000D02*
X99407879Y-28038906D01*
X99429289Y-28070711D01*
X101900000Y-30541422D01*
X101900000Y-32678751D01*
X101712683Y-32553590D01*
X101330000Y-32477470D01*
X100947317Y-32553590D01*
X100622893Y-32770363D01*
X100406120Y-33094787D01*
X100330000Y-33477470D01*
X100330000Y-33822530D01*
X100406120Y-34205213D01*
X100622893Y-34529637D01*
X100866301Y-34692277D01*
X100258578Y-35300000D01*
X94100000Y-35300000D01*
X94061094Y-35307879D01*
X94029289Y-35329289D01*
X86458578Y-42900000D01*
X83041422Y-42900000D01*
X81600000Y-41458578D01*
X81600000Y-33639103D01*
X90097478Y-33639103D01*
X90204187Y-33897358D01*
X90401603Y-34095119D01*
X90528624Y-34147863D01*
X90840381Y-34459620D01*
X91051256Y-34600522D01*
X91300000Y-34650000D01*
X92733771Y-34650000D01*
X92859671Y-34702278D01*
X93139103Y-34702522D01*
X93397358Y-34595813D01*
X93595119Y-34398397D01*
X93702278Y-34140329D01*
X93702522Y-33860897D01*
X93625711Y-33675000D01*
X97790000Y-33675000D01*
X97790000Y-33825000D01*
X97875688Y-34205780D01*
X98100571Y-34524784D01*
X98430413Y-34733446D01*
X98608922Y-34783468D01*
X98765000Y-34699653D01*
X98765000Y-33675000D01*
X98815000Y-33675000D01*
X98815000Y-34699653D01*
X98971078Y-34783468D01*
X99149587Y-34733446D01*
X99479429Y-34524784D01*
X99704312Y-34205780D01*
X99790000Y-33825000D01*
X99790000Y-33675000D01*
X98815000Y-33675000D01*
X98765000Y-33675000D01*
X97790000Y-33675000D01*
X93625711Y-33675000D01*
X93595813Y-33602642D01*
X93468394Y-33475000D01*
X97790000Y-33475000D01*
X97790000Y-33625000D01*
X98765000Y-33625000D01*
X98765000Y-32600347D01*
X98815000Y-32600347D01*
X98815000Y-33625000D01*
X99790000Y-33625000D01*
X99790000Y-33475000D01*
X99704312Y-33094220D01*
X99479429Y-32775216D01*
X99149587Y-32566554D01*
X98971078Y-32516532D01*
X98815000Y-32600347D01*
X98765000Y-32600347D01*
X98608922Y-32516532D01*
X98430413Y-32566554D01*
X98100571Y-32775216D01*
X97875688Y-33094220D01*
X97790000Y-33475000D01*
X93468394Y-33475000D01*
X93398397Y-33404881D01*
X93140329Y-33297722D01*
X92860897Y-33297478D01*
X92733784Y-33350000D01*
X91569239Y-33350000D01*
X91447872Y-33228633D01*
X91395813Y-33102642D01*
X91198397Y-32904881D01*
X90940329Y-32797722D01*
X90660897Y-32797478D01*
X90402642Y-32904187D01*
X90204881Y-33101603D01*
X90097722Y-33359671D01*
X90097478Y-33639103D01*
X81600000Y-33639103D01*
X81600000Y-28729726D01*
X85269799Y-28729726D01*
X85446026Y-29156229D01*
X85772055Y-29482827D01*
X86198249Y-29659798D01*
X86659726Y-29660201D01*
X87086229Y-29483974D01*
X87412827Y-29157945D01*
X87589798Y-28731751D01*
X87590201Y-28270274D01*
X87413974Y-27843771D01*
X87087945Y-27517173D01*
X87051564Y-27502066D01*
X87069151Y-27495152D01*
X87104808Y-27471326D01*
X87177721Y-27283076D01*
X86430000Y-26535355D01*
X85682279Y-27283076D01*
X85755192Y-27471326D01*
X85816898Y-27498206D01*
X85773771Y-27516026D01*
X85447173Y-27842055D01*
X85270202Y-28268249D01*
X85269799Y-28729726D01*
X81600000Y-28729726D01*
X81600000Y-27000000D01*
X81592121Y-26961094D01*
X81570711Y-26929289D01*
X81351093Y-26709671D01*
X85266007Y-26709671D01*
X85434848Y-27139151D01*
X85458674Y-27174808D01*
X85646924Y-27247721D01*
X86394645Y-26500000D01*
X86465355Y-26500000D01*
X87213076Y-27247721D01*
X87401326Y-27174808D01*
X87585627Y-26751731D01*
X87586025Y-26729726D01*
X87809799Y-26729726D01*
X87986026Y-27156229D01*
X88312055Y-27482827D01*
X88352986Y-27499823D01*
X88313771Y-27516026D01*
X87987173Y-27842055D01*
X87810202Y-28268249D01*
X87809799Y-28729726D01*
X87986026Y-29156229D01*
X88312055Y-29482827D01*
X88738249Y-29659798D01*
X89199726Y-29660201D01*
X89626229Y-29483974D01*
X89952827Y-29157945D01*
X90129798Y-28731751D01*
X90130201Y-28270274D01*
X89953974Y-27843771D01*
X89627945Y-27517173D01*
X89587014Y-27500177D01*
X89626229Y-27483974D01*
X89952827Y-27157945D01*
X90129798Y-26731751D01*
X90129941Y-26567746D01*
X96369801Y-26567746D01*
X96544509Y-26990572D01*
X96867727Y-27314354D01*
X97290247Y-27489800D01*
X97747746Y-27490199D01*
X98170572Y-27315491D01*
X98494354Y-26992273D01*
X98669800Y-26569753D01*
X98670199Y-26112254D01*
X98495491Y-25689428D01*
X98172273Y-25365646D01*
X97749753Y-25190200D01*
X97292254Y-25189801D01*
X96869428Y-25364509D01*
X96545646Y-25687727D01*
X96370200Y-26110247D01*
X96369801Y-26567746D01*
X90129941Y-26567746D01*
X90130201Y-26270274D01*
X89953974Y-25843771D01*
X89627945Y-25517173D01*
X89201751Y-25340202D01*
X88740274Y-25339799D01*
X88313771Y-25516026D01*
X87987173Y-25842055D01*
X87810202Y-26268249D01*
X87809799Y-26729726D01*
X87586025Y-26729726D01*
X87593993Y-26290329D01*
X87425152Y-25860849D01*
X87401326Y-25825192D01*
X87213076Y-25752279D01*
X86465355Y-26500000D01*
X86394645Y-26500000D01*
X85646924Y-25752279D01*
X85458674Y-25825192D01*
X85274373Y-26248269D01*
X85266007Y-26709671D01*
X81351093Y-26709671D01*
X80100000Y-25458578D01*
X80100000Y-25188773D01*
X80346583Y-25188773D01*
X80521715Y-25464304D01*
X81248308Y-25788526D01*
X82043667Y-25810014D01*
X82286777Y-25716924D01*
X85682279Y-25716924D01*
X86430000Y-26464645D01*
X87177721Y-25716924D01*
X87104808Y-25528674D01*
X86681731Y-25344373D01*
X86220329Y-25336007D01*
X85790849Y-25504848D01*
X85755192Y-25528674D01*
X85682279Y-25716924D01*
X82286777Y-25716924D01*
X82786706Y-25525495D01*
X82878285Y-25464304D01*
X83053417Y-25188773D01*
X92346583Y-25188773D01*
X92521715Y-25464304D01*
X93248308Y-25788526D01*
X94043667Y-25810014D01*
X94786706Y-25525495D01*
X94878285Y-25464304D01*
X95053417Y-25188773D01*
X93700000Y-23835355D01*
X92346583Y-25188773D01*
X83053417Y-25188773D01*
X81700000Y-23835355D01*
X80346583Y-25188773D01*
X80100000Y-25188773D01*
X80100000Y-25019158D01*
X80311227Y-25153417D01*
X81664645Y-23800000D01*
X81735355Y-23800000D01*
X83088773Y-25153417D01*
X83364304Y-24978285D01*
X83688526Y-24251692D01*
X83691444Y-24143667D01*
X91689986Y-24143667D01*
X91974505Y-24886706D01*
X92035696Y-24978285D01*
X92311227Y-25153417D01*
X93664645Y-23800000D01*
X93735355Y-23800000D01*
X95088773Y-25153417D01*
X95364304Y-24978285D01*
X95688526Y-24251692D01*
X95710014Y-23456333D01*
X95425495Y-22713294D01*
X95364304Y-22621715D01*
X95088773Y-22446583D01*
X93735355Y-23800000D01*
X93664645Y-23800000D01*
X92311227Y-22446583D01*
X92035696Y-22621715D01*
X91711474Y-23348308D01*
X91689986Y-24143667D01*
X83691444Y-24143667D01*
X83710014Y-23456333D01*
X83425495Y-22713294D01*
X83364304Y-22621715D01*
X83088773Y-22446583D01*
X81735355Y-23800000D01*
X81664645Y-23800000D01*
X80311227Y-22446583D01*
X80100000Y-22580842D01*
X80100000Y-22411227D01*
X80346583Y-22411227D01*
X81700000Y-23764645D01*
X83053417Y-22411227D01*
X92346583Y-22411227D01*
X93700000Y-23764645D01*
X95053417Y-22411227D01*
X94878285Y-22135696D01*
X94654561Y-22035865D01*
X96779490Y-22035865D01*
X96851187Y-22223076D01*
X97270650Y-22405710D01*
X97728075Y-22413920D01*
X98153823Y-22246456D01*
X98188813Y-22223076D01*
X98260510Y-22035865D01*
X97520000Y-21295355D01*
X96779490Y-22035865D01*
X94654561Y-22035865D01*
X94151692Y-21811474D01*
X93356333Y-21789986D01*
X92613294Y-22074505D01*
X92521715Y-22135696D01*
X92346583Y-22411227D01*
X83053417Y-22411227D01*
X82878285Y-22135696D01*
X82151692Y-21811474D01*
X81356333Y-21789986D01*
X80613294Y-22074505D01*
X80521715Y-22135696D01*
X80346583Y-22411227D01*
X80100000Y-22411227D01*
X80100000Y-21468075D01*
X96366080Y-21468075D01*
X96533544Y-21893823D01*
X96556924Y-21928813D01*
X96744135Y-22000510D01*
X97484645Y-21260000D01*
X97555355Y-21260000D01*
X98295865Y-22000510D01*
X98483076Y-21928813D01*
X98665710Y-21509350D01*
X98673920Y-21051925D01*
X98506456Y-20626177D01*
X98483076Y-20591187D01*
X98295865Y-20519490D01*
X97555355Y-21260000D01*
X97484645Y-21260000D01*
X96744135Y-20519490D01*
X96556924Y-20591187D01*
X96374290Y-21010650D01*
X96366080Y-21468075D01*
X80100000Y-21468075D01*
X80100000Y-20484135D01*
X96779490Y-20484135D01*
X97520000Y-21224645D01*
X98260510Y-20484135D01*
X98188813Y-20296924D01*
X97769350Y-20114290D01*
X97311925Y-20106080D01*
X96886177Y-20273544D01*
X96851187Y-20296924D01*
X96779490Y-20484135D01*
X80100000Y-20484135D01*
X80100000Y-19100000D01*
X99400000Y-19100000D01*
X99400000Y-28000000D01*
X99400000Y-28000000D01*
G37*
X99400000Y-28000000D02*
X99407879Y-28038906D01*
X99429289Y-28070711D01*
X101900000Y-30541422D01*
X101900000Y-32678751D01*
X101712683Y-32553590D01*
X101330000Y-32477470D01*
X100947317Y-32553590D01*
X100622893Y-32770363D01*
X100406120Y-33094787D01*
X100330000Y-33477470D01*
X100330000Y-33822530D01*
X100406120Y-34205213D01*
X100622893Y-34529637D01*
X100866301Y-34692277D01*
X100258578Y-35300000D01*
X94100000Y-35300000D01*
X94061094Y-35307879D01*
X94029289Y-35329289D01*
X86458578Y-42900000D01*
X83041422Y-42900000D01*
X81600000Y-41458578D01*
X81600000Y-33639103D01*
X90097478Y-33639103D01*
X90204187Y-33897358D01*
X90401603Y-34095119D01*
X90528624Y-34147863D01*
X90840381Y-34459620D01*
X91051256Y-34600522D01*
X91300000Y-34650000D01*
X92733771Y-34650000D01*
X92859671Y-34702278D01*
X93139103Y-34702522D01*
X93397358Y-34595813D01*
X93595119Y-34398397D01*
X93702278Y-34140329D01*
X93702522Y-33860897D01*
X93625711Y-33675000D01*
X97790000Y-33675000D01*
X97790000Y-33825000D01*
X97875688Y-34205780D01*
X98100571Y-34524784D01*
X98430413Y-34733446D01*
X98608922Y-34783468D01*
X98765000Y-34699653D01*
X98765000Y-33675000D01*
X98815000Y-33675000D01*
X98815000Y-34699653D01*
X98971078Y-34783468D01*
X99149587Y-34733446D01*
X99479429Y-34524784D01*
X99704312Y-34205780D01*
X99790000Y-33825000D01*
X99790000Y-33675000D01*
X98815000Y-33675000D01*
X98765000Y-33675000D01*
X97790000Y-33675000D01*
X93625711Y-33675000D01*
X93595813Y-33602642D01*
X93468394Y-33475000D01*
X97790000Y-33475000D01*
X97790000Y-33625000D01*
X98765000Y-33625000D01*
X98765000Y-32600347D01*
X98815000Y-32600347D01*
X98815000Y-33625000D01*
X99790000Y-33625000D01*
X99790000Y-33475000D01*
X99704312Y-33094220D01*
X99479429Y-32775216D01*
X99149587Y-32566554D01*
X98971078Y-32516532D01*
X98815000Y-32600347D01*
X98765000Y-32600347D01*
X98608922Y-32516532D01*
X98430413Y-32566554D01*
X98100571Y-32775216D01*
X97875688Y-33094220D01*
X97790000Y-33475000D01*
X93468394Y-33475000D01*
X93398397Y-33404881D01*
X93140329Y-33297722D01*
X92860897Y-33297478D01*
X92733784Y-33350000D01*
X91569239Y-33350000D01*
X91447872Y-33228633D01*
X91395813Y-33102642D01*
X91198397Y-32904881D01*
X90940329Y-32797722D01*
X90660897Y-32797478D01*
X90402642Y-32904187D01*
X90204881Y-33101603D01*
X90097722Y-33359671D01*
X90097478Y-33639103D01*
X81600000Y-33639103D01*
X81600000Y-28729726D01*
X85269799Y-28729726D01*
X85446026Y-29156229D01*
X85772055Y-29482827D01*
X86198249Y-29659798D01*
X86659726Y-29660201D01*
X87086229Y-29483974D01*
X87412827Y-29157945D01*
X87589798Y-28731751D01*
X87590201Y-28270274D01*
X87413974Y-27843771D01*
X87087945Y-27517173D01*
X87051564Y-27502066D01*
X87069151Y-27495152D01*
X87104808Y-27471326D01*
X87177721Y-27283076D01*
X86430000Y-26535355D01*
X85682279Y-27283076D01*
X85755192Y-27471326D01*
X85816898Y-27498206D01*
X85773771Y-27516026D01*
X85447173Y-27842055D01*
X85270202Y-28268249D01*
X85269799Y-28729726D01*
X81600000Y-28729726D01*
X81600000Y-27000000D01*
X81592121Y-26961094D01*
X81570711Y-26929289D01*
X81351093Y-26709671D01*
X85266007Y-26709671D01*
X85434848Y-27139151D01*
X85458674Y-27174808D01*
X85646924Y-27247721D01*
X86394645Y-26500000D01*
X86465355Y-26500000D01*
X87213076Y-27247721D01*
X87401326Y-27174808D01*
X87585627Y-26751731D01*
X87586025Y-26729726D01*
X87809799Y-26729726D01*
X87986026Y-27156229D01*
X88312055Y-27482827D01*
X88352986Y-27499823D01*
X88313771Y-27516026D01*
X87987173Y-27842055D01*
X87810202Y-28268249D01*
X87809799Y-28729726D01*
X87986026Y-29156229D01*
X88312055Y-29482827D01*
X88738249Y-29659798D01*
X89199726Y-29660201D01*
X89626229Y-29483974D01*
X89952827Y-29157945D01*
X90129798Y-28731751D01*
X90130201Y-28270274D01*
X89953974Y-27843771D01*
X89627945Y-27517173D01*
X89587014Y-27500177D01*
X89626229Y-27483974D01*
X89952827Y-27157945D01*
X90129798Y-26731751D01*
X90129941Y-26567746D01*
X96369801Y-26567746D01*
X96544509Y-26990572D01*
X96867727Y-27314354D01*
X97290247Y-27489800D01*
X97747746Y-27490199D01*
X98170572Y-27315491D01*
X98494354Y-26992273D01*
X98669800Y-26569753D01*
X98670199Y-26112254D01*
X98495491Y-25689428D01*
X98172273Y-25365646D01*
X97749753Y-25190200D01*
X97292254Y-25189801D01*
X96869428Y-25364509D01*
X96545646Y-25687727D01*
X96370200Y-26110247D01*
X96369801Y-26567746D01*
X90129941Y-26567746D01*
X90130201Y-26270274D01*
X89953974Y-25843771D01*
X89627945Y-25517173D01*
X89201751Y-25340202D01*
X88740274Y-25339799D01*
X88313771Y-25516026D01*
X87987173Y-25842055D01*
X87810202Y-26268249D01*
X87809799Y-26729726D01*
X87586025Y-26729726D01*
X87593993Y-26290329D01*
X87425152Y-25860849D01*
X87401326Y-25825192D01*
X87213076Y-25752279D01*
X86465355Y-26500000D01*
X86394645Y-26500000D01*
X85646924Y-25752279D01*
X85458674Y-25825192D01*
X85274373Y-26248269D01*
X85266007Y-26709671D01*
X81351093Y-26709671D01*
X80100000Y-25458578D01*
X80100000Y-25188773D01*
X80346583Y-25188773D01*
X80521715Y-25464304D01*
X81248308Y-25788526D01*
X82043667Y-25810014D01*
X82286777Y-25716924D01*
X85682279Y-25716924D01*
X86430000Y-26464645D01*
X87177721Y-25716924D01*
X87104808Y-25528674D01*
X86681731Y-25344373D01*
X86220329Y-25336007D01*
X85790849Y-25504848D01*
X85755192Y-25528674D01*
X85682279Y-25716924D01*
X82286777Y-25716924D01*
X82786706Y-25525495D01*
X82878285Y-25464304D01*
X83053417Y-25188773D01*
X92346583Y-25188773D01*
X92521715Y-25464304D01*
X93248308Y-25788526D01*
X94043667Y-25810014D01*
X94786706Y-25525495D01*
X94878285Y-25464304D01*
X95053417Y-25188773D01*
X93700000Y-23835355D01*
X92346583Y-25188773D01*
X83053417Y-25188773D01*
X81700000Y-23835355D01*
X80346583Y-25188773D01*
X80100000Y-25188773D01*
X80100000Y-25019158D01*
X80311227Y-25153417D01*
X81664645Y-23800000D01*
X81735355Y-23800000D01*
X83088773Y-25153417D01*
X83364304Y-24978285D01*
X83688526Y-24251692D01*
X83691444Y-24143667D01*
X91689986Y-24143667D01*
X91974505Y-24886706D01*
X92035696Y-24978285D01*
X92311227Y-25153417D01*
X93664645Y-23800000D01*
X93735355Y-23800000D01*
X95088773Y-25153417D01*
X95364304Y-24978285D01*
X95688526Y-24251692D01*
X95710014Y-23456333D01*
X95425495Y-22713294D01*
X95364304Y-22621715D01*
X95088773Y-22446583D01*
X93735355Y-23800000D01*
X93664645Y-23800000D01*
X92311227Y-22446583D01*
X92035696Y-22621715D01*
X91711474Y-23348308D01*
X91689986Y-24143667D01*
X83691444Y-24143667D01*
X83710014Y-23456333D01*
X83425495Y-22713294D01*
X83364304Y-22621715D01*
X83088773Y-22446583D01*
X81735355Y-23800000D01*
X81664645Y-23800000D01*
X80311227Y-22446583D01*
X80100000Y-22580842D01*
X80100000Y-22411227D01*
X80346583Y-22411227D01*
X81700000Y-23764645D01*
X83053417Y-22411227D01*
X92346583Y-22411227D01*
X93700000Y-23764645D01*
X95053417Y-22411227D01*
X94878285Y-22135696D01*
X94654561Y-22035865D01*
X96779490Y-22035865D01*
X96851187Y-22223076D01*
X97270650Y-22405710D01*
X97728075Y-22413920D01*
X98153823Y-22246456D01*
X98188813Y-22223076D01*
X98260510Y-22035865D01*
X97520000Y-21295355D01*
X96779490Y-22035865D01*
X94654561Y-22035865D01*
X94151692Y-21811474D01*
X93356333Y-21789986D01*
X92613294Y-22074505D01*
X92521715Y-22135696D01*
X92346583Y-22411227D01*
X83053417Y-22411227D01*
X82878285Y-22135696D01*
X82151692Y-21811474D01*
X81356333Y-21789986D01*
X80613294Y-22074505D01*
X80521715Y-22135696D01*
X80346583Y-22411227D01*
X80100000Y-22411227D01*
X80100000Y-21468075D01*
X96366080Y-21468075D01*
X96533544Y-21893823D01*
X96556924Y-21928813D01*
X96744135Y-22000510D01*
X97484645Y-21260000D01*
X97555355Y-21260000D01*
X98295865Y-22000510D01*
X98483076Y-21928813D01*
X98665710Y-21509350D01*
X98673920Y-21051925D01*
X98506456Y-20626177D01*
X98483076Y-20591187D01*
X98295865Y-20519490D01*
X97555355Y-21260000D01*
X97484645Y-21260000D01*
X96744135Y-20519490D01*
X96556924Y-20591187D01*
X96374290Y-21010650D01*
X96366080Y-21468075D01*
X80100000Y-21468075D01*
X80100000Y-20484135D01*
X96779490Y-20484135D01*
X97520000Y-21224645D01*
X98260510Y-20484135D01*
X98188813Y-20296924D01*
X97769350Y-20114290D01*
X97311925Y-20106080D01*
X96886177Y-20273544D01*
X96851187Y-20296924D01*
X96779490Y-20484135D01*
X80100000Y-20484135D01*
X80100000Y-19100000D01*
X99400000Y-19100000D01*
X99400000Y-28000000D01*
M02*
