M48
;DRILL file {KiCad 4.0.6} date 08/12/17 18:43:10
;FORMAT={-:-/ absolute / metric / decimal}
FMAT,2
METRIC,TZ
T1C0.300
T2C0.800
T3C0.810
T4C1.000
T5C2.300
%
G90
G05
M71
T1
X20.7Y-19.2
X20.7Y-23.
X20.7Y-26.6
X20.7Y-30.3
X20.7Y-34.5
X20.7Y-39.3
X20.7Y-44.4
X20.7Y-48.7
X20.7Y-52.7
X20.7Y-56.4
X20.7Y-60.8
X24.8Y-19.2
X25.4Y-60.8
X25.7Y-26.9
X25.8Y-51.4
X26.Y-48.8
X26.Y-50.4
X28.8Y-19.2
X29.6Y-48.8
X29.6Y-50.4
X29.8Y-51.6
X29.8Y-60.8
X30.104Y-42.05
X30.3Y-30.5
X32.282Y-28.061
X33.05Y-32.5
X33.608Y-47.264
X33.7Y-19.2
X33.8Y-29.35
X34.1Y-60.8
X34.272Y-47.928
X35.Y-45.85
X35.5Y-56.5
X36.Y-36.8
X36.Y-39.5
X36.3Y-56.5
X36.9Y-27.1
X38.1Y-38.9
X38.1Y-60.8
X38.148Y-39.843
X38.4Y-19.2
X38.6Y-36.15
X38.7Y-34.6
X39.Y-42.85
X39.35Y-35.4
X42.292Y-34.242
X42.5Y-19.2
X42.7Y-37.1
X42.8Y-60.8
X42.8Y-37.9
X43.1Y-35.
X43.5Y-39.6
X46.1Y-19.2
X46.8Y-60.8
X47.1Y-55.5
X47.4Y-32.1
X48.783Y-43.016
X50.Y-19.2
X50.4Y-44.95
X50.5Y-60.8
X51.6Y-28.1
X52.25Y-38.2
X54.062Y-34.248
X54.3Y-40.
X54.8Y-60.8
X54.9Y-19.2
X55.35Y-41.3
X56.335Y-42.615
X57.Y-39.65
X57.1Y-31.8
X57.6Y-30.3
X58.05Y-31.7
X58.458Y-42.208
X58.7Y-24.8
X58.8Y-27.3
X58.8Y-32.35
X59.2Y-19.2
X59.4Y-60.8
X59.7Y-33.25
X61.1Y-46.5
X61.6Y-35.2
X62.Y-38.2
X62.4Y-27.55
X63.6Y-28.65
X63.7Y-60.8
X63.8Y-19.2
X64.1Y-37.5
X64.5Y-44.5
X65.35Y-35.8
X65.9Y-30.85
X66.75Y-25.65
X67.35Y-41.7
X68.3Y-60.8
X68.5Y-19.2
X69.05Y-39.95
X69.7Y-43.1
X71.35Y-36.55
X71.543Y-47.696
X72.643Y-44.996
X72.8Y-60.8
X73.6Y-19.2
X75.Y-44.996
X75.1Y-40.4
X75.3Y-35.6
X76.5Y-47.2
X76.65Y-31.8
X76.7Y-60.8
X77.543Y-43.096
X77.7Y-24.7
X78.2Y-19.2
X78.8Y-47.6
X79.15Y-43.35
X79.5Y-30.8
X79.517Y-30.008
X79.6Y-41.75
X80.195Y-48.795
X80.221Y-42.523
X80.85Y-45.35
X81.Y-60.8
X85.3Y-31.7
X85.4Y-35.6
X85.4Y-60.8
X86.9Y-35.6
X86.9Y-38.8
X86.9Y-40.4
X88.8Y-33.
X90.2Y-60.8
X90.8Y-32.7
X90.8Y-33.5
X92.9Y-32.6
X93.Y-34.
X93.16Y-38.84
X94.2Y-43.85
X94.5Y-60.8
X98.6Y-43.4
X98.65Y-44.8
X99.3Y-60.8
X99.8Y-40.8
X101.6Y-51.
X101.8Y-19.2
X102.9Y-51.75
X104.1Y-60.8
X104.15Y-51.3
X104.3Y-42.4
X104.75Y-52.45
X105.7Y-52.85
X106.65Y-52.458
X108.4Y-19.2
X108.6Y-60.8
X114.2Y-60.8
X114.35Y-27.4
X114.7Y-19.2
X116.95Y-48.95
X119.3Y-19.2
X119.3Y-23.2
X119.3Y-28.
X119.3Y-33.4
X119.3Y-38.9
X119.3Y-43.9
X119.3Y-50.
X119.3Y-55.7
X119.3Y-60.8
T2
X97.52Y-21.26
X97.52Y-26.34
X98.79Y-33.65
X101.33Y-33.65
X102.6Y-21.26
X102.6Y-26.34
X103.87Y-33.65
X106.41Y-33.65
X107.68Y-21.26
X107.68Y-26.34
X108.65Y-41.8
X115.15Y-41.8
T3
X86.43Y-26.5
X86.43Y-28.5
X88.97Y-26.5
X88.97Y-28.5
T4
X22.225Y-54.61
X22.225Y-57.15
X24.25Y-24.5
X24.765Y-54.61
X24.765Y-57.15
X26.79Y-24.5
X27.305Y-54.61
X27.305Y-57.15
X29.33Y-24.5
X29.845Y-54.61
X29.845Y-57.15
X31.87Y-24.5
X34.41Y-24.5
X36.95Y-24.5
X38.735Y-54.61
X38.735Y-57.15
X41.275Y-54.61
X41.275Y-57.15
X50.165Y-54.61
X50.165Y-57.15
X52.705Y-54.61
X52.705Y-57.15
X55.245Y-54.61
X55.245Y-57.15
X57.785Y-54.61
X57.785Y-57.15
X60.325Y-54.61
X60.325Y-57.15
X88.9Y-54.61
X88.9Y-57.15
X91.44Y-54.61
X91.44Y-57.15
X93.98Y-54.61
X93.98Y-57.15
X96.52Y-54.61
X96.52Y-57.15
X99.06Y-54.61
X99.06Y-57.15
X101.6Y-54.61
X101.6Y-57.15
X104.14Y-54.61
X104.14Y-57.15
X106.68Y-54.61
X106.68Y-57.15
X109.22Y-54.61
X109.22Y-57.15
X111.76Y-54.61
X111.76Y-57.15
X114.3Y-54.61
X114.3Y-57.15
X116.84Y-54.61
X116.84Y-57.15
T5
X81.7Y-23.8
X93.7Y-23.8
T0
M30
