G04 #@! TF.FileFunction,Soldermask,Bot*
%FSLAX46Y46*%
G04 Gerber Fmt 4.6, Leading zero omitted, Abs format (unit mm)*
G04 Created by KiCad (PCBNEW 4.0.6) date 08/12/17 18:43:04*
%MOMM*%
%LPD*%
G01*
G04 APERTURE LIST*
%ADD10C,0.100000*%
%ADD11R,1.600000X2.000000*%
%ADD12O,1.600000X2.000000*%
%ADD13R,1.800000X1.800000*%
%ADD14C,1.800000*%
%ADD15C,1.720000*%
%ADD16C,3.400000*%
%ADD17C,1.700000*%
%ADD18O,1.400000X1.700000*%
G04 APERTURE END LIST*
D10*
D11*
X36950000Y-24500000D03*
D12*
X34410000Y-24500000D03*
X31870000Y-24500000D03*
X29330000Y-24500000D03*
X26790000Y-24500000D03*
X24250000Y-24500000D03*
D13*
X115150000Y-41800000D03*
D14*
X108650000Y-41800000D03*
D15*
X88970000Y-28500000D03*
X86430000Y-28500000D03*
X86430000Y-26500000D03*
X88970000Y-26500000D03*
D16*
X93700000Y-23800000D03*
X81700000Y-23800000D03*
D17*
X97520000Y-26340000D03*
X97520000Y-21260000D03*
X102600000Y-26340000D03*
X102600000Y-21260000D03*
X107680000Y-21260000D03*
X107680000Y-26340000D03*
D11*
X22225000Y-54610000D03*
D12*
X22225000Y-57150000D03*
X24765000Y-54610000D03*
X24765000Y-57150000D03*
X27305000Y-54610000D03*
X27305000Y-57150000D03*
X29845000Y-54610000D03*
X29845000Y-57150000D03*
D11*
X38735000Y-54610000D03*
D12*
X38735000Y-57150000D03*
X41275000Y-54610000D03*
X41275000Y-57150000D03*
D11*
X50165000Y-54610000D03*
D12*
X50165000Y-57150000D03*
X52705000Y-54610000D03*
X52705000Y-57150000D03*
X55245000Y-54610000D03*
X55245000Y-57150000D03*
X57785000Y-54610000D03*
X57785000Y-57150000D03*
X60325000Y-54610000D03*
X60325000Y-57150000D03*
D11*
X88900000Y-54610000D03*
D12*
X88900000Y-57150000D03*
X91440000Y-54610000D03*
X91440000Y-57150000D03*
X93980000Y-54610000D03*
X93980000Y-57150000D03*
X96520000Y-54610000D03*
X96520000Y-57150000D03*
X99060000Y-54610000D03*
X99060000Y-57150000D03*
X101600000Y-54610000D03*
X101600000Y-57150000D03*
X104140000Y-54610000D03*
X104140000Y-57150000D03*
X106680000Y-54610000D03*
X106680000Y-57150000D03*
X109220000Y-54610000D03*
X109220000Y-57150000D03*
X111760000Y-54610000D03*
X111760000Y-57150000D03*
X114300000Y-54610000D03*
X114300000Y-57150000D03*
X116840000Y-54610000D03*
X116840000Y-57150000D03*
D18*
X98790000Y-33650000D03*
X101330000Y-33650000D03*
X103870000Y-33650000D03*
X106410000Y-33650000D03*
M02*
