M48
;DRILL file {KiCad 4.0.6} date 08/12/17 18:49:32
;FORMAT={-:-/ absolute / metric / decimal}
FMAT,2
METRIC,TZ
T1C0.300
T2C1.000
T3C1.100
T4C3.200
%
G90
G05
M71
T1
X20.7Y-19.3
X20.7Y-25.7
X20.7Y-27.198
X20.7Y-31.4
X20.7Y-32.882
X20.7Y-35.1
X20.7Y-44.498
X20.7Y-46.7
X20.7Y-48.198
X20.7Y-52.302
X20.7Y-53.882
X20.7Y-56.1
X20.7Y-58.3
X20.8Y-23.498
X20.8Y-60.7
X21.5Y-32.1
X21.6Y-21.3
X22.1Y-34.987
X22.2Y-36.2
X22.9Y-21.248
X22.9Y-25.448
X22.9Y-29.3
X23.Y-42.
X23.2Y-28.25
X23.4Y-32.6
X24.1Y-25.4
X24.591Y-37.24
X24.6Y-55.8
X24.8Y-50.3
X24.9Y-21.248
X24.9Y-32.
X25.Y-39.9
X25.8Y-32.1
X26.1Y-59.2
X26.2Y-21.248
X27.Y-21.6
X27.125Y-41.
X27.198Y-41.9
X27.2Y-42.8
X27.298Y-46.6
X27.7Y-31.502
X27.9Y-21.6
X28.001Y-35.449
X28.4Y-52.4
X28.6Y-25.9
X28.6Y-55.9
X28.6Y-57.2
X28.8Y-40.85
X28.85Y-29.35
X28.85Y-39.55
X28.893Y-35.093
X29.1Y-31.1
X29.24Y-37.24
X29.5Y-23.677
X29.7Y-60.7
X29.709Y-39.525
X29.8Y-55.8
X30.4Y-36.2
X30.5Y-31.9
X30.6Y-22.1
X30.6Y-23.498
X30.6Y-39.6
X30.8Y-58.3
X30.95Y-54.8
X32.2Y-19.2
X32.2Y-29.1
X32.3Y-25.864
X32.6Y-27.219
X32.65Y-31.7
X32.7Y-37.252
X32.7Y-38.2
X33.4Y-19.9
X33.4Y-24.
X33.5Y-37.7
X33.8Y-41.7
X33.9Y-31.6
X33.976Y-47.755
X34.1Y-25.6
X34.1Y-28.9
X34.177Y-32.579
X34.505Y-51.066
X34.75Y-33.1
X35.05Y-47.802
X35.2Y-31.3
X35.3Y-19.3
X35.7Y-50.9
X35.7Y-54.1
X35.7Y-55.8
X35.75Y-23.822
X35.8Y-54.9
X36.1Y-31.75
X37.Y-32.8
X37.35Y-37.25
X37.538Y-38.957
X37.8Y-31.302
X38.Y-45.9
X38.Y-60.7
X38.4Y-37.5
X38.578Y-41.489
X38.8Y-31.378
X39.35Y-41.55
X40.2Y-55.6
X40.4Y-35.9
X40.4Y-38.8
X40.45Y-47.3
X40.5Y-22.1
X40.5Y-45.1
X40.587Y-41.637
X40.65Y-42.65
X40.75Y-26.
X40.95Y-48.6
X41.Y-44.3
X41.1Y-21.1
X41.5Y-39.65
X41.7Y-34.8
X41.813Y-43.717
X41.95Y-28.4
X42.3Y-50.1
X42.3Y-59.1
X42.4Y-45.9
X42.4Y-52.4
X42.462Y-49.342
X42.6Y-32.95
X42.65Y-27.55
X42.65Y-38.95
X42.7Y-43.7
X42.75Y-30.35
X42.75Y-31.35
X43.4Y-19.3
X43.425Y-27.55
X43.55Y-33.15
X43.55Y-34.65
X43.6Y-38.978
X43.7Y-56.8
X43.8Y-29.85
X44.05Y-26.4
X44.1Y-24.9
X44.35Y-39.4
X44.5Y-23.6
X44.5Y-50.9
X44.5Y-51.905
X44.5Y-54.1
X44.5Y-55.6
X44.5Y-57.902
X44.9Y-26.4
X45.55Y-37.95
X45.599Y-22.651
X45.663Y-20.613
X45.8Y-23.513
X46.1Y-43.8
X46.25Y-39.7
X46.3Y-36.8
X46.4Y-22.1
X46.428Y-34.972
X46.45Y-20.65
X46.45Y-32.8
X46.55Y-31.35
X47.Y-42.4
X47.3Y-32.928
X47.35Y-20.7
X47.4Y-23.2
X47.875Y-39.566
X48.3Y-22.1
X48.35Y-28.65
X48.35Y-30.25
X48.5Y-35.35
X48.913Y-57.805
X49.064Y-50.036
X49.088Y-44.969
X49.2Y-23.2
X49.4Y-21.4
X49.45Y-43.65
X49.7Y-55.9
X49.745Y-35.4
X49.85Y-31.35
X50.Y-51.302
X50.Y-44.5
X50.1Y-49.3
X50.205Y-47.355
X50.28Y-39.55
X50.6Y-20.9
X50.75Y-26.75
X50.805Y-43.7
X50.9Y-51.402
X51.4Y-55.948
X51.4Y-59.502
X51.4Y-60.7
X51.6Y-29.6
X51.7Y-53.5
X51.798Y-43.5
X51.8Y-39.849
X51.897Y-42.719
X52.Y-26.7
X52.15Y-34.25
X52.55Y-27.3
X52.848Y-33.052
X52.85Y-31.3
X52.92Y-26.544
X53.Y-38.95
X53.427Y-32.055
X53.5Y-30.2
X53.578Y-33.464
X53.7Y-56.1
X53.9Y-28.2
X53.95Y-30.85
X54.Y-57.6
X54.105Y-26.7
X54.2Y-32.
X54.455Y-29.809
X55.1Y-25.65
X55.5Y-21.7
X55.55Y-35.8
X55.653Y-51.037
X55.726Y-46.426
X56.1Y-42.6
X56.353Y-38.951
X56.4Y-35.6
X56.478Y-52.278
X56.75Y-48.35
X56.75Y-50.95
X56.9Y-60.7
X57.1Y-38.09
X57.3Y-26.5
X57.45Y-35.5
X57.55Y-48.45
X57.65Y-37.15
X57.75Y-49.6
X58.05Y-46.3
X58.35Y-43.9
X58.541Y-50.466
X58.8Y-59.3
X58.85Y-52.1
X59.Y-56.1
X59.1Y-57.3
X59.15Y-24.9
X59.173Y-32.527
X59.2Y-54.8
X59.35Y-29.6
X59.45Y-41.05
X59.5Y-43.65
X59.55Y-38.65
X59.8Y-46.4
X60.3Y-55.9
X60.4Y-34.45
X60.6Y-31.35
X60.7Y-21.1
X60.965Y-43.272
X61.1Y-38.95
X61.4Y-58.3
X62.088Y-39.071
X62.1Y-43.348
X62.85Y-38.6
X63.2Y-43.272
X63.558Y-39.046
X63.659Y-23.879
X63.812Y-48.992
X64.Y-52.85
X64.2Y-21.85
X64.425Y-43.402
X64.75Y-58.65
X65.059Y-41.428
X65.25Y-42.55
X65.398Y-44.994
X65.4Y-43.6
X65.45Y-35.
X65.501Y-45.9
X65.529Y-48.7
X65.529Y-49.9
X65.598Y-54.1
X65.598Y-55.5
X65.598Y-58.1
X65.6Y-23.6
X65.6Y-50.9
X65.605Y-33.448
X65.68Y-21.02
X65.75Y-28.2
X65.75Y-31.85
X65.784Y-24.87
X65.8Y-40.4
X65.8Y-30.2
X66.019Y-36.004
X66.562Y-37.55
X66.75Y-40.5
X66.8Y-21.05
X67.1Y-53.198
X68.Y-21.55
X68.098Y-54.4
X68.098Y-55.405
X68.1Y-34.
X68.1Y-56.21
X68.1Y-57.2
X68.1Y-58.498
X68.3Y-43.1
X68.928Y-34.024
X69.1Y-37.
X69.302Y-45.661
X69.45Y-47.15
X69.528Y-44.898
X69.691Y-48.106
X70.1Y-43.05
X70.137Y-49.437
X70.2Y-31.
X70.2Y-30.
X70.25Y-50.35
X70.3Y-25.3
X70.3Y-35.95
X70.35Y-21.35
X70.45Y-43.85
X70.539Y-34.
X70.743Y-27.454
X71.14Y-53.221
X71.37Y-30.47
X71.374Y-34.002
X71.5Y-56.698
X71.503Y-49.851
X71.697Y-27.123
X71.8Y-21.35
X71.8Y-25.
X71.866Y-50.927
X72.125Y-55.129
X72.181Y-31.319
X72.2Y-44.5
X72.254Y-26.461
X72.4Y-42.7
X72.401Y-51.657
X72.75Y-21.4
X72.9Y-56.5
X73.25Y-29.75
X73.75Y-21.573
X73.9Y-27.2
X74.215Y-29.995
X74.25Y-31.3
X75.1Y-32.81
X75.101Y-26.301
X75.2Y-21.6
X75.3Y-38.95
X75.3Y-42.9
X75.3Y-43.9
X75.3Y-54.7
X75.3Y-58.
X75.45Y-37.75
X75.8Y-35.2
X76.4Y-54.6
X76.6Y-25.8
X76.6Y-39.85
X77.8Y-21.198
X77.8Y-42.039
X77.8Y-57.2
X77.9Y-37.25
X77.9Y-43.1
X77.943Y-44.3
X79.3Y-54.6
X79.4Y-39.8
X80.144Y-21.198
X80.205Y-39.492
X80.4Y-44.127
X80.4Y-54.6
X80.4Y-57.2
X80.55Y-36.05
X81.1Y-21.15
X81.304Y-45.192
X81.405Y-54.6
X81.55Y-36.05
X82.05Y-21.3
X82.104Y-32.612
X82.8Y-35.598
X82.9Y-57.6
X83.048Y-26.1
X83.15Y-32.7
X83.299Y-31.162
X83.7Y-38.202
X83.708Y-44.7
X83.85Y-35.5
X83.95Y-26.35
X84.Y-54.9
X84.05Y-21.6
X85.1Y-46.7
X85.121Y-25.579
X85.352Y-29.8
X85.427Y-30.83
X85.5Y-21.5
X85.721Y-48.385
X85.9Y-23.21
X85.9Y-24.014
X86.011Y-44.86
X86.178Y-35.4
X86.181Y-29.436
X86.224Y-46.08
X86.3Y-57.4
X86.373Y-31.87
X86.4Y-53.5
X86.8Y-48.6
X87.2Y-44.05
X87.583Y-35.377
X87.6Y-58.1
X87.7Y-19.2
X87.848Y-38.445
X88.Y-41.
X88.2Y-50.4
X88.5Y-42.214
X88.6Y-25.905
X88.649Y-32.8
X88.656Y-38.527
X88.7Y-24.3
X88.9Y-36.8
X89.2Y-51.5
X89.4Y-44.452
X89.8Y-36.8
X89.9Y-49.5
X90.2Y-59.7
X90.8Y-41.
X90.998Y-37.2
X91.366Y-50.487
X91.5Y-51.3
X91.8Y-49.3
X91.974Y-23.198
X91.998Y-24.502
X92.402Y-37.645
X92.7Y-59.7
X92.725Y-48.089
X92.8Y-35.3
X93.4Y-37.8
X93.6Y-43.3
X93.8Y-19.2
X94.1Y-60.8
X94.2Y-47.1
X94.298Y-42.895
X94.298Y-43.801
X94.66Y-38.183
X94.7Y-22.6
X94.7Y-23.805
X94.7Y-24.61
X95.3Y-50.7
X95.3Y-54.402
X95.3Y-55.8
X95.4Y-38.5
X95.7Y-23.5
X95.9Y-46.1
X96.Y-44.6
X96.15Y-35.4
X96.3Y-55.632
X97.3Y-38.702
X97.3Y-44.6
X97.585Y-51.025
X97.655Y-35.4
X97.8Y-54.402
X97.8Y-55.8
X98.1Y-50.2
X98.55Y-32.5
X98.6Y-35.75
X99.3Y-31.4
X99.3Y-46.8
X99.3Y-47.7
X100.3Y-52.398
X100.3Y-59.2
X100.3Y-56.9
X100.5Y-41.6
X100.542Y-32.658
X100.821Y-36.621
X101.Y-39.1
X101.2Y-44.075
X101.2Y-46.5
X101.7Y-19.2
X102.102Y-37.65
X103.5Y-38.8
X103.5Y-60.7
X105.2Y-55.7
X105.278Y-52.7
X105.4Y-45.648
X105.4Y-47.3
X105.402Y-48.293
X105.402Y-44.7
X105.6Y-42.1
X105.65Y-41.15
X106.5Y-35.4
X106.607Y-49.1
X106.713Y-49.898
X107.6Y-55.8
X107.7Y-34.6
X108.7Y-47.
X108.8Y-44.5
X108.824Y-42.298
X110.1Y-27.5
X110.3Y-25.2
X110.6Y-51.2
X110.7Y-45.7
X110.7Y-55.9
X110.9Y-24.1
X110.9Y-37.8
X111.1Y-19.2
X111.4Y-43.5
X111.5Y-48.198
X111.7Y-46.602
X112.4Y-60.7
X112.402Y-47.298
X112.6Y-35.7
X113.Y-56.
X113.2Y-22.2
X113.2Y-23.498
X113.6Y-26.1
X113.6Y-47.8
X113.655Y-50.155
X114.Y-39.6
X115.5Y-52.3
X115.5Y-55.8
X116.2Y-33.9
X116.5Y-25.9
X117.Y-46.7
X117.Y-48.2
X117.Y-50.3
X117.1Y-34.
X117.1Y-34.948
X117.6Y-40.1
X117.693Y-21.384
X117.9Y-39.
X118.1Y-22.3
X118.1Y-53.5
X118.1Y-56.
X118.1Y-58.3
X119.1Y-31.3
X119.2Y-23.4
X119.2Y-32.898
X119.2Y-38.7
X119.2Y-48.198
X119.3Y-19.3
X119.3Y-44.513
X119.3Y-46.618
X119.3Y-52.302
X119.3Y-53.898
X119.3Y-56.002
X119.3Y-60.8
X119.395Y-25.602
T2
X32.6Y-44.65
X32.6Y-47.19
X32.6Y-49.73
X32.6Y-52.27
X32.6Y-54.81
X32.6Y-57.35
X47.6Y-44.65
X47.6Y-47.19
X47.6Y-49.73
X47.6Y-52.27
X47.6Y-54.81
X47.6Y-57.35
X62.6Y-22.65
X62.6Y-25.19
X62.6Y-27.73
X62.6Y-30.27
X62.6Y-32.81
X62.6Y-35.35
X62.6Y-44.65
X62.6Y-47.19
X62.6Y-49.73
X62.6Y-52.27
X62.6Y-54.81
X62.6Y-57.35
X74.02Y-48.98
X74.02Y-51.52
X76.56Y-48.98
X76.56Y-51.52
X79.1Y-48.98
X79.1Y-51.52
X81.64Y-48.98
X81.64Y-51.52
X84.18Y-48.98
X84.18Y-51.52
T3
X86.54Y-27.855
X87.845Y-30.67
X89.23Y-27.83
X90.615Y-30.67
X92.Y-27.83
X93.385Y-30.67
X94.77Y-27.83
X96.155Y-30.67
X97.54Y-27.83
T4
X79.5Y-29.25
X104.5Y-29.25
T0
M30
