G04 #@! TF.FileFunction,Soldermask,Bot*
%FSLAX46Y46*%
G04 Gerber Fmt 4.6, Leading zero omitted, Abs format (unit mm)*
G04 Created by KiCad (PCBNEW 4.0.6) date 08/12/17 18:49:30*
%MOMM*%
%LPD*%
G01*
G04 APERTURE LIST*
%ADD10C,0.100000*%
%ADD11R,0.550000X1.750000*%
%ADD12R,1.150000X1.200000*%
%ADD13R,1.850000X0.600000*%
%ADD14R,1.000000X1.100000*%
%ADD15R,1.100000X1.000000*%
%ADD16R,1.200000X1.150000*%
%ADD17C,1.100000*%
%ADD18C,7.700000*%
%ADD19R,2.000000X1.600000*%
%ADD20O,2.000000X1.600000*%
%ADD21R,1.200000X0.670000*%
%ADD22R,1.400000X1.650000*%
%ADD23R,1.650000X1.400000*%
%ADD24R,0.670000X1.200000*%
%ADD25R,1.100000X0.950000*%
%ADD26R,0.600000X1.850000*%
%ADD27R,0.800000X2.400000*%
%ADD28R,0.950000X0.450000*%
%ADD29R,2.400000X0.800000*%
%ADD30R,3.450000X1.200000*%
%ADD31R,1.900000X1.900000*%
%ADD32C,1.900000*%
%ADD33R,2.200000X2.200000*%
%ADD34O,2.200000X2.200000*%
%ADD35R,1.000000X1.000000*%
%ADD36R,0.750000X1.000000*%
%ADD37R,1.000000X0.750000*%
%ADD38R,1.200000X3.450000*%
%ADD39R,1.700000X0.500000*%
%ADD40R,0.500000X1.700000*%
G04 APERTURE END LIST*
D10*
D11*
X67225000Y-32700000D03*
X67875000Y-32700000D03*
X68525000Y-32700000D03*
X69175000Y-32700000D03*
X69825000Y-32700000D03*
X70475000Y-32700000D03*
X71125000Y-32700000D03*
X71775000Y-32700000D03*
X72425000Y-32700000D03*
X73075000Y-32700000D03*
X73725000Y-32700000D03*
X74375000Y-32700000D03*
X74375000Y-38300000D03*
X73725000Y-38300000D03*
X73075000Y-38300000D03*
X72425000Y-38300000D03*
X71775000Y-38300000D03*
X71125000Y-38300000D03*
X70475000Y-38300000D03*
X69825000Y-38300000D03*
X69175000Y-38300000D03*
X68525000Y-38300000D03*
X67875000Y-38300000D03*
X67225000Y-38300000D03*
D12*
X109300000Y-34775000D03*
X109300000Y-36225000D03*
D13*
X110125000Y-46550000D03*
X110125000Y-47200000D03*
X110125000Y-47850000D03*
X110125000Y-48500000D03*
X110125000Y-49150000D03*
X110125000Y-49800000D03*
X110125000Y-50450000D03*
X104075000Y-50450000D03*
X104075000Y-49800000D03*
X104075000Y-49150000D03*
X104075000Y-48500000D03*
X104075000Y-47850000D03*
X104075000Y-47200000D03*
X104075000Y-46550000D03*
D14*
X74350000Y-53550000D03*
X76250000Y-53550000D03*
X75300000Y-55650000D03*
X79450000Y-53550000D03*
X81350000Y-53550000D03*
X80400000Y-55650000D03*
X81351200Y-46950000D03*
X79451200Y-46950000D03*
X80401200Y-44850000D03*
X76250000Y-46950000D03*
X74350000Y-46950000D03*
X75300000Y-44850000D03*
D15*
X64550000Y-51850000D03*
X64550000Y-49950000D03*
X66650000Y-50900000D03*
X64550000Y-46850000D03*
X64550000Y-44950000D03*
X66650000Y-45900000D03*
X64650000Y-29050000D03*
X64650000Y-27150000D03*
X66750000Y-28100000D03*
D14*
X58350000Y-35450000D03*
X60250000Y-35450000D03*
X59300000Y-37550000D03*
D16*
X55025000Y-23500000D03*
X53575000Y-23500000D03*
D12*
X58300000Y-33925000D03*
X58300000Y-32475000D03*
X58300000Y-27925000D03*
X58300000Y-26475000D03*
D16*
X46475000Y-38700000D03*
X47925000Y-38700000D03*
X52025000Y-21900000D03*
X50575000Y-21900000D03*
D12*
X58300000Y-29475000D03*
X58300000Y-30925000D03*
X71800000Y-23725000D03*
X71800000Y-22275000D03*
X77800000Y-23725000D03*
X77800000Y-22275000D03*
X89700000Y-40325000D03*
X89700000Y-38875000D03*
D16*
X93175000Y-41900000D03*
X94625000Y-41900000D03*
D12*
X89700000Y-33175000D03*
X89700000Y-34625000D03*
D16*
X91625000Y-41900000D03*
X90175000Y-41900000D03*
D12*
X101900000Y-40375000D03*
X101900000Y-41825000D03*
X86300000Y-51025000D03*
X86300000Y-49575000D03*
X114900000Y-39575000D03*
X114900000Y-41025000D03*
D17*
X113655251Y-50155251D03*
X113600000Y-47800000D03*
D12*
X64600000Y-54075000D03*
X64600000Y-55525000D03*
D16*
X67275000Y-30800000D03*
X68725000Y-30800000D03*
D12*
X65400000Y-39275000D03*
X65400000Y-37825000D03*
D16*
X70775000Y-45400000D03*
X72225000Y-45400000D03*
X70775000Y-47000000D03*
X72225000Y-47000000D03*
D12*
X86300000Y-41575000D03*
X86300000Y-43025000D03*
X75300000Y-40175000D03*
X75300000Y-41625000D03*
X118100000Y-32575000D03*
X118100000Y-34025000D03*
X109300000Y-33025000D03*
X109300000Y-31575000D03*
X102000000Y-45525000D03*
X102000000Y-44075000D03*
X100400000Y-45525000D03*
X100400000Y-44075000D03*
X116500000Y-28575000D03*
X116500000Y-30025000D03*
X95700000Y-25925000D03*
X95700000Y-24475000D03*
X34600000Y-54075000D03*
X34600000Y-55525000D03*
D18*
X104500000Y-29250000D03*
X79500000Y-29250000D03*
D12*
X31700000Y-35175000D03*
X31700000Y-36625000D03*
D16*
X59825000Y-47400000D03*
X58375000Y-47400000D03*
D12*
X72100000Y-41625000D03*
X72100000Y-40175000D03*
X73700000Y-41625000D03*
X73700000Y-40175000D03*
X80600000Y-41675000D03*
X80600000Y-43125000D03*
D16*
X69075000Y-58600000D03*
X70525000Y-58600000D03*
X75875000Y-36300000D03*
X77325000Y-36300000D03*
X96775000Y-47100000D03*
X98225000Y-47100000D03*
X98225000Y-48700000D03*
X96775000Y-48700000D03*
X55375000Y-47400000D03*
X56825000Y-47400000D03*
X24025000Y-24400000D03*
X22575000Y-24400000D03*
D12*
X45500000Y-54175000D03*
X45500000Y-55625000D03*
D16*
X35439599Y-30099311D03*
X33989599Y-30099311D03*
X34989599Y-21299311D03*
X36439599Y-21299311D03*
X24625000Y-34600000D03*
X23175000Y-34600000D03*
X24625000Y-36200000D03*
X23175000Y-36200000D03*
D19*
X62600000Y-44650000D03*
D20*
X62600000Y-47190000D03*
X62600000Y-49730000D03*
X62600000Y-52270000D03*
X62600000Y-54810000D03*
X62600000Y-57350000D03*
D15*
X64650000Y-24750000D03*
X64650000Y-22850000D03*
X66750000Y-23800000D03*
X34650000Y-46850000D03*
X34650000Y-44950000D03*
X36750000Y-45900000D03*
X34650000Y-51850000D03*
X34650000Y-49950000D03*
X36750000Y-50900000D03*
X45550000Y-44950000D03*
X45550000Y-46850000D03*
X43450000Y-45900000D03*
X45550000Y-49950000D03*
X45550000Y-51850000D03*
X43450000Y-50900000D03*
D12*
X110900000Y-36225000D03*
X110900000Y-34775000D03*
X110900000Y-31575000D03*
X110900000Y-33025000D03*
D16*
X94625000Y-45500000D03*
X93175000Y-45500000D03*
X101725000Y-49900000D03*
X100275000Y-49900000D03*
D12*
X114900000Y-28575000D03*
X114900000Y-30025000D03*
X113300000Y-28575000D03*
X113300000Y-30025000D03*
X111700000Y-28575000D03*
X111700000Y-30025000D03*
X110100000Y-28575000D03*
X110100000Y-30025000D03*
X118100000Y-23575000D03*
X118100000Y-25025000D03*
X118100000Y-28025000D03*
X118100000Y-26575000D03*
X97300000Y-24475000D03*
X97300000Y-25925000D03*
D16*
X54625000Y-49000000D03*
X53175000Y-49000000D03*
X54625000Y-50600000D03*
X53175000Y-50600000D03*
D12*
X25600000Y-27525000D03*
X25600000Y-26075000D03*
X27200000Y-26075000D03*
X27200000Y-27525000D03*
X24000000Y-29575000D03*
X24000000Y-31025000D03*
X28400000Y-23075000D03*
X28400000Y-24525000D03*
X26200000Y-39325000D03*
X26200000Y-37875000D03*
D16*
X33425000Y-21300000D03*
X31975000Y-21300000D03*
X31989599Y-22899311D03*
X33439599Y-22899311D03*
D12*
X27800000Y-37875000D03*
X27800000Y-39325000D03*
D16*
X36439599Y-22899311D03*
X34989599Y-22899311D03*
D12*
X24600000Y-41375000D03*
X24600000Y-42825000D03*
D16*
X39439599Y-26899311D03*
X37989599Y-26899311D03*
X39439599Y-25299311D03*
X37989599Y-25299311D03*
X39439599Y-23699311D03*
X37989599Y-23699311D03*
D11*
X81025000Y-34100000D03*
X81675000Y-34100000D03*
X82325000Y-34100000D03*
X82975000Y-34100000D03*
X83625000Y-34100000D03*
X84275000Y-34100000D03*
X84925000Y-34100000D03*
X85575000Y-34100000D03*
X86225000Y-34100000D03*
X86875000Y-34100000D03*
X87525000Y-34100000D03*
X88175000Y-34100000D03*
X88175000Y-39700000D03*
X87525000Y-39700000D03*
X86875000Y-39700000D03*
X86225000Y-39700000D03*
X85575000Y-39700000D03*
X84925000Y-39700000D03*
X84275000Y-39700000D03*
X83625000Y-39700000D03*
X82975000Y-39700000D03*
X82325000Y-39700000D03*
X81675000Y-39700000D03*
X81025000Y-39700000D03*
D21*
X102100000Y-47050000D03*
X102100000Y-47700000D03*
X102100000Y-48350000D03*
X100300000Y-48350000D03*
X100300000Y-47700000D03*
X100300000Y-47050000D03*
D22*
X39150000Y-50100000D03*
X40850000Y-50100000D03*
D23*
X70000000Y-24150000D03*
X70000000Y-22450000D03*
X79600000Y-24150000D03*
X79600000Y-22450000D03*
D12*
X79500000Y-34375000D03*
X79500000Y-35825000D03*
X64600000Y-32075000D03*
X64600000Y-33525000D03*
D23*
X118300000Y-37450000D03*
X118300000Y-35750000D03*
D12*
X118100000Y-29575000D03*
X118100000Y-31025000D03*
X31700000Y-39625000D03*
X31700000Y-38175000D03*
D16*
X24025000Y-22800000D03*
X22575000Y-22800000D03*
D22*
X30564599Y-30299311D03*
X32264599Y-30299311D03*
D16*
X38439599Y-30099311D03*
X36989599Y-30099311D03*
X39439599Y-28499311D03*
X37989599Y-28499311D03*
D19*
X62600000Y-22650000D03*
D20*
X62600000Y-25190000D03*
X62600000Y-27730000D03*
X62600000Y-30270000D03*
X62600000Y-32810000D03*
X62600000Y-35350000D03*
D19*
X32600000Y-44650000D03*
D20*
X32600000Y-47190000D03*
X32600000Y-49730000D03*
X32600000Y-52270000D03*
X32600000Y-54810000D03*
X32600000Y-57350000D03*
D15*
X60350000Y-22950000D03*
X60350000Y-24850000D03*
X58250000Y-23900000D03*
D14*
X96850000Y-43450000D03*
X98750000Y-43450000D03*
X97800000Y-45550000D03*
D24*
X111650000Y-25200000D03*
X112300000Y-25200000D03*
X112950000Y-25200000D03*
X112950000Y-27000000D03*
X112300000Y-27000000D03*
X111650000Y-27000000D03*
D15*
X22550000Y-39750000D03*
X22550000Y-37850000D03*
X24650000Y-38800000D03*
D21*
X42814599Y-23649311D03*
X42814599Y-24299311D03*
X42814599Y-24949311D03*
X41014599Y-24949311D03*
X41014599Y-24299311D03*
X41014599Y-23649311D03*
D16*
X39439599Y-22099311D03*
X37989599Y-22099311D03*
D25*
X73400000Y-24350000D03*
X73400000Y-23400000D03*
X73400000Y-22450000D03*
X76200000Y-22450000D03*
X76200000Y-24350000D03*
D13*
X110125000Y-40950000D03*
X110125000Y-41600000D03*
X110125000Y-42250000D03*
X110125000Y-42900000D03*
X110125000Y-43550000D03*
X110125000Y-44200000D03*
X110125000Y-44850000D03*
X104075000Y-44850000D03*
X104075000Y-44200000D03*
X104075000Y-43550000D03*
X104075000Y-42900000D03*
X104075000Y-42250000D03*
X104075000Y-41600000D03*
X104075000Y-40950000D03*
D26*
X91475000Y-33875000D03*
X92125000Y-33875000D03*
X92775000Y-33875000D03*
X93425000Y-33875000D03*
X94075000Y-33875000D03*
X94725000Y-33875000D03*
X95375000Y-33875000D03*
X96025000Y-33875000D03*
X96675000Y-33875000D03*
X97325000Y-33875000D03*
X97975000Y-33875000D03*
X98625000Y-33875000D03*
X99275000Y-33875000D03*
X99925000Y-33875000D03*
X99925000Y-39925000D03*
X99275000Y-39925000D03*
X98625000Y-39925000D03*
X97975000Y-39925000D03*
X97325000Y-39925000D03*
X96675000Y-39925000D03*
X96025000Y-39925000D03*
X95375000Y-39925000D03*
X94725000Y-39925000D03*
X94075000Y-39925000D03*
X93425000Y-39925000D03*
X92775000Y-39925000D03*
X92125000Y-39925000D03*
X91475000Y-39925000D03*
D27*
X116405000Y-37400000D03*
X115135000Y-37400000D03*
X113865000Y-37400000D03*
X112595000Y-37400000D03*
X112595000Y-32200000D03*
X113865000Y-32200000D03*
X115135000Y-32200000D03*
X116405000Y-32200000D03*
D13*
X87275000Y-25875000D03*
X87275000Y-25225000D03*
X87275000Y-24575000D03*
X87275000Y-23925000D03*
X87275000Y-23275000D03*
X87275000Y-22625000D03*
X87275000Y-21975000D03*
X87275000Y-21325000D03*
X93325000Y-21325000D03*
X93325000Y-21975000D03*
X93325000Y-22625000D03*
X93325000Y-23275000D03*
X93325000Y-23925000D03*
X93325000Y-24575000D03*
X93325000Y-25225000D03*
X93325000Y-25875000D03*
D11*
X33225000Y-34600000D03*
X33875000Y-34600000D03*
X34525000Y-34600000D03*
X35175000Y-34600000D03*
X35825000Y-34600000D03*
X36475000Y-34600000D03*
X37125000Y-34600000D03*
X37775000Y-34600000D03*
X38425000Y-34600000D03*
X39075000Y-34600000D03*
X39725000Y-34600000D03*
X40375000Y-34600000D03*
X40375000Y-40200000D03*
X39725000Y-40200000D03*
X39075000Y-40200000D03*
X38425000Y-40200000D03*
X37775000Y-40200000D03*
X37125000Y-40200000D03*
X36475000Y-40200000D03*
X35825000Y-40200000D03*
X35175000Y-40200000D03*
X34525000Y-40200000D03*
X33875000Y-40200000D03*
X33225000Y-40200000D03*
D28*
X59150000Y-48850000D03*
X59150000Y-49350000D03*
X59150000Y-49850000D03*
X59150000Y-50350000D03*
X56050000Y-50350000D03*
X56050000Y-49850000D03*
X56050000Y-49350000D03*
X56050000Y-48850000D03*
D24*
X25550000Y-22700000D03*
X26200000Y-22700000D03*
X26850000Y-22700000D03*
X26850000Y-24500000D03*
X26200000Y-24500000D03*
X25550000Y-24500000D03*
X26150000Y-34500000D03*
X26800000Y-34500000D03*
X27450000Y-34500000D03*
X27450000Y-36300000D03*
X26800000Y-36300000D03*
X26150000Y-36300000D03*
D29*
X30614599Y-28404311D03*
X30614599Y-27134311D03*
X30614599Y-25864311D03*
X30614599Y-24594311D03*
X35814599Y-24594311D03*
X35814599Y-25864311D03*
X35814599Y-27134311D03*
X35814599Y-28404311D03*
D30*
X58775000Y-40060000D03*
X58775000Y-42600000D03*
X58775000Y-45140000D03*
X54025000Y-40060000D03*
X54025000Y-42600000D03*
X54025000Y-45140000D03*
D31*
X86540000Y-27855000D03*
D32*
X89230000Y-27830000D03*
X92000000Y-27830000D03*
X94770000Y-27830000D03*
X97540000Y-27830000D03*
X87845000Y-30670000D03*
X90615000Y-30670000D03*
X93385000Y-30670000D03*
X96155000Y-30670000D03*
D19*
X47600000Y-44650000D03*
D20*
X47600000Y-47190000D03*
X47600000Y-49730000D03*
X47600000Y-52270000D03*
X47600000Y-54810000D03*
X47600000Y-57350000D03*
D15*
X78950000Y-41550000D03*
X78950000Y-43450000D03*
X76850000Y-42500000D03*
D14*
X114550000Y-24950000D03*
X116450000Y-24950000D03*
X115500000Y-27050000D03*
D15*
X21950000Y-27950000D03*
X21950000Y-26050000D03*
X24050000Y-27000000D03*
X43064599Y-26549311D03*
X43064599Y-28449311D03*
X40964599Y-27499311D03*
D16*
X50575000Y-23500000D03*
X52025000Y-23500000D03*
D12*
X114600000Y-22225000D03*
X114600000Y-20775000D03*
X116200000Y-22225000D03*
X116200000Y-20775000D03*
X116500000Y-39575000D03*
X116500000Y-41025000D03*
D16*
X41439599Y-31699311D03*
X39989599Y-31699311D03*
X39989599Y-30099311D03*
X41439599Y-30099311D03*
D17*
X107700000Y-34600000D03*
X110900000Y-37800000D03*
X118100000Y-22300000D03*
X113200000Y-23500000D03*
X110300000Y-25200000D03*
X33400000Y-19900000D03*
X30600000Y-22100000D03*
X40750000Y-26000000D03*
X44100000Y-24900000D03*
X44500000Y-23600000D03*
X23000000Y-42000000D03*
X50000000Y-44500000D03*
X41100000Y-21100000D03*
X30400000Y-36200000D03*
X86300000Y-57400000D03*
X117000000Y-48200000D03*
X117000000Y-50300000D03*
X23400000Y-32600000D03*
X21500000Y-32100000D03*
X55500000Y-21700000D03*
X86400000Y-53500000D03*
X117000000Y-46700000D03*
X21600000Y-21300000D03*
X73900000Y-27200000D03*
X98100000Y-50200000D03*
X37000000Y-32800000D03*
X28600000Y-25900000D03*
X85500000Y-21500000D03*
X75100000Y-26300000D03*
X71800000Y-25000000D03*
X65600000Y-58100000D03*
X117900000Y-39000000D03*
X30500000Y-31900000D03*
D33*
X74020000Y-51520000D03*
D34*
X76560000Y-51520000D03*
X79100000Y-51520000D03*
X81640000Y-51520000D03*
X84180000Y-51520000D03*
X74020000Y-48980000D03*
X76560000Y-48980000D03*
X79100000Y-48980000D03*
X81640000Y-48980000D03*
X84180000Y-48980000D03*
D12*
X45900000Y-41275000D03*
X45900000Y-42725000D03*
D15*
X89450000Y-45450000D03*
X89450000Y-43550000D03*
X91550000Y-44500000D03*
D16*
X96175000Y-41900000D03*
X97625000Y-41900000D03*
D14*
X76950000Y-37850000D03*
X78850000Y-37850000D03*
X77900000Y-39950000D03*
X93250000Y-47050000D03*
X95150000Y-47050000D03*
X94200000Y-49150000D03*
D15*
X25550000Y-31050000D03*
X25550000Y-29150000D03*
X27650000Y-30100000D03*
X26150000Y-42850000D03*
X26150000Y-40950000D03*
X28250000Y-41900000D03*
D35*
X51025000Y-42750000D03*
D36*
X50100000Y-42750000D03*
X49300000Y-42750000D03*
D35*
X48375000Y-42750000D03*
X48375000Y-41300000D03*
D36*
X49300000Y-41300000D03*
X50100000Y-41300000D03*
D35*
X51025000Y-41300000D03*
X91625000Y-48425000D03*
D36*
X90700000Y-48425000D03*
X89900000Y-48425000D03*
D35*
X88975000Y-48425000D03*
X88975000Y-46975000D03*
D36*
X89900000Y-46975000D03*
X90700000Y-46975000D03*
D35*
X91625000Y-46975000D03*
X70525000Y-54475000D03*
D37*
X70525000Y-55400000D03*
X70525000Y-56200000D03*
D35*
X70525000Y-57125000D03*
X69075000Y-57125000D03*
D37*
X69075000Y-56200000D03*
X69075000Y-55400000D03*
D35*
X69075000Y-54475000D03*
X84825000Y-43025000D03*
D36*
X83900000Y-43025000D03*
X83100000Y-43025000D03*
D35*
X82175000Y-43025000D03*
X82175000Y-41575000D03*
D36*
X83100000Y-41575000D03*
X83900000Y-41575000D03*
D35*
X84825000Y-41575000D03*
X70625000Y-41625000D03*
D36*
X69700000Y-41625000D03*
X68900000Y-41625000D03*
D35*
X67975000Y-41625000D03*
X67975000Y-40175000D03*
D36*
X68900000Y-40175000D03*
X69700000Y-40175000D03*
D35*
X70625000Y-40175000D03*
X82575000Y-25125000D03*
D37*
X82575000Y-24200000D03*
X82575000Y-23400000D03*
D35*
X82575000Y-22475000D03*
X84025000Y-22475000D03*
D37*
X84025000Y-23400000D03*
X84025000Y-24200000D03*
D35*
X84025000Y-25125000D03*
X37525000Y-43425000D03*
D36*
X36600000Y-43425000D03*
X35800000Y-43425000D03*
D35*
X34875000Y-43425000D03*
X34875000Y-41975000D03*
D36*
X35800000Y-41975000D03*
X36600000Y-41975000D03*
D35*
X37525000Y-41975000D03*
X41775000Y-41275000D03*
D36*
X42700000Y-41275000D03*
X43500000Y-41275000D03*
D35*
X44425000Y-41275000D03*
X44425000Y-42725000D03*
D36*
X43500000Y-42725000D03*
X42700000Y-42725000D03*
D35*
X41775000Y-42725000D03*
X63725000Y-41625000D03*
D36*
X62800000Y-41625000D03*
X62000000Y-41625000D03*
D35*
X61075000Y-41625000D03*
X61075000Y-40175000D03*
D36*
X62000000Y-40175000D03*
X62800000Y-40175000D03*
D35*
X63725000Y-40175000D03*
D38*
X22225000Y-53505000D03*
X24765000Y-53505000D03*
X27305000Y-53505000D03*
X29845000Y-53505000D03*
X22225000Y-58255000D03*
X24765000Y-58255000D03*
X27305000Y-58255000D03*
X29845000Y-58255000D03*
X38735000Y-53505000D03*
X41275000Y-53505000D03*
X38735000Y-58255000D03*
X41275000Y-58255000D03*
X50165000Y-53505000D03*
X52705000Y-53505000D03*
X55245000Y-53505000D03*
X57785000Y-53505000D03*
X60325000Y-53505000D03*
X50165000Y-58255000D03*
X52705000Y-58255000D03*
X55245000Y-58255000D03*
X57785000Y-58255000D03*
X60325000Y-58255000D03*
X88900000Y-53505000D03*
X91440000Y-53505000D03*
X93980000Y-53505000D03*
X96520000Y-53505000D03*
X99060000Y-53505000D03*
X101600000Y-53505000D03*
X104140000Y-53505000D03*
X106680000Y-53505000D03*
X109220000Y-53505000D03*
X111760000Y-53505000D03*
X114300000Y-53505000D03*
X116840000Y-53505000D03*
X88900000Y-58255000D03*
X91440000Y-58255000D03*
X93980000Y-58255000D03*
X96520000Y-58255000D03*
X99060000Y-58255000D03*
X101600000Y-58255000D03*
X104140000Y-58255000D03*
X106680000Y-58255000D03*
X109220000Y-58255000D03*
X111760000Y-58255000D03*
X114300000Y-58255000D03*
X116840000Y-58255000D03*
D17*
X48300000Y-22100000D03*
X47400000Y-23200000D03*
X46400000Y-22100000D03*
X49200000Y-23200000D03*
D39*
X56400000Y-27350000D03*
X56400000Y-27850000D03*
X56400000Y-28350000D03*
X56400000Y-28850000D03*
X56400000Y-29350000D03*
X56400000Y-29850000D03*
X56400000Y-30350000D03*
X56400000Y-30850000D03*
X56400000Y-31350000D03*
X56400000Y-31850000D03*
X56400000Y-32350000D03*
X56400000Y-32850000D03*
X56400000Y-33350000D03*
X56400000Y-33850000D03*
X56400000Y-34350000D03*
X56400000Y-34850000D03*
D40*
X54450000Y-36800000D03*
X53950000Y-36800000D03*
X53450000Y-36800000D03*
X52950000Y-36800000D03*
X52450000Y-36800000D03*
X51950000Y-36800000D03*
X51450000Y-36800000D03*
X50950000Y-36800000D03*
X50450000Y-36800000D03*
X49950000Y-36800000D03*
X49450000Y-36800000D03*
X48950000Y-36800000D03*
X48450000Y-36800000D03*
X47950000Y-36800000D03*
X47450000Y-36800000D03*
X46950000Y-36800000D03*
D39*
X45000000Y-34850000D03*
X45000000Y-34350000D03*
X45000000Y-33850000D03*
X45000000Y-33350000D03*
X45000000Y-32850000D03*
X45000000Y-32350000D03*
X45000000Y-31850000D03*
X45000000Y-31350000D03*
X45000000Y-30850000D03*
X45000000Y-30350000D03*
X45000000Y-29850000D03*
X45000000Y-29350000D03*
X45000000Y-28850000D03*
X45000000Y-28350000D03*
X45000000Y-27850000D03*
X45000000Y-27350000D03*
D40*
X46950000Y-25400000D03*
X47450000Y-25400000D03*
X47950000Y-25400000D03*
X48450000Y-25400000D03*
X48950000Y-25400000D03*
X49450000Y-25400000D03*
X49950000Y-25400000D03*
X50450000Y-25400000D03*
X50950000Y-25400000D03*
X51450000Y-25400000D03*
X51950000Y-25400000D03*
X52450000Y-25400000D03*
X52950000Y-25400000D03*
X53450000Y-25400000D03*
X53950000Y-25400000D03*
X54450000Y-25400000D03*
M02*
