G04 #@! TF.FileFunction,Legend,Bot*
%FSLAX46Y46*%
G04 Gerber Fmt 4.6, Leading zero omitted, Abs format (unit mm)*
G04 Created by KiCad (PCBNEW 4.0.6) date 08/12/17 18:49:30*
%MOMM*%
%LPD*%
G01*
G04 APERTURE LIST*
%ADD10C,0.100000*%
%ADD11C,0.200000*%
%ADD12C,0.152000*%
%ADD13C,0.150000*%
%ADD14C,0.010000*%
%ADD15R,0.550000X1.750000*%
%ADD16R,1.150000X1.200000*%
%ADD17R,1.850000X0.600000*%
%ADD18R,1.000000X1.100000*%
%ADD19R,1.100000X1.000000*%
%ADD20R,1.200000X1.150000*%
%ADD21C,1.100000*%
%ADD22C,7.700000*%
%ADD23R,2.000000X1.600000*%
%ADD24O,2.000000X1.600000*%
%ADD25R,1.200000X0.670000*%
%ADD26R,1.400000X1.650000*%
%ADD27R,1.650000X1.400000*%
%ADD28R,0.670000X1.200000*%
%ADD29R,1.100000X0.950000*%
%ADD30R,0.600000X1.850000*%
%ADD31R,0.800000X2.400000*%
%ADD32R,0.950000X0.450000*%
%ADD33R,2.400000X0.800000*%
%ADD34R,3.450000X1.200000*%
%ADD35R,1.900000X1.900000*%
%ADD36C,1.900000*%
%ADD37R,2.200000X2.200000*%
%ADD38O,2.200000X2.200000*%
%ADD39R,1.000000X1.000000*%
%ADD40R,0.750000X1.000000*%
%ADD41R,1.000000X0.750000*%
%ADD42R,1.200000X3.450000*%
%ADD43R,1.700000X0.500000*%
%ADD44R,0.500000X1.700000*%
G04 APERTURE END LIST*
D10*
D11*
X27138095Y-20252381D02*
X27138095Y-19252381D01*
X26566666Y-20252381D01*
X26566666Y-19252381D01*
X25900000Y-19252381D02*
X25709523Y-19252381D01*
X25614285Y-19300000D01*
X25519047Y-19395238D01*
X25471428Y-19585714D01*
X25471428Y-19919048D01*
X25519047Y-20109524D01*
X25614285Y-20204762D01*
X25709523Y-20252381D01*
X25900000Y-20252381D01*
X25995238Y-20204762D01*
X26090476Y-20109524D01*
X26138095Y-19919048D01*
X26138095Y-19585714D01*
X26090476Y-19395238D01*
X25995238Y-19300000D01*
X25900000Y-19252381D01*
X25042857Y-20252381D02*
X25042857Y-19252381D01*
X24661904Y-19252381D01*
X24566666Y-19300000D01*
X24519047Y-19347619D01*
X24471428Y-19442857D01*
X24471428Y-19585714D01*
X24519047Y-19680952D01*
X24566666Y-19728571D01*
X24661904Y-19776190D01*
X25042857Y-19776190D01*
X23852381Y-19252381D02*
X23757142Y-19252381D01*
X23661904Y-19300000D01*
X23614285Y-19347619D01*
X23566666Y-19442857D01*
X23519047Y-19633333D01*
X23519047Y-19871429D01*
X23566666Y-20061905D01*
X23614285Y-20157143D01*
X23661904Y-20204762D01*
X23757142Y-20252381D01*
X23852381Y-20252381D01*
X23947619Y-20204762D01*
X23995238Y-20157143D01*
X24042857Y-20061905D01*
X24090476Y-19871429D01*
X24090476Y-19633333D01*
X24042857Y-19442857D01*
X23995238Y-19347619D01*
X23947619Y-19300000D01*
X23852381Y-19252381D01*
X22661904Y-19585714D02*
X22661904Y-20252381D01*
X22900000Y-19204762D02*
X23138095Y-19919048D01*
X22519047Y-19919048D01*
X21947619Y-19252381D02*
X21852380Y-19252381D01*
X21757142Y-19300000D01*
X21709523Y-19347619D01*
X21661904Y-19442857D01*
X21614285Y-19633333D01*
X21614285Y-19871429D01*
X21661904Y-20061905D01*
X21709523Y-20157143D01*
X21757142Y-20204762D01*
X21852380Y-20252381D01*
X21947619Y-20252381D01*
X22042857Y-20204762D01*
X22090476Y-20157143D01*
X22138095Y-20061905D01*
X22185714Y-19871429D01*
X22185714Y-19633333D01*
X22138095Y-19442857D01*
X22090476Y-19347619D01*
X22042857Y-19300000D01*
X21947619Y-19252381D01*
D12*
X66500000Y-31600000D02*
X66500000Y-39400000D01*
X66500000Y-39400000D02*
X75100000Y-39400000D01*
X75100000Y-39400000D02*
X75100000Y-31600000D01*
X75100000Y-31600000D02*
X66500000Y-31600000D01*
X66525000Y-32725000D02*
G75*
G03X66525000Y-32725000I-500000J0D01*
G01*
X110100000Y-34000000D02*
X108500000Y-34000000D01*
X108500000Y-34000000D02*
X108500000Y-37000000D01*
X108500000Y-37000000D02*
X110100000Y-37000000D01*
X110100000Y-37000000D02*
X110100000Y-34000000D01*
X111300000Y-45700000D02*
X102900000Y-45700000D01*
X102900000Y-45700000D02*
X102900000Y-51300000D01*
X102900000Y-51300000D02*
X111300000Y-51300000D01*
X111300000Y-51300000D02*
X111300000Y-45700000D01*
X110375000Y-45350000D02*
G75*
G03X110375000Y-45350000I-500000J0D01*
G01*
X73500000Y-52800000D02*
X73500000Y-56400000D01*
X73500000Y-56400000D02*
X77100000Y-56400000D01*
X77100000Y-56400000D02*
X77100000Y-52800000D01*
X77100000Y-52800000D02*
X73500000Y-52800000D01*
X78600000Y-52800000D02*
X78600000Y-56400000D01*
X78600000Y-56400000D02*
X82200000Y-56400000D01*
X82200000Y-56400000D02*
X82200000Y-52800000D01*
X82200000Y-52800000D02*
X78600000Y-52800000D01*
X82201200Y-47700000D02*
X82201200Y-44100000D01*
X82201200Y-44100000D02*
X78601200Y-44100000D01*
X78601200Y-44100000D02*
X78601200Y-47700000D01*
X78601200Y-47700000D02*
X82201200Y-47700000D01*
X77100000Y-47700000D02*
X77100000Y-44100000D01*
X77100000Y-44100000D02*
X73500000Y-44100000D01*
X73500000Y-44100000D02*
X73500000Y-47700000D01*
X73500000Y-47700000D02*
X77100000Y-47700000D01*
X63800000Y-52700000D02*
X67400000Y-52700000D01*
X67400000Y-52700000D02*
X67400000Y-49100000D01*
X67400000Y-49100000D02*
X63800000Y-49100000D01*
X63800000Y-49100000D02*
X63800000Y-52700000D01*
X63800000Y-47700000D02*
X67400000Y-47700000D01*
X67400000Y-47700000D02*
X67400000Y-44100000D01*
X67400000Y-44100000D02*
X63800000Y-44100000D01*
X63800000Y-44100000D02*
X63800000Y-47700000D01*
X63900000Y-29900000D02*
X67500000Y-29900000D01*
X67500000Y-29900000D02*
X67500000Y-26300000D01*
X67500000Y-26300000D02*
X63900000Y-26300000D01*
X63900000Y-26300000D02*
X63900000Y-29900000D01*
X57500000Y-34700000D02*
X57500000Y-38300000D01*
X57500000Y-38300000D02*
X61100000Y-38300000D01*
X61100000Y-38300000D02*
X61100000Y-34700000D01*
X61100000Y-34700000D02*
X57500000Y-34700000D01*
X55800000Y-24300000D02*
X55800000Y-22700000D01*
X55800000Y-22700000D02*
X52800000Y-22700000D01*
X52800000Y-22700000D02*
X52800000Y-24300000D01*
X52800000Y-24300000D02*
X55800000Y-24300000D01*
X57500000Y-34700000D02*
X59100000Y-34700000D01*
X59100000Y-34700000D02*
X59100000Y-31700000D01*
X59100000Y-31700000D02*
X57500000Y-31700000D01*
X57500000Y-31700000D02*
X57500000Y-34700000D01*
X57500000Y-28700000D02*
X59100000Y-28700000D01*
X59100000Y-28700000D02*
X59100000Y-25700000D01*
X59100000Y-25700000D02*
X57500000Y-25700000D01*
X57500000Y-25700000D02*
X57500000Y-28700000D01*
X45700000Y-37900000D02*
X45700000Y-39500000D01*
X45700000Y-39500000D02*
X48700000Y-39500000D01*
X48700000Y-39500000D02*
X48700000Y-37900000D01*
X48700000Y-37900000D02*
X45700000Y-37900000D01*
X52800000Y-22700000D02*
X52800000Y-21100000D01*
X52800000Y-21100000D02*
X49800000Y-21100000D01*
X49800000Y-21100000D02*
X49800000Y-22700000D01*
X49800000Y-22700000D02*
X52800000Y-22700000D01*
X59100000Y-28700000D02*
X57500000Y-28700000D01*
X57500000Y-28700000D02*
X57500000Y-31700000D01*
X57500000Y-31700000D02*
X59100000Y-31700000D01*
X59100000Y-31700000D02*
X59100000Y-28700000D01*
X71000000Y-24500000D02*
X72600000Y-24500000D01*
X72600000Y-24500000D02*
X72600000Y-21500000D01*
X72600000Y-21500000D02*
X71000000Y-21500000D01*
X71000000Y-21500000D02*
X71000000Y-24500000D01*
X77000000Y-24500000D02*
X78600000Y-24500000D01*
X78600000Y-24500000D02*
X78600000Y-21500000D01*
X78600000Y-21500000D02*
X77000000Y-21500000D01*
X77000000Y-21500000D02*
X77000000Y-24500000D01*
X88900000Y-41100000D02*
X90500000Y-41100000D01*
X90500000Y-41100000D02*
X90500000Y-38100000D01*
X90500000Y-38100000D02*
X88900000Y-38100000D01*
X88900000Y-38100000D02*
X88900000Y-41100000D01*
X92400000Y-41100000D02*
X92400000Y-42700000D01*
X92400000Y-42700000D02*
X95400000Y-42700000D01*
X95400000Y-42700000D02*
X95400000Y-41100000D01*
X95400000Y-41100000D02*
X92400000Y-41100000D01*
X90500000Y-32400000D02*
X88900000Y-32400000D01*
X88900000Y-32400000D02*
X88900000Y-35400000D01*
X88900000Y-35400000D02*
X90500000Y-35400000D01*
X90500000Y-35400000D02*
X90500000Y-32400000D01*
X92400000Y-42700000D02*
X92400000Y-41100000D01*
X92400000Y-41100000D02*
X89400000Y-41100000D01*
X89400000Y-41100000D02*
X89400000Y-42700000D01*
X89400000Y-42700000D02*
X92400000Y-42700000D01*
X102700000Y-39600000D02*
X101100000Y-39600000D01*
X101100000Y-39600000D02*
X101100000Y-42600000D01*
X101100000Y-42600000D02*
X102700000Y-42600000D01*
X102700000Y-42600000D02*
X102700000Y-39600000D01*
X85500000Y-51800000D02*
X87100000Y-51800000D01*
X87100000Y-51800000D02*
X87100000Y-48800000D01*
X87100000Y-48800000D02*
X85500000Y-48800000D01*
X85500000Y-48800000D02*
X85500000Y-51800000D01*
X115700000Y-38800000D02*
X114100000Y-38800000D01*
X114100000Y-38800000D02*
X114100000Y-41800000D01*
X114100000Y-41800000D02*
X115700000Y-41800000D01*
X115700000Y-41800000D02*
X115700000Y-38800000D01*
X65400000Y-53300000D02*
X63800000Y-53300000D01*
X63800000Y-53300000D02*
X63800000Y-56300000D01*
X63800000Y-56300000D02*
X65400000Y-56300000D01*
X65400000Y-56300000D02*
X65400000Y-53300000D01*
X66500000Y-30000000D02*
X66500000Y-31600000D01*
X66500000Y-31600000D02*
X69500000Y-31600000D01*
X69500000Y-31600000D02*
X69500000Y-30000000D01*
X69500000Y-30000000D02*
X66500000Y-30000000D01*
X64600000Y-40050000D02*
X66200000Y-40050000D01*
X66200000Y-40050000D02*
X66200000Y-37050000D01*
X66200000Y-37050000D02*
X64600000Y-37050000D01*
X64600000Y-37050000D02*
X64600000Y-40050000D01*
X70000000Y-44600000D02*
X70000000Y-46200000D01*
X70000000Y-46200000D02*
X73000000Y-46200000D01*
X73000000Y-46200000D02*
X73000000Y-44600000D01*
X73000000Y-44600000D02*
X70000000Y-44600000D01*
X70000000Y-46200000D02*
X70000000Y-47800000D01*
X70000000Y-47800000D02*
X73000000Y-47800000D01*
X73000000Y-47800000D02*
X73000000Y-46200000D01*
X73000000Y-46200000D02*
X70000000Y-46200000D01*
X87100000Y-40800000D02*
X85500000Y-40800000D01*
X85500000Y-40800000D02*
X85500000Y-43800000D01*
X85500000Y-43800000D02*
X87100000Y-43800000D01*
X87100000Y-43800000D02*
X87100000Y-40800000D01*
X76100000Y-39400000D02*
X74500000Y-39400000D01*
X74500000Y-39400000D02*
X74500000Y-42400000D01*
X74500000Y-42400000D02*
X76100000Y-42400000D01*
X76100000Y-42400000D02*
X76100000Y-39400000D01*
X118900000Y-31800000D02*
X117300000Y-31800000D01*
X117300000Y-31800000D02*
X117300000Y-34800000D01*
X117300000Y-34800000D02*
X118900000Y-34800000D01*
X118900000Y-34800000D02*
X118900000Y-31800000D01*
X108500000Y-33800000D02*
X110100000Y-33800000D01*
X110100000Y-33800000D02*
X110100000Y-30800000D01*
X110100000Y-30800000D02*
X108500000Y-30800000D01*
X108500000Y-30800000D02*
X108500000Y-33800000D01*
X101200000Y-46300000D02*
X102800000Y-46300000D01*
X102800000Y-46300000D02*
X102800000Y-43300000D01*
X102800000Y-43300000D02*
X101200000Y-43300000D01*
X101200000Y-43300000D02*
X101200000Y-46300000D01*
X99600000Y-46300000D02*
X101200000Y-46300000D01*
X101200000Y-46300000D02*
X101200000Y-43300000D01*
X101200000Y-43300000D02*
X99600000Y-43300000D01*
X99600000Y-43300000D02*
X99600000Y-46300000D01*
X117300000Y-27800000D02*
X115700000Y-27800000D01*
X115700000Y-27800000D02*
X115700000Y-30800000D01*
X115700000Y-30800000D02*
X117300000Y-30800000D01*
X117300000Y-30800000D02*
X117300000Y-27800000D01*
X94900000Y-26700000D02*
X96500000Y-26700000D01*
X96500000Y-26700000D02*
X96500000Y-23700000D01*
X96500000Y-23700000D02*
X94900000Y-23700000D01*
X94900000Y-23700000D02*
X94900000Y-26700000D01*
X35400000Y-53300000D02*
X33800000Y-53300000D01*
X33800000Y-53300000D02*
X33800000Y-56300000D01*
X33800000Y-56300000D02*
X35400000Y-56300000D01*
X35400000Y-56300000D02*
X35400000Y-53300000D01*
X32500000Y-34400000D02*
X30900000Y-34400000D01*
X30900000Y-34400000D02*
X30900000Y-37400000D01*
X30900000Y-37400000D02*
X32500000Y-37400000D01*
X32500000Y-37400000D02*
X32500000Y-34400000D01*
X60600000Y-48200000D02*
X60600000Y-46600000D01*
X60600000Y-46600000D02*
X57600000Y-46600000D01*
X57600000Y-46600000D02*
X57600000Y-48200000D01*
X57600000Y-48200000D02*
X60600000Y-48200000D01*
X71300000Y-42400000D02*
X72900000Y-42400000D01*
X72900000Y-42400000D02*
X72900000Y-39400000D01*
X72900000Y-39400000D02*
X71300000Y-39400000D01*
X71300000Y-39400000D02*
X71300000Y-42400000D01*
X72900000Y-42400000D02*
X74500000Y-42400000D01*
X74500000Y-42400000D02*
X74500000Y-39400000D01*
X74500000Y-39400000D02*
X72900000Y-39400000D01*
X72900000Y-39400000D02*
X72900000Y-42400000D01*
X81400000Y-40900000D02*
X79800000Y-40900000D01*
X79800000Y-40900000D02*
X79800000Y-43900000D01*
X79800000Y-43900000D02*
X81400000Y-43900000D01*
X81400000Y-43900000D02*
X81400000Y-40900000D01*
X68300000Y-57800000D02*
X68300000Y-59400000D01*
X68300000Y-59400000D02*
X71300000Y-59400000D01*
X71300000Y-59400000D02*
X71300000Y-57800000D01*
X71300000Y-57800000D02*
X68300000Y-57800000D01*
X75100000Y-35500000D02*
X75100000Y-37100000D01*
X75100000Y-37100000D02*
X78100000Y-37100000D01*
X78100000Y-37100000D02*
X78100000Y-35500000D01*
X78100000Y-35500000D02*
X75100000Y-35500000D01*
X96000000Y-46300000D02*
X96000000Y-47900000D01*
X96000000Y-47900000D02*
X99000000Y-47900000D01*
X99000000Y-47900000D02*
X99000000Y-46300000D01*
X99000000Y-46300000D02*
X96000000Y-46300000D01*
X99000000Y-49500000D02*
X99000000Y-47900000D01*
X99000000Y-47900000D02*
X96000000Y-47900000D01*
X96000000Y-47900000D02*
X96000000Y-49500000D01*
X96000000Y-49500000D02*
X99000000Y-49500000D01*
X54600000Y-46600000D02*
X54600000Y-48200000D01*
X54600000Y-48200000D02*
X57600000Y-48200000D01*
X57600000Y-48200000D02*
X57600000Y-46600000D01*
X57600000Y-46600000D02*
X54600000Y-46600000D01*
X24800000Y-25200000D02*
X24800000Y-23600000D01*
X24800000Y-23600000D02*
X21800000Y-23600000D01*
X21800000Y-23600000D02*
X21800000Y-25200000D01*
X21800000Y-25200000D02*
X24800000Y-25200000D01*
X46300000Y-53400000D02*
X44700000Y-53400000D01*
X44700000Y-53400000D02*
X44700000Y-56400000D01*
X44700000Y-56400000D02*
X46300000Y-56400000D01*
X46300000Y-56400000D02*
X46300000Y-53400000D01*
X36214599Y-30899311D02*
X36214599Y-29299311D01*
X36214599Y-29299311D02*
X33214599Y-29299311D01*
X33214599Y-29299311D02*
X33214599Y-30899311D01*
X33214599Y-30899311D02*
X36214599Y-30899311D01*
X34214599Y-20499311D02*
X34214599Y-22099311D01*
X34214599Y-22099311D02*
X37214599Y-22099311D01*
X37214599Y-22099311D02*
X37214599Y-20499311D01*
X37214599Y-20499311D02*
X34214599Y-20499311D01*
X25400000Y-35400000D02*
X25400000Y-33800000D01*
X25400000Y-33800000D02*
X22400000Y-33800000D01*
X22400000Y-33800000D02*
X22400000Y-35400000D01*
X22400000Y-35400000D02*
X25400000Y-35400000D01*
X25400000Y-37000000D02*
X25400000Y-35400000D01*
X25400000Y-35400000D02*
X22400000Y-35400000D01*
X22400000Y-35400000D02*
X22400000Y-37000000D01*
X22400000Y-37000000D02*
X25400000Y-37000000D01*
X63900000Y-25600000D02*
X67500000Y-25600000D01*
X67500000Y-25600000D02*
X67500000Y-22000000D01*
X67500000Y-22000000D02*
X63900000Y-22000000D01*
X63900000Y-22000000D02*
X63900000Y-25600000D01*
X33900000Y-47700000D02*
X37500000Y-47700000D01*
X37500000Y-47700000D02*
X37500000Y-44100000D01*
X37500000Y-44100000D02*
X33900000Y-44100000D01*
X33900000Y-44100000D02*
X33900000Y-47700000D01*
X33900000Y-52700000D02*
X37500000Y-52700000D01*
X37500000Y-52700000D02*
X37500000Y-49100000D01*
X37500000Y-49100000D02*
X33900000Y-49100000D01*
X33900000Y-49100000D02*
X33900000Y-52700000D01*
X46300000Y-44100000D02*
X42700000Y-44100000D01*
X42700000Y-44100000D02*
X42700000Y-47700000D01*
X42700000Y-47700000D02*
X46300000Y-47700000D01*
X46300000Y-47700000D02*
X46300000Y-44100000D01*
X46300000Y-49100000D02*
X42700000Y-49100000D01*
X42700000Y-49100000D02*
X42700000Y-52700000D01*
X42700000Y-52700000D02*
X46300000Y-52700000D01*
X46300000Y-52700000D02*
X46300000Y-49100000D01*
X110100000Y-37000000D02*
X111700000Y-37000000D01*
X111700000Y-37000000D02*
X111700000Y-34000000D01*
X111700000Y-34000000D02*
X110100000Y-34000000D01*
X110100000Y-34000000D02*
X110100000Y-37000000D01*
X111700000Y-30800000D02*
X110100000Y-30800000D01*
X110100000Y-30800000D02*
X110100000Y-33800000D01*
X110100000Y-33800000D02*
X111700000Y-33800000D01*
X111700000Y-33800000D02*
X111700000Y-30800000D01*
X95400000Y-46300000D02*
X95400000Y-44700000D01*
X95400000Y-44700000D02*
X92400000Y-44700000D01*
X92400000Y-44700000D02*
X92400000Y-46300000D01*
X92400000Y-46300000D02*
X95400000Y-46300000D01*
X102500000Y-50700000D02*
X102500000Y-49100000D01*
X102500000Y-49100000D02*
X99500000Y-49100000D01*
X99500000Y-49100000D02*
X99500000Y-50700000D01*
X99500000Y-50700000D02*
X102500000Y-50700000D01*
X115700000Y-27800000D02*
X114100000Y-27800000D01*
X114100000Y-27800000D02*
X114100000Y-30800000D01*
X114100000Y-30800000D02*
X115700000Y-30800000D01*
X115700000Y-30800000D02*
X115700000Y-27800000D01*
X114100000Y-27800000D02*
X112500000Y-27800000D01*
X112500000Y-27800000D02*
X112500000Y-30800000D01*
X112500000Y-30800000D02*
X114100000Y-30800000D01*
X114100000Y-30800000D02*
X114100000Y-27800000D01*
X112500000Y-27800000D02*
X110900000Y-27800000D01*
X110900000Y-27800000D02*
X110900000Y-30800000D01*
X110900000Y-30800000D02*
X112500000Y-30800000D01*
X112500000Y-30800000D02*
X112500000Y-27800000D01*
X110900000Y-27800000D02*
X109300000Y-27800000D01*
X109300000Y-27800000D02*
X109300000Y-30800000D01*
X109300000Y-30800000D02*
X110900000Y-30800000D01*
X110900000Y-30800000D02*
X110900000Y-27800000D01*
X118900000Y-22800000D02*
X117300000Y-22800000D01*
X117300000Y-22800000D02*
X117300000Y-25800000D01*
X117300000Y-25800000D02*
X118900000Y-25800000D01*
X118900000Y-25800000D02*
X118900000Y-22800000D01*
X117300000Y-28800000D02*
X118900000Y-28800000D01*
X118900000Y-28800000D02*
X118900000Y-25800000D01*
X118900000Y-25800000D02*
X117300000Y-25800000D01*
X117300000Y-25800000D02*
X117300000Y-28800000D01*
X98100000Y-23700000D02*
X96500000Y-23700000D01*
X96500000Y-23700000D02*
X96500000Y-26700000D01*
X96500000Y-26700000D02*
X98100000Y-26700000D01*
X98100000Y-26700000D02*
X98100000Y-23700000D01*
X55400000Y-49800000D02*
X55400000Y-48200000D01*
X55400000Y-48200000D02*
X52400000Y-48200000D01*
X52400000Y-48200000D02*
X52400000Y-49800000D01*
X52400000Y-49800000D02*
X55400000Y-49800000D01*
X55400000Y-51400000D02*
X55400000Y-49800000D01*
X55400000Y-49800000D02*
X52400000Y-49800000D01*
X52400000Y-49800000D02*
X52400000Y-51400000D01*
X52400000Y-51400000D02*
X55400000Y-51400000D01*
X24800000Y-28300000D02*
X26400000Y-28300000D01*
X26400000Y-28300000D02*
X26400000Y-25300000D01*
X26400000Y-25300000D02*
X24800000Y-25300000D01*
X24800000Y-25300000D02*
X24800000Y-28300000D01*
X28000000Y-25300000D02*
X26400000Y-25300000D01*
X26400000Y-25300000D02*
X26400000Y-28300000D01*
X26400000Y-28300000D02*
X28000000Y-28300000D01*
X28000000Y-28300000D02*
X28000000Y-25300000D01*
X24800000Y-28800000D02*
X23200000Y-28800000D01*
X23200000Y-28800000D02*
X23200000Y-31800000D01*
X23200000Y-31800000D02*
X24800000Y-31800000D01*
X24800000Y-31800000D02*
X24800000Y-28800000D01*
X29200000Y-22300000D02*
X27600000Y-22300000D01*
X27600000Y-22300000D02*
X27600000Y-25300000D01*
X27600000Y-25300000D02*
X29200000Y-25300000D01*
X29200000Y-25300000D02*
X29200000Y-22300000D01*
X25400000Y-40100000D02*
X27000000Y-40100000D01*
X27000000Y-40100000D02*
X27000000Y-37100000D01*
X27000000Y-37100000D02*
X25400000Y-37100000D01*
X25400000Y-37100000D02*
X25400000Y-40100000D01*
X34200000Y-22100000D02*
X34200000Y-20500000D01*
X34200000Y-20500000D02*
X31200000Y-20500000D01*
X31200000Y-20500000D02*
X31200000Y-22100000D01*
X31200000Y-22100000D02*
X34200000Y-22100000D01*
X31214599Y-22099311D02*
X31214599Y-23699311D01*
X31214599Y-23699311D02*
X34214599Y-23699311D01*
X34214599Y-23699311D02*
X34214599Y-22099311D01*
X34214599Y-22099311D02*
X31214599Y-22099311D01*
X28600000Y-37100000D02*
X27000000Y-37100000D01*
X27000000Y-37100000D02*
X27000000Y-40100000D01*
X27000000Y-40100000D02*
X28600000Y-40100000D01*
X28600000Y-40100000D02*
X28600000Y-37100000D01*
X37214599Y-23699311D02*
X37214599Y-22099311D01*
X37214599Y-22099311D02*
X34214599Y-22099311D01*
X34214599Y-22099311D02*
X34214599Y-23699311D01*
X34214599Y-23699311D02*
X37214599Y-23699311D01*
X25400000Y-40600000D02*
X23800000Y-40600000D01*
X23800000Y-40600000D02*
X23800000Y-43600000D01*
X23800000Y-43600000D02*
X25400000Y-43600000D01*
X25400000Y-43600000D02*
X25400000Y-40600000D01*
X40214599Y-27699311D02*
X40214599Y-26099311D01*
X40214599Y-26099311D02*
X37214599Y-26099311D01*
X37214599Y-26099311D02*
X37214599Y-27699311D01*
X37214599Y-27699311D02*
X40214599Y-27699311D01*
X40214599Y-26099311D02*
X40214599Y-24499311D01*
X40214599Y-24499311D02*
X37214599Y-24499311D01*
X37214599Y-24499311D02*
X37214599Y-26099311D01*
X37214599Y-26099311D02*
X40214599Y-26099311D01*
X40214599Y-24499311D02*
X40214599Y-22899311D01*
X40214599Y-22899311D02*
X37214599Y-22899311D01*
X37214599Y-22899311D02*
X37214599Y-24499311D01*
X37214599Y-24499311D02*
X40214599Y-24499311D01*
X80300000Y-33000000D02*
X80300000Y-40800000D01*
X80300000Y-40800000D02*
X88900000Y-40800000D01*
X88900000Y-40800000D02*
X88900000Y-33000000D01*
X88900000Y-33000000D02*
X80300000Y-33000000D01*
X80325000Y-34125000D02*
G75*
G03X80325000Y-34125000I-500000J0D01*
G01*
X102900000Y-46300000D02*
X99500000Y-46300000D01*
X99500000Y-46300000D02*
X99500000Y-49100000D01*
X99500000Y-49100000D02*
X102900000Y-49100000D01*
X102900000Y-49100000D02*
X102900000Y-46300000D01*
X102401000Y-46087000D02*
G75*
G03X102401000Y-46087000I-263000J0D01*
G01*
X38200000Y-49100000D02*
X38200000Y-51100000D01*
X38200000Y-51100000D02*
X41800000Y-51100000D01*
X41800000Y-51100000D02*
X41800000Y-49100000D01*
X41800000Y-49100000D02*
X38200000Y-49100000D01*
X69000000Y-25100000D02*
X71000000Y-25100000D01*
X71000000Y-25100000D02*
X71000000Y-21500000D01*
X71000000Y-21500000D02*
X69000000Y-21500000D01*
X69000000Y-21500000D02*
X69000000Y-25100000D01*
X78600000Y-25100000D02*
X80600000Y-25100000D01*
X80600000Y-25100000D02*
X80600000Y-21500000D01*
X80600000Y-21500000D02*
X78600000Y-21500000D01*
X78600000Y-21500000D02*
X78600000Y-25100000D01*
X80300000Y-33600000D02*
X78700000Y-33600000D01*
X78700000Y-33600000D02*
X78700000Y-36600000D01*
X78700000Y-36600000D02*
X80300000Y-36600000D01*
X80300000Y-36600000D02*
X80300000Y-33600000D01*
X65400000Y-31300000D02*
X63800000Y-31300000D01*
X63800000Y-31300000D02*
X63800000Y-34300000D01*
X63800000Y-34300000D02*
X65400000Y-34300000D01*
X65400000Y-34300000D02*
X65400000Y-31300000D01*
X117300000Y-38400000D02*
X119300000Y-38400000D01*
X119300000Y-38400000D02*
X119300000Y-34800000D01*
X119300000Y-34800000D02*
X117300000Y-34800000D01*
X117300000Y-34800000D02*
X117300000Y-38400000D01*
X118900000Y-28800000D02*
X117300000Y-28800000D01*
X117300000Y-28800000D02*
X117300000Y-31800000D01*
X117300000Y-31800000D02*
X118900000Y-31800000D01*
X118900000Y-31800000D02*
X118900000Y-28800000D01*
X30900000Y-40400000D02*
X32500000Y-40400000D01*
X32500000Y-40400000D02*
X32500000Y-37400000D01*
X32500000Y-37400000D02*
X30900000Y-37400000D01*
X30900000Y-37400000D02*
X30900000Y-40400000D01*
X24800000Y-23600000D02*
X24800000Y-22000000D01*
X24800000Y-22000000D02*
X21800000Y-22000000D01*
X21800000Y-22000000D02*
X21800000Y-23600000D01*
X21800000Y-23600000D02*
X24800000Y-23600000D01*
X29614599Y-29299311D02*
X29614599Y-31299311D01*
X29614599Y-31299311D02*
X33214599Y-31299311D01*
X33214599Y-31299311D02*
X33214599Y-29299311D01*
X33214599Y-29299311D02*
X29614599Y-29299311D01*
X39214599Y-30899311D02*
X39214599Y-29299311D01*
X39214599Y-29299311D02*
X36214599Y-29299311D01*
X36214599Y-29299311D02*
X36214599Y-30899311D01*
X36214599Y-30899311D02*
X39214599Y-30899311D01*
X40214599Y-29299311D02*
X40214599Y-27699311D01*
X40214599Y-27699311D02*
X37214599Y-27699311D01*
X37214599Y-27699311D02*
X37214599Y-29299311D01*
X37214599Y-29299311D02*
X40214599Y-29299311D01*
X61100000Y-22100000D02*
X57500000Y-22100000D01*
X57500000Y-22100000D02*
X57500000Y-25700000D01*
X57500000Y-25700000D02*
X61100000Y-25700000D01*
X61100000Y-25700000D02*
X61100000Y-22100000D01*
X96000000Y-42700000D02*
X96000000Y-46300000D01*
X96000000Y-46300000D02*
X99600000Y-46300000D01*
X99600000Y-46300000D02*
X99600000Y-42700000D01*
X99600000Y-42700000D02*
X96000000Y-42700000D01*
X110900000Y-24400000D02*
X110900000Y-27800000D01*
X110900000Y-27800000D02*
X113700000Y-27800000D01*
X113700000Y-27800000D02*
X113700000Y-24400000D01*
X113700000Y-24400000D02*
X110900000Y-24400000D01*
X110950000Y-25162000D02*
G75*
G03X110950000Y-25162000I-263000J0D01*
G01*
X21800000Y-40600000D02*
X25400000Y-40600000D01*
X25400000Y-40600000D02*
X25400000Y-37000000D01*
X25400000Y-37000000D02*
X21800000Y-37000000D01*
X21800000Y-37000000D02*
X21800000Y-40600000D01*
X43614599Y-22899311D02*
X40214599Y-22899311D01*
X40214599Y-22899311D02*
X40214599Y-25699311D01*
X40214599Y-25699311D02*
X43614599Y-25699311D01*
X43614599Y-25699311D02*
X43614599Y-22899311D01*
X43115599Y-22686311D02*
G75*
G03X43115599Y-22686311I-263000J0D01*
G01*
X40214599Y-22899311D02*
X40214599Y-21299311D01*
X40214599Y-21299311D02*
X37214599Y-21299311D01*
X37214599Y-21299311D02*
X37214599Y-22899311D01*
X37214599Y-22899311D02*
X40214599Y-22899311D01*
X72600000Y-25300000D02*
X77000000Y-25300000D01*
X77000000Y-25300000D02*
X77000000Y-21500000D01*
X77000000Y-21500000D02*
X72600000Y-21500000D01*
X72600000Y-21500000D02*
X72600000Y-25300000D01*
X111300000Y-40100000D02*
X102900000Y-40100000D01*
X102900000Y-40100000D02*
X102900000Y-45700000D01*
X102900000Y-45700000D02*
X111300000Y-45700000D01*
X111300000Y-45700000D02*
X111300000Y-40100000D01*
X110375000Y-39750000D02*
G75*
G03X110375000Y-39750000I-500000J0D01*
G01*
X90500000Y-32700000D02*
X90500000Y-41100000D01*
X90500000Y-41100000D02*
X100900000Y-41100000D01*
X100900000Y-41100000D02*
X100900000Y-32700000D01*
X100900000Y-32700000D02*
X90500000Y-32700000D01*
X90775000Y-34125000D02*
G75*
G03X90775000Y-34125000I-500000J0D01*
G01*
X117300000Y-38800000D02*
X117300000Y-30800000D01*
X117300000Y-30800000D02*
X111700000Y-30800000D01*
X111700000Y-30800000D02*
X111700000Y-38800000D01*
X111700000Y-38800000D02*
X117300000Y-38800000D01*
X118105000Y-37470000D02*
G75*
G03X118105000Y-37470000I-500000J0D01*
G01*
X86100000Y-26700000D02*
X94500000Y-26700000D01*
X94500000Y-26700000D02*
X94500000Y-20500000D01*
X94500000Y-20500000D02*
X86100000Y-20500000D01*
X86100000Y-20500000D02*
X86100000Y-26700000D01*
X88025000Y-27075000D02*
G75*
G03X88025000Y-27075000I-500000J0D01*
G01*
X32500000Y-33500000D02*
X32500000Y-41300000D01*
X32500000Y-41300000D02*
X41100000Y-41300000D01*
X41100000Y-41300000D02*
X41100000Y-33500000D01*
X41100000Y-33500000D02*
X32500000Y-33500000D01*
X32525000Y-34625000D02*
G75*
G03X32525000Y-34625000I-500000J0D01*
G01*
X59800000Y-48200000D02*
X55400000Y-48200000D01*
X55400000Y-48200000D02*
X55400000Y-51000000D01*
X55400000Y-51000000D02*
X59800000Y-51000000D01*
X59800000Y-51000000D02*
X59800000Y-48200000D01*
X59200000Y-47950000D02*
G75*
G03X59200000Y-47950000I-200000J0D01*
G01*
X24800000Y-21900000D02*
X24800000Y-25300000D01*
X24800000Y-25300000D02*
X27600000Y-25300000D01*
X27600000Y-25300000D02*
X27600000Y-21900000D01*
X27600000Y-21900000D02*
X24800000Y-21900000D01*
X24850000Y-22662000D02*
G75*
G03X24850000Y-22662000I-263000J0D01*
G01*
X25400000Y-33700000D02*
X25400000Y-37100000D01*
X25400000Y-37100000D02*
X28200000Y-37100000D01*
X28200000Y-37100000D02*
X28200000Y-33700000D01*
X28200000Y-33700000D02*
X25400000Y-33700000D01*
X25450000Y-34462000D02*
G75*
G03X25450000Y-34462000I-263000J0D01*
G01*
X29214599Y-29299311D02*
X37214599Y-29299311D01*
X37214599Y-29299311D02*
X37214599Y-23699311D01*
X37214599Y-23699311D02*
X29214599Y-23699311D01*
X29214599Y-23699311D02*
X29214599Y-29299311D01*
X31044599Y-29604311D02*
G75*
G03X31044599Y-29604311I-500000J0D01*
G01*
D13*
X52150000Y-38790000D02*
X60650000Y-38790000D01*
X60650000Y-38790000D02*
X60650000Y-46410000D01*
X60650000Y-46410000D02*
X52150000Y-46410000D01*
X52150000Y-46410000D02*
X52150000Y-38790000D01*
X57670000Y-38790000D02*
X58305000Y-37520000D01*
X58305000Y-37520000D02*
X57035000Y-37520000D01*
X57670000Y-38790000D02*
X57035000Y-37520000D01*
D12*
X79700000Y-40700000D02*
X76100000Y-40700000D01*
X76100000Y-40700000D02*
X76100000Y-44300000D01*
X76100000Y-44300000D02*
X79700000Y-44300000D01*
X79700000Y-44300000D02*
X79700000Y-40700000D01*
X113700000Y-24200000D02*
X113700000Y-27800000D01*
X113700000Y-27800000D02*
X117300000Y-27800000D01*
X117300000Y-27800000D02*
X117300000Y-24200000D01*
X117300000Y-24200000D02*
X113700000Y-24200000D01*
X21200000Y-28800000D02*
X24800000Y-28800000D01*
X24800000Y-28800000D02*
X24800000Y-25200000D01*
X24800000Y-25200000D02*
X21200000Y-25200000D01*
X21200000Y-25200000D02*
X21200000Y-28800000D01*
X43814599Y-25699311D02*
X40214599Y-25699311D01*
X40214599Y-25699311D02*
X40214599Y-29299311D01*
X40214599Y-29299311D02*
X43814599Y-29299311D01*
X43814599Y-29299311D02*
X43814599Y-25699311D01*
X49800000Y-22700000D02*
X49800000Y-24300000D01*
X49800000Y-24300000D02*
X52800000Y-24300000D01*
X52800000Y-24300000D02*
X52800000Y-22700000D01*
X52800000Y-22700000D02*
X49800000Y-22700000D01*
X113800000Y-23000000D02*
X115400000Y-23000000D01*
X115400000Y-23000000D02*
X115400000Y-20000000D01*
X115400000Y-20000000D02*
X113800000Y-20000000D01*
X113800000Y-20000000D02*
X113800000Y-23000000D01*
X115400000Y-23000000D02*
X117000000Y-23000000D01*
X117000000Y-23000000D02*
X117000000Y-20000000D01*
X117000000Y-20000000D02*
X115400000Y-20000000D01*
X115400000Y-20000000D02*
X115400000Y-23000000D01*
X117300000Y-38800000D02*
X115700000Y-38800000D01*
X115700000Y-38800000D02*
X115700000Y-41800000D01*
X115700000Y-41800000D02*
X117300000Y-41800000D01*
X117300000Y-41800000D02*
X117300000Y-38800000D01*
X42214599Y-32499311D02*
X42214599Y-30899311D01*
X42214599Y-30899311D02*
X39214599Y-30899311D01*
X39214599Y-30899311D02*
X39214599Y-32499311D01*
X39214599Y-32499311D02*
X42214599Y-32499311D01*
X39214599Y-29299311D02*
X39214599Y-30899311D01*
X39214599Y-30899311D02*
X42214599Y-30899311D01*
X42214599Y-30899311D02*
X42214599Y-29299311D01*
X42214599Y-29299311D02*
X39214599Y-29299311D01*
X46700000Y-40500000D02*
X45100000Y-40500000D01*
X45100000Y-40500000D02*
X45100000Y-43500000D01*
X45100000Y-43500000D02*
X46700000Y-43500000D01*
X46700000Y-43500000D02*
X46700000Y-40500000D01*
X88700000Y-46300000D02*
X92300000Y-46300000D01*
X92300000Y-46300000D02*
X92300000Y-42700000D01*
X92300000Y-42700000D02*
X88700000Y-42700000D01*
X88700000Y-42700000D02*
X88700000Y-46300000D01*
X95400000Y-41100000D02*
X95400000Y-42700000D01*
X95400000Y-42700000D02*
X98400000Y-42700000D01*
X98400000Y-42700000D02*
X98400000Y-41100000D01*
X98400000Y-41100000D02*
X95400000Y-41100000D01*
X76100000Y-37100000D02*
X76100000Y-40700000D01*
X76100000Y-40700000D02*
X79700000Y-40700000D01*
X79700000Y-40700000D02*
X79700000Y-37100000D01*
X79700000Y-37100000D02*
X76100000Y-37100000D01*
X92400000Y-46300000D02*
X92400000Y-49900000D01*
X92400000Y-49900000D02*
X96000000Y-49900000D01*
X96000000Y-49900000D02*
X96000000Y-46300000D01*
X96000000Y-46300000D02*
X92400000Y-46300000D01*
X24800000Y-31900000D02*
X28400000Y-31900000D01*
X28400000Y-31900000D02*
X28400000Y-28300000D01*
X28400000Y-28300000D02*
X24800000Y-28300000D01*
X24800000Y-28300000D02*
X24800000Y-31900000D01*
X25400000Y-43700000D02*
X29000000Y-43700000D01*
X29000000Y-43700000D02*
X29000000Y-40100000D01*
X29000000Y-40100000D02*
X25400000Y-40100000D01*
X25400000Y-40100000D02*
X25400000Y-43700000D01*
X51700000Y-43425000D02*
X51700000Y-40625000D01*
X51700000Y-40625000D02*
X47700000Y-40625000D01*
X47700000Y-40625000D02*
X47700000Y-43425000D01*
X47700000Y-43425000D02*
X51700000Y-43425000D01*
X92300000Y-49100000D02*
X92300000Y-46300000D01*
X92300000Y-46300000D02*
X88300000Y-46300000D01*
X88300000Y-46300000D02*
X88300000Y-49100000D01*
X88300000Y-49100000D02*
X92300000Y-49100000D01*
X71200000Y-53800000D02*
X68400000Y-53800000D01*
X68400000Y-53800000D02*
X68400000Y-57800000D01*
X68400000Y-57800000D02*
X71200000Y-57800000D01*
X71200000Y-57800000D02*
X71200000Y-53800000D01*
X85500000Y-43700000D02*
X85500000Y-40900000D01*
X85500000Y-40900000D02*
X81500000Y-40900000D01*
X81500000Y-40900000D02*
X81500000Y-43700000D01*
X81500000Y-43700000D02*
X85500000Y-43700000D01*
X71300000Y-42300000D02*
X71300000Y-39500000D01*
X71300000Y-39500000D02*
X67300000Y-39500000D01*
X67300000Y-39500000D02*
X67300000Y-42300000D01*
X67300000Y-42300000D02*
X71300000Y-42300000D01*
X81900000Y-25800000D02*
X84700000Y-25800000D01*
X84700000Y-25800000D02*
X84700000Y-21800000D01*
X84700000Y-21800000D02*
X81900000Y-21800000D01*
X81900000Y-21800000D02*
X81900000Y-25800000D01*
X38200000Y-44100000D02*
X38200000Y-41300000D01*
X38200000Y-41300000D02*
X34200000Y-41300000D01*
X34200000Y-41300000D02*
X34200000Y-44100000D01*
X34200000Y-44100000D02*
X38200000Y-44100000D01*
X41100000Y-40600000D02*
X41100000Y-43400000D01*
X41100000Y-43400000D02*
X45100000Y-43400000D01*
X45100000Y-43400000D02*
X45100000Y-40600000D01*
X45100000Y-40600000D02*
X41100000Y-40600000D01*
X64400000Y-42300000D02*
X64400000Y-39500000D01*
X64400000Y-39500000D02*
X60400000Y-39500000D01*
X60400000Y-39500000D02*
X60400000Y-42300000D01*
X60400000Y-42300000D02*
X64400000Y-42300000D01*
D13*
X20955000Y-60130000D02*
X20955000Y-51630000D01*
X20955000Y-51630000D02*
X31115000Y-51630000D01*
X31115000Y-51630000D02*
X31115000Y-60130000D01*
X31115000Y-60130000D02*
X20955000Y-60130000D01*
X20955000Y-54610000D02*
X19685000Y-53975000D01*
X19685000Y-53975000D02*
X19685000Y-55245000D01*
X20955000Y-54610000D02*
X19685000Y-55245000D01*
X37465000Y-60130000D02*
X37465000Y-51630000D01*
X37465000Y-51630000D02*
X42545000Y-51630000D01*
X42545000Y-51630000D02*
X42545000Y-60130000D01*
X42545000Y-60130000D02*
X37465000Y-60130000D01*
X37465000Y-54610000D02*
X36195000Y-53975000D01*
X36195000Y-53975000D02*
X36195000Y-55245000D01*
X37465000Y-54610000D02*
X36195000Y-55245000D01*
X48895000Y-60130000D02*
X48895000Y-51630000D01*
X48895000Y-51630000D02*
X61595000Y-51630000D01*
X61595000Y-51630000D02*
X61595000Y-60130000D01*
X61595000Y-60130000D02*
X48895000Y-60130000D01*
X48895000Y-54610000D02*
X47625000Y-53975000D01*
X47625000Y-53975000D02*
X47625000Y-55245000D01*
X48895000Y-54610000D02*
X47625000Y-55245000D01*
X87630000Y-60130000D02*
X87630000Y-51630000D01*
X87630000Y-51630000D02*
X118110000Y-51630000D01*
X118110000Y-51630000D02*
X118110000Y-60130000D01*
X118110000Y-60130000D02*
X87630000Y-60130000D01*
X87630000Y-54610000D02*
X86360000Y-53975000D01*
X86360000Y-53975000D02*
X86360000Y-55245000D01*
X87630000Y-54610000D02*
X86360000Y-55245000D01*
D12*
X57150000Y-25400000D02*
G75*
G03X57150000Y-25400000I-750000J0D01*
G01*
X57500000Y-37900000D02*
X57500000Y-24300000D01*
X57500000Y-24300000D02*
X43900000Y-24300000D01*
X43900000Y-24300000D02*
X43900000Y-37900000D01*
X43900000Y-37900000D02*
X57500000Y-37900000D01*
D14*
G36*
X25655032Y-43697520D02*
X25578958Y-43726393D01*
X25514733Y-43778857D01*
X25476537Y-43849446D01*
X25464358Y-43938193D01*
X25478188Y-44045133D01*
X25478370Y-44045917D01*
X25491732Y-44103397D01*
X25346478Y-44110994D01*
X25259593Y-44117668D01*
X25197638Y-44128819D01*
X25153849Y-44147084D01*
X25121458Y-44175101D01*
X25098335Y-44207731D01*
X25070231Y-44283943D01*
X25069038Y-44374797D01*
X25094132Y-44479136D01*
X25144884Y-44595801D01*
X25220670Y-44723635D01*
X25320861Y-44861480D01*
X25444831Y-45008178D01*
X25591954Y-45162570D01*
X25641240Y-45210919D01*
X25781146Y-45340914D01*
X25931745Y-45471488D01*
X26087649Y-45598501D01*
X26243473Y-45717816D01*
X26393830Y-45825292D01*
X26533334Y-45916792D01*
X26643802Y-45981328D01*
X26683683Y-46007865D01*
X26696820Y-46031548D01*
X26695376Y-46041689D01*
X26689049Y-46070840D01*
X26680870Y-46120790D01*
X26672597Y-46180794D01*
X26672501Y-46181552D01*
X26651445Y-46288487D01*
X26615596Y-46372323D01*
X26560424Y-46440007D01*
X26481403Y-46498484D01*
X26456438Y-46513012D01*
X26396427Y-46542531D01*
X26327243Y-46568443D01*
X26246242Y-46591125D01*
X26150783Y-46610952D01*
X26038222Y-46628301D01*
X25905916Y-46643548D01*
X25751223Y-46657069D01*
X25571499Y-46669240D01*
X25364103Y-46680438D01*
X25239225Y-46686231D01*
X25054916Y-46694547D01*
X24898422Y-46702144D01*
X24765831Y-46709472D01*
X24653229Y-46716980D01*
X24556704Y-46725117D01*
X24472344Y-46734332D01*
X24396234Y-46745075D01*
X24324462Y-46757794D01*
X24253115Y-46772939D01*
X24178280Y-46790958D01*
X24096045Y-46812301D01*
X24062268Y-46821315D01*
X23933423Y-46863885D01*
X23805576Y-46923083D01*
X23675765Y-47000973D01*
X23541030Y-47099619D01*
X23398410Y-47221088D01*
X23244945Y-47367442D01*
X23170251Y-47443320D01*
X22994069Y-47636474D01*
X22843562Y-47826404D01*
X22714138Y-48019468D01*
X22601204Y-48222023D01*
X22586757Y-48250875D01*
X22489243Y-48471248D01*
X22418522Y-48686602D01*
X22372608Y-48905336D01*
X22349518Y-49135848D01*
X22345827Y-49270800D01*
X22344813Y-49489037D01*
X22289200Y-49489081D01*
X22231179Y-49495413D01*
X22156933Y-49511944D01*
X22078835Y-49535087D01*
X22009261Y-49561252D01*
X21967257Y-49582441D01*
X21883512Y-49648934D01*
X21805982Y-49737316D01*
X21742986Y-49837797D01*
X21732994Y-49858201D01*
X21709709Y-49910377D01*
X21695411Y-49952255D01*
X21688309Y-49994373D01*
X21686612Y-50047271D01*
X21688481Y-50120138D01*
X21692434Y-50197860D01*
X21699331Y-50254431D01*
X21711439Y-50300445D01*
X21731024Y-50346495D01*
X21741313Y-50367013D01*
X21819030Y-50483903D01*
X21921390Y-50581242D01*
X22031716Y-50650159D01*
X22076726Y-50672354D01*
X22113467Y-50687331D01*
X22149980Y-50696486D01*
X22194309Y-50701212D01*
X22254497Y-50702906D01*
X22336194Y-50702969D01*
X22420303Y-50702309D01*
X22482568Y-50699728D01*
X22532894Y-50693443D01*
X22581185Y-50681670D01*
X22637349Y-50662626D01*
X22706810Y-50636255D01*
X22783166Y-50604761D01*
X22855478Y-50571326D01*
X22914365Y-50540478D01*
X22944381Y-50521543D01*
X23010455Y-50472952D01*
X23033589Y-50516820D01*
X23045838Y-50554083D01*
X23056533Y-50611347D01*
X23063533Y-50676869D01*
X23063948Y-50683432D01*
X23065149Y-50744698D01*
X23061061Y-50810662D01*
X23050844Y-50886322D01*
X23033657Y-50976674D01*
X23008658Y-51086716D01*
X22975009Y-51221443D01*
X22970472Y-51239033D01*
X22951771Y-51342177D01*
X22956077Y-51425148D01*
X22985243Y-51491451D01*
X23041125Y-51544594D01*
X23125579Y-51588081D01*
X23162375Y-51601720D01*
X23240697Y-51620537D01*
X23348477Y-51633641D01*
X23483941Y-51641013D01*
X23645311Y-51642629D01*
X23830811Y-51638470D01*
X24038664Y-51628512D01*
X24241875Y-51614692D01*
X24343275Y-51607196D01*
X24435119Y-51601146D01*
X24521964Y-51596467D01*
X24608368Y-51593085D01*
X24698887Y-51590926D01*
X24798079Y-51589915D01*
X24910499Y-51589978D01*
X25040706Y-51591041D01*
X25193256Y-51593029D01*
X25372705Y-51595870D01*
X25384875Y-51596073D01*
X25724542Y-51601396D01*
X26033595Y-51605445D01*
X26313148Y-51608197D01*
X26564314Y-51609628D01*
X26788203Y-51609713D01*
X26985930Y-51608429D01*
X27158606Y-51605753D01*
X27307344Y-51601659D01*
X27433256Y-51596125D01*
X27537455Y-51589126D01*
X27621053Y-51580638D01*
X27685164Y-51570638D01*
X27730898Y-51559102D01*
X27759370Y-51546006D01*
X27760685Y-51545074D01*
X27778238Y-51515224D01*
X27786984Y-51463768D01*
X27787095Y-51399552D01*
X27778745Y-51331423D01*
X27762106Y-51268227D01*
X27754914Y-51250162D01*
X27714445Y-51187999D01*
X27650915Y-51124815D01*
X27572138Y-51066987D01*
X27485930Y-51020892D01*
X27461916Y-51011103D01*
X27360321Y-50973496D01*
X27277197Y-50945282D01*
X27201751Y-50923540D01*
X27123192Y-50905347D01*
X27030726Y-50887779D01*
X26964438Y-50876384D01*
X26822796Y-50853511D01*
X26688139Y-50833966D01*
X26555934Y-50817396D01*
X26421649Y-50803452D01*
X26280751Y-50791781D01*
X26128705Y-50782033D01*
X25960979Y-50773857D01*
X25773040Y-50766901D01*
X25560354Y-50760814D01*
X25432500Y-50757740D01*
X25329313Y-50755390D01*
X25408688Y-50741970D01*
X25461192Y-50734034D01*
X25532694Y-50724454D01*
X25610612Y-50714888D01*
X25638875Y-50711647D01*
X25821095Y-50684775D01*
X26006740Y-50645462D01*
X26190847Y-50595520D01*
X26368452Y-50536760D01*
X26534592Y-50470995D01*
X26684305Y-50400036D01*
X26812627Y-50325696D01*
X26914595Y-50249786D01*
X26922034Y-50243187D01*
X27002104Y-50159963D01*
X27077466Y-50061649D01*
X27139773Y-49959964D01*
X27170800Y-49893937D01*
X27204648Y-49805018D01*
X27228662Y-49729326D01*
X27244484Y-49657577D01*
X27253755Y-49580485D01*
X27258116Y-49488766D01*
X27259184Y-49393875D01*
X27258651Y-49295640D01*
X27256055Y-49221857D01*
X27250683Y-49165257D01*
X27241820Y-49118569D01*
X27228755Y-49074524D01*
X27227473Y-49070801D01*
X27162352Y-48923985D01*
X27076819Y-48800493D01*
X26970535Y-48700153D01*
X26843160Y-48622798D01*
X26694354Y-48568258D01*
X26523776Y-48536362D01*
X26331086Y-48526941D01*
X26155140Y-48535977D01*
X26078723Y-48542437D01*
X26014626Y-48547006D01*
X25968981Y-48549311D01*
X25947919Y-48548975D01*
X25947270Y-48548686D01*
X25953544Y-48534513D01*
X25975306Y-48502501D01*
X26007950Y-48459394D01*
X26010217Y-48456523D01*
X26107178Y-48359326D01*
X26226037Y-48284511D01*
X26365757Y-48232503D01*
X26525301Y-48203732D01*
X26639000Y-48197694D01*
X26819895Y-48210492D01*
X26986772Y-48251253D01*
X27137953Y-48318685D01*
X27271758Y-48411495D01*
X27386508Y-48528392D01*
X27480525Y-48668084D01*
X27552128Y-48829279D01*
X27580106Y-48921788D01*
X27594451Y-48984314D01*
X27604327Y-49047061D01*
X27610482Y-49118229D01*
X27613670Y-49206019D01*
X27614602Y-49298625D01*
X27610051Y-49481778D01*
X27593969Y-49648979D01*
X27564408Y-49814475D01*
X27520163Y-49989890D01*
X27484223Y-50117593D01*
X27625018Y-50402640D01*
X27670658Y-50495994D01*
X27713468Y-50585323D01*
X27750625Y-50664597D01*
X27779302Y-50727785D01*
X27796674Y-50768854D01*
X27797074Y-50769899D01*
X27816935Y-50817139D01*
X27848128Y-50885495D01*
X27887240Y-50967961D01*
X27930863Y-51057532D01*
X27975587Y-51147202D01*
X28018001Y-51229968D01*
X28053319Y-51296312D01*
X28098730Y-51369136D01*
X28153235Y-51441224D01*
X28210316Y-51505057D01*
X28263450Y-51553116D01*
X28292627Y-51572253D01*
X28314005Y-51581784D01*
X28339377Y-51589156D01*
X28373038Y-51594687D01*
X28419282Y-51598697D01*
X28482403Y-51601506D01*
X28566696Y-51603433D01*
X28676455Y-51604797D01*
X28737127Y-51605328D01*
X28915647Y-51605088D01*
X29064858Y-51601009D01*
X29187010Y-51592735D01*
X29284351Y-51579910D01*
X29359132Y-51562177D01*
X29413603Y-51539179D01*
X29450011Y-51510562D01*
X29464346Y-51490131D01*
X29471722Y-51454066D01*
X29470520Y-51397418D01*
X29461985Y-51329800D01*
X29447362Y-51260821D01*
X29427895Y-51200093D01*
X29426274Y-51196136D01*
X29366288Y-51091242D01*
X29282454Y-51007026D01*
X29174362Y-50943116D01*
X29125593Y-50923632D01*
X29084445Y-50912815D01*
X29020325Y-50900383D01*
X28941858Y-50887840D01*
X28857668Y-50876691D01*
X28853956Y-50876254D01*
X28724906Y-50857904D01*
X28625254Y-50836105D01*
X28552761Y-50810072D01*
X28505185Y-50779022D01*
X28481702Y-50745848D01*
X28475180Y-50719308D01*
X28465560Y-50665789D01*
X28453532Y-50589835D01*
X28439784Y-50495988D01*
X28425004Y-50388794D01*
X28409880Y-50272796D01*
X28409147Y-50267000D01*
X28386801Y-50097846D01*
X28365906Y-49956489D01*
X28345794Y-49839046D01*
X28325796Y-49741633D01*
X28305244Y-49660369D01*
X28303947Y-49655812D01*
X28279708Y-49565551D01*
X28264438Y-49490573D01*
X28256072Y-49416650D01*
X28252548Y-49329559D01*
X28252124Y-49298625D01*
X28252057Y-49232100D01*
X28254172Y-49174668D01*
X28259808Y-49121462D01*
X28270307Y-49067619D01*
X28287008Y-49008273D01*
X28311252Y-48938561D01*
X28344379Y-48853616D01*
X28387730Y-48748575D01*
X28433636Y-48639812D01*
X28491009Y-48464699D01*
X28519482Y-48281641D01*
X28519082Y-48095785D01*
X28489833Y-47912277D01*
X28431763Y-47736264D01*
X28429076Y-47729996D01*
X28375591Y-47606285D01*
X28622514Y-47587323D01*
X28857238Y-47562820D01*
X29066228Y-47527498D01*
X29248794Y-47481650D01*
X29404247Y-47425570D01*
X29531896Y-47359550D01*
X29631050Y-47283885D01*
X29701020Y-47198868D01*
X29739007Y-47112701D01*
X29759963Y-47032409D01*
X29771382Y-46969418D01*
X29774351Y-46911107D01*
X29769956Y-46844856D01*
X29765438Y-46805627D01*
X29744882Y-46674641D01*
X29715844Y-46556927D01*
X29674547Y-46439932D01*
X29617209Y-46311103D01*
X29615424Y-46307387D01*
X29545897Y-46178520D01*
X28658397Y-46178520D01*
X28651048Y-46252020D01*
X28620974Y-46321177D01*
X28568129Y-46380642D01*
X28492465Y-46425062D01*
X28465698Y-46434536D01*
X28388042Y-46442515D01*
X28309760Y-46421700D01*
X28238046Y-46374071D01*
X28234759Y-46371018D01*
X28182721Y-46302018D01*
X28158204Y-46222362D01*
X28163160Y-46138727D01*
X28164959Y-46131806D01*
X28198758Y-46060432D01*
X28253130Y-46002009D01*
X28320774Y-45961061D01*
X28394391Y-45942111D01*
X28461468Y-45948094D01*
X28544556Y-45985463D01*
X28605104Y-46039891D01*
X28643066Y-46106026D01*
X28658397Y-46178520D01*
X29545897Y-46178520D01*
X29505852Y-46104298D01*
X29378764Y-45911913D01*
X29237391Y-45733551D01*
X29084962Y-45572533D01*
X28924707Y-45432181D01*
X28759857Y-45315814D01*
X28593641Y-45226754D01*
X28544000Y-45205861D01*
X28445801Y-45169282D01*
X28359112Y-45142656D01*
X28275671Y-45124692D01*
X28187216Y-45114105D01*
X28085485Y-45109607D01*
X27962215Y-45109910D01*
X27931963Y-45110480D01*
X27832722Y-45112780D01*
X27757782Y-45115655D01*
X27699700Y-45120220D01*
X27651031Y-45127591D01*
X27604331Y-45138882D01*
X27552157Y-45155209D01*
X27489824Y-45176721D01*
X27413333Y-45205063D01*
X27341443Y-45234455D01*
X27283385Y-45260976D01*
X27253843Y-45277015D01*
X27214734Y-45297804D01*
X27186714Y-45305590D01*
X27179886Y-45303444D01*
X27080694Y-45182799D01*
X26998562Y-45077321D01*
X26928434Y-44979398D01*
X26865254Y-44881416D01*
X26803968Y-44775760D01*
X26739519Y-44654818D01*
X26707283Y-44591687D01*
X26626248Y-44436821D01*
X26551476Y-44306715D01*
X26479108Y-44196039D01*
X26405282Y-44099461D01*
X26326139Y-44011648D01*
X26237817Y-43927270D01*
X26205843Y-43899135D01*
X26091290Y-43812532D01*
X25975237Y-43748050D01*
X25861380Y-43706709D01*
X25753413Y-43689526D01*
X25655032Y-43697520D01*
X25655032Y-43697520D01*
G37*
X25655032Y-43697520D02*
X25578958Y-43726393D01*
X25514733Y-43778857D01*
X25476537Y-43849446D01*
X25464358Y-43938193D01*
X25478188Y-44045133D01*
X25478370Y-44045917D01*
X25491732Y-44103397D01*
X25346478Y-44110994D01*
X25259593Y-44117668D01*
X25197638Y-44128819D01*
X25153849Y-44147084D01*
X25121458Y-44175101D01*
X25098335Y-44207731D01*
X25070231Y-44283943D01*
X25069038Y-44374797D01*
X25094132Y-44479136D01*
X25144884Y-44595801D01*
X25220670Y-44723635D01*
X25320861Y-44861480D01*
X25444831Y-45008178D01*
X25591954Y-45162570D01*
X25641240Y-45210919D01*
X25781146Y-45340914D01*
X25931745Y-45471488D01*
X26087649Y-45598501D01*
X26243473Y-45717816D01*
X26393830Y-45825292D01*
X26533334Y-45916792D01*
X26643802Y-45981328D01*
X26683683Y-46007865D01*
X26696820Y-46031548D01*
X26695376Y-46041689D01*
X26689049Y-46070840D01*
X26680870Y-46120790D01*
X26672597Y-46180794D01*
X26672501Y-46181552D01*
X26651445Y-46288487D01*
X26615596Y-46372323D01*
X26560424Y-46440007D01*
X26481403Y-46498484D01*
X26456438Y-46513012D01*
X26396427Y-46542531D01*
X26327243Y-46568443D01*
X26246242Y-46591125D01*
X26150783Y-46610952D01*
X26038222Y-46628301D01*
X25905916Y-46643548D01*
X25751223Y-46657069D01*
X25571499Y-46669240D01*
X25364103Y-46680438D01*
X25239225Y-46686231D01*
X25054916Y-46694547D01*
X24898422Y-46702144D01*
X24765831Y-46709472D01*
X24653229Y-46716980D01*
X24556704Y-46725117D01*
X24472344Y-46734332D01*
X24396234Y-46745075D01*
X24324462Y-46757794D01*
X24253115Y-46772939D01*
X24178280Y-46790958D01*
X24096045Y-46812301D01*
X24062268Y-46821315D01*
X23933423Y-46863885D01*
X23805576Y-46923083D01*
X23675765Y-47000973D01*
X23541030Y-47099619D01*
X23398410Y-47221088D01*
X23244945Y-47367442D01*
X23170251Y-47443320D01*
X22994069Y-47636474D01*
X22843562Y-47826404D01*
X22714138Y-48019468D01*
X22601204Y-48222023D01*
X22586757Y-48250875D01*
X22489243Y-48471248D01*
X22418522Y-48686602D01*
X22372608Y-48905336D01*
X22349518Y-49135848D01*
X22345827Y-49270800D01*
X22344813Y-49489037D01*
X22289200Y-49489081D01*
X22231179Y-49495413D01*
X22156933Y-49511944D01*
X22078835Y-49535087D01*
X22009261Y-49561252D01*
X21967257Y-49582441D01*
X21883512Y-49648934D01*
X21805982Y-49737316D01*
X21742986Y-49837797D01*
X21732994Y-49858201D01*
X21709709Y-49910377D01*
X21695411Y-49952255D01*
X21688309Y-49994373D01*
X21686612Y-50047271D01*
X21688481Y-50120138D01*
X21692434Y-50197860D01*
X21699331Y-50254431D01*
X21711439Y-50300445D01*
X21731024Y-50346495D01*
X21741313Y-50367013D01*
X21819030Y-50483903D01*
X21921390Y-50581242D01*
X22031716Y-50650159D01*
X22076726Y-50672354D01*
X22113467Y-50687331D01*
X22149980Y-50696486D01*
X22194309Y-50701212D01*
X22254497Y-50702906D01*
X22336194Y-50702969D01*
X22420303Y-50702309D01*
X22482568Y-50699728D01*
X22532894Y-50693443D01*
X22581185Y-50681670D01*
X22637349Y-50662626D01*
X22706810Y-50636255D01*
X22783166Y-50604761D01*
X22855478Y-50571326D01*
X22914365Y-50540478D01*
X22944381Y-50521543D01*
X23010455Y-50472952D01*
X23033589Y-50516820D01*
X23045838Y-50554083D01*
X23056533Y-50611347D01*
X23063533Y-50676869D01*
X23063948Y-50683432D01*
X23065149Y-50744698D01*
X23061061Y-50810662D01*
X23050844Y-50886322D01*
X23033657Y-50976674D01*
X23008658Y-51086716D01*
X22975009Y-51221443D01*
X22970472Y-51239033D01*
X22951771Y-51342177D01*
X22956077Y-51425148D01*
X22985243Y-51491451D01*
X23041125Y-51544594D01*
X23125579Y-51588081D01*
X23162375Y-51601720D01*
X23240697Y-51620537D01*
X23348477Y-51633641D01*
X23483941Y-51641013D01*
X23645311Y-51642629D01*
X23830811Y-51638470D01*
X24038664Y-51628512D01*
X24241875Y-51614692D01*
X24343275Y-51607196D01*
X24435119Y-51601146D01*
X24521964Y-51596467D01*
X24608368Y-51593085D01*
X24698887Y-51590926D01*
X24798079Y-51589915D01*
X24910499Y-51589978D01*
X25040706Y-51591041D01*
X25193256Y-51593029D01*
X25372705Y-51595870D01*
X25384875Y-51596073D01*
X25724542Y-51601396D01*
X26033595Y-51605445D01*
X26313148Y-51608197D01*
X26564314Y-51609628D01*
X26788203Y-51609713D01*
X26985930Y-51608429D01*
X27158606Y-51605753D01*
X27307344Y-51601659D01*
X27433256Y-51596125D01*
X27537455Y-51589126D01*
X27621053Y-51580638D01*
X27685164Y-51570638D01*
X27730898Y-51559102D01*
X27759370Y-51546006D01*
X27760685Y-51545074D01*
X27778238Y-51515224D01*
X27786984Y-51463768D01*
X27787095Y-51399552D01*
X27778745Y-51331423D01*
X27762106Y-51268227D01*
X27754914Y-51250162D01*
X27714445Y-51187999D01*
X27650915Y-51124815D01*
X27572138Y-51066987D01*
X27485930Y-51020892D01*
X27461916Y-51011103D01*
X27360321Y-50973496D01*
X27277197Y-50945282D01*
X27201751Y-50923540D01*
X27123192Y-50905347D01*
X27030726Y-50887779D01*
X26964438Y-50876384D01*
X26822796Y-50853511D01*
X26688139Y-50833966D01*
X26555934Y-50817396D01*
X26421649Y-50803452D01*
X26280751Y-50791781D01*
X26128705Y-50782033D01*
X25960979Y-50773857D01*
X25773040Y-50766901D01*
X25560354Y-50760814D01*
X25432500Y-50757740D01*
X25329313Y-50755390D01*
X25408688Y-50741970D01*
X25461192Y-50734034D01*
X25532694Y-50724454D01*
X25610612Y-50714888D01*
X25638875Y-50711647D01*
X25821095Y-50684775D01*
X26006740Y-50645462D01*
X26190847Y-50595520D01*
X26368452Y-50536760D01*
X26534592Y-50470995D01*
X26684305Y-50400036D01*
X26812627Y-50325696D01*
X26914595Y-50249786D01*
X26922034Y-50243187D01*
X27002104Y-50159963D01*
X27077466Y-50061649D01*
X27139773Y-49959964D01*
X27170800Y-49893937D01*
X27204648Y-49805018D01*
X27228662Y-49729326D01*
X27244484Y-49657577D01*
X27253755Y-49580485D01*
X27258116Y-49488766D01*
X27259184Y-49393875D01*
X27258651Y-49295640D01*
X27256055Y-49221857D01*
X27250683Y-49165257D01*
X27241820Y-49118569D01*
X27228755Y-49074524D01*
X27227473Y-49070801D01*
X27162352Y-48923985D01*
X27076819Y-48800493D01*
X26970535Y-48700153D01*
X26843160Y-48622798D01*
X26694354Y-48568258D01*
X26523776Y-48536362D01*
X26331086Y-48526941D01*
X26155140Y-48535977D01*
X26078723Y-48542437D01*
X26014626Y-48547006D01*
X25968981Y-48549311D01*
X25947919Y-48548975D01*
X25947270Y-48548686D01*
X25953544Y-48534513D01*
X25975306Y-48502501D01*
X26007950Y-48459394D01*
X26010217Y-48456523D01*
X26107178Y-48359326D01*
X26226037Y-48284511D01*
X26365757Y-48232503D01*
X26525301Y-48203732D01*
X26639000Y-48197694D01*
X26819895Y-48210492D01*
X26986772Y-48251253D01*
X27137953Y-48318685D01*
X27271758Y-48411495D01*
X27386508Y-48528392D01*
X27480525Y-48668084D01*
X27552128Y-48829279D01*
X27580106Y-48921788D01*
X27594451Y-48984314D01*
X27604327Y-49047061D01*
X27610482Y-49118229D01*
X27613670Y-49206019D01*
X27614602Y-49298625D01*
X27610051Y-49481778D01*
X27593969Y-49648979D01*
X27564408Y-49814475D01*
X27520163Y-49989890D01*
X27484223Y-50117593D01*
X27625018Y-50402640D01*
X27670658Y-50495994D01*
X27713468Y-50585323D01*
X27750625Y-50664597D01*
X27779302Y-50727785D01*
X27796674Y-50768854D01*
X27797074Y-50769899D01*
X27816935Y-50817139D01*
X27848128Y-50885495D01*
X27887240Y-50967961D01*
X27930863Y-51057532D01*
X27975587Y-51147202D01*
X28018001Y-51229968D01*
X28053319Y-51296312D01*
X28098730Y-51369136D01*
X28153235Y-51441224D01*
X28210316Y-51505057D01*
X28263450Y-51553116D01*
X28292627Y-51572253D01*
X28314005Y-51581784D01*
X28339377Y-51589156D01*
X28373038Y-51594687D01*
X28419282Y-51598697D01*
X28482403Y-51601506D01*
X28566696Y-51603433D01*
X28676455Y-51604797D01*
X28737127Y-51605328D01*
X28915647Y-51605088D01*
X29064858Y-51601009D01*
X29187010Y-51592735D01*
X29284351Y-51579910D01*
X29359132Y-51562177D01*
X29413603Y-51539179D01*
X29450011Y-51510562D01*
X29464346Y-51490131D01*
X29471722Y-51454066D01*
X29470520Y-51397418D01*
X29461985Y-51329800D01*
X29447362Y-51260821D01*
X29427895Y-51200093D01*
X29426274Y-51196136D01*
X29366288Y-51091242D01*
X29282454Y-51007026D01*
X29174362Y-50943116D01*
X29125593Y-50923632D01*
X29084445Y-50912815D01*
X29020325Y-50900383D01*
X28941858Y-50887840D01*
X28857668Y-50876691D01*
X28853956Y-50876254D01*
X28724906Y-50857904D01*
X28625254Y-50836105D01*
X28552761Y-50810072D01*
X28505185Y-50779022D01*
X28481702Y-50745848D01*
X28475180Y-50719308D01*
X28465560Y-50665789D01*
X28453532Y-50589835D01*
X28439784Y-50495988D01*
X28425004Y-50388794D01*
X28409880Y-50272796D01*
X28409147Y-50267000D01*
X28386801Y-50097846D01*
X28365906Y-49956489D01*
X28345794Y-49839046D01*
X28325796Y-49741633D01*
X28305244Y-49660369D01*
X28303947Y-49655812D01*
X28279708Y-49565551D01*
X28264438Y-49490573D01*
X28256072Y-49416650D01*
X28252548Y-49329559D01*
X28252124Y-49298625D01*
X28252057Y-49232100D01*
X28254172Y-49174668D01*
X28259808Y-49121462D01*
X28270307Y-49067619D01*
X28287008Y-49008273D01*
X28311252Y-48938561D01*
X28344379Y-48853616D01*
X28387730Y-48748575D01*
X28433636Y-48639812D01*
X28491009Y-48464699D01*
X28519482Y-48281641D01*
X28519082Y-48095785D01*
X28489833Y-47912277D01*
X28431763Y-47736264D01*
X28429076Y-47729996D01*
X28375591Y-47606285D01*
X28622514Y-47587323D01*
X28857238Y-47562820D01*
X29066228Y-47527498D01*
X29248794Y-47481650D01*
X29404247Y-47425570D01*
X29531896Y-47359550D01*
X29631050Y-47283885D01*
X29701020Y-47198868D01*
X29739007Y-47112701D01*
X29759963Y-47032409D01*
X29771382Y-46969418D01*
X29774351Y-46911107D01*
X29769956Y-46844856D01*
X29765438Y-46805627D01*
X29744882Y-46674641D01*
X29715844Y-46556927D01*
X29674547Y-46439932D01*
X29617209Y-46311103D01*
X29615424Y-46307387D01*
X29545897Y-46178520D01*
X28658397Y-46178520D01*
X28651048Y-46252020D01*
X28620974Y-46321177D01*
X28568129Y-46380642D01*
X28492465Y-46425062D01*
X28465698Y-46434536D01*
X28388042Y-46442515D01*
X28309760Y-46421700D01*
X28238046Y-46374071D01*
X28234759Y-46371018D01*
X28182721Y-46302018D01*
X28158204Y-46222362D01*
X28163160Y-46138727D01*
X28164959Y-46131806D01*
X28198758Y-46060432D01*
X28253130Y-46002009D01*
X28320774Y-45961061D01*
X28394391Y-45942111D01*
X28461468Y-45948094D01*
X28544556Y-45985463D01*
X28605104Y-46039891D01*
X28643066Y-46106026D01*
X28658397Y-46178520D01*
X29545897Y-46178520D01*
X29505852Y-46104298D01*
X29378764Y-45911913D01*
X29237391Y-45733551D01*
X29084962Y-45572533D01*
X28924707Y-45432181D01*
X28759857Y-45315814D01*
X28593641Y-45226754D01*
X28544000Y-45205861D01*
X28445801Y-45169282D01*
X28359112Y-45142656D01*
X28275671Y-45124692D01*
X28187216Y-45114105D01*
X28085485Y-45109607D01*
X27962215Y-45109910D01*
X27931963Y-45110480D01*
X27832722Y-45112780D01*
X27757782Y-45115655D01*
X27699700Y-45120220D01*
X27651031Y-45127591D01*
X27604331Y-45138882D01*
X27552157Y-45155209D01*
X27489824Y-45176721D01*
X27413333Y-45205063D01*
X27341443Y-45234455D01*
X27283385Y-45260976D01*
X27253843Y-45277015D01*
X27214734Y-45297804D01*
X27186714Y-45305590D01*
X27179886Y-45303444D01*
X27080694Y-45182799D01*
X26998562Y-45077321D01*
X26928434Y-44979398D01*
X26865254Y-44881416D01*
X26803968Y-44775760D01*
X26739519Y-44654818D01*
X26707283Y-44591687D01*
X26626248Y-44436821D01*
X26551476Y-44306715D01*
X26479108Y-44196039D01*
X26405282Y-44099461D01*
X26326139Y-44011648D01*
X26237817Y-43927270D01*
X26205843Y-43899135D01*
X26091290Y-43812532D01*
X25975237Y-43748050D01*
X25861380Y-43706709D01*
X25753413Y-43689526D01*
X25655032Y-43697520D01*
%LPC*%
D15*
X67225000Y-32700000D03*
X67875000Y-32700000D03*
X68525000Y-32700000D03*
X69175000Y-32700000D03*
X69825000Y-32700000D03*
X70475000Y-32700000D03*
X71125000Y-32700000D03*
X71775000Y-32700000D03*
X72425000Y-32700000D03*
X73075000Y-32700000D03*
X73725000Y-32700000D03*
X74375000Y-32700000D03*
X74375000Y-38300000D03*
X73725000Y-38300000D03*
X73075000Y-38300000D03*
X72425000Y-38300000D03*
X71775000Y-38300000D03*
X71125000Y-38300000D03*
X70475000Y-38300000D03*
X69825000Y-38300000D03*
X69175000Y-38300000D03*
X68525000Y-38300000D03*
X67875000Y-38300000D03*
X67225000Y-38300000D03*
D16*
X109300000Y-34775000D03*
X109300000Y-36225000D03*
D17*
X110125000Y-46550000D03*
X110125000Y-47200000D03*
X110125000Y-47850000D03*
X110125000Y-48500000D03*
X110125000Y-49150000D03*
X110125000Y-49800000D03*
X110125000Y-50450000D03*
X104075000Y-50450000D03*
X104075000Y-49800000D03*
X104075000Y-49150000D03*
X104075000Y-48500000D03*
X104075000Y-47850000D03*
X104075000Y-47200000D03*
X104075000Y-46550000D03*
D18*
X74350000Y-53550000D03*
X76250000Y-53550000D03*
X75300000Y-55650000D03*
X79450000Y-53550000D03*
X81350000Y-53550000D03*
X80400000Y-55650000D03*
X81351200Y-46950000D03*
X79451200Y-46950000D03*
X80401200Y-44850000D03*
X76250000Y-46950000D03*
X74350000Y-46950000D03*
X75300000Y-44850000D03*
D19*
X64550000Y-51850000D03*
X64550000Y-49950000D03*
X66650000Y-50900000D03*
X64550000Y-46850000D03*
X64550000Y-44950000D03*
X66650000Y-45900000D03*
X64650000Y-29050000D03*
X64650000Y-27150000D03*
X66750000Y-28100000D03*
D18*
X58350000Y-35450000D03*
X60250000Y-35450000D03*
X59300000Y-37550000D03*
D20*
X55025000Y-23500000D03*
X53575000Y-23500000D03*
D16*
X58300000Y-33925000D03*
X58300000Y-32475000D03*
X58300000Y-27925000D03*
X58300000Y-26475000D03*
D20*
X46475000Y-38700000D03*
X47925000Y-38700000D03*
X52025000Y-21900000D03*
X50575000Y-21900000D03*
D16*
X58300000Y-29475000D03*
X58300000Y-30925000D03*
X71800000Y-23725000D03*
X71800000Y-22275000D03*
X77800000Y-23725000D03*
X77800000Y-22275000D03*
X89700000Y-40325000D03*
X89700000Y-38875000D03*
D20*
X93175000Y-41900000D03*
X94625000Y-41900000D03*
D16*
X89700000Y-33175000D03*
X89700000Y-34625000D03*
D20*
X91625000Y-41900000D03*
X90175000Y-41900000D03*
D16*
X101900000Y-40375000D03*
X101900000Y-41825000D03*
X86300000Y-51025000D03*
X86300000Y-49575000D03*
X114900000Y-39575000D03*
X114900000Y-41025000D03*
D21*
X113655251Y-50155251D03*
X113600000Y-47800000D03*
D16*
X64600000Y-54075000D03*
X64600000Y-55525000D03*
D20*
X67275000Y-30800000D03*
X68725000Y-30800000D03*
D16*
X65400000Y-39275000D03*
X65400000Y-37825000D03*
D20*
X70775000Y-45400000D03*
X72225000Y-45400000D03*
X70775000Y-47000000D03*
X72225000Y-47000000D03*
D16*
X86300000Y-41575000D03*
X86300000Y-43025000D03*
X75300000Y-40175000D03*
X75300000Y-41625000D03*
X118100000Y-32575000D03*
X118100000Y-34025000D03*
X109300000Y-33025000D03*
X109300000Y-31575000D03*
X102000000Y-45525000D03*
X102000000Y-44075000D03*
X100400000Y-45525000D03*
X100400000Y-44075000D03*
X116500000Y-28575000D03*
X116500000Y-30025000D03*
X95700000Y-25925000D03*
X95700000Y-24475000D03*
X34600000Y-54075000D03*
X34600000Y-55525000D03*
D22*
X104500000Y-29250000D03*
X79500000Y-29250000D03*
D16*
X31700000Y-35175000D03*
X31700000Y-36625000D03*
D20*
X59825000Y-47400000D03*
X58375000Y-47400000D03*
D16*
X72100000Y-41625000D03*
X72100000Y-40175000D03*
X73700000Y-41625000D03*
X73700000Y-40175000D03*
X80600000Y-41675000D03*
X80600000Y-43125000D03*
D20*
X69075000Y-58600000D03*
X70525000Y-58600000D03*
X75875000Y-36300000D03*
X77325000Y-36300000D03*
X96775000Y-47100000D03*
X98225000Y-47100000D03*
X98225000Y-48700000D03*
X96775000Y-48700000D03*
X55375000Y-47400000D03*
X56825000Y-47400000D03*
X24025000Y-24400000D03*
X22575000Y-24400000D03*
D16*
X45500000Y-54175000D03*
X45500000Y-55625000D03*
D20*
X35439599Y-30099311D03*
X33989599Y-30099311D03*
X34989599Y-21299311D03*
X36439599Y-21299311D03*
X24625000Y-34600000D03*
X23175000Y-34600000D03*
X24625000Y-36200000D03*
X23175000Y-36200000D03*
D23*
X62600000Y-44650000D03*
D24*
X62600000Y-47190000D03*
X62600000Y-49730000D03*
X62600000Y-52270000D03*
X62600000Y-54810000D03*
X62600000Y-57350000D03*
D19*
X64650000Y-24750000D03*
X64650000Y-22850000D03*
X66750000Y-23800000D03*
X34650000Y-46850000D03*
X34650000Y-44950000D03*
X36750000Y-45900000D03*
X34650000Y-51850000D03*
X34650000Y-49950000D03*
X36750000Y-50900000D03*
X45550000Y-44950000D03*
X45550000Y-46850000D03*
X43450000Y-45900000D03*
X45550000Y-49950000D03*
X45550000Y-51850000D03*
X43450000Y-50900000D03*
D16*
X110900000Y-36225000D03*
X110900000Y-34775000D03*
X110900000Y-31575000D03*
X110900000Y-33025000D03*
D20*
X94625000Y-45500000D03*
X93175000Y-45500000D03*
X101725000Y-49900000D03*
X100275000Y-49900000D03*
D16*
X114900000Y-28575000D03*
X114900000Y-30025000D03*
X113300000Y-28575000D03*
X113300000Y-30025000D03*
X111700000Y-28575000D03*
X111700000Y-30025000D03*
X110100000Y-28575000D03*
X110100000Y-30025000D03*
X118100000Y-23575000D03*
X118100000Y-25025000D03*
X118100000Y-28025000D03*
X118100000Y-26575000D03*
X97300000Y-24475000D03*
X97300000Y-25925000D03*
D20*
X54625000Y-49000000D03*
X53175000Y-49000000D03*
X54625000Y-50600000D03*
X53175000Y-50600000D03*
D16*
X25600000Y-27525000D03*
X25600000Y-26075000D03*
X27200000Y-26075000D03*
X27200000Y-27525000D03*
X24000000Y-29575000D03*
X24000000Y-31025000D03*
X28400000Y-23075000D03*
X28400000Y-24525000D03*
X26200000Y-39325000D03*
X26200000Y-37875000D03*
D20*
X33425000Y-21300000D03*
X31975000Y-21300000D03*
X31989599Y-22899311D03*
X33439599Y-22899311D03*
D16*
X27800000Y-37875000D03*
X27800000Y-39325000D03*
D20*
X36439599Y-22899311D03*
X34989599Y-22899311D03*
D16*
X24600000Y-41375000D03*
X24600000Y-42825000D03*
D20*
X39439599Y-26899311D03*
X37989599Y-26899311D03*
X39439599Y-25299311D03*
X37989599Y-25299311D03*
X39439599Y-23699311D03*
X37989599Y-23699311D03*
D15*
X81025000Y-34100000D03*
X81675000Y-34100000D03*
X82325000Y-34100000D03*
X82975000Y-34100000D03*
X83625000Y-34100000D03*
X84275000Y-34100000D03*
X84925000Y-34100000D03*
X85575000Y-34100000D03*
X86225000Y-34100000D03*
X86875000Y-34100000D03*
X87525000Y-34100000D03*
X88175000Y-34100000D03*
X88175000Y-39700000D03*
X87525000Y-39700000D03*
X86875000Y-39700000D03*
X86225000Y-39700000D03*
X85575000Y-39700000D03*
X84925000Y-39700000D03*
X84275000Y-39700000D03*
X83625000Y-39700000D03*
X82975000Y-39700000D03*
X82325000Y-39700000D03*
X81675000Y-39700000D03*
X81025000Y-39700000D03*
D25*
X102100000Y-47050000D03*
X102100000Y-47700000D03*
X102100000Y-48350000D03*
X100300000Y-48350000D03*
X100300000Y-47700000D03*
X100300000Y-47050000D03*
D26*
X39150000Y-50100000D03*
X40850000Y-50100000D03*
D27*
X70000000Y-24150000D03*
X70000000Y-22450000D03*
X79600000Y-24150000D03*
X79600000Y-22450000D03*
D16*
X79500000Y-34375000D03*
X79500000Y-35825000D03*
X64600000Y-32075000D03*
X64600000Y-33525000D03*
D27*
X118300000Y-37450000D03*
X118300000Y-35750000D03*
D16*
X118100000Y-29575000D03*
X118100000Y-31025000D03*
X31700000Y-39625000D03*
X31700000Y-38175000D03*
D20*
X24025000Y-22800000D03*
X22575000Y-22800000D03*
D26*
X30564599Y-30299311D03*
X32264599Y-30299311D03*
D20*
X38439599Y-30099311D03*
X36989599Y-30099311D03*
X39439599Y-28499311D03*
X37989599Y-28499311D03*
D23*
X62600000Y-22650000D03*
D24*
X62600000Y-25190000D03*
X62600000Y-27730000D03*
X62600000Y-30270000D03*
X62600000Y-32810000D03*
X62600000Y-35350000D03*
D23*
X32600000Y-44650000D03*
D24*
X32600000Y-47190000D03*
X32600000Y-49730000D03*
X32600000Y-52270000D03*
X32600000Y-54810000D03*
X32600000Y-57350000D03*
D19*
X60350000Y-22950000D03*
X60350000Y-24850000D03*
X58250000Y-23900000D03*
D18*
X96850000Y-43450000D03*
X98750000Y-43450000D03*
X97800000Y-45550000D03*
D28*
X111650000Y-25200000D03*
X112300000Y-25200000D03*
X112950000Y-25200000D03*
X112950000Y-27000000D03*
X112300000Y-27000000D03*
X111650000Y-27000000D03*
D19*
X22550000Y-39750000D03*
X22550000Y-37850000D03*
X24650000Y-38800000D03*
D25*
X42814599Y-23649311D03*
X42814599Y-24299311D03*
X42814599Y-24949311D03*
X41014599Y-24949311D03*
X41014599Y-24299311D03*
X41014599Y-23649311D03*
D20*
X39439599Y-22099311D03*
X37989599Y-22099311D03*
D29*
X73400000Y-24350000D03*
X73400000Y-23400000D03*
X73400000Y-22450000D03*
X76200000Y-22450000D03*
X76200000Y-24350000D03*
D17*
X110125000Y-40950000D03*
X110125000Y-41600000D03*
X110125000Y-42250000D03*
X110125000Y-42900000D03*
X110125000Y-43550000D03*
X110125000Y-44200000D03*
X110125000Y-44850000D03*
X104075000Y-44850000D03*
X104075000Y-44200000D03*
X104075000Y-43550000D03*
X104075000Y-42900000D03*
X104075000Y-42250000D03*
X104075000Y-41600000D03*
X104075000Y-40950000D03*
D30*
X91475000Y-33875000D03*
X92125000Y-33875000D03*
X92775000Y-33875000D03*
X93425000Y-33875000D03*
X94075000Y-33875000D03*
X94725000Y-33875000D03*
X95375000Y-33875000D03*
X96025000Y-33875000D03*
X96675000Y-33875000D03*
X97325000Y-33875000D03*
X97975000Y-33875000D03*
X98625000Y-33875000D03*
X99275000Y-33875000D03*
X99925000Y-33875000D03*
X99925000Y-39925000D03*
X99275000Y-39925000D03*
X98625000Y-39925000D03*
X97975000Y-39925000D03*
X97325000Y-39925000D03*
X96675000Y-39925000D03*
X96025000Y-39925000D03*
X95375000Y-39925000D03*
X94725000Y-39925000D03*
X94075000Y-39925000D03*
X93425000Y-39925000D03*
X92775000Y-39925000D03*
X92125000Y-39925000D03*
X91475000Y-39925000D03*
D31*
X116405000Y-37400000D03*
X115135000Y-37400000D03*
X113865000Y-37400000D03*
X112595000Y-37400000D03*
X112595000Y-32200000D03*
X113865000Y-32200000D03*
X115135000Y-32200000D03*
X116405000Y-32200000D03*
D17*
X87275000Y-25875000D03*
X87275000Y-25225000D03*
X87275000Y-24575000D03*
X87275000Y-23925000D03*
X87275000Y-23275000D03*
X87275000Y-22625000D03*
X87275000Y-21975000D03*
X87275000Y-21325000D03*
X93325000Y-21325000D03*
X93325000Y-21975000D03*
X93325000Y-22625000D03*
X93325000Y-23275000D03*
X93325000Y-23925000D03*
X93325000Y-24575000D03*
X93325000Y-25225000D03*
X93325000Y-25875000D03*
D15*
X33225000Y-34600000D03*
X33875000Y-34600000D03*
X34525000Y-34600000D03*
X35175000Y-34600000D03*
X35825000Y-34600000D03*
X36475000Y-34600000D03*
X37125000Y-34600000D03*
X37775000Y-34600000D03*
X38425000Y-34600000D03*
X39075000Y-34600000D03*
X39725000Y-34600000D03*
X40375000Y-34600000D03*
X40375000Y-40200000D03*
X39725000Y-40200000D03*
X39075000Y-40200000D03*
X38425000Y-40200000D03*
X37775000Y-40200000D03*
X37125000Y-40200000D03*
X36475000Y-40200000D03*
X35825000Y-40200000D03*
X35175000Y-40200000D03*
X34525000Y-40200000D03*
X33875000Y-40200000D03*
X33225000Y-40200000D03*
D32*
X59150000Y-48850000D03*
X59150000Y-49350000D03*
X59150000Y-49850000D03*
X59150000Y-50350000D03*
X56050000Y-50350000D03*
X56050000Y-49850000D03*
X56050000Y-49350000D03*
X56050000Y-48850000D03*
D28*
X25550000Y-22700000D03*
X26200000Y-22700000D03*
X26850000Y-22700000D03*
X26850000Y-24500000D03*
X26200000Y-24500000D03*
X25550000Y-24500000D03*
X26150000Y-34500000D03*
X26800000Y-34500000D03*
X27450000Y-34500000D03*
X27450000Y-36300000D03*
X26800000Y-36300000D03*
X26150000Y-36300000D03*
D33*
X30614599Y-28404311D03*
X30614599Y-27134311D03*
X30614599Y-25864311D03*
X30614599Y-24594311D03*
X35814599Y-24594311D03*
X35814599Y-25864311D03*
X35814599Y-27134311D03*
X35814599Y-28404311D03*
D34*
X58775000Y-40060000D03*
X58775000Y-42600000D03*
X58775000Y-45140000D03*
X54025000Y-40060000D03*
X54025000Y-42600000D03*
X54025000Y-45140000D03*
D35*
X86540000Y-27855000D03*
D36*
X89230000Y-27830000D03*
X92000000Y-27830000D03*
X94770000Y-27830000D03*
X97540000Y-27830000D03*
X87845000Y-30670000D03*
X90615000Y-30670000D03*
X93385000Y-30670000D03*
X96155000Y-30670000D03*
D23*
X47600000Y-44650000D03*
D24*
X47600000Y-47190000D03*
X47600000Y-49730000D03*
X47600000Y-52270000D03*
X47600000Y-54810000D03*
X47600000Y-57350000D03*
D19*
X78950000Y-41550000D03*
X78950000Y-43450000D03*
X76850000Y-42500000D03*
D18*
X114550000Y-24950000D03*
X116450000Y-24950000D03*
X115500000Y-27050000D03*
D19*
X21950000Y-27950000D03*
X21950000Y-26050000D03*
X24050000Y-27000000D03*
X43064599Y-26549311D03*
X43064599Y-28449311D03*
X40964599Y-27499311D03*
D20*
X50575000Y-23500000D03*
X52025000Y-23500000D03*
D16*
X114600000Y-22225000D03*
X114600000Y-20775000D03*
X116200000Y-22225000D03*
X116200000Y-20775000D03*
X116500000Y-39575000D03*
X116500000Y-41025000D03*
D20*
X41439599Y-31699311D03*
X39989599Y-31699311D03*
X39989599Y-30099311D03*
X41439599Y-30099311D03*
D21*
X107700000Y-34600000D03*
X110900000Y-37800000D03*
X118100000Y-22300000D03*
X113200000Y-23500000D03*
X110300000Y-25200000D03*
X33400000Y-19900000D03*
X30600000Y-22100000D03*
X40750000Y-26000000D03*
X44100000Y-24900000D03*
X44500000Y-23600000D03*
X23000000Y-42000000D03*
X50000000Y-44500000D03*
X41100000Y-21100000D03*
X30400000Y-36200000D03*
X86300000Y-57400000D03*
X117000000Y-48200000D03*
X117000000Y-50300000D03*
X23400000Y-32600000D03*
X21500000Y-32100000D03*
X55500000Y-21700000D03*
X86400000Y-53500000D03*
X117000000Y-46700000D03*
X21600000Y-21300000D03*
X73900000Y-27200000D03*
X98100000Y-50200000D03*
X37000000Y-32800000D03*
X28600000Y-25900000D03*
X85500000Y-21500000D03*
X75100000Y-26300000D03*
X71800000Y-25000000D03*
X65600000Y-58100000D03*
X117900000Y-39000000D03*
X30500000Y-31900000D03*
D37*
X74020000Y-51520000D03*
D38*
X76560000Y-51520000D03*
X79100000Y-51520000D03*
X81640000Y-51520000D03*
X84180000Y-51520000D03*
X74020000Y-48980000D03*
X76560000Y-48980000D03*
X79100000Y-48980000D03*
X81640000Y-48980000D03*
X84180000Y-48980000D03*
D16*
X45900000Y-41275000D03*
X45900000Y-42725000D03*
D19*
X89450000Y-45450000D03*
X89450000Y-43550000D03*
X91550000Y-44500000D03*
D20*
X96175000Y-41900000D03*
X97625000Y-41900000D03*
D18*
X76950000Y-37850000D03*
X78850000Y-37850000D03*
X77900000Y-39950000D03*
X93250000Y-47050000D03*
X95150000Y-47050000D03*
X94200000Y-49150000D03*
D19*
X25550000Y-31050000D03*
X25550000Y-29150000D03*
X27650000Y-30100000D03*
X26150000Y-42850000D03*
X26150000Y-40950000D03*
X28250000Y-41900000D03*
D39*
X51025000Y-42750000D03*
D40*
X50100000Y-42750000D03*
X49300000Y-42750000D03*
D39*
X48375000Y-42750000D03*
X48375000Y-41300000D03*
D40*
X49300000Y-41300000D03*
X50100000Y-41300000D03*
D39*
X51025000Y-41300000D03*
X91625000Y-48425000D03*
D40*
X90700000Y-48425000D03*
X89900000Y-48425000D03*
D39*
X88975000Y-48425000D03*
X88975000Y-46975000D03*
D40*
X89900000Y-46975000D03*
X90700000Y-46975000D03*
D39*
X91625000Y-46975000D03*
X70525000Y-54475000D03*
D41*
X70525000Y-55400000D03*
X70525000Y-56200000D03*
D39*
X70525000Y-57125000D03*
X69075000Y-57125000D03*
D41*
X69075000Y-56200000D03*
X69075000Y-55400000D03*
D39*
X69075000Y-54475000D03*
X84825000Y-43025000D03*
D40*
X83900000Y-43025000D03*
X83100000Y-43025000D03*
D39*
X82175000Y-43025000D03*
X82175000Y-41575000D03*
D40*
X83100000Y-41575000D03*
X83900000Y-41575000D03*
D39*
X84825000Y-41575000D03*
X70625000Y-41625000D03*
D40*
X69700000Y-41625000D03*
X68900000Y-41625000D03*
D39*
X67975000Y-41625000D03*
X67975000Y-40175000D03*
D40*
X68900000Y-40175000D03*
X69700000Y-40175000D03*
D39*
X70625000Y-40175000D03*
X82575000Y-25125000D03*
D41*
X82575000Y-24200000D03*
X82575000Y-23400000D03*
D39*
X82575000Y-22475000D03*
X84025000Y-22475000D03*
D41*
X84025000Y-23400000D03*
X84025000Y-24200000D03*
D39*
X84025000Y-25125000D03*
X37525000Y-43425000D03*
D40*
X36600000Y-43425000D03*
X35800000Y-43425000D03*
D39*
X34875000Y-43425000D03*
X34875000Y-41975000D03*
D40*
X35800000Y-41975000D03*
X36600000Y-41975000D03*
D39*
X37525000Y-41975000D03*
X41775000Y-41275000D03*
D40*
X42700000Y-41275000D03*
X43500000Y-41275000D03*
D39*
X44425000Y-41275000D03*
X44425000Y-42725000D03*
D40*
X43500000Y-42725000D03*
X42700000Y-42725000D03*
D39*
X41775000Y-42725000D03*
X63725000Y-41625000D03*
D40*
X62800000Y-41625000D03*
X62000000Y-41625000D03*
D39*
X61075000Y-41625000D03*
X61075000Y-40175000D03*
D40*
X62000000Y-40175000D03*
X62800000Y-40175000D03*
D39*
X63725000Y-40175000D03*
D42*
X22225000Y-53505000D03*
X24765000Y-53505000D03*
X27305000Y-53505000D03*
X29845000Y-53505000D03*
X22225000Y-58255000D03*
X24765000Y-58255000D03*
X27305000Y-58255000D03*
X29845000Y-58255000D03*
X38735000Y-53505000D03*
X41275000Y-53505000D03*
X38735000Y-58255000D03*
X41275000Y-58255000D03*
X50165000Y-53505000D03*
X52705000Y-53505000D03*
X55245000Y-53505000D03*
X57785000Y-53505000D03*
X60325000Y-53505000D03*
X50165000Y-58255000D03*
X52705000Y-58255000D03*
X55245000Y-58255000D03*
X57785000Y-58255000D03*
X60325000Y-58255000D03*
X88900000Y-53505000D03*
X91440000Y-53505000D03*
X93980000Y-53505000D03*
X96520000Y-53505000D03*
X99060000Y-53505000D03*
X101600000Y-53505000D03*
X104140000Y-53505000D03*
X106680000Y-53505000D03*
X109220000Y-53505000D03*
X111760000Y-53505000D03*
X114300000Y-53505000D03*
X116840000Y-53505000D03*
X88900000Y-58255000D03*
X91440000Y-58255000D03*
X93980000Y-58255000D03*
X96520000Y-58255000D03*
X99060000Y-58255000D03*
X101600000Y-58255000D03*
X104140000Y-58255000D03*
X106680000Y-58255000D03*
X109220000Y-58255000D03*
X111760000Y-58255000D03*
X114300000Y-58255000D03*
X116840000Y-58255000D03*
D21*
X48300000Y-22100000D03*
X47400000Y-23200000D03*
X46400000Y-22100000D03*
X49200000Y-23200000D03*
D43*
X56400000Y-27350000D03*
X56400000Y-27850000D03*
X56400000Y-28350000D03*
X56400000Y-28850000D03*
X56400000Y-29350000D03*
X56400000Y-29850000D03*
X56400000Y-30350000D03*
X56400000Y-30850000D03*
X56400000Y-31350000D03*
X56400000Y-31850000D03*
X56400000Y-32350000D03*
X56400000Y-32850000D03*
X56400000Y-33350000D03*
X56400000Y-33850000D03*
X56400000Y-34350000D03*
X56400000Y-34850000D03*
D44*
X54450000Y-36800000D03*
X53950000Y-36800000D03*
X53450000Y-36800000D03*
X52950000Y-36800000D03*
X52450000Y-36800000D03*
X51950000Y-36800000D03*
X51450000Y-36800000D03*
X50950000Y-36800000D03*
X50450000Y-36800000D03*
X49950000Y-36800000D03*
X49450000Y-36800000D03*
X48950000Y-36800000D03*
X48450000Y-36800000D03*
X47950000Y-36800000D03*
X47450000Y-36800000D03*
X46950000Y-36800000D03*
D43*
X45000000Y-34850000D03*
X45000000Y-34350000D03*
X45000000Y-33850000D03*
X45000000Y-33350000D03*
X45000000Y-32850000D03*
X45000000Y-32350000D03*
X45000000Y-31850000D03*
X45000000Y-31350000D03*
X45000000Y-30850000D03*
X45000000Y-30350000D03*
X45000000Y-29850000D03*
X45000000Y-29350000D03*
X45000000Y-28850000D03*
X45000000Y-28350000D03*
X45000000Y-27850000D03*
X45000000Y-27350000D03*
D44*
X46950000Y-25400000D03*
X47450000Y-25400000D03*
X47950000Y-25400000D03*
X48450000Y-25400000D03*
X48950000Y-25400000D03*
X49450000Y-25400000D03*
X49950000Y-25400000D03*
X50450000Y-25400000D03*
X50950000Y-25400000D03*
X51450000Y-25400000D03*
X51950000Y-25400000D03*
X52450000Y-25400000D03*
X52950000Y-25400000D03*
X53450000Y-25400000D03*
X53950000Y-25400000D03*
X54450000Y-25400000D03*
M02*
