0
SECTION
2
HEADER
9
$INSUNITS
70
4
9
$ACADVER
1
AC1014
9
$HANDSEED
5
FFFF
0
ENDSEC
0
SECTION
2
TABLES
0
TABLE
2
VPORT
5
8
100
AcDbSymbolTable
0
ENDTAB
0
TABLE
2
LTYPE
5
5
100
AcDbSymbolTable
0
LTYPE
5
14
100
AcDbSymbolTableRecord
100
AcDbLinetypeTableRecord
2
BYBLOCK
70
0
0
LTYPE
5
15
100
AcDbSymbolTableRecord
100
AcDbLinetypeTableRecord
2
BYLAYER
70
0
0
ENDTAB
0
TABLE
2
LAYER
5
2
100
AcDbSymbolTable
70
2
0
LAYER
5
50
100
AcDbSymbolTableRecord
100
AcDbLayerTableRecord
2
0
70
0
6
CONTINUOUS
0
ENDTAB
0
TABLE
2
STYLE
5
3
100
AcDbSymbolTable
70
1
0
STYLE
5
11
100
AcDbSymbolTableRecord
100
AcDbTextStyleTableRecord
2
STANDARD
70
0
0
ENDTAB
0
TABLE
2
VIEW
5
6
100
AcDbSymbolTable
70
0
0
ENDTAB
0
TABLE
2
UCS
5
7
100
AcDbSymbolTable
70
0
0
ENDTAB
0
TABLE
2
APPID
5
9
100
AcDbSymbolTable
70
2
0
APPID
5
12
100
AcDbSymbolTableRecord
100
AcDbRegAppTableRecord
2
ACAD
70
0
0
ENDTAB
0
TABLE
2
DIMSTYLE
5
A
100
AcDbSymbolTable
70
1
0
ENDTAB
0
TABLE
2
BLOCK_RECORD
5
1
100
AcDbSymbolTable
70
1
0
BLOCK_RECORD
5
1F
100
AcDbSymbolTableRecord
100
AcDbBlockTableRecord
2
*MODEL_SPACE
0
BLOCK_RECORD
5
1B
100
AcDbSymbolTableRecord
100
AcDbBlockTableRecord
2
*PAPER_SPACE
0
ENDTAB
0
ENDSEC
0
SECTION
2
BLOCKS
0
BLOCK
5
20
100
AcDbEntity
100
AcDbBlockBegin
2
*MODEL_SPACE
0
ENDBLK
5
21
100
AcDbEntity
100
AcDbBlockEnd
0
BLOCK
5
1C
100
AcDbEntity
100
AcDbBlockBegin
2
*PAPER_SPACE
0
ENDBLK
5
1D
100
AcDbEntity
100
AcDbBlockEnd
0
ENDSEC
0
SECTION
2
ENTITIES
0
LWPOLYLINE
5
100
100
AcDbEntity
8
0
100
AcDbPolyline
90
8
70
1
43
0.0
10
0.50000000000000733
20
5.3500000000015966
42
-2.4142135623730976
10
0.65000000000000724
20
5.5000000000015969
10
5.3500000000000085
20
5.5000000000000471
42
-2.4142135623725882
10
5.500000000000008
20
5.3500000000000023
10
5.500000000000008
20
2.6500000000000004
42
-2.4142135623730949
10
5.3500000000000085
20
2.5
10
0.6500000000000048
20
2.49999999999996
42
-2.4142135623730976
10
0.50000000000000433
20
2.6499999999999604
0
LWPOLYLINE
5
101
100
AcDbEntity
8
0
100
AcDbPolyline
90
8
70
1
43
0.0
10
0.50000000000000733
20
14.3500000000016
42
-2.4142135623730798
10
0.65000000000000724
20
14.500000000001599
10
5.3500000000000112
20
14.500000000000048
42
-2.4142135623725642
10
5.500000000000008
20
14.350000000000005
10
5.500000000000008
20
11.65
42
-2.4142135623730692
10
5.3500000000000085
20
11.500000000000002
10
0.65000000000000435
20
11.499999999999961
42
-2.4142135623730843
10
0.50000000000000433
20
11.649999999999959
0
LWPOLYLINE
5
102
100
AcDbEntity
8
0
100
AcDbPolyline
90
8
70
1
43
0.0
10
10.500000000000007
20
23.3500000000016
42
-2.4142135623730949
10
10.650000000000006
20
23.500000000001599
10
15.350000000000012
20
23.50000000000005
42
-2.4142135623725642
10
15.500000000000007
20
23.350000000000005
10
15.500000000000007
20
20.650000000000006
42
-2.4142135623730949
10
15.350000000000009
20
20.500000000000004
10
10.650000000000006
20
20.499999999999964
42
-2.4142135623730949
10
10.500000000000005
20
20.649999999999963
0
LWPOLYLINE
5
103
100
AcDbEntity
8
0
100
AcDbPolyline
90
8
70
1
43
0.0
10
0.50000000000000733
20
23.350000000001604
42
-2.4142135623731416
10
0.65000000000000724
20
23.500000000001599
10
5.3500000000000121
20
23.50000000000005
42
-2.4142135623725518
10
5.500000000000008
20
23.350000000000005
10
5.500000000000008
20
20.650000000000006
42
-2.4142135623730949
10
5.3500000000000085
20
20.500000000000004
10
0.64999999999999891
20
20.499999999999964
42
-2.4142135623730705
10
0.50000000000000433
20
20.649999999999963
0
LWPOLYLINE
5
104
100
AcDbEntity
8
0
100
AcDbPolyline
90
8
70
1
43
0.0
10
10.500000000000007
20
32.350000000001593
42
-2.4142135623730692
10
10.650000000000006
20
32.500000000001599
10
15.350000000000001
20
32.50000000000005
42
-2.4142135623726397
10
15.500000000000007
20
32.350000000000001
10
15.500000000000007
20
29.650000000000006
42
-2.4142135623730692
10
15.350000000000009
20
29.5
10
10.650000000000009
20
29.499999999999957
42
-2.4142135623730692
10
10.500000000000005
20
29.649999999999963
0
LWPOLYLINE
5
105
100
AcDbEntity
8
0
100
AcDbPolyline
90
8
70
1
43
0.0
10
0.50000000000000733
20
32.350000000001593
42
-2.4142135623730661
10
0.65000000000000724
20
32.500000000001599
10
5.3500000000000059
20
32.50000000000005
42
-2.4142135623725762
10
5.500000000000008
20
32.350000000000001
10
5.500000000000008
20
29.650000000000006
42
-2.4142135623730692
10
5.3500000000000085
20
29.5
10
0.65000000000001001
20
29.499999999999961
42
-2.4142135623731464
10
0.50000000000000433
20
29.649999999999963
0
LWPOLYLINE
5
106
100
AcDbEntity
8
0
100
AcDbPolyline
90
8
70
1
43
0.0
10
68.906499999999994
20
34.473800000000018
42
-0.41421356236102375
10
70.605100000000007
20
32.775200000070015
10
70.605100000000007
20
23.224799999999995
42
-0.41421356237309659
10
68.906499999999994
20
21.526199999999992
10
41.093500000799992
20
21.526199999999992
42
-0.41421356251103997
10
39.3949
20
23.224800000000002
10
39.394900000299991
20
32.775200000070022
42
-0.41421356249896946
10
41.093500000799999
20
34.47379999970002
0
LWPOLYLINE
5
107
100
AcDbEntity
8
0
100
AcDbPolyline
90
8
70
1
43
0.0
10
21.900000000000027
20
30.300000000000775
42
-2.4142135623730949
10
21.750000000000025
20
30.150000000000773
10
20.549999999999969
20
30.150000000000773
42
-2.4142135623730949
10
20.39999999999997
20
30.300000000000775
10
20.39999999999997
20
33.500000000000767
42
-2.4142135623730949
10
20.549999999999969
20
33.650000000000773
10
21.750000000000036
20
33.650000000000773
42
-2.4142135623730949
10
21.900000000000027
20
33.500000000000774
0
LWPOLYLINE
5
108
100
AcDbEntity
8
0
100
AcDbPolyline
90
8
70
1
43
0.0
10
24.440000000000026
20
30.300000000000765
42
-2.4142135623730949
10
24.290000000000024
20
30.150000000000773
10
23.089999999999979
20
30.150000000000773
42
-2.4142135623730949
10
22.939999999999969
20
30.300000000000775
10
22.939999999999969
20
33.500000000000774
42
-2.4142135623730949
10
23.089999999999971
20
33.650000000000773
10
24.290000000000024
20
33.650000000000773
42
-2.4142135623730949
10
24.440000000000026
20
33.500000000000774
0
LWPOLYLINE
5
109
100
AcDbEntity
8
0
100
AcDbPolyline
90
8
70
1
43
0.0
10
29.520000000000024
20
30.300000000000765
42
-2.4142135623730949
10
29.370000000000026
20
30.150000000000773
10
28.16999999999998
20
30.150000000000773
42
-2.4142135623730949
10
28.019999999999968
20
30.300000000000775
10
28.019999999999968
20
33.500000000000774
42
-2.4142135623730949
10
28.16999999999997
20
33.650000000000773
10
29.370000000000026
20
33.650000000000773
42
-2.4142135623730949
10
29.520000000000024
20
33.500000000000774
0
LWPOLYLINE
5
110
100
AcDbEntity
8
0
100
AcDbPolyline
90
8
70
1
43
0.0
10
32.060000000000024
20
30.300000000000775
42
-2.4142135623730949
10
31.910000000000025
20
30.150000000000773
10
30.709999999999972
20
30.150000000000773
42
-2.4142135623730949
10
30.55999999999997
20
30.300000000000775
10
30.55999999999997
20
33.500000000000767
42
-2.4142135623730949
10
30.709999999999972
20
33.650000000000773
10
31.910000000000032
20
33.650000000000773
42
-2.4142135623730949
10
32.060000000000024
20
33.500000000000774
0
LWPOLYLINE
5
111
100
AcDbEntity
8
0
100
AcDbPolyline
90
8
70
1
43
0.0
10
26.980000000000025
20
30.300000000000775
42
-2.4142135623730949
10
26.830000000000027
20
30.150000000000773
10
25.629999999999971
20
30.150000000000773
42
-2.4142135623730949
10
25.479999999999968
20
30.300000000000775
10
25.479999999999968
20
33.500000000000767
42
-2.4142135623730949
10
25.629999999999971
20
33.650000000000773
10
26.830000000000034
20
33.650000000000773
42
-2.4142135623730949
10
26.980000000000025
20
33.500000000000774
0
LWPOLYLINE
5
112
100
AcDbEntity
8
0
100
AcDbPolyline
90
8
70
1
43
0.0
10
20.749999999999986
20
3.4000000000000274
42
-2.4142135623730692
10
20.899999999999991
20
3.2500000000000275
10
20.899999999999991
20
2.0499999999999656
42
-2.4142135623730661
10
20.749999999999989
20
1.8999999999999706
10
17.549999999999986
20
1.8999999999999706
42
-2.4142135623730798
10
17.399999999999988
20
2.0499999999999705
10
17.399999999999988
20
3.2500000000000231
42
-2.4142135623730825
10
17.549999999999986
20
3.400000000000023
0
LWPOLYLINE
5
113
100
AcDbEntity
8
0
100
AcDbPolyline
90
8
70
1
43
0.0
10
34.749999999999993
20
3.4000000000000274
42
-2.4142135623731447
10
34.899999999999991
20
3.2500000000000275
10
34.899999999999991
20
2.0499999999999767
42
-2.4142135623731416
10
34.749999999999986
20
1.8999999999999706
10
31.549999999999994
20
1.8999999999999706
42
-2.4142135623730661
10
31.399999999999988
20
2.0499999999999705
10
31.399999999999988
20
3.2500000000000284
42
-2.4142135623730692
10
31.54999999999999
20
3.400000000000023
0
LWPOLYLINE
5
114
100
AcDbEntity
8
0
100
AcDbPolyline
90
8
70
1
43
0.0
10
20.749999999999986
20
5.9400000000000279
42
-2.4142135623730692
10
20.899999999999991
20
5.7900000000000276
10
20.899999999999991
20
4.5899999999999652
42
-2.4142135623730692
10
20.749999999999989
20
4.4399999999999711
10
17.549999999999986
20
4.4399999999999711
42
-2.4142135623730825
10
17.399999999999988
20
4.5899999999999705
10
17.399999999999988
20
5.7900000000000231
42
-2.4142135623730825
10
17.549999999999986
20
5.9400000000000226
0
LWPOLYLINE
5
115
100
AcDbEntity
8
0
100
AcDbPolyline
90
8
70
1
43
0.0
10
34.749999999999993
20
5.9400000000000279
42
-2.4142135623731447
10
34.899999999999991
20
5.7900000000000276
10
34.899999999999991
20
4.5899999999999768
42
-2.4142135623731447
10
34.749999999999986
20
4.4399999999999711
10
31.549999999999994
20
4.4399999999999711
42
-2.4142135623730692
10
31.399999999999988
20
4.5899999999999705
10
31.399999999999988
20
5.7900000000000285
42
-2.4142135623730692
10
31.54999999999999
20
5.9400000000000226
0
LWPOLYLINE
5
116
100
AcDbEntity
8
0
100
AcDbPolyline
90
8
70
1
43
0.0
10
20.749999999999986
20
8.4800000000000271
42
-2.4142135623730692
10
20.899999999999991
20
8.3300000000000267
10
20.899999999999991
20
7.1299999999999653
42
-2.4142135623730692
10
20.749999999999989
20
6.9799999999999702
10
17.549999999999986
20
6.9799999999999702
42
-2.4142135623730825
10
17.399999999999988
20
7.1299999999999706
10
17.399999999999988
20
8.3300000000000232
42
-2.4142135623730825
10
17.549999999999986
20
8.4800000000000235
0
LWPOLYLINE
5
117
100
AcDbEntity
8
0
100
AcDbPolyline
90
8
70
1
43
0.0
10
34.749999999999993
20
8.4800000000000271
42
-2.4142135623731447
10
34.899999999999991
20
8.3300000000000267
10
34.899999999999991
20
7.1299999999999759
42
-2.4142135623731447
10
34.749999999999986
20
6.9799999999999702
10
31.549999999999994
20
6.9799999999999702
42
-2.4142135623730692
10
31.399999999999988
20
7.1299999999999706
10
31.399999999999988
20
8.3300000000000285
42
-2.4142135623730692
10
31.54999999999999
20
8.4800000000000235
0
LWPOLYLINE
5
118
100
AcDbEntity
8
0
100
AcDbPolyline
90
8
70
1
43
0.0
10
20.749999999999993
20
11.020000000000028
42
-2.4142135623730949
10
20.899999999999991
20
10.870000000000029
10
20.899999999999991
20
9.6699999999999662
42
-2.4142135623730692
10
20.749999999999989
20
9.5199999999999712
10
17.549999999999986
20
9.5199999999999712
42
-2.4142135623730825
10
17.399999999999988
20
9.6699999999999715
10
17.399999999999988
20
10.870000000000024
42
-2.4142135623730949
10
17.549999999999986
20
11.020000000000023
0
LWPOLYLINE
5
119
100
AcDbEntity
8
0
100
AcDbPolyline
90
8
70
1
43
0.0
10
20.749999999999993
20
13.560000000000027
42
-2.4142135623730949
10
20.899999999999991
20
13.410000000000029
10
20.899999999999991
20
12.209999999999972
42
-2.4142135623730949
10
20.749999999999989
20
12.05999999999997
10
17.549999999999986
20
12.05999999999997
42
-2.4142135623730949
10
17.399999999999988
20
12.209999999999969
10
17.399999999999988
20
13.410000000000025
42
-2.4142135623730949
10
17.549999999999986
20
13.560000000000024
0
LWPOLYLINE
5
120
100
AcDbEntity
8
0
100
AcDbPolyline
90
8
70
1
43
0.0
10
34.749999999999993
20
13.560000000000027
42
-2.4142135623730692
10
34.899999999999991
20
13.410000000000029
10
34.899999999999991
20
12.209999999999974
42
-2.4142135623730692
10
34.749999999999986
20
12.05999999999997
10
31.549999999999983
20
12.05999999999997
42
-2.4142135623730949
10
31.399999999999988
20
12.209999999999969
10
31.399999999999988
20
13.410000000000021
42
-2.4142135623730949
10
31.54999999999999
20
13.560000000000024
0
LWPOLYLINE
5
121
100
AcDbEntity
8
0
100
AcDbPolyline
90
8
70
1
43
0.0
10
20.749999999999993
20
16.100000000000026
42
-2.4142135623730949
10
20.899999999999991
20
15.950000000000028
10
20.899999999999991
20
14.749999999999972
42
-2.4142135623730949
10
20.749999999999989
20
14.599999999999971
10
17.549999999999986
20
14.599999999999971
42
-2.4142135623730949
10
17.399999999999988
20
14.74999999999997
10
17.399999999999988
20
15.950000000000024
42
-2.4142135623730949
10
17.549999999999986
20
16.100000000000023
0
LWPOLYLINE
5
122
100
AcDbEntity
8
0
100
AcDbPolyline
90
8
70
1
43
0.0
10
34.749999999999993
20
16.100000000000026
42
-2.4142135623730692
10
34.899999999999991
20
15.950000000000028
10
34.899999999999991
20
14.749999999999975
42
-2.4142135623730692
10
34.749999999999986
20
14.599999999999971
10
31.549999999999983
20
14.599999999999971
42
-2.4142135623730949
10
31.399999999999988
20
14.74999999999997
10
31.399999999999988
20
15.950000000000022
42
-2.4142135623730949
10
31.54999999999999
20
16.100000000000023
0
LWPOLYLINE
5
123
100
AcDbEntity
8
0
100
AcDbPolyline
90
8
70
1
43
0.0
10
34.749999999999993
20
11.020000000000028
42
-2.4142135623730692
10
34.899999999999991
20
10.870000000000029
10
34.899999999999991
20
9.6699999999999768
42
-2.4142135623731447
10
34.749999999999986
20
9.5199999999999712
10
31.549999999999994
20
9.5199999999999712
42
-2.4142135623730692
10
31.399999999999988
20
9.6699999999999715
10
31.399999999999988
20
10.870000000000022
42
-2.4142135623730949
10
31.54999999999999
20
11.020000000000023
0
LWPOLYLINE
5
124
100
AcDbEntity
8
0
100
AcDbPolyline
90
8
70
1
43
0.0
10
58.650000000001022
20
-1.0880171049120489e-13
42
-2.4142135623735026
10
58.500000000001066
20
0.14999999999989133
10
58.500000000001926
20
3.3499999999999019
42
-2.4142135623727157
10
58.650000000001953
20
3.4999999999998965
10
59.85000000000197
20
3.5000000000000497
42
-2.4142135623735812
10
60.000000000001933
20
3.3500000000000671
10
60.000000000001123
20
0.15000000000005365
42
-2.4142135623724732
10
59.850000000001089
20
3.7760602446754208e-14
0
LWPOLYLINE
5
125
100
AcDbEntity
8
0
100
AcDbPolyline
90
8
70
1
43
0.0
10
61.190000000001021
20
14.499999999999893
42
-2.4142135623734982
10
61.040000000001058
20
14.649999999999892
10
61.040000000001925
20
17.849999999999902
42
-2.4142135623726899
10
61.190000000001959
20
17.999999999999897
10
62.390000000001962
20
18.00000000000005
42
-2.4142135623737513
10
62.540000000001932
20
17.850000000000069
10
62.540000000001115
20
14.650000000000055
42
-2.4142135623724625
10
62.390000000001081
20
14.500000000000039
0
LWPOLYLINE
5
126
100
AcDbEntity
8
0
100
AcDbPolyline
90
8
70
1
43
0.0
10
53.570000000001023
20
14.499999999999893
42
-2.414213562373448
10
53.42000000000106
20
14.649999999999892
10
53.42000000000192
20
17.849999999999902
42
-2.4142135623726899
10
53.570000000001954
20
17.999999999999897
10
54.770000000001971
20
18.00000000000005
42
-2.4142135623736753
10
54.920000000001934
20
17.850000000000069
10
54.920000000001117
20
14.650000000000052
42
-2.4142135623725127
10
54.77000000000109
20
14.500000000000039
0
LWPOLYLINE
5
127
100
AcDbEntity
8
0
100
AcDbPolyline
90
8
70
1
43
0.0
10
74.649999999999977
20
2.4999999999999956
42
-2.4142135623731553
10
74.5
20
2.6499999999999959
10
74.5
20
5.3499999999999908
42
-2.4142135623731704
10
74.649999999999991
20
5.4999999999999982
10
79.350000000000009
20
5.4999999999999982
42
-2.4142135623731704
10
79.5
20
5.3499999999999979
10
79.5
20
2.6500000000000048
42
-2.4142135623731553
10
79.349999999999994
20
2.4999999999999956
0
LWPOLYLINE
5
128
100
AcDbEntity
8
0
100
AcDbPolyline
90
8
70
1
43
0.0
10
94.65000000000002
20
2.4999999999999956
42
-2.4142135623729204
10
94.5
20
2.6499999999999959
10
94.5
20
5.3500000000000121
42
-2.4142135623729173
10
94.650000000000006
20
5.4999999999999982
10
99.349999999999966
20
5.4999999999999982
42
-2.4142135623729173
10
99.5
20
5.3499999999999979
10
99.5
20
2.6499999999999813
42
-2.4142135623729204
10
99.349999999999994
20
2.4999999999999956
0
LWPOLYLINE
5
129
100
AcDbEntity
8
0
100
AcDbPolyline
90
8
70
1
43
0.0
10
84.65000000000002
20
11.499999999999996
42
-2.4142135623729173
10
84.5
20
11.649999999999995
10
84.5
20
14.350000000000014
42
-2.4142135623729173
10
84.650000000000006
20
14.5
10
89.349999999999966
20
14.5
42
-2.4142135623729173
10
89.5
20
14.350000000000001
10
89.5
20
11.649999999999983
42
-2.4142135623729173
10
89.349999999999994
20
11.499999999999996
0
LWPOLYLINE
5
130
100
AcDbEntity
8
0
100
AcDbPolyline
90
8
70
1
43
0.0
10
74.649999999999977
20
20.5
42
-2.4142135623731447
10
74.5
20
20.649999999999999
10
74.5
20
23.349999999999991
42
-2.4142135623731447
10
74.649999999999991
20
23.5
10
79.350000000000009
20
23.5
42
-2.4142135623731447
10
79.5
20
23.350000000000001
10
79.5
20
20.650000000000009
42
-2.4142135623731447
10
79.349999999999994
20
20.5
0
LWPOLYLINE
5
131
100
AcDbEntity
8
0
100
AcDbPolyline
90
8
70
1
43
0.0
10
94.65000000000002
20
20.5
42
-2.4142135623728915
10
94.5
20
20.649999999999999
10
94.5
20
23.350000000000016
42
-2.414213562372943
10
94.650000000000006
20
23.5
10
99.349999999999966
20
23.5
42
-2.414213562372943
10
99.5
20
23.350000000000001
10
99.5
20
20.649999999999984
42
-2.4142135623728915
10
99.349999999999994
20
20.5
0
LWPOLYLINE
5
132
100
AcDbEntity
8
0
100
AcDbPolyline
90
8
70
1
43
0.0
10
84.65000000000002
20
29.499999999999996
42
-2.414213562372943
10
84.5
20
29.649999999999999
10
84.5
20
32.350000000000009
42
-2.4142135623728915
10
84.650000000000006
20
32.5
10
89.349999999999966
20
32.5
42
-2.4142135623728915
10
89.5
20
32.350000000000001
10
89.5
20
29.649999999999981
42
-2.414213562372943
10
89.349999999999994
20
29.499999999999996
0
LWPOLYLINE
5
133
100
AcDbEntity
8
0
100
AcDbPolyline
90
4
70
1
43
0.0
10
69.5
20
4.5500000000000007
10
69.5
20
13.450000000000003
10
48.999999999999986
20
13.450000000000003
10
48.999999999999986
20
4.5500000000000007
0
LWPOLYLINE
5
134
100
AcDbEntity
8
0
100
AcDbPolyline
90
8
70
1
43
0.0
10
25.099999999999984
20
3.0263931063671388e-14
10
30.399999999999988
20
3.1086244689504383e-14
10
30.399999999999988
20
18.000000000000028
10
25.099999999999984
20
18.000000000000028
10
25.099999999999984
20
12.849999999999985
10
23.499999999999982
20
12.849999999999985
10
23.499999999999982
20
5.149999999999987
10
25.099999999999984
20
5.149999999999987
0
LWPOLYLINE
5
135
100
AcDbEntity
8
0
100
AcDbPolyline
90
8
70
1
43
0.0
10
31.350000000000037
20
22.250000000000767
10
31.350000000000048
20
23.850000000000769
10
36.5
20
23.850000000000769
10
36.5
20
29.150000000000773
10
18.500000000000018
20
29.150000000000773
10
18.500000000000007
20
23.850000000000769
10
23.650000000000038
20
23.850000000000769
10
23.650000000000038
20
22.250000000000778
0
LWPOLYLINE
5
136
100
AcDbEntity
8
0
100
AcDbPolyline
90
4
70
1
43
0.0
10
-3.0000000000000004
20
-3.0000000000000027
10
-3.0000000000000071
20
37.999999999999993
10
103
20
38
10
103
20
-3.0000000000000004
0
LWPOLYLINE
5
137
100
AcDbEntity
8
0
100
AcDbPolyline
90
8
70
1
43
0.0
10
40.699999999999989
20
3.0263931063671388e-14
10
45.999999999999986
20
3.1086244689504383e-14
10
45.999999999999986
20
18.000000000000028
10
40.699999999999989
20
18.000000000000028
10
40.699999999999989
20
12.849999999999985
10
39.09999999999998
20
12.849999999999985
10
39.09999999999998
20
5.149999999999987
10
40.699999999999989
20
5.149999999999987
0
LWPOLYLINE
5
138
100
AcDbEntity
8
0
100
AcDbPolyline
90
8
70
1
43
0.0
10
11.099999999999984
20
5.1500000000000075
10
11.099999999999984
20
-2.0341334576863498e-15
10
16.399999999999984
20
-2.2204460492503131e-15
10
16.399999999999984
20
18
10
11.099999999999984
20
18
10
11.099999999999984
20
12.850000000000009
10
9.4999999999999822
20
12.850000000000009
10
9.4999999999999822
20
5.1500000000000075
0
LWPOLYLINE
5
139
100
AcDbEntity
8
0
100
AcDbPolyline
90
8
70
1
43
0.0
10
94.65000000000002
20
29.499999999999996
42
-2.414213562372943
10
94.5
20
29.649999999999999
10
94.5
20
32.350000000000009
42
-2.4142135623728915
10
94.650000000000006
20
32.5
10
99.349999999999966
20
32.5
42
-2.4142135623728915
10
99.5
20
32.350000000000001
10
99.5
20
29.649999999999981
42
-2.414213562372943
10
99.349999999999994
20
29.499999999999996
0
LWPOLYLINE
5
140
100
AcDbEntity
8
0
100
AcDbPolyline
90
8
70
1
43
0.0
10
74.649999999999977
20
29.499999999999996
42
-2.4142135623731447
10
74.5
20
29.649999999999999
10
74.5
20
32.349999999999987
42
-2.4142135623731447
10
74.649999999999991
20
32.5
10
79.350000000000009
20
32.5
42
-2.4142135623731447
10
79.5
20
32.350000000000001
10
79.5
20
29.650000000000006
42
-2.4142135623731447
10
79.349999999999994
20
29.499999999999996
0
LWPOLYLINE
5
141
100
AcDbEntity
8
0
100
AcDbPolyline
90
8
70
1
43
0.0
10
84.65000000000002
20
20.5
42
-2.4142135623728915
10
84.5
20
20.649999999999999
10
84.5
20
23.350000000000016
42
-2.414213562372943
10
84.650000000000006
20
23.5
10
89.349999999999966
20
23.5
42
-2.414213562372943
10
89.5
20
23.350000000000001
10
89.5
20
20.649999999999984
42
-2.4142135623728915
10
89.349999999999994
20
20.5
0
LWPOLYLINE
5
142
100
AcDbEntity
8
0
100
AcDbPolyline
90
8
70
1
43
0.0
10
94.65000000000002
20
11.499999999999996
42
-2.4142135623729173
10
94.5
20
11.649999999999995
10
94.5
20
14.350000000000014
42
-2.4142135623729173
10
94.650000000000006
20
14.5
10
99.349999999999966
20
14.5
42
-2.4142135623729173
10
99.5
20
14.350000000000001
10
99.5
20
11.649999999999983
42
-2.4142135623729173
10
99.349999999999994
20
11.499999999999996
0
LWPOLYLINE
5
143
100
AcDbEntity
8
0
100
AcDbPolyline
90
8
70
1
43
0.0
10
74.649999999999977
20
11.499999999999996
42
-2.4142135623731704
10
74.5
20
11.649999999999995
10
74.5
20
14.349999999999991
42
-2.4142135623731704
10
74.649999999999991
20
14.5
10
79.350000000000009
20
14.5
42
-2.4142135623731704
10
79.5
20
14.350000000000001
10
79.5
20
11.650000000000006
42
-2.4142135623731704
10
79.349999999999994
20
11.499999999999996
0
LWPOLYLINE
5
144
100
AcDbEntity
8
0
100
AcDbPolyline
90
8
70
1
43
0.0
10
84.65000000000002
20
2.4999999999999956
42
-2.4142135623729204
10
84.5
20
2.6499999999999959
10
84.5
20
5.3500000000000121
42
-2.4142135623729173
10
84.650000000000006
20
5.4999999999999982
10
89.349999999999966
20
5.4999999999999982
42
-2.4142135623729173
10
89.5
20
5.3499999999999979
10
89.5
20
2.6499999999999813
42
-2.4142135623729204
10
89.349999999999994
20
2.4999999999999956
0
LWPOLYLINE
5
145
100
AcDbEntity
8
0
100
AcDbPolyline
90
8
70
1
43
0.0
10
58.650000000001022
20
14.499999999999893
42
-2.4142135623734982
10
58.500000000001066
20
14.649999999999892
10
58.500000000001918
20
17.849999999999888
42
-2.4142135623727401
10
58.650000000001953
20
17.999999999999897
10
59.85000000000197
20
18.00000000000005
42
-2.4142135623735737
10
60.000000000001933
20
17.850000000000069
10
60.000000000001123
20
14.650000000000055
42
-2.4142135623724625
10
59.850000000001089
20
14.500000000000039
0
LWPOLYLINE
5
146
100
AcDbEntity
8
0
100
AcDbPolyline
90
8
70
1
43
0.0
10
56.11000000000103
20
14.499999999999893
42
-2.4142135623734982
10
55.960000000001067
20
14.649999999999892
10
55.960000000001919
20
17.849999999999902
42
-2.4142135623726899
10
56.110000000001953
20
17.999999999999897
10
57.31000000000197
20
18.00000000000005
42
-2.4142135623735737
10
57.460000000001941
20
17.850000000000069
10
57.460000000001124
20
14.650000000000055
42
-2.4142135623724625
10
57.310000000001089
20
14.500000000000039
0
LWPOLYLINE
5
147
100
AcDbEntity
8
0
100
AcDbPolyline
90
8
70
1
43
0.0
10
53.570000000001023
20
-1.0874862795284093e-13
42
-2.4142135623734524
10
53.42000000000106
20
0.14999999999989133
10
53.42000000000192
20
3.3499999999998886
42
-2.4142135623727659
10
53.570000000001954
20
3.4999999999998965
10
54.770000000001971
20
3.5000000000000497
42
-2.4142135623736829
10
54.920000000001934
20
3.3500000000000671
10
54.920000000001117
20
0.15000000000004921
42
-2.4142135623725229
10
54.77000000000109
20
3.7760602446754208e-14
0
LWPOLYLINE
5
148
100
AcDbEntity
8
0
100
AcDbPolyline
90
8
70
1
43
0.0
10
56.11000000000103
20
-1.0880171049120489e-13
42
-2.4142135623735026
10
55.960000000001067
20
0.14999999999989133
10
55.960000000001919
20
3.3499999999998886
42
-2.4142135623727659
10
56.110000000001953
20
3.4999999999998965
10
57.31000000000197
20
3.5000000000000497
42
-2.4142135623735617
10
57.460000000001941
20
3.3500000000000671
10
57.460000000001124
20
0.15000000000005365
42
-2.4142135623724732
10
57.310000000001089
20
3.7760602446754208e-14
0
LWPOLYLINE
5
149
100
AcDbEntity
8
0
100
AcDbPolyline
90
8
70
1
43
0.0
10
61.190000000001021
20
-1.0880171049120489e-13
42
-2.4142135623735026
10
61.040000000001058
20
0.14999999999989133
10
61.040000000001925
20
3.3499999999998886
42
-2.4142135623727659
10
61.190000000001959
20
3.4999999999998965
10
62.390000000001962
20
3.5000000000000497
42
-2.4142135623737255
10
62.540000000001932
20
3.3500000000000671
10
62.540000000001115
20
0.15000000000005365
42
-2.4142135623724732
10
62.390000000001081
20
3.7760602446754208e-14
0
LWPOLYLINE
5
150
100
AcDbEntity
8
0
100
AcDbPolyline
90
8
70
1
43
0.0
10
63.730000000001027
20
-1.0874862795284093e-13
42
-2.4142135623734524
10
63.580000000001064
20
0.14999999999989133
10
63.580000000001924
20
3.3499999999998886
42
-2.4142135623727659
10
63.730000000001958
20
3.4999999999998965
10
64.930000000001968
20
3.5000000000000497
42
-2.4142135623736829
10
65.080000000001931
20
3.3500000000000671
10
65.080000000001121
20
0.15000000000004921
42
-2.4142135623725229
10
64.930000000001087
20
3.7760602446754208e-14
0
LWPOLYLINE
5
151
100
AcDbEntity
8
0
100
AcDbPolyline
90
4
70
1
43
0.0
10
65.249999999999972
20
7.0000000000000009
10
53.249999999999964
20
7.0000000000000009
10
53.249999999999964
20
11
10
65.249999999999972
20
11
0
CIRCLE
5
152
100
AcDbEntity
8
0
100
AcDbCircle
10
42.5
20
28.000000000000004
30
0
40
1.5000000000000002
0
CIRCLE
5
153
100
AcDbEntity
8
0
100
AcDbCircle
10
67.5
20
27.999999999999993
30
0
40
1.5000000000000002
0
LWPOLYLINE
5
154
100
AcDbEntity
8
0
100
AcDbPolyline
90
8
70
1
43
0.0
10
65.236816129519028
20
30.23719238991665
10
64.242543550644641
20
24.598392389608122
42
-0.36397023423960467
10
60.940680116400003
20
21.827800000000003
10
49.059319883079993
20
21.827800000000003
42
-0.3639702342224449
10
45.757456449300363
20
24.598392389920065
10
44.763183870480965
20
30.237192389916654
42
-0.4663076581551559
10
48.065047304780002
20
34.172200000000011
10
61.934952695219998
20
34.172200000000018
42
-0.46630765815515418
0
LWPOLYLINE
5
155
100
AcDbEntity
8
0
100
AcDbPolyline
90
28
70
1
43
0.0
10
63.379266753326526
20
3.0531133177191805e-14
10
63.379266753327521
20
3.7007332466743752
10
65.280733246676505
20
3.7007332466745919
10
65.280733246675581
20
3.0531133177191805e-14
10
70.499999999999986
20
3.1086244689504383e-14
10
70.499999999999986
20
20.249999999999993
10
71.999999999999986
20
20.249999999999993
10
71.999999999999986
20
35
10
37.999999999999986
20
34.999999999999993
10
37.999999999999986
20
20.25
10
47.999999999999957
20
20.25
10
47.999999999999957
20
3.1086244689504383e-14
10
53.219266753326522
20
3.0531133177191805e-14
10
53.219266753327517
20
3.7007332466743756
10
55.120733246676508
20
3.7007332466745924
10
55.120733246675584
20
3.0531133177191805e-14
10
55.759266753326528
20
3.0531133177191805e-14
10
55.759266753327516
20
3.7007332466743752
10
57.660733246676514
20
3.7007332466745919
10
57.660733246675584
20
3.0531133177191805e-14
10
58.299266753326521
20
3.0531133177191805e-14
10
58.299266753327515
20
3.7007332466743752
10
60.200733246676506
20
3.7007332466745919
10
60.200733246675583
20
3.0531133177191805e-14
10
60.839266753326527
20
3.0531133177191805e-14
10
60.839266753327514
20
3.7007332466743752
10
62.740733246676513
20
3.7007332466745919
10
62.740733246675589
20
3.0531133177191805e-14
0
LWPOLYLINE
5
156
100
AcDbEntity
8
0
100
AcDbPolyline
90
4
70
1
43
0.0
10
60.200733246676506
20
18.200733246674595
10
60.200733246675533
20
14.299266753325576
10
58.299266753326478
20
14.299266753325368
10
58.299266753327515
20
18.200733246674378
0
LWPOLYLINE
5
157
100
AcDbEntity
8
0
100
AcDbPolyline
90
4
70
1
43
0.0
10
55.120733246676508
20
18.200733246674595
10
55.120733246675535
20
14.299266753325576
10
53.21926675332648
20
14.299266753325368
10
53.219266753327517
20
18.200733246674378
0
LWPOLYLINE
5
158
100
AcDbEntity
8
0
100
AcDbPolyline
90
4
70
1
43
0.0
10
57.660733246676514
20
18.200733246674595
10
57.660733246675527
20
14.299266753325576
10
55.759266753326472
20
14.299266753325368
10
55.759266753327516
20
18.200733246674378
0
LWPOLYLINE
5
159
100
AcDbEntity
8
0
100
AcDbPolyline
90
4
70
1
43
0.0
10
62.740733246676513
20
18.200733246674595
10
62.740733246675539
20
14.299266753325576
10
60.839266753326477
20
14.299266753325368
10
60.839266753327514
20
18.200733246674378
0
ENDSEC
0
SECTION
2
OBJECTS
0
DICTIONARY
5
C
100
AcDbDictionary
3
ACAD_GROUP
350
D
3
ACAD_MLINESTYLE
350
17
0
DICTIONARY
5
D
100
AcDbDictionary
0
DICTIONARY
5
1A
330
C
100
AcDbDictionary
0
DICTIONARY
5
17
100
AcDbDictionary
0
ENDSEC
0
EOF
