0
SECTION
2
HEADER
9
$INSUNITS
70
4
9
$ACADVER
1
AC1014
9
$HANDSEED
5
FFFF
0
ENDSEC
0
SECTION
2
TABLES
0
TABLE
2
VPORT
5
8
100
AcDbSymbolTable
0
ENDTAB
0
TABLE
2
LTYPE
5
5
100
AcDbSymbolTable
0
LTYPE
5
14
100
AcDbSymbolTableRecord
100
AcDbLinetypeTableRecord
2
BYBLOCK
70
0
0
LTYPE
5
15
100
AcDbSymbolTableRecord
100
AcDbLinetypeTableRecord
2
BYLAYER
70
0
0
ENDTAB
0
TABLE
2
LAYER
5
2
100
AcDbSymbolTable
70
2
0
LAYER
5
50
100
AcDbSymbolTableRecord
100
AcDbLayerTableRecord
2
0
70
0
6
CONTINUOUS
0
ENDTAB
0
TABLE
2
STYLE
5
3
100
AcDbSymbolTable
70
1
0
STYLE
5
11
100
AcDbSymbolTableRecord
100
AcDbTextStyleTableRecord
2
STANDARD
70
0
0
ENDTAB
0
TABLE
2
VIEW
5
6
100
AcDbSymbolTable
70
0
0
ENDTAB
0
TABLE
2
UCS
5
7
100
AcDbSymbolTable
70
0
0
ENDTAB
0
TABLE
2
APPID
5
9
100
AcDbSymbolTable
70
2
0
APPID
5
12
100
AcDbSymbolTableRecord
100
AcDbRegAppTableRecord
2
ACAD
70
0
0
ENDTAB
0
TABLE
2
DIMSTYLE
5
A
100
AcDbSymbolTable
70
1
0
ENDTAB
0
TABLE
2
BLOCK_RECORD
5
1
100
AcDbSymbolTable
70
1
0
BLOCK_RECORD
5
1F
100
AcDbSymbolTableRecord
100
AcDbBlockTableRecord
2
*MODEL_SPACE
0
BLOCK_RECORD
5
1B
100
AcDbSymbolTableRecord
100
AcDbBlockTableRecord
2
*PAPER_SPACE
0
ENDTAB
0
ENDSEC
0
SECTION
2
BLOCKS
0
BLOCK
5
20
100
AcDbEntity
100
AcDbBlockBegin
2
*MODEL_SPACE
0
ENDBLK
5
21
100
AcDbEntity
100
AcDbBlockEnd
0
BLOCK
5
1C
100
AcDbEntity
100
AcDbBlockBegin
2
*PAPER_SPACE
0
ENDBLK
5
1D
100
AcDbEntity
100
AcDbBlockEnd
0
ENDSEC
0
SECTION
2
ENTITIES
0
ARC
5
100
100
AcDbEntity
8
0
100
AcDbCircle
10
85.906500000000023
20
35.52520000001099
30
0
40
1.6985999999999812
100
AcDbArc
50
0
51
90.000000000000966
0
LINE
5
101
100
AcDbEntity
8
0
100
AcDbLine
10
87.605099999999993
20
35.525200000080979
30
0
11
87.605099999999993
21
25.974800000010958
31
0
0
ARC
5
102
100
AcDbEntity
8
0
100
AcDbCircle
10
85.906499999999994
20
25.974800000010951
30
0
40
1.6985999999999946
100
AcDbArc
50
-90
51
0
0
LINE
5
103
100
AcDbEntity
8
0
100
AcDbLine
10
85.906499999999994
20
24.276200000010956
30
0
11
58.093500000799985
21
24.276200000010956
31
0
0
ARC
5
104
100
AcDbEntity
8
0
100
AcDbCircle
10
58.093499999999992
20
25.974800000010969
30
0
40
1.6986000000000079
100
AcDbArc
50
180
51
270.00000002698471
0
LINE
5
105
100
AcDbEntity
8
0
100
AcDbLine
10
56.394899999999986
20
25.974800000010966
30
0
11
56.394900000299998
21
35.525200000080986
31
0
0
ARC
5
106
100
AcDbEntity
8
0
100
AcDbCircle
10
58.093499999999985
20
35.525200000010997
30
0
40
1.6985999996999857
100
AcDbArc
50
89.999999973014354
51
180
0
LINE
5
107
100
AcDbEntity
8
0
100
AcDbLine
10
58.093500000800006
20
37.223799999710984
30
0
11
85.906499999999994
21
37.223800000010968
31
0
0
LWPOLYLINE
5
108
100
AcDbEntity
8
0
100
AcDbPolyline
90
8
70
1
43
0.0
10
34.5
20
3.4000000000000297
42
-2.4142135623730976
10
34.75
20
3.1500000000000297
10
34.75
20
2.1499999999999804
42
-2.4142135623730976
10
34.5
20
1.8999999999999817
10
31.499999999999993
20
1.8999999999999817
42
-2.4142135623731131
10
31.25
20
2.1499999999999817
10
31.25
20
3.1500000000000199
42
-2.4142135623731131
10
31.5
20
3.4000000000000252
0
LWPOLYLINE
5
109
100
AcDbEntity
8
0
100
AcDbPolyline
90
8
70
1
43
0.0
10
34.499999999999993
20
5.9400000000000297
42
-2.4142135623730718
10
34.75
20
5.6900000000000297
10
34.75
20
4.68999999999998
42
-2.4142135623730976
10
34.5
20
4.4399999999999817
10
31.499999999999993
20
4.4399999999999817
42
-2.4142135623731131
10
31.25
20
4.6899999999999817
10
31.25
20
5.6900000000000208
42
-2.4142135623731176
10
31.5
20
5.9400000000000253
0
LWPOLYLINE
5
110
100
AcDbEntity
8
0
100
AcDbPolyline
90
8
70
1
43
0.0
10
34.499999999999993
20
8.4800000000000288
42
-2.4142135623730718
10
34.75
20
8.2300000000000288
10
34.75
20
7.2299999999999756
42
-2.4142135623730718
10
34.5
20
6.9799999999999818
10
31.499999999999993
20
6.9799999999999818
42
-2.4142135623731176
10
31.25
20
7.2299999999999818
10
31.25
20
8.23000000000002
42
-2.4142135623731176
10
31.5
20
8.4800000000000253
0
LWPOLYLINE
5
111
100
AcDbEntity
8
0
100
AcDbPolyline
90
8
70
1
43
0.0
10
34.499999999999993
20
13.560000000000031
42
-2.4142135623730798
10
34.75
20
13.310000000000031
10
34.75
20
12.309999999999974
42
-2.4142135623730798
10
34.5
20
12.059999999999981
10
31.499999999999993
20
12.059999999999981
42
-2.4142135623731251
10
31.25
20
12.309999999999981
10
31.25
20
13.310000000000022
42
-2.4142135623731251
10
31.5
20
13.560000000000025
0
LWPOLYLINE
5
112
100
AcDbEntity
8
0
100
AcDbPolyline
90
8
70
1
43
0.0
10
34.499999999999993
20
16.10000000000003
42
-2.4142135623730798
10
34.75
20
15.85000000000003
10
34.75
20
14.849999999999975
42
-2.4142135623730798
10
34.5
20
14.599999999999982
10
31.499999999999993
20
14.599999999999982
42
-2.4142135623731251
10
31.25
20
14.84999999999998
10
31.25
20
15.850000000000023
42
-2.4142135623731251
10
31.5
20
16.100000000000026
0
LWPOLYLINE
5
113
100
AcDbEntity
8
0
100
AcDbPolyline
90
8
70
1
43
0.0
10
34.499999999999993
20
11.02000000000003
42
-2.4142135623730798
10
34.75
20
10.770000000000032
10
34.75
20
9.7699999999999747
42
-2.4142135623730718
10
34.5
20
9.5199999999999818
10
31.499999999999993
20
9.5199999999999818
42
-2.4142135623731176
10
31.25
20
9.7699999999999818
10
31.25
20
10.770000000000021
42
-2.4142135623731251
10
31.5
20
11.020000000000024
0
LWPOLYLINE
5
114
100
AcDbEntity
8
0
100
AcDbPolyline
90
8
70
1
43
0.0
10
58.600000000001089
20
-1.355053681578602e-13
42
-2.4142135623735039
10
58.350000000001153
20
0.24999999999986477
10
58.350000000001963
20
3.2499999999998592
42
-2.4142135623726522
10
58.600000000002026
20
3.4999999999998654
10
59.600000000002026
20
3.5000000000000098
42
-2.4142135623737042
10
59.850000000001955
20
3.2500000000000382
10
59.850000000001195
20
0.25000000000003042
42
-2.4142135623724714
10
59.600000000001131
20
-2.2357541342396676e-15
0
LWPOLYLINE
5
115
100
AcDbEntity
8
0
100
AcDbPolyline
90
8
70
1
43
0.0
10
61.140000000001095
20
14.499999999999867
42
-2.414213562373595
10
60.890000000001159
20
14.749999999999865
10
60.890000000001962
20
17.749999999999865
42
-2.4142135623726246
10
61.140000000002033
20
17.999999999999869
10
62.140000000002011
20
18.000000000000011
42
-2.4142135623736558
10
62.390000000001962
20
17.750000000000043
10
62.390000000001194
20
14.750000000000032
42
-2.4142135623724124
10
62.140000000001123
20
14.5
0
LWPOLYLINE
5
116
100
AcDbEntity
8
0
100
AcDbPolyline
90
8
70
1
43
0.0
10
53.520000000001104
20
14.499999999999867
42
-2.4142135623734888
10
53.270000000001154
20
14.749999999999865
10
53.270000000001971
20
17.749999999999876
42
-2.4142135623726397
10
53.520000000002028
20
17.999999999999869
10
54.520000000002007
20
18.000000000000011
42
-2.414213562373686
10
54.770000000001957
20
17.750000000000043
10
54.77000000000119
20
14.750000000000016
42
-2.4142135623724581
10
54.520000000001126
20
14.5
0
LWPOLYLINE
5
117
100
AcDbEntity
8
0
100
AcDbPolyline
90
8
70
1
43
0.0
10
74.100000000000023
20
2.7499999999999591
42
-2.4142135623730674
10
73.850000000000023
20
2.9999999999999591
10
73.850000000000023
20
5.9999999999999796
42
-2.4142135623730718
10
74.100000000000023
20
6.2499999999999689
10
78.899999999999991
20
6.2499999999999689
42
-2.4142135623730718
10
79.150000000000006
20
5.9999999999999689
10
79.150000000000006
20
2.9999999999999578
42
-2.4142135623730674
10
78.900000000000006
20
2.749999999999968
0
LWPOLYLINE
5
118
100
AcDbEntity
8
0
100
AcDbPolyline
90
8
70
1
43
0.0
10
93.100000000000023
20
2.7499999999999591
42
-2.4142135623731131
10
92.850000000000023
20
2.9999999999999591
10
92.850000000000023
20
5.9999999999999689
42
-2.4142135623731176
10
93.100000000000023
20
6.2499999999999689
10
97.900000000000034
20
6.2499999999999689
42
-2.4142135623730567
10
98.150000000000006
20
5.9999999999999689
10
98.150000000000006
20
2.9999999999999778
42
-2.4142135623730523
10
97.900000000000006
20
2.749999999999968
0
LWPOLYLINE
5
119
100
AcDbEntity
8
0
100
AcDbPolyline
90
8
70
1
43
0.0
10
83.600000000000023
20
13.249999999999961
42
-2.4142135623731251
10
83.350000000000023
20
13.499999999999961
10
83.350000000000023
20
16.499999999999972
42
-2.4142135623731251
10
83.600000000000023
20
16.749999999999972
10
88.400000000000034
20
16.749999999999972
42
-2.4142135623730643
10
88.65000000000002
20
16.499999999999972
10
88.65000000000002
20
13.499999999999979
42
-2.4142135623730643
10
88.40000000000002
20
13.249999999999972
0
LWPOLYLINE
5
120
100
AcDbEntity
8
0
100
AcDbPolyline
90
8
70
1
43
0.0
10
93.100000000000023
20
23.749999999999964
42
-2.4142135623731251
10
92.850000000000023
20
23.999999999999964
10
92.850000000000023
20
26.999999999999972
42
-2.4142135623731251
10
93.100000000000023
20
27.249999999999972
10
97.900000000000034
20
27.249999999999972
42
-2.4142135623730643
10
98.150000000000006
20
26.999999999999972
10
98.150000000000006
20
23.999999999999982
42
-2.4142135623730643
10
97.900000000000006
20
23.749999999999972
0
LWPOLYLINE
5
121
100
AcDbEntity
8
0
100
AcDbPolyline
90
4
70
1
43
0.0
10
69.350000000000009
20
4.5500000000000176
10
69.350000000000009
20
13.450000000000017
10
48.849999999999994
20
13.450000000000017
10
48.849999999999994
20
4.5500000000000176
0
LWPOLYLINE
5
122
100
AcDbEntity
8
0
100
AcDbPolyline
90
8
70
1
43
0.0
10
39.949999999999996
20
-1.3916109553327828e-14
10
45.25
20
-1.3322676295501878e-14
10
45.25
20
17.999999999999986
10
39.949999999999996
20
17.999999999999986
10
39.949999999999996
20
12.849999999999969
10
38.349999999999994
20
12.849999999999969
10
38.349999999999994
20
5.1499999999999702
10
39.949999999999996
20
5.1499999999999702
0
LWPOLYLINE
5
123
100
AcDbEntity
8
0
100
AcDbPolyline
90
4
70
1
43
0.0
10
-3.0000000000000004
20
-2.9999999999999982
10
-3.0000000000000071
20
43
10
103
20
43
10
103
20
-3.0000000000000004
0
LWPOLYLINE
5
124
100
AcDbEntity
8
0
100
AcDbPolyline
90
8
70
1
43
0.0
10
93.100000000000023
20
34.249999999999964
42
-2.4142135623731251
10
92.850000000000023
20
34.499999999999964
10
92.850000000000023
20
37.499999999999972
42
-2.4142135623730949
10
93.100000000000023
20
37.749999999999972
10
97.900000000000034
20
37.749999999999972
42
-2.4142135623730341
10
98.150000000000006
20
37.499999999999972
10
98.150000000000006
20
34.499999999999979
42
-2.4142135623730643
10
97.900000000000006
20
34.249999999999972
0
LWPOLYLINE
5
125
100
AcDbEntity
8
0
100
AcDbPolyline
90
8
70
1
43
0.0
10
93.100000000000023
20
13.249999999999961
42
-2.4142135623731251
10
92.850000000000023
20
13.499999999999961
10
92.850000000000023
20
16.499999999999972
42
-2.4142135623731251
10
93.100000000000023
20
16.749999999999972
10
97.900000000000034
20
16.749999999999972
42
-2.4142135623730643
10
98.150000000000006
20
16.499999999999972
10
98.150000000000006
20
13.499999999999979
42
-2.4142135623730643
10
97.900000000000006
20
13.249999999999972
0
LWPOLYLINE
5
126
100
AcDbEntity
8
0
100
AcDbPolyline
90
8
70
1
43
0.0
10
74.100000000000037
20
13.249999999999961
42
-2.4142135623730949
10
73.850000000000023
20
13.499999999999961
10
73.850000000000023
20
16.499999999999986
42
-2.4142135623730949
10
74.100000000000023
20
16.749999999999972
10
78.899999999999991
20
16.749999999999972
42
-2.4142135623730949
10
79.150000000000006
20
16.499999999999972
10
79.150000000000006
20
13.499999999999957
42
-2.4142135623730949
10
78.900000000000006
20
13.249999999999972
0
LWPOLYLINE
5
127
100
AcDbEntity
8
0
100
AcDbPolyline
90
8
70
1
43
0.0
10
83.600000000000023
20
2.7499999999999591
42
-2.4142135623731131
10
83.350000000000023
20
2.9999999999999591
10
83.350000000000023
20
5.9999999999999689
42
-2.4142135623731176
10
83.600000000000023
20
6.2499999999999689
10
88.400000000000034
20
6.2499999999999689
42
-2.4142135623730567
10
88.65000000000002
20
5.9999999999999689
10
88.65000000000002
20
2.9999999999999778
42
-2.4142135623730523
10
88.40000000000002
20
2.749999999999968
0
LWPOLYLINE
5
128
100
AcDbEntity
8
0
100
AcDbPolyline
90
8
70
1
43
0.0
10
58.600000000001096
20
14.499999999999867
42
-2.4142135623735195
10
58.350000000001153
20
14.749999999999865
10
58.350000000001963
20
17.749999999999865
42
-2.4142135623726704
10
58.600000000002026
20
17.999999999999869
10
59.600000000002012
20
18.000000000000011
42
-2.4142135623737162
10
59.850000000001955
20
17.750000000000043
10
59.850000000001195
20
14.75000000000003
42
-2.4142135623724883
10
59.600000000001131
20
14.5
0
LWPOLYLINE
5
129
100
AcDbEntity
8
0
100
AcDbPolyline
90
8
70
1
43
0.0
10
56.060000000001097
20
14.499999999999867
42
-2.4142135623734737
10
55.810000000001153
20
14.749999999999865
10
55.810000000001963
20
17.749999999999865
42
-2.4142135623727308
10
56.06000000000202
20
17.999999999999869
10
57.060000000002034
20
18.000000000000011
42
-2.4142135623738223
10
57.310000000001949
20
17.750000000000043
10
57.310000000001189
20
14.75000000000003
42
-2.4142135623725487
10
57.060000000001132
20
14.5
0
LWPOLYLINE
5
130
100
AcDbEntity
8
0
100
AcDbPolyline
90
8
70
1
43
0.0
10
53.520000000001104
20
-1.354880209230994e-13
42
-2.4142135623734737
10
53.270000000001154
20
0.24999999999986477
10
53.270000000001964
20
3.2499999999998725
42
-2.4142135623726215
10
53.520000000002028
20
3.4999999999998654
10
54.520000000002014
20
3.5000000000000098
42
-2.4142135623737344
10
54.770000000001957
20
3.2500000000000382
10
54.77000000000119
20
0.2500000000000171
42
-2.4142135623724412
10
54.520000000001126
20
-2.2357541342396676e-15
0
LWPOLYLINE
5
131
100
AcDbEntity
8
0
100
AcDbPolyline
90
8
70
1
43
0.0
10
56.060000000001097
20
-1.3548455147614772e-13
42
-2.4142135623734648
10
55.810000000001153
20
0.24999999999986477
10
55.810000000001963
20
3.2499999999998637
42
-2.4142135623727428
10
56.06000000000202
20
3.4999999999998654
10
57.060000000002034
20
3.5000000000000098
42
-2.4142135623738223
10
57.310000000001949
20
3.2500000000000382
10
57.310000000001189
20
0.25000000000002653
42
-2.414213562372558
10
57.060000000001132
20
-2.2357541342396676e-15
0
LWPOLYLINE
5
132
100
AcDbEntity
8
0
100
AcDbPolyline
90
8
70
1
43
0.0
10
61.140000000001095
20
-1.3535965138587711e-13
42
-2.4142135623735919
10
60.890000000001159
20
0.24999999999986477
10
60.890000000001962
20
3.2499999999998623
42
-2.4142135623726126
10
61.140000000002033
20
3.4999999999998654
10
62.140000000002011
20
3.5000000000000098
42
-2.4142135623736589
10
62.390000000001962
20
3.2500000000000382
10
62.390000000001194
20
0.2500000000000317
42
-2.4142135623724017
10
62.140000000001123
20
-2.2357541342396518e-15
0
LWPOLYLINE
5
133
100
AcDbEntity
8
0
100
AcDbPolyline
90
8
70
1
43
0.0
10
63.680000000001101
20
-1.354880209230994e-13
42
-2.4142135623734737
10
63.430000000001158
20
0.24999999999986477
10
63.430000000001961
20
3.2499999999998725
42
-2.4142135623726215
10
63.680000000002025
20
3.4999999999998654
10
64.680000000002011
20
3.5000000000000098
42
-2.4142135623737344
10
64.930000000001954
20
3.2500000000000382
10
64.930000000001201
20
0.2500000000000171
42
-2.4142135623724412
10
64.680000000001129
20
-2.2357541342396676e-15
0
LWPOLYLINE
5
134
100
AcDbEntity
8
0
100
AcDbPolyline
90
4
70
1
43
0.0
10
65.100000000000051
20
7.0000000000000036
10
53.100000000000051
20
7.0000000000000036
10
53.100000000000051
20
11.000000000000004
10
65.100000000000051
20
11.000000000000004
0
LINE
5
135
100
AcDbEntity
8
0
100
AcDbLine
10
63.229266753326563
20
-0.14901732677625512
30
0
11
63.229266753326534
21
-0.20073324667465919
31
0
0
LINE
5
136
100
AcDbEntity
8
0
100
AcDbLine
10
62.590733246675583
20
-0.20073324667445644
30
0
11
62.590733246675597
21
-0.14901732677619739
31
0
0
LINE
5
137
100
AcDbEntity
8
0
100
AcDbLine
10
62.590733246676564
20
3.7007332466745635
30
0
11
62.539017326778165
21
3.7007332466745591
31
0
0
LINE
5
138
100
AcDbEntity
8
0
100
AcDbLine
10
60.689266753326564
20
-0.14901732677625512
30
0
11
60.689266753326542
21
-0.20073324667465919
31
0
0
LINE
5
139
100
AcDbEntity
8
0
100
AcDbLine
10
60.050733246675591
20
-0.20073324667445644
30
0
11
60.050733246675591
21
-0.14901732677619739
31
0
0
LINE
5
140
100
AcDbEntity
8
0
100
AcDbLine
10
60.050733246676565
20
3.7007332466745635
30
0
11
59.999017326778159
21
3.7007332466745591
31
0
0
LINE
5
141
100
AcDbEntity
8
0
100
AcDbLine
10
58.149266753326565
20
-0.14901732677625512
30
0
11
58.149266753326536
21
-0.20073324667465919
31
0
0
LINE
5
142
100
AcDbEntity
8
0
100
AcDbLine
10
57.510733246675592
20
-0.20073324667445644
30
0
11
57.510733246675585
21
-0.14901732677619739
31
0
0
LINE
5
143
100
AcDbEntity
8
0
100
AcDbLine
10
57.510733246676573
20
3.7007332466745635
30
0
11
57.459017326778152
21
3.7007332466745591
31
0
0
LINE
5
144
100
AcDbEntity
8
0
100
AcDbLine
10
55.609266753326558
20
-0.14901732677625512
30
0
11
55.609266753326537
21
-0.20073324667465919
31
0
0
LINE
5
145
100
AcDbEntity
8
0
100
AcDbLine
10
54.970733246675593
20
-0.20073324667445644
30
0
11
54.970733246675593
21
-0.14901732677619739
31
0
0
LINE
5
146
100
AcDbEntity
8
0
100
AcDbLine
10
54.970733246676566
20
3.7007332466745635
30
0
11
54.91901732677816
21
3.7007332466745591
31
0
0
LINE
5
147
100
AcDbEntity
8
0
100
AcDbLine
10
53.069266753326559
20
-0.14901732677625512
30
0
11
53.069266753326538
21
-0.20073324667465919
31
0
0
LWPOLYLINE
5
148
100
AcDbEntity
8
0
100
AcDbPolyline
90
4
70
1
43
0.0
10
47.850000000000094
20
20.450000000000017
10
47.850000000000094
20
-2.4500000000000277
10
70.349999999999994
20
-2.4500000000000144
10
70.349999999999994
20
20.450000000000017
0
LINE
5
149
100
AcDbEntity
8
0
100
AcDbLine
10
65.130733246675589
20
-0.20073324667445644
30
0
11
65.130733246675589
21
-0.14901732677619739
31
0
0
LINE
5
150
100
AcDbEntity
8
0
100
AcDbLine
10
65.13073324667657
20
3.7007332466745635
30
0
11
65.079017326778157
21
3.7007332466745591
31
0
0
LWPOLYLINE
5
151
100
AcDbEntity
8
0
100
AcDbPolyline
90
20
70
1
43
0.0
10
60.050733246675591
20
14.350982673223804
10
60.050733246675577
20
14.299266753325545
10
59.999017326777313
20
14.29926675332554
42
-0.33061090539828136
10
59.700982673224985
20
14.29926675332551
10
58.499017326777278
20
14.29926675332538
42
-0.33061090539828136
10
58.200982673224942
20
14.29926675332535
10
58.149266753326543
20
14.299266753325341
10
58.149266753326565
20
14.350982673223742
42
-0.33061090539830751
10
58.149266753326636
20
14.649017326776088
10
58.149266753327488
20
17.850982673223751
42
-0.33061090539829369
10
58.149266753327566
20
18.149017326776086
10
58.149266753327581
20
18.200733246674346
10
58.200982673225838
20
18.20073324667435
42
-0.33061090539828136
10
58.499017326778159
20
18.200733246674389
10
59.70098267322583
20
18.200733246674524
42
-0.33061090539828136
10
59.999017326778159
20
18.200733246674559
10
60.050733246676565
20
18.200733246674567
10
60.05073324667655
20
18.149017326776161
42
-0.33061090539830551
10
60.050733246676479
20
17.850982673223818
10
60.050733246675662
20
14.649017326776148
42
-0.33061090539830551
0
LWPOLYLINE
5
152
100
AcDbEntity
8
0
100
AcDbPolyline
90
20
70
1
43
0.0
10
54.970733246675593
20
14.350982673223804
10
54.970733246675579
20
14.299266753325545
10
54.919017326777315
20
14.29926675332554
42
-0.33061090539828136
10
54.620982673224987
20
14.29926675332551
10
53.419017326777272
20
14.29926675332538
42
-0.33061090539828136
10
53.120982673224944
20
14.29926675332535
10
53.069266753326545
20
14.299266753325341
10
53.069266753326559
20
14.350982673223742
42
-0.33061090539830751
10
53.06926675332663
20
14.649017326776088
10
53.069266753327483
20
17.850982673223751
42
-0.33061090539829369
10
53.069266753327568
20
18.149017326776086
10
53.069266753327575
20
18.200733246674346
10
53.120982673225832
20
18.20073324667435
42
-0.33061090539828136
10
53.41901732677816
20
18.200733246674389
10
54.620982673225825
20
18.200733246674524
42
-0.33061090539828136
10
54.91901732677816
20
18.200733246674559
10
54.970733246676566
20
18.200733246674567
10
54.970733246676545
20
18.149017326776161
42
-0.33061090539830551
10
54.970733246676474
20
17.850982673223818
10
54.970733246675664
20
14.649017326776148
42
-0.33061090539830551
0
LWPOLYLINE
5
153
100
AcDbEntity
8
0
100
AcDbPolyline
90
20
70
1
43
0.0
10
57.510733246675585
20
14.350982673223804
10
57.510733246675585
20
14.299266753325545
10
57.459017326777314
20
14.29926675332554
42
-0.33061090539828136
10
57.160982673224993
20
14.29926675332551
10
55.959017326777278
20
14.29926675332538
42
-0.33061090539828136
10
55.66098267322495
20
14.29926675332535
10
55.609266753326537
20
14.299266753325341
10
55.609266753326558
20
14.350982673223751
42
-0.33061090539829369
10
55.609266753326636
20
14.649017326776086
10
55.609266753327503
20
17.850982673223747
42
-0.33061090539831134
10
55.609266753327574
20
18.149017326776086
10
55.609266753327582
20
18.200733246674346
10
55.660982673225831
20
18.200733246674361
42
-0.33061090539827698
10
55.959017326778167
20
18.200733246674389
10
57.160982673225831
20
18.200733246674517
42
-0.33061090539827787
10
57.459017326778152
20
18.200733246674559
10
57.510733246676573
20
18.200733246674567
10
57.510733246676551
20
18.149017326776164
42
-0.33061090539831728
10
57.510733246676473
20
17.850982673223818
10
57.510733246675663
20
14.64901732677615
42
-0.33061090539831728
0
LWPOLYLINE
5
154
100
AcDbEntity
8
0
100
AcDbPolyline
90
20
70
1
43
0.0
10
62.590733246675597
20
14.350982673223804
10
62.590733246675576
20
14.299266753325545
10
62.539017326777312
20
14.29926675332554
42
-0.33061090539828136
10
62.240982673224977
20
14.29926675332551
10
61.03901732677727
20
14.29926675332538
42
-0.33061090539828136
10
60.740982673224941
20
14.29926675332535
10
60.689266753326542
20
14.299266753325341
10
60.689266753326557
20
14.350982673223742
42
-0.33061090539832128
10
60.689266753326635
20
14.649017326776097
10
60.68926675332748
20
17.850982673223751
42
-0.33061090539828386
10
60.689266753327558
20
18.149017326776086
10
60.68926675332758
20
18.200733246674346
10
60.740982673225837
20
18.200733246674343
42
-0.33061090539827787
10
61.039017326778158
20
18.200733246674389
10
62.240982673225822
20
18.200733246674531
42
-0.33061090539827698
10
62.539017326778165
20
18.200733246674559
10
62.590733246676564
20
18.200733246674567
10
62.59073324667655
20
18.149017326776157
42
-0.33061090539828775
10
62.590733246676479
20
17.850982673223818
10
62.590733246675669
20
14.649017326776143
42
-0.33061090539828775
0
LWPOLYLINE
5
155
100
AcDbEntity
8
0
100
AcDbPolyline
90
4
70
1
43
0.0
10
-3.0000000000000071
20
42.999999999999986
10
-3.0000000000000071
20
-3.0000000000000027
10
103
20
-2.9999999999999982
10
103
20
43
0
LINE
5
156
100
AcDbEntity
8
0
100
AcDbLine
10
70.349999999999994
20
2.2762180826723865e-31
30
0
11
100
21
0
31
0
0
ARC
5
157
100
AcDbEntity
8
0
100
AcDbCircle
10
63.430000000001094
20
-1.354472090042691e-13
30
0
40
0.25000000000000133
100
AcDbArc
50
143.41110182687947
51
216.58889817309233
0
ARC
5
158
100
AcDbEntity
8
0
100
AcDbCircle
10
62.390000000001123
20
2.4424906541753444e-14
30
0
40
0.25000000000000017
100
AcDbArc
50
233.41110182690099
51
306.58889817311046
0
ARC
5
159
100
AcDbEntity
8
0
100
AcDbCircle
10
62.390000000002019
20
3.5000000000000386
30
0
40
0.2499999999999987
100
AcDbArc
50
-36.588898173120725
51
36.58889817309101
0
LINE
5
160
100
AcDbEntity
8
0
100
AcDbLine
10
62.59073324667655
20
3.6490173267761543
30
0
11
62.590733246676564
21
3.7007332466745635
31
0
0
ARC
5
161
100
AcDbEntity
8
0
100
AcDbCircle
10
62.390000000002019
20
3.5000000000000386
30
0
40
0.25000000000000527
100
AcDbArc
50
53.411101826901884
51
126.58889817311039
0
LINE
5
162
100
AcDbEntity
8
0
100
AcDbLine
10
62.24098267322583
20
3.7007332466745266
30
0
11
61.039017326778158
21
3.7007332466743859
31
0
0
ARC
5
163
100
AcDbEntity
8
0
100
AcDbCircle
10
60.890000000002033
20
3.4999999999998654
30
0
40
0.2499999999999947
100
AcDbArc
50
53.411101826905814
51
126.58889817311326
0
LINE
5
164
100
AcDbEntity
8
0
100
AcDbLine
10
60.740982673225837
20
3.7007332466743419
30
0
11
60.689266753327573
21
3.7007332466743441
31
0
0
ARC
5
165
100
AcDbEntity
8
0
100
AcDbCircle
10
60.890000000002033
20
3.4999999999998654
30
0
40
0.2499999999999977
100
AcDbArc
50
143.41110182688061
51
216.58889817308824
0
LINE
5
166
100
AcDbEntity
8
0
100
AcDbLine
10
60.689266753327487
20
3.3509826732237542
30
0
11
60.689266753326635
21
0.14901732677609081
31
0
0
ARC
5
167
100
AcDbEntity
8
0
100
AcDbCircle
10
60.890000000001088
20
-1.354472090042691e-13
30
0
40
0.24999999999999584
100
AcDbArc
50
143.41110182687797
51
216.58889817309259
0
ARC
5
168
100
AcDbEntity
8
0
100
AcDbCircle
10
59.850000000001131
20
2.4424906541753444e-14
30
0
40
0.25000000000000017
100
AcDbArc
50
233.41110182690099
51
306.58889817310921
0
ARC
5
169
100
AcDbEntity
8
0
100
AcDbCircle
10
59.850000000002019
20
3.5000000000000386
30
0
40
0.25000000000000033
100
AcDbArc
50
-36.58889817312027
51
36.588898173092161
0
LINE
5
170
100
AcDbEntity
8
0
100
AcDbLine
10
60.05073324667655
20
3.6490173267761605
30
0
11
60.050733246676565
21
3.7007332466745635
31
0
0
ARC
5
171
100
AcDbEntity
8
0
100
AcDbCircle
10
59.850000000002019
20
3.5000000000000386
30
0
40
0.24999999999999997
100
AcDbArc
50
53.411101826903199
51
126.58889817311119
0
LINE
5
172
100
AcDbEntity
8
0
100
AcDbLine
10
59.70098267322583
20
3.7007332466745209
30
0
11
58.499017326778159
21
3.7007332466743859
31
0
0
ARC
5
173
100
AcDbEntity
8
0
100
AcDbCircle
10
58.350000000002026
20
3.4999999999998654
30
0
40
0.24999999999999997
100
AcDbArc
50
53.411101826904499
51
126.58889817311119
0
LINE
5
174
100
AcDbEntity
8
0
100
AcDbLine
10
58.200982673225838
20
3.7007332466743477
30
0
11
58.149266753327574
21
3.7007332466743441
31
0
0
ARC
5
175
100
AcDbEntity
8
0
100
AcDbCircle
10
58.350000000002026
20
3.4999999999998654
30
0
40
0.24999999999999969
100
AcDbArc
50
143.41110182688001
51
216.58889817309029
0
LINE
5
176
100
AcDbEntity
8
0
100
AcDbLine
10
58.149266753327488
20
3.3509826732237484
30
0
11
58.149266753326636
21
0.14901732677609081
31
0
0
ARC
5
177
100
AcDbEntity
8
0
100
AcDbCircle
10
58.350000000001089
20
-1.354472090042691e-13
30
0
40
0.250000000000003
100
AcDbArc
50
143.41110182687797
51
216.58889817309333
0
ARC
5
178
100
AcDbEntity
8
0
100
AcDbCircle
10
57.310000000001139
20
2.4424906541753444e-14
30
0
40
0.25000000000000017
100
AcDbArc
50
233.41110182690099
51
306.58889817310791
0
ARC
5
179
100
AcDbEntity
8
0
100
AcDbCircle
10
57.31000000000202
20
3.5000000000000386
30
0
40
0.25000000000000167
100
AcDbArc
50
-36.588898173120675
51
36.588898173093291
0
LINE
5
180
100
AcDbEntity
8
0
100
AcDbLine
10
57.510733246676551
20
3.6490173267761667
30
0
11
57.510733246676573
21
3.7007332466745635
31
0
0
ARC
5
181
100
AcDbEntity
8
0
100
AcDbCircle
10
57.31000000000202
20
3.5000000000000386
30
0
40
0.2499999999999947
100
AcDbArc
50
53.411101826904499
51
126.58889817311197
0
LINE
5
182
100
AcDbEntity
8
0
100
AcDbLine
10
57.160982673225831
20
3.7007332466745151
30
0
11
55.959017326778167
21
3.7007332466743859
31
0
0
ARC
5
183
100
AcDbEntity
8
0
100
AcDbCircle
10
55.81000000000202
20
3.4999999999998654
30
0
40
0.25000000000000527
100
AcDbArc
50
53.411101826901884
51
126.58889817310907
0
LINE
5
184
100
AcDbEntity
8
0
100
AcDbLine
10
55.660982673225838
20
3.7007332466743534
30
0
11
55.609266753327582
21
3.7007332466743441
31
0
0
ARC
5
185
100
AcDbEntity
8
0
100
AcDbCircle
10
55.81000000000202
20
3.4999999999998654
30
0
40
0.25000000000000133
100
AcDbArc
50
143.41110182687942
51
216.58889817309222
0
LINE
5
186
100
AcDbEntity
8
0
100
AcDbLine
10
55.609266753327489
20
3.3509826732237431
30
0
11
55.609266753326629
21
0.14901732677609081
31
0
0
ARC
5
187
100
AcDbEntity
8
0
100
AcDbCircle
10
55.810000000001097
20
-1.354472090042691e-13
30
0
40
0.25000000000001016
100
AcDbArc
50
143.41110182687993
51
216.58889817309031
0
ARC
5
188
100
AcDbEntity
8
0
100
AcDbCircle
10
54.770000000001133
20
2.4424906541753444e-14
30
0
40
0.25000000000000017
100
AcDbArc
50
233.41110182690099
51
306.58889817310921
0
ARC
5
189
100
AcDbEntity
8
0
100
AcDbCircle
10
54.770000000002021
20
3.5000000000000386
30
0
40
0.25000000000000033
100
AcDbArc
50
-36.588898173121237
51
36.588898173093121
0
LINE
5
190
100
AcDbEntity
8
0
100
AcDbLine
10
54.970733246676545
20
3.6490173267761605
30
0
11
54.970733246676566
21
3.7007332466745635
31
0
0
ARC
5
191
100
AcDbEntity
8
0
100
AcDbCircle
10
54.770000000002021
20
3.5000000000000386
30
0
40
0.24999999999999997
100
AcDbArc
50
53.411101826903199
51
126.5888981731125
0
LINE
5
192
100
AcDbEntity
8
0
100
AcDbLine
10
54.620982673225825
20
3.7007332466745209
30
0
11
53.41901732677816
21
3.7007332466743859
31
0
0
ARC
5
193
100
AcDbEntity
8
0
100
AcDbCircle
10
53.270000000002028
20
3.4999999999998654
30
0
40
0.24999999999999997
100
AcDbArc
50
53.411101826904499
51
126.5888981731125
0
LINE
5
194
100
AcDbEntity
8
0
100
AcDbLine
10
53.120982673225832
20
3.7007332466743477
30
0
11
53.069266753327568
21
3.7007332466743441
31
0
0
ARC
5
195
100
AcDbEntity
8
0
100
AcDbCircle
10
53.270000000002028
20
3.4999999999998654
30
0
40
0.24999999999999969
100
AcDbArc
50
143.41110182688001
51
216.58889817308935
0
LINE
5
196
100
AcDbEntity
8
0
100
AcDbLine
10
53.069266753327483
20
3.3509826732237484
30
0
11
53.06926675332663
21
0.14901732677609081
31
0
0
ARC
5
197
100
AcDbEntity
8
0
100
AcDbCircle
10
53.27000000000109
20
-1.354472090042691e-13
30
0
40
0.250000000000003
100
AcDbArc
50
143.41110182687893
51
216.58889817309233
0
ARC
5
198
100
AcDbEntity
8
0
100
AcDbCircle
10
64.930000000001129
20
2.4424906541753444e-14
30
0
40
0.25000000000000017
100
AcDbArc
50
233.41110182690099
51
306.58889817311046
0
ARC
5
199
100
AcDbEntity
8
0
100
AcDbCircle
10
64.930000000002025
20
3.5000000000000386
30
0
40
0.25000000000000033
100
AcDbArc
50
-36.58889817312221
51
36.588898173092161
0
LINE
5
200
100
AcDbEntity
8
0
100
AcDbLine
10
65.130733246676556
20
3.6490173267761605
30
0
11
65.13073324667657
21
3.7007332466745635
31
0
0
ARC
5
201
100
AcDbEntity
8
0
100
AcDbCircle
10
64.930000000002025
20
3.5000000000000386
30
0
40
0.24999999999999997
100
AcDbArc
50
53.411101826904499
51
126.58889817311382
0
LINE
5
202
100
AcDbEntity
8
0
100
AcDbLine
10
64.780982673225822
20
3.7007332466745209
30
0
11
63.579017326778164
21
3.7007332466743859
31
0
0
ARC
5
203
100
AcDbEntity
8
0
100
AcDbCircle
10
63.430000000002025
20
3.4999999999998654
30
0
40
0.24999999999999997
100
AcDbArc
50
53.411101826903199
51
126.58889817311119
0
LINE
5
204
100
AcDbEntity
8
0
100
AcDbLine
10
63.280982673225836
20
3.7007332466743477
30
0
11
63.229266753327565
21
3.7007332466743441
31
0
0
ARC
5
205
100
AcDbEntity
8
0
100
AcDbCircle
10
63.430000000002025
20
3.4999999999998654
30
0
40
0.24999999999999969
100
AcDbArc
50
143.41110182688001
51
216.58889817309029
0
LINE
5
206
100
AcDbEntity
8
0
100
AcDbLine
10
63.229266753327487
20
3.3509826732237484
30
0
11
63.229266753326634
21
0.149017326776088
31
0
0
LINE
5
207
100
AcDbEntity
8
0
100
AcDbLine
10
63.229266753326534
20
-0.20073324667465919
30
0
11
63.280982673224948
21
-0.20073324667465142
31
0
0
ARC
5
208
100
AcDbEntity
8
0
100
AcDbCircle
10
63.430000000001094
20
-1.354472090042691e-13
30
0
40
0.25000000000000172
100
AcDbArc
50
233.41110182690133
51
306.58889817310921
0
LINE
5
209
100
AcDbEntity
8
0
100
AcDbLine
10
63.579017326777276
20
-0.20073324667462256
30
0
11
64.780982673224983
21
-0.20073324667448963
31
0
0
LINE
5
210
100
AcDbEntity
8
0
100
AcDbLine
10
65.079017326777318
20
-0.20073324667446268
30
0
11
65.130733246675589
21
-0.20073324667445644
31
0
0
ARC
5
211
100
AcDbEntity
8
0
100
AcDbCircle
10
64.930000000001129
20
2.4424906541753444e-14
30
0
40
0.25000000000000033
100
AcDbArc
50
-36.58889817312027
51
36.588898173092133
0
LINE
5
212
100
AcDbEntity
8
0
100
AcDbLine
10
65.130733246675661
20
0.14901732677614618
30
0
11
65.130733246676471
21
3.3509826732238168
31
0
0
LINE
5
213
100
AcDbEntity
8
0
100
AcDbLine
10
63.229266753327565
20
3.7007332466743441
30
0
11
63.229266753327565
21
3.6490173267760859
31
0
0
LINE
5
214
100
AcDbEntity
8
0
100
AcDbLine
10
60.689266753326542
20
-0.20073324667465919
30
0
11
60.740982673224941
21
-0.20073324667465142
31
0
0
ARC
5
215
100
AcDbEntity
8
0
100
AcDbCircle
10
60.890000000001088
20
-1.354472090042691e-13
30
0
40
0.25000000000000172
100
AcDbArc
50
233.41110182690133
51
306.58889817310921
0
LINE
5
216
100
AcDbEntity
8
0
100
AcDbLine
10
61.03901732677727
20
-0.20073324667462256
30
0
11
62.240982673224977
21
-0.20073324667448963
31
0
0
LINE
5
217
100
AcDbEntity
8
0
100
AcDbLine
10
62.539017326777312
20
-0.20073324667446268
30
0
11
62.590733246675583
21
-0.20073324667445644
31
0
0
ARC
5
218
100
AcDbEntity
8
0
100
AcDbCircle
10
62.390000000001123
20
2.4424906541753444e-14
30
0
40
0.25000000000000749
100
AcDbArc
50
-36.588898173118338
51
36.588898173089156
0
LINE
5
219
100
AcDbEntity
8
0
100
AcDbLine
10
62.590733246675669
20
0.14901732677614052
30
0
11
62.590733246676471
21
3.3509826732238195
31
0
0
LINE
5
220
100
AcDbEntity
8
0
100
AcDbLine
10
60.689266753327573
20
3.7007332466743441
30
0
11
60.689266753327573
21
3.6490173267760828
31
0
0
LINE
5
221
100
AcDbEntity
8
0
100
AcDbLine
10
58.149266753326536
20
-0.20073324667465919
30
0
11
58.200982673224942
21
-0.20073324667465142
31
0
0
ARC
5
222
100
AcDbEntity
8
0
100
AcDbCircle
10
58.350000000001089
20
-1.354472090042691e-13
30
0
40
0.25000000000000172
100
AcDbArc
50
233.41110182690133
51
306.58889817311046
0
LINE
5
223
100
AcDbEntity
8
0
100
AcDbLine
10
58.499017326777278
20
-0.20073324667462256
30
0
11
59.700982673224985
21
-0.20073324667448963
31
0
0
LINE
5
224
100
AcDbEntity
8
0
100
AcDbLine
10
59.999017326777313
20
-0.20073324667446268
30
0
11
60.050733246675591
21
-0.20073324667445644
31
0
0
ARC
5
225
100
AcDbEntity
8
0
100
AcDbCircle
10
59.850000000001131
20
2.4424906541753444e-14
30
0
40
0.25000000000000033
100
AcDbArc
50
-36.58889817312027
51
36.588898173092133
0
LINE
5
226
100
AcDbEntity
8
0
100
AcDbLine
10
60.050733246675662
20
0.14901732677614618
30
0
11
60.050733246676479
21
3.3509826732238168
31
0
0
LINE
5
227
100
AcDbEntity
8
0
100
AcDbLine
10
58.149266753327574
20
3.7007332466743441
30
0
11
58.149266753327566
21
3.6490173267760859
31
0
0
LINE
5
228
100
AcDbEntity
8
0
100
AcDbLine
10
55.609266753326537
20
-0.20073324667465919
30
0
11
55.66098267322495
21
-0.20073324667465142
31
0
0
ARC
5
229
100
AcDbEntity
8
0
100
AcDbCircle
10
55.810000000001097
20
-1.354472090042691e-13
30
0
40
0.25000000000000172
100
AcDbArc
50
233.41110182690133
51
306.58889817310921
0
LINE
5
230
100
AcDbEntity
8
0
100
AcDbLine
10
55.959017326777278
20
-0.20073324667462256
30
0
11
57.160982673224993
21
-0.20073324667448963
31
0
0
LINE
5
231
100
AcDbEntity
8
0
100
AcDbLine
10
57.459017326777314
20
-0.20073324667446268
30
0
11
57.510733246675592
21
-0.20073324667445644
31
0
0
ARC
5
232
100
AcDbEntity
8
0
100
AcDbCircle
10
57.310000000001139
20
2.4424906541753444e-14
30
0
40
0.24999999999999323
100
AcDbArc
50
-36.58889817312221
51
36.588898173094186
0
LINE
5
233
100
AcDbEntity
8
0
100
AcDbLine
10
57.510733246675663
20
0.14901732677615212
30
0
11
57.51073324667648
21
3.3509826732238146
31
0
0
LINE
5
234
100
AcDbEntity
8
0
100
AcDbLine
10
55.609266753327582
20
3.7007332466743441
30
0
11
55.60926675332756
21
3.649017326776089
31
0
0
LINE
5
235
100
AcDbEntity
8
0
100
AcDbLine
10
53.069266753326538
20
-0.20073324667465919
30
0
11
53.120982673224944
21
-0.20073324667465142
31
0
0
ARC
5
236
100
AcDbEntity
8
0
100
AcDbCircle
10
53.27000000000109
20
-1.354472090042691e-13
30
0
40
0.25000000000000172
100
AcDbArc
50
233.41110182690133
51
306.58889817310921
0
LINE
5
237
100
AcDbEntity
8
0
100
AcDbLine
10
53.419017326777272
20
-0.20073324667462256
30
0
11
54.620982673224987
21
-0.20073324667448963
31
0
0
LINE
5
238
100
AcDbEntity
8
0
100
AcDbLine
10
54.919017326777315
20
-0.20073324667446268
30
0
11
54.970733246675593
21
-0.20073324667445644
31
0
0
ARC
5
239
100
AcDbEntity
8
0
100
AcDbCircle
10
54.770000000001133
20
2.4424906541753444e-14
30
0
40
0.25000000000000033
100
AcDbArc
50
-36.58889817312027
51
36.588898173092133
0
LINE
5
240
100
AcDbEntity
8
0
100
AcDbLine
10
54.970733246675664
20
0.14901732677614618
30
0
11
54.970733246676474
21
3.3509826732238168
31
0
0
LINE
5
241
100
AcDbEntity
8
0
100
AcDbLine
10
53.069266753327568
20
3.7007332466743441
30
0
11
53.069266753327568
21
3.6490173267760859
31
0
0
LINE
5
242
100
AcDbEntity
8
0
100
AcDbLine
10
47.850000000000094
20
-2.4500000000000255
30
0
11
70.349999999999994
21
-2.4500000000000126
31
0
0
LINE
5
243
100
AcDbEntity
8
0
100
AcDbLine
10
70.349999999999994
20
-2.4500000000000126
30
0
11
70.349999999999994
21
0
31
0
0
LINE
5
244
100
AcDbEntity
8
0
100
AcDbLine
10
47.850000000000094
20
1.5482165636940142e-31
30
0
11
47.850000000000094
21
-2.4500000000000255
31
0
0
LWPOLYLINE
5
245
100
AcDbEntity
8
0
100
AcDbPolyline
90
8
70
1
43
0.0
10
2.1000000000000223
20
13.249999999999961
42
-2.4142135623730918
10
1.8500000000000227
20
13.499999999999961
10
1.850000000000023
20
16.499999999999972
42
-2.4142135623730918
10
2.1000000000000227
20
16.749999999999972
10
6.9000000000000172
20
16.749999999999972
42
-2.4142135623730949
10
7.1500000000000163
20
16.499999999999972
10
7.1500000000000163
20
13.49999999999997
42
-2.4142135623730949
10
6.9000000000000163
20
13.249999999999972
0
LWPOLYLINE
5
246
100
AcDbEntity
8
0
100
AcDbPolyline
90
8
70
1
43
0.0
10
21.100000000000026
20
23.749999999999964
42
-2.4142135623730949
10
20.850000000000026
20
23.999999999999964
10
20.850000000000026
20
26.999999999999972
42
-2.4142135623730949
10
21.100000000000026
20
27.249999999999972
10
25.90000000000002
20
27.249999999999972
42
-2.4142135623730949
10
26.15000000000002
20
26.999999999999972
10
26.15000000000002
20
23.999999999999972
42
-2.4142135623730949
10
25.90000000000002
20
23.749999999999972
0
LWPOLYLINE
5
247
100
AcDbEntity
8
0
100
AcDbPolyline
90
8
70
1
43
0.0
10
2.1000000000000281
20
23.749999999999964
42
-2.4142135623731131
10
1.8500000000000227
20
23.999999999999964
10
1.8500000000000227
20
26.999999999999975
42
-2.4142135623731131
10
2.1000000000000227
20
27.249999999999972
10
6.9000000000000119
20
27.249999999999972
42
-2.4142135623731176
10
7.1500000000000163
20
26.999999999999972
10
7.1500000000000163
20
23.999999999999968
42
-2.4142135623731176
10
6.9000000000000163
20
23.749999999999972
0
LWPOLYLINE
5
248
100
AcDbEntity
8
0
100
AcDbPolyline
90
8
70
1
43
0.0
10
21.100000000000026
20
34.249999999999964
42
-2.4142135623730949
10
20.850000000000026
20
34.499999999999964
10
20.850000000000026
20
37.499999999999964
42
-2.4142135623730949
10
21.100000000000026
20
37.749999999999972
10
25.900000000000031
20
37.749999999999972
42
-2.4142135623730949
10
26.15000000000002
20
37.499999999999972
10
26.15000000000002
20
34.499999999999972
42
-2.4142135623730949
10
25.90000000000002
20
34.249999999999972
0
LWPOLYLINE
5
249
100
AcDbEntity
8
0
100
AcDbPolyline
90
8
70
1
43
0.0
10
2.1000000000000281
20
34.249999999999964
42
-2.4142135623731131
10
1.8500000000000227
20
34.499999999999964
10
1.8500000000000227
20
37.499999999999972
42
-2.4142135623730976
10
2.1000000000000227
20
37.749999999999972
10
6.9000000000000226
20
37.749999999999972
42
-2.4142135623730718
10
7.1500000000000163
20
37.499999999999972
10
7.1500000000000163
20
34.499999999999964
42
-2.4142135623731176
10
6.9000000000000163
20
34.249999999999972
0
LWPOLYLINE
5
250
100
AcDbEntity
8
0
100
AcDbPolyline
90
8
70
1
43
0.0
10
49.499999999999986
20
25.400000000000031
42
-2.4142135623730643
10
49.75
20
25.150000000000034
10
49.75
20
24.149999999999974
42
-2.4142135623730643
10
49.499999999999993
20
23.899999999999984
10
46.500000000000014
20
23.899999999999984
42
-2.4142135623730643
10
46.25
20
24.149999999999984
10
46.25
20
25.150000000000041
42
-2.4142135623730949
10
46.5
20
25.400000000000027
0
LWPOLYLINE
5
251
100
AcDbEntity
8
0
100
AcDbPolyline
90
8
70
1
43
0.0
10
49.499999999999972
20
27.940000000000033
42
-2.4142135623730949
10
49.75
20
27.690000000000033
10
49.75
20
26.689999999999969
42
-2.4142135623730949
10
49.499999999999993
20
26.439999999999984
10
46.500000000000021
20
26.439999999999984
42
-2.4142135623730949
10
46.25
20
26.689999999999984
10
46.25
20
27.690000000000037
42
-2.4142135623730643
10
46.5
20
27.940000000000026
0
LWPOLYLINE
5
252
100
AcDbEntity
8
0
100
AcDbPolyline
90
8
70
1
43
0.0
10
49.499999999999986
20
30.480000000000032
42
-2.4142135623730643
10
49.75
20
30.230000000000032
10
49.75
20
29.229999999999976
42
-2.4142135623730643
10
49.499999999999993
20
28.979999999999983
10
46.500000000000014
20
28.979999999999983
42
-2.4142135623730643
10
46.25
20
29.229999999999983
10
46.25
20
30.23000000000004
42
-2.4142135623730949
10
46.5
20
30.480000000000025
0
LWPOLYLINE
5
253
100
AcDbEntity
8
0
100
AcDbPolyline
90
8
70
1
43
0.0
10
49.499999999999986
20
35.560000000000031
42
-2.4142135623730643
10
49.75
20
35.310000000000031
10
49.75
20
34.309999999999974
42
-2.4142135623730643
10
49.499999999999993
20
34.059999999999981
10
46.500000000000014
20
34.059999999999981
42
-2.4142135623730643
10
46.25
20
34.309999999999981
10
46.25
20
35.310000000000045
42
-2.4142135623730949
10
46.5
20
35.560000000000031
0
LWPOLYLINE
5
254
100
AcDbEntity
8
0
100
AcDbPolyline
90
8
70
1
43
0.0
10
49.499999999999972
20
38.10000000000003
42
-2.4142135623730949
10
49.75
20
37.85000000000003
10
49.75
20
36.849999999999966
42
-2.4142135623730949
10
49.499999999999993
20
36.59999999999998
10
46.500000000000021
20
36.59999999999998
42
-2.4142135623730949
10
46.25
20
36.84999999999998
10
46.25
20
37.850000000000037
42
-2.4142135623730643
10
46.5
20
38.10000000000003
0
LWPOLYLINE
5
255
100
AcDbEntity
8
0
100
AcDbPolyline
90
8
70
1
43
0.0
10
49.499999999999972
20
33.020000000000032
42
-2.4142135623730949
10
49.75
20
32.770000000000032
10
49.75
20
31.769999999999968
42
-2.4142135623730949
10
49.499999999999993
20
31.519999999999982
10
46.500000000000021
20
31.519999999999982
42
-2.4142135623730949
10
46.25
20
31.769999999999982
10
46.25
20
32.770000000000039
42
-2.4142135623730643
10
46.5
20
33.020000000000024
0
LWPOLYLINE
5
256
100
AcDbEntity
8
0
100
AcDbPolyline
90
8
70
1
43
0.0
10
19.5
20
3.4000000000000297
42
-2.4142135623730918
10
19.75
20
3.1500000000000297
10
19.75
20
2.1499999999999813
42
-2.4142135623730918
10
19.5
20
1.8999999999999817
10
16.5
20
1.8999999999999819
42
-2.4142135623730918
10
16.25
20
2.1499999999999817
10
16.25
20
3.1500000000000257
42
-2.4142135623730918
10
16.5
20
3.4000000000000252
0
LWPOLYLINE
5
257
100
AcDbEntity
8
0
100
AcDbPolyline
90
8
70
1
43
0.0
10
19.5
20
5.9400000000000297
42
-2.4142135623730949
10
19.75
20
5.6900000000000297
10
19.75
20
4.6899999999999817
42
-2.4142135623730918
10
19.5
20
4.4399999999999817
10
16.5
20
4.4399999999999817
42
-2.4142135623730918
10
16.25
20
4.6899999999999817
10
16.25
20
5.6900000000000261
42
-2.4142135623730949
10
16.5
20
5.9400000000000253
0
LWPOLYLINE
5
258
100
AcDbEntity
8
0
100
AcDbPolyline
90
8
70
1
43
0.0
10
19.5
20
8.4800000000000288
42
-2.4142135623730949
10
19.75
20
8.2300000000000288
10
19.75
20
7.2299999999999809
42
-2.4142135623730949
10
19.5
20
6.9799999999999818
10
16.5
20
6.9799999999999818
42
-2.4142135623730949
10
16.25
20
7.2299999999999818
10
16.25
20
8.2300000000000253
42
-2.4142135623730949
10
16.5
20
8.4800000000000253
0
LWPOLYLINE
5
259
100
AcDbEntity
8
0
100
AcDbPolyline
90
8
70
1
43
0.0
10
19.5
20
13.560000000000031
42
-2.4142135623730949
10
19.75
20
13.310000000000031
10
19.75
20
12.309999999999981
42
-2.4142135623730949
10
19.5
20
12.059999999999981
10
16.5
20
12.059999999999981
42
-2.4142135623730949
10
16.25
20
12.309999999999981
10
16.25
20
13.310000000000027
42
-2.4142135623730949
10
16.5
20
13.560000000000025
0
LWPOLYLINE
5
260
100
AcDbEntity
8
0
100
AcDbPolyline
90
8
70
1
43
0.0
10
19.5
20
16.10000000000003
42
-2.4142135623730949
10
19.75
20
15.85000000000003
10
19.75
20
14.84999999999998
42
-2.4142135623730949
10
19.5
20
14.599999999999982
10
16.5
20
14.599999999999982
42
-2.4142135623730949
10
16.25
20
14.84999999999998
10
16.25
20
15.850000000000026
42
-2.4142135623730949
10
16.5
20
16.100000000000026
0
LWPOLYLINE
5
261
100
AcDbEntity
8
0
100
AcDbPolyline
90
8
70
1
43
0.0
10
19.5
20
11.02000000000003
42
-2.4142135623730949
10
19.75
20
10.770000000000032
10
19.75
20
9.7699999999999818
42
-2.4142135623730949
10
19.5
20
9.5199999999999818
10
16.5
20
9.5199999999999818
42
-2.4142135623730949
10
16.25
20
9.7699999999999818
10
16.25
20
10.770000000000026
42
-2.4142135623730949
10
16.5
20
11.020000000000024
0
LWPOLYLINE
5
262
100
AcDbEntity
8
0
100
AcDbPolyline
90
8
70
1
43
0.0
10
45.25
20
39.999999999999993
10
39.949999999999996
20
39.999999999999993
10
39.949999999999996
20
34.849999999999973
10
38.349999999999994
20
34.849999999999973
10
38.349999999999994
20
27.14999999999997
10
39.949999999999996
20
27.14999999999997
10
39.949999999999996
20
21.999999999999989
10
45.25
20
21.999999999999989
0
LWPOLYLINE
5
263
100
AcDbEntity
8
0
100
AcDbPolyline
90
8
70
1
43
0.0
10
8.3499999999999943
20
12.849999999999969
10
8.3499999999999943
20
5.1499999999999702
10
9.9499999999999957
20
5.1499999999999702
10
9.9499999999999957
20
-1.3916109553327828e-14
10
15.25
20
-1.3322676295501878e-14
10
15.25
20
17.999999999999986
10
9.9499999999999957
20
17.999999999999986
10
9.9499999999999957
20
12.849999999999969
0
LWPOLYLINE
5
264
100
AcDbEntity
8
0
100
AcDbPolyline
90
8
70
1
43
0.0
10
23.349999999999994
20
12.849999999999969
10
23.349999999999994
20
5.1499999999999702
10
24.949999999999996
20
5.1499999999999702
10
24.949999999999996
20
-1.3916109553327828e-14
10
30.25
20
-1.3322676295501878e-14
10
30.25
20
17.999999999999986
10
24.949999999999996
20
17.999999999999986
10
24.949999999999996
20
12.849999999999969
0
LWPOLYLINE
5
265
100
AcDbEntity
8
0
100
AcDbPolyline
90
8
70
1
43
0.0
10
11.600000000000019
20
34.249999999999964
42
-2.4142135623731251
10
11.350000000000016
20
34.499999999999964
10
11.350000000000016
20
37.499999999999964
42
-2.4142135623730798
10
11.600000000000016
20
37.749999999999972
10
16.400000000000016
20
37.749999999999972
42
-2.4142135623730798
10
16.650000000000009
20
37.499999999999972
10
16.650000000000009
20
34.499999999999964
42
-2.4142135623731251
10
16.400000000000009
20
34.249999999999972
0
LWPOLYLINE
5
266
100
AcDbEntity
8
0
100
AcDbPolyline
90
8
70
1
43
0.0
10
30.600000000000019
20
34.249999999999964
42
-2.4142135623730949
10
30.350000000000019
20
34.499999999999964
10
30.350000000000019
20
37.499999999999964
42
-2.4142135623730949
10
30.600000000000019
20
37.749999999999972
10
35.40000000000002
20
37.749999999999972
42
-2.4142135623730949
10
35.650000000000013
20
37.499999999999972
10
35.650000000000013
20
34.499999999999972
42
-2.4142135623730949
10
35.400000000000013
20
34.249999999999972
0
LWPOLYLINE
5
267
100
AcDbEntity
8
0
100
AcDbPolyline
90
8
70
1
43
0.0
10
11.600000000000019
20
23.749999999999964
42
-2.4142135623731251
10
11.350000000000016
20
23.999999999999964
10
11.350000000000016
20
26.999999999999975
42
-2.4142135623731251
10
11.600000000000016
20
27.249999999999972
10
16.400000000000006
20
27.249999999999972
42
-2.4142135623731251
10
16.650000000000009
20
26.999999999999972
10
16.650000000000009
20
23.999999999999968
42
-2.4142135623731251
10
16.400000000000009
20
23.749999999999972
0
LWPOLYLINE
5
268
100
AcDbEntity
8
0
100
AcDbPolyline
90
8
70
1
43
0.0
10
30.600000000000019
20
23.749999999999964
42
-2.4142135623730949
10
30.350000000000019
20
23.999999999999964
10
30.350000000000019
20
26.999999999999972
42
-2.4142135623730949
10
30.600000000000019
20
27.249999999999972
10
35.400000000000013
20
27.249999999999972
42
-2.4142135623730949
10
35.650000000000013
20
26.999999999999972
10
35.650000000000013
20
23.999999999999972
42
-2.4142135623730949
10
35.400000000000013
20
23.749999999999972
0
LWPOLYLINE
5
269
100
AcDbEntity
8
0
100
AcDbPolyline
90
8
70
1
43
0.0
10
2.1000000000000223
20
2.7499999999999591
42
-2.4142135623730963
10
1.8500000000000227
20
2.9999999999999591
10
1.8500000000000227
20
5.9999999999999689
42
-2.4142135623730949
10
2.1000000000000227
20
6.2499999999999689
10
6.9000000000000163
20
6.2499999999999689
42
-2.4142135623730949
10
7.1500000000000163
20
5.9999999999999689
10
7.1500000000000163
20
2.999999999999968
42
-2.4142135623730949
10
6.9000000000000163
20
2.749999999999968
0
LINE
5
270
100
AcDbEntity
8
0
100
AcDbLine
10
100
20
0
30
0
11
100
21
40
31
0
0
LINE
5
271
100
AcDbEntity
8
0
100
AcDbLine
10
100
20
40
30
0
11
0
21
40
31
0
0
LINE
5
272
100
AcDbEntity
8
0
100
AcDbLine
10
6.1629758220391547e-32
20
40
30
0
11
0
21
0
31
0
0
LINE
5
273
100
AcDbEntity
8
0
100
AcDbLine
10
0
20
0
30
0
11
47.850000000000094
21
1.5482165636940142e-31
31
0
0
ENDSEC
0
SECTION
2
OBJECTS
0
DICTIONARY
5
C
100
AcDbDictionary
3
ACAD_GROUP
350
D
3
ACAD_MLINESTYLE
350
17
0
DICTIONARY
5
D
100
AcDbDictionary
0
DICTIONARY
5
1A
330
C
100
AcDbDictionary
0
DICTIONARY
5
17
100
AcDbDictionary
0
ENDSEC
0
EOF
